<svg xmlns="http://www.w3.org/2000/svg" xmlns:xlink="http://www.w3.org/1999/xlink" width="600" height="400" viewBox="0 0 2400 1600">
<defs>
  <clipPath id="clip070">
    <rect x="0" y="0" width="2400" height="1600"></rect>
  </clipPath>
</defs>
<path clip-path="url(#clip070)" d="M0 1600 L2400 1600 L2400 8.88178e-14 L0 8.88178e-14  Z" fill="#ffffff" fill-rule="evenodd" fill-opacity="1"></path>
<defs>
  <clipPath id="clip071">
    <rect x="480" y="0" width="1681" height="1600"></rect>
  </clipPath>
</defs>
<path clip-path="url(#clip070)" d="M219.195 1423.18 L2352.76 1423.18 L2352.76 47.2441 L219.195 47.2441  Z" fill="#ffffff" fill-rule="evenodd" fill-opacity="1"></path>
<defs>
  <clipPath id="clip072">
    <rect x="219" y="47" width="2135" height="1377"></rect>
  </clipPath>
</defs>
<polyline clip-path="url(#clip072)" style="stroke:#000000; stroke-linecap:round; stroke-linejoin:round; stroke-width:2; stroke-opacity:0.1; fill:none" points="418.392,1423.18 418.392,47.2441 "></polyline>
<polyline clip-path="url(#clip072)" style="stroke:#000000; stroke-linecap:round; stroke-linejoin:round; stroke-width:2; stroke-opacity:0.1; fill:none" points="765.425,1423.18 765.425,47.2441 "></polyline>
<polyline clip-path="url(#clip072)" style="stroke:#000000; stroke-linecap:round; stroke-linejoin:round; stroke-width:2; stroke-opacity:0.1; fill:none" points="1112.46,1423.18 1112.46,47.2441 "></polyline>
<polyline clip-path="url(#clip072)" style="stroke:#000000; stroke-linecap:round; stroke-linejoin:round; stroke-width:2; stroke-opacity:0.1; fill:none" points="1459.49,1423.18 1459.49,47.2441 "></polyline>
<polyline clip-path="url(#clip072)" style="stroke:#000000; stroke-linecap:round; stroke-linejoin:round; stroke-width:2; stroke-opacity:0.1; fill:none" points="1806.53,1423.18 1806.53,47.2441 "></polyline>
<polyline clip-path="url(#clip072)" style="stroke:#000000; stroke-linecap:round; stroke-linejoin:round; stroke-width:2; stroke-opacity:0.1; fill:none" points="2153.56,1423.18 2153.56,47.2441 "></polyline>
<polyline clip-path="url(#clip070)" style="stroke:#000000; stroke-linecap:round; stroke-linejoin:round; stroke-width:4; stroke-opacity:1; fill:none" points="219.195,1423.18 2352.76,1423.18 "></polyline>
<polyline clip-path="url(#clip070)" style="stroke:#000000; stroke-linecap:round; stroke-linejoin:round; stroke-width:4; stroke-opacity:1; fill:none" points="418.392,1423.18 418.392,1404.28 "></polyline>
<polyline clip-path="url(#clip070)" style="stroke:#000000; stroke-linecap:round; stroke-linejoin:round; stroke-width:4; stroke-opacity:1; fill:none" points="765.425,1423.18 765.425,1404.28 "></polyline>
<polyline clip-path="url(#clip070)" style="stroke:#000000; stroke-linecap:round; stroke-linejoin:round; stroke-width:4; stroke-opacity:1; fill:none" points="1112.46,1423.18 1112.46,1404.28 "></polyline>
<polyline clip-path="url(#clip070)" style="stroke:#000000; stroke-linecap:round; stroke-linejoin:round; stroke-width:4; stroke-opacity:1; fill:none" points="1459.49,1423.18 1459.49,1404.28 "></polyline>
<polyline clip-path="url(#clip070)" style="stroke:#000000; stroke-linecap:round; stroke-linejoin:round; stroke-width:4; stroke-opacity:1; fill:none" points="1806.53,1423.18 1806.53,1404.28 "></polyline>
<polyline clip-path="url(#clip070)" style="stroke:#000000; stroke-linecap:round; stroke-linejoin:round; stroke-width:4; stroke-opacity:1; fill:none" points="2153.56,1423.18 2153.56,1404.28 "></polyline>
<path clip-path="url(#clip070)" d="M422.64 1466.95 Q425.996 1467.66 427.871 1469.93 Q429.769 1472.2 429.769 1475.53 Q429.769 1480.65 426.251 1483.45 Q422.732 1486.25 416.251 1486.25 Q414.075 1486.25 411.76 1485.81 Q409.469 1485.39 407.015 1484.54 L407.015 1480.02 Q408.959 1481.16 411.274 1481.74 Q413.589 1482.32 416.112 1482.32 Q420.51 1482.32 422.802 1480.58 Q425.117 1478.84 425.117 1475.53 Q425.117 1472.48 422.964 1470.77 Q420.834 1469.03 417.015 1469.03 L412.987 1469.03 L412.987 1465.19 L417.2 1465.19 Q420.649 1465.19 422.478 1463.82 Q424.306 1462.43 424.306 1459.84 Q424.306 1457.18 422.408 1455.77 Q420.533 1454.33 417.015 1454.33 Q415.094 1454.33 412.894 1454.75 Q410.695 1455.16 408.057 1456.04 L408.057 1451.88 Q410.719 1451.14 413.033 1450.77 Q415.371 1450.39 417.431 1450.39 Q422.756 1450.39 425.857 1452.83 Q428.959 1455.23 428.959 1459.35 Q428.959 1462.22 427.316 1464.21 Q425.672 1466.18 422.64 1466.95 Z" fill="#000000" fill-rule="nonzero" fill-opacity="1"></path><path clip-path="url(#clip070)" d="M768.435 1455.09 L756.629 1473.54 L768.435 1473.54 L768.435 1455.09 M767.208 1451.02 L773.087 1451.02 L773.087 1473.54 L778.018 1473.54 L778.018 1477.43 L773.087 1477.43 L773.087 1485.58 L768.435 1485.58 L768.435 1477.43 L752.833 1477.43 L752.833 1472.92 L767.208 1451.02 Z" fill="#000000" fill-rule="nonzero" fill-opacity="1"></path><path clip-path="url(#clip070)" d="M1102.74 1451.02 L1121.09 1451.02 L1121.09 1454.96 L1107.02 1454.96 L1107.02 1463.43 Q1108.04 1463.08 1109.06 1462.92 Q1110.07 1462.73 1111.09 1462.73 Q1116.88 1462.73 1120.26 1465.9 Q1123.64 1469.08 1123.64 1474.49 Q1123.64 1480.07 1120.17 1483.17 Q1116.69 1486.25 1110.38 1486.25 Q1108.2 1486.25 1105.93 1485.88 Q1103.69 1485.51 1101.28 1484.77 L1101.28 1480.07 Q1103.36 1481.2 1105.58 1481.76 Q1107.81 1482.32 1110.28 1482.32 Q1114.29 1482.32 1116.63 1480.21 Q1118.96 1478.1 1118.96 1474.49 Q1118.96 1470.88 1116.63 1468.77 Q1114.29 1466.67 1110.28 1466.67 Q1108.41 1466.67 1106.53 1467.08 Q1104.68 1467.5 1102.74 1468.38 L1102.74 1451.02 Z" fill="#000000" fill-rule="nonzero" fill-opacity="1"></path><path clip-path="url(#clip070)" d="M1459.9 1466.44 Q1456.75 1466.44 1454.9 1468.59 Q1453.07 1470.74 1453.07 1474.49 Q1453.07 1478.22 1454.9 1480.39 Q1456.75 1482.55 1459.9 1482.55 Q1463.05 1482.55 1464.87 1480.39 Q1466.73 1478.22 1466.73 1474.49 Q1466.73 1470.74 1464.87 1468.59 Q1463.05 1466.44 1459.9 1466.44 M1469.18 1451.78 L1469.18 1456.04 Q1467.42 1455.21 1465.61 1454.77 Q1463.83 1454.33 1462.07 1454.33 Q1457.44 1454.33 1454.99 1457.45 Q1452.56 1460.58 1452.21 1466.9 Q1453.58 1464.89 1455.64 1463.82 Q1457.7 1462.73 1460.17 1462.73 Q1465.38 1462.73 1468.39 1465.9 Q1471.42 1469.05 1471.42 1474.49 Q1471.42 1479.82 1468.28 1483.03 Q1465.13 1486.25 1459.9 1486.25 Q1453.9 1486.25 1450.73 1481.67 Q1447.56 1477.06 1447.56 1468.33 Q1447.56 1460.14 1451.45 1455.28 Q1455.34 1450.39 1461.89 1450.39 Q1463.65 1450.39 1465.43 1450.74 Q1467.24 1451.09 1469.18 1451.78 Z" fill="#000000" fill-rule="nonzero" fill-opacity="1"></path><path clip-path="url(#clip070)" d="M1795.41 1451.02 L1817.64 1451.02 L1817.64 1453.01 L1805.09 1485.58 L1800.21 1485.58 L1812.01 1454.96 L1795.41 1454.96 L1795.41 1451.02 Z" fill="#000000" fill-rule="nonzero" fill-opacity="1"></path><path clip-path="url(#clip070)" d="M2153.56 1469.17 Q2150.23 1469.17 2148.3 1470.95 Q2146.41 1472.73 2146.41 1475.86 Q2146.41 1478.98 2148.3 1480.77 Q2150.23 1482.55 2153.56 1482.55 Q2156.89 1482.55 2158.81 1480.77 Q2160.73 1478.96 2160.73 1475.86 Q2160.73 1472.73 2158.81 1470.95 Q2156.92 1469.17 2153.56 1469.17 M2148.88 1467.18 Q2145.87 1466.44 2144.18 1464.38 Q2142.52 1462.32 2142.52 1459.35 Q2142.52 1455.21 2145.46 1452.8 Q2148.42 1450.39 2153.56 1450.39 Q2158.72 1450.39 2161.66 1452.8 Q2164.6 1455.21 2164.6 1459.35 Q2164.6 1462.32 2162.91 1464.38 Q2161.24 1466.44 2158.26 1467.18 Q2161.64 1467.96 2163.51 1470.26 Q2165.41 1472.55 2165.41 1475.86 Q2165.41 1480.88 2162.33 1483.57 Q2159.28 1486.25 2153.56 1486.25 Q2147.84 1486.25 2144.76 1483.57 Q2141.71 1480.88 2141.71 1475.86 Q2141.71 1472.55 2143.61 1470.26 Q2145.5 1467.96 2148.88 1467.18 M2147.17 1459.79 Q2147.17 1462.48 2148.84 1463.98 Q2150.53 1465.49 2153.56 1465.49 Q2156.57 1465.49 2158.26 1463.98 Q2159.97 1462.48 2159.97 1459.79 Q2159.97 1457.11 2158.26 1455.6 Q2156.57 1454.1 2153.56 1454.1 Q2150.53 1454.1 2148.84 1455.6 Q2147.17 1457.11 2147.17 1459.79 Z" fill="#000000" fill-rule="nonzero" fill-opacity="1"></path><path clip-path="url(#clip070)" d="M1080.04 1526.86 L1071.32 1550.51 L1088.8 1550.51 L1080.04 1526.86 M1076.42 1520.52 L1083.71 1520.52 L1101.82 1568.04 L1095.13 1568.04 L1090.8 1555.85 L1069.38 1555.85 L1065.05 1568.04 L1058.27 1568.04 L1076.42 1520.52 Z" fill="#000000" fill-rule="nonzero" fill-opacity="1"></path><path clip-path="url(#clip070)" d="M1133.01 1533.76 L1133.01 1539.24 Q1130.52 1537.87 1128.01 1537.2 Q1125.53 1536.5 1122.98 1536.5 Q1117.28 1536.5 1114.13 1540.13 Q1110.98 1543.73 1110.98 1550.25 Q1110.98 1556.78 1114.13 1560.4 Q1117.28 1564 1122.98 1564 Q1125.53 1564 1128.01 1563.33 Q1130.52 1562.63 1133.01 1561.26 L1133.01 1566.68 Q1130.56 1567.82 1127.91 1568.39 Q1125.31 1568.97 1122.34 1568.97 Q1114.29 1568.97 1109.55 1563.91 Q1104.81 1558.85 1104.81 1550.25 Q1104.81 1541.53 1109.58 1536.53 Q1114.39 1531.54 1122.73 1531.54 Q1125.43 1531.54 1128.01 1532.11 Q1130.59 1532.65 1133.01 1533.76 Z" fill="#000000" fill-rule="nonzero" fill-opacity="1"></path><path clip-path="url(#clip070)" d="M1148.99 1522.27 L1148.99 1532.4 L1161.05 1532.4 L1161.05 1536.95 L1148.99 1536.95 L1148.99 1556.3 Q1148.99 1560.66 1150.16 1561.9 Q1151.37 1563.14 1155.03 1563.14 L1161.05 1563.14 L1161.05 1568.04 L1155.03 1568.04 Q1148.25 1568.04 1145.68 1565.53 Q1143.1 1562.98 1143.1 1556.3 L1143.1 1536.95 L1138.8 1536.95 L1138.8 1532.4 L1143.1 1532.4 L1143.1 1522.27 L1148.99 1522.27 Z" fill="#000000" fill-rule="nonzero" fill-opacity="1"></path><path clip-path="url(#clip070)" d="M1168.15 1553.98 L1168.15 1532.4 L1174 1532.4 L1174 1553.75 Q1174 1558.81 1175.98 1561.36 Q1177.95 1563.87 1181.9 1563.87 Q1186.64 1563.87 1189.38 1560.85 Q1192.14 1557.83 1192.14 1552.61 L1192.14 1532.4 L1198 1532.4 L1198 1568.04 L1192.14 1568.04 L1192.14 1562.57 Q1190.01 1565.82 1187.18 1567.41 Q1184.38 1568.97 1180.65 1568.97 Q1174.51 1568.97 1171.33 1565.15 Q1168.15 1561.33 1168.15 1553.98 M1182.88 1531.54 L1182.88 1531.54 Z" fill="#000000" fill-rule="nonzero" fill-opacity="1"></path><path clip-path="url(#clip070)" d="M1226.27 1550.12 Q1219.17 1550.12 1216.43 1551.75 Q1213.69 1553.37 1213.69 1557.29 Q1213.69 1560.4 1215.73 1562.25 Q1217.8 1564.07 1221.33 1564.07 Q1226.2 1564.07 1229.13 1560.63 Q1232.09 1557.16 1232.09 1551.43 L1232.09 1550.12 L1226.27 1550.12 M1237.95 1547.71 L1237.95 1568.04 L1232.09 1568.04 L1232.09 1562.63 Q1230.08 1565.88 1227.09 1567.44 Q1224.1 1568.97 1219.77 1568.97 Q1214.3 1568.97 1211.05 1565.91 Q1207.84 1562.82 1207.84 1557.67 Q1207.84 1551.65 1211.85 1548.6 Q1215.89 1545.54 1223.88 1545.54 L1232.09 1545.54 L1232.09 1544.97 Q1232.09 1540.93 1229.42 1538.73 Q1226.77 1536.5 1221.97 1536.5 Q1218.91 1536.5 1216.02 1537.23 Q1213.12 1537.97 1210.45 1539.43 L1210.45 1534.02 Q1213.66 1532.78 1216.68 1532.17 Q1219.71 1531.54 1222.57 1531.54 Q1230.31 1531.54 1234.13 1535.55 Q1237.95 1539.56 1237.95 1547.71 Z" fill="#000000" fill-rule="nonzero" fill-opacity="1"></path><path clip-path="url(#clip070)" d="M1250.01 1518.52 L1255.87 1518.52 L1255.87 1568.04 L1250.01 1568.04 L1250.01 1518.52 Z" fill="#000000" fill-rule="nonzero" fill-opacity="1"></path><path clip-path="url(#clip070)" d="M1308.38 1524.88 Q1301.38 1524.88 1297.24 1530.1 Q1293.14 1535.32 1293.14 1544.33 Q1293.14 1553.31 1297.24 1558.53 Q1301.38 1563.75 1308.38 1563.75 Q1315.39 1563.75 1319.46 1558.53 Q1323.56 1553.31 1323.56 1544.33 Q1323.56 1535.32 1319.46 1530.1 Q1315.39 1524.88 1308.38 1524.88 M1317.39 1567.18 L1325.86 1576.45 L1318.09 1576.45 L1311.06 1568.84 Q1310.01 1568.9 1309.43 1568.94 Q1308.89 1568.97 1308.38 1568.97 Q1298.36 1568.97 1292.34 1562.28 Q1286.36 1555.57 1286.36 1544.33 Q1286.36 1533.06 1292.34 1526.38 Q1298.36 1519.66 1308.38 1519.66 Q1318.38 1519.66 1324.36 1526.38 Q1330.34 1533.06 1330.34 1544.33 Q1330.34 1552.61 1327 1558.5 Q1323.69 1564.38 1317.39 1567.18 Z" fill="#000000" fill-rule="nonzero" fill-opacity="1"></path><path clip-path="url(#clip070)" d="M1339.54 1553.98 L1339.54 1532.4 L1345.4 1532.4 L1345.4 1553.75 Q1345.4 1558.81 1347.37 1561.36 Q1349.35 1563.87 1353.29 1563.87 Q1358.04 1563.87 1360.77 1560.85 Q1363.54 1557.83 1363.54 1552.61 L1363.54 1532.4 L1369.4 1532.4 L1369.4 1568.04 L1363.54 1568.04 L1363.54 1562.57 Q1361.41 1565.82 1358.58 1567.41 Q1355.78 1568.97 1352.05 1568.97 Q1345.91 1568.97 1342.73 1565.15 Q1339.54 1561.33 1339.54 1553.98 M1354.28 1531.54 L1354.28 1531.54 Z" fill="#000000" fill-rule="nonzero" fill-opacity="1"></path><path clip-path="url(#clip070)" d="M1397.66 1550.12 Q1390.56 1550.12 1387.83 1551.75 Q1385.09 1553.37 1385.09 1557.29 Q1385.09 1560.4 1387.13 1562.25 Q1389.2 1564.07 1392.73 1564.07 Q1397.6 1564.07 1400.53 1560.63 Q1403.49 1557.16 1403.49 1551.43 L1403.49 1550.12 L1397.66 1550.12 M1409.34 1547.71 L1409.34 1568.04 L1403.49 1568.04 L1403.49 1562.63 Q1401.48 1565.88 1398.49 1567.44 Q1395.5 1568.97 1391.17 1568.97 Q1385.69 1568.97 1382.45 1565.91 Q1379.23 1562.82 1379.23 1557.67 Q1379.23 1551.65 1383.24 1548.6 Q1387.29 1545.54 1395.27 1545.54 L1403.49 1545.54 L1403.49 1544.97 Q1403.49 1540.93 1400.81 1538.73 Q1398.17 1536.5 1393.36 1536.5 Q1390.31 1536.5 1387.41 1537.23 Q1384.52 1537.97 1381.84 1539.43 L1381.84 1534.02 Q1385.06 1532.78 1388.08 1532.17 Q1391.11 1531.54 1393.97 1531.54 Q1401.7 1531.54 1405.52 1535.55 Q1409.34 1539.56 1409.34 1547.71 Z" fill="#000000" fill-rule="nonzero" fill-opacity="1"></path><path clip-path="url(#clip070)" d="M1421.41 1518.52 L1427.26 1518.52 L1427.26 1568.04 L1421.41 1568.04 L1421.41 1518.52 Z" fill="#000000" fill-rule="nonzero" fill-opacity="1"></path><path clip-path="url(#clip070)" d="M1439.52 1532.4 L1445.37 1532.4 L1445.37 1568.04 L1439.52 1568.04 L1439.52 1532.4 M1439.52 1518.52 L1445.37 1518.52 L1445.37 1525.93 L1439.52 1525.93 L1439.52 1518.52 Z" fill="#000000" fill-rule="nonzero" fill-opacity="1"></path><path clip-path="url(#clip070)" d="M1463.42 1522.27 L1463.42 1532.4 L1475.48 1532.4 L1475.48 1536.95 L1463.42 1536.95 L1463.42 1556.3 Q1463.42 1560.66 1464.6 1561.9 Q1465.81 1563.14 1469.47 1563.14 L1475.48 1563.14 L1475.48 1568.04 L1469.47 1568.04 Q1462.69 1568.04 1460.11 1565.53 Q1457.53 1562.98 1457.53 1556.3 L1457.53 1536.95 L1453.23 1536.95 L1453.23 1532.4 L1457.53 1532.4 L1457.53 1522.27 L1463.42 1522.27 Z" fill="#000000" fill-rule="nonzero" fill-opacity="1"></path><path clip-path="url(#clip070)" d="M1498.02 1571.35 Q1495.53 1577.72 1493.18 1579.66 Q1490.82 1581.6 1486.88 1581.6 L1482.2 1581.6 L1482.2 1576.7 L1485.64 1576.7 Q1488.05 1576.7 1489.39 1575.56 Q1490.73 1574.41 1492.35 1570.14 L1493.4 1567.47 L1478.98 1532.4 L1485.19 1532.4 L1496.33 1560.28 L1507.47 1532.4 L1513.68 1532.4 L1498.02 1571.35 Z" fill="#000000" fill-rule="nonzero" fill-opacity="1"></path><polyline clip-path="url(#clip072)" style="stroke:#000000; stroke-linecap:round; stroke-linejoin:round; stroke-width:2; stroke-opacity:0.1; fill:none" points="219.195,1384.24 2352.76,1384.24 "></polyline>
<polyline clip-path="url(#clip072)" style="stroke:#000000; stroke-linecap:round; stroke-linejoin:round; stroke-width:2; stroke-opacity:0.1; fill:none" points="219.195,1059.73 2352.76,1059.73 "></polyline>
<polyline clip-path="url(#clip072)" style="stroke:#000000; stroke-linecap:round; stroke-linejoin:round; stroke-width:2; stroke-opacity:0.1; fill:none" points="219.195,735.212 2352.76,735.212 "></polyline>
<polyline clip-path="url(#clip072)" style="stroke:#000000; stroke-linecap:round; stroke-linejoin:round; stroke-width:2; stroke-opacity:0.1; fill:none" points="219.195,410.699 2352.76,410.699 "></polyline>
<polyline clip-path="url(#clip072)" style="stroke:#000000; stroke-linecap:round; stroke-linejoin:round; stroke-width:2; stroke-opacity:0.1; fill:none" points="219.195,86.1857 2352.76,86.1857 "></polyline>
<polyline clip-path="url(#clip070)" style="stroke:#000000; stroke-linecap:round; stroke-linejoin:round; stroke-width:4; stroke-opacity:1; fill:none" points="219.195,1423.18 219.195,47.2441 "></polyline>
<polyline clip-path="url(#clip070)" style="stroke:#000000; stroke-linecap:round; stroke-linejoin:round; stroke-width:4; stroke-opacity:1; fill:none" points="219.195,1384.24 238.093,1384.24 "></polyline>
<polyline clip-path="url(#clip070)" style="stroke:#000000; stroke-linecap:round; stroke-linejoin:round; stroke-width:4; stroke-opacity:1; fill:none" points="219.195,1059.73 238.093,1059.73 "></polyline>
<polyline clip-path="url(#clip070)" style="stroke:#000000; stroke-linecap:round; stroke-linejoin:round; stroke-width:4; stroke-opacity:1; fill:none" points="219.195,735.212 238.093,735.212 "></polyline>
<polyline clip-path="url(#clip070)" style="stroke:#000000; stroke-linecap:round; stroke-linejoin:round; stroke-width:4; stroke-opacity:1; fill:none" points="219.195,410.699 238.093,410.699 "></polyline>
<polyline clip-path="url(#clip070)" style="stroke:#000000; stroke-linecap:round; stroke-linejoin:round; stroke-width:4; stroke-opacity:1; fill:none" points="219.195,86.1857 238.093,86.1857 "></polyline>
<path clip-path="url(#clip070)" d="M116.066 1366.96 L134.422 1366.96 L134.422 1370.89 L120.348 1370.89 L120.348 1379.37 Q121.367 1379.02 122.385 1378.86 Q123.404 1378.67 124.422 1378.67 Q130.209 1378.67 133.589 1381.84 Q136.968 1385.01 136.968 1390.43 Q136.968 1396.01 133.496 1399.11 Q130.024 1402.19 123.705 1402.19 Q121.529 1402.19 119.26 1401.82 Q117.015 1401.45 114.607 1400.71 L114.607 1396.01 Q116.691 1397.14 118.913 1397.7 Q121.135 1398.25 123.612 1398.25 Q127.617 1398.25 129.955 1396.15 Q132.292 1394.04 132.292 1390.43 Q132.292 1386.82 129.955 1384.71 Q127.617 1382.61 123.612 1382.61 Q121.737 1382.61 119.862 1383.02 Q118.01 1383.44 116.066 1384.32 L116.066 1366.96 Z" fill="#000000" fill-rule="nonzero" fill-opacity="1"></path><path clip-path="url(#clip070)" d="M146.181 1395.64 L151.066 1395.64 L151.066 1401.52 L146.181 1401.52 L146.181 1395.64 Z" fill="#000000" fill-rule="nonzero" fill-opacity="1"></path><path clip-path="url(#clip070)" d="M171.251 1370.04 Q167.64 1370.04 165.811 1373.6 Q164.005 1377.14 164.005 1384.27 Q164.005 1391.38 165.811 1394.94 Q167.64 1398.49 171.251 1398.49 Q174.885 1398.49 176.69 1394.94 Q178.519 1391.38 178.519 1384.27 Q178.519 1377.14 176.69 1373.6 Q174.885 1370.04 171.251 1370.04 M171.251 1366.33 Q177.061 1366.33 180.116 1370.94 Q183.195 1375.52 183.195 1384.27 Q183.195 1393 180.116 1397.61 Q177.061 1402.19 171.251 1402.19 Q165.44 1402.19 162.362 1397.61 Q159.306 1393 159.306 1384.27 Q159.306 1375.52 162.362 1370.94 Q165.44 1366.33 171.251 1366.33 Z" fill="#000000" fill-rule="nonzero" fill-opacity="1"></path><path clip-path="url(#clip070)" d="M117.061 1042.45 L135.417 1042.45 L135.417 1046.38 L121.343 1046.38 L121.343 1054.85 Q122.362 1054.51 123.38 1054.34 Q124.399 1054.16 125.418 1054.16 Q131.205 1054.16 134.584 1057.33 Q137.964 1060.5 137.964 1065.92 Q137.964 1071.5 134.492 1074.6 Q131.019 1077.68 124.7 1077.68 Q122.524 1077.68 120.255 1077.31 Q118.01 1076.94 115.603 1076.19 L115.603 1071.5 Q117.686 1072.63 119.908 1073.19 Q122.13 1073.74 124.607 1073.74 Q128.612 1073.74 130.95 1071.63 Q133.288 1069.53 133.288 1065.92 Q133.288 1062.31 130.95 1060.2 Q128.612 1058.09 124.607 1058.09 Q122.732 1058.09 120.857 1058.51 Q119.006 1058.93 117.061 1059.81 L117.061 1042.45 Z" fill="#000000" fill-rule="nonzero" fill-opacity="1"></path><path clip-path="url(#clip070)" d="M147.177 1071.13 L152.061 1071.13 L152.061 1077.01 L147.177 1077.01 L147.177 1071.13 Z" fill="#000000" fill-rule="nonzero" fill-opacity="1"></path><path clip-path="url(#clip070)" d="M162.292 1042.45 L180.649 1042.45 L180.649 1046.38 L166.575 1046.38 L166.575 1054.85 Q167.593 1054.51 168.612 1054.34 Q169.63 1054.16 170.649 1054.16 Q176.436 1054.16 179.815 1057.33 Q183.195 1060.5 183.195 1065.92 Q183.195 1071.5 179.723 1074.6 Q176.251 1077.68 169.931 1077.68 Q167.755 1077.68 165.487 1077.31 Q163.241 1076.94 160.834 1076.19 L160.834 1071.5 Q162.917 1072.63 165.14 1073.19 Q167.362 1073.74 169.839 1073.74 Q173.843 1073.74 176.181 1071.63 Q178.519 1069.53 178.519 1065.92 Q178.519 1062.31 176.181 1060.2 Q173.843 1058.09 169.839 1058.09 Q167.964 1058.09 166.089 1058.51 Q164.237 1058.93 162.292 1059.81 L162.292 1042.45 Z" fill="#000000" fill-rule="nonzero" fill-opacity="1"></path><path clip-path="url(#clip070)" d="M126.598 733.349 Q123.45 733.349 121.598 735.501 Q119.769 737.654 119.769 741.404 Q119.769 745.131 121.598 747.307 Q123.45 749.46 126.598 749.46 Q129.746 749.46 131.575 747.307 Q133.427 745.131 133.427 741.404 Q133.427 737.654 131.575 735.501 Q129.746 733.349 126.598 733.349 M135.88 718.696 L135.88 722.955 Q134.121 722.122 132.316 721.682 Q130.533 721.242 128.774 721.242 Q124.144 721.242 121.691 724.367 Q119.26 727.492 118.913 733.812 Q120.279 731.798 122.339 730.733 Q124.399 729.645 126.876 729.645 Q132.084 729.645 135.093 732.816 Q138.126 735.964 138.126 741.404 Q138.126 746.728 134.978 749.946 Q131.83 753.163 126.598 753.163 Q120.603 753.163 117.431 748.58 Q114.26 743.973 114.26 735.247 Q114.26 727.052 118.149 722.191 Q122.038 717.307 128.589 717.307 Q130.348 717.307 132.13 717.654 Q133.936 718.001 135.88 718.696 Z" fill="#000000" fill-rule="nonzero" fill-opacity="1"></path><path clip-path="url(#clip070)" d="M146.181 746.612 L151.066 746.612 L151.066 752.492 L146.181 752.492 L146.181 746.612 Z" fill="#000000" fill-rule="nonzero" fill-opacity="1"></path><path clip-path="url(#clip070)" d="M171.251 721.011 Q167.64 721.011 165.811 724.575 Q164.005 728.117 164.005 735.247 Q164.005 742.353 165.811 745.918 Q167.64 749.46 171.251 749.46 Q174.885 749.46 176.69 745.918 Q178.519 742.353 178.519 735.247 Q178.519 728.117 176.69 724.575 Q174.885 721.011 171.251 721.011 M171.251 717.307 Q177.061 717.307 180.116 721.913 Q183.195 726.497 183.195 735.247 Q183.195 743.973 180.116 748.58 Q177.061 753.163 171.251 753.163 Q165.44 753.163 162.362 748.58 Q159.306 743.973 159.306 735.247 Q159.306 726.497 162.362 721.913 Q165.44 717.307 171.251 717.307 Z" fill="#000000" fill-rule="nonzero" fill-opacity="1"></path><path clip-path="url(#clip070)" d="M127.593 408.835 Q124.445 408.835 122.593 410.988 Q120.765 413.141 120.765 416.891 Q120.765 420.618 122.593 422.794 Q124.445 424.946 127.593 424.946 Q130.742 424.946 132.57 422.794 Q134.422 420.618 134.422 416.891 Q134.422 413.141 132.57 410.988 Q130.742 408.835 127.593 408.835 M136.876 394.183 L136.876 398.442 Q135.117 397.609 133.311 397.169 Q131.529 396.729 129.769 396.729 Q125.14 396.729 122.686 399.854 Q120.255 402.979 119.908 409.298 Q121.274 407.284 123.334 406.22 Q125.394 405.132 127.871 405.132 Q133.08 405.132 136.089 408.303 Q139.121 411.451 139.121 416.891 Q139.121 422.215 135.973 425.433 Q132.825 428.65 127.593 428.65 Q121.598 428.65 118.427 424.067 Q115.256 419.46 115.256 410.734 Q115.256 402.539 119.144 397.678 Q123.033 392.794 129.584 392.794 Q131.343 392.794 133.126 393.141 Q134.931 393.488 136.876 394.183 Z" fill="#000000" fill-rule="nonzero" fill-opacity="1"></path><path clip-path="url(#clip070)" d="M147.177 422.099 L152.061 422.099 L152.061 427.979 L147.177 427.979 L147.177 422.099 Z" fill="#000000" fill-rule="nonzero" fill-opacity="1"></path><path clip-path="url(#clip070)" d="M162.292 393.419 L180.649 393.419 L180.649 397.354 L166.575 397.354 L166.575 405.826 Q167.593 405.479 168.612 405.317 Q169.63 405.132 170.649 405.132 Q176.436 405.132 179.815 408.303 Q183.195 411.474 183.195 416.891 Q183.195 422.47 179.723 425.571 Q176.251 428.65 169.931 428.65 Q167.755 428.65 165.487 428.28 Q163.241 427.909 160.834 427.169 L160.834 422.47 Q162.917 423.604 165.14 424.159 Q167.362 424.715 169.839 424.715 Q173.843 424.715 176.181 422.608 Q178.519 420.502 178.519 416.891 Q178.519 413.28 176.181 411.173 Q173.843 409.067 169.839 409.067 Q167.964 409.067 166.089 409.484 Q164.237 409.9 162.292 410.78 L162.292 393.419 Z" fill="#000000" fill-rule="nonzero" fill-opacity="1"></path><path clip-path="url(#clip070)" d="M114.839 68.9057 L137.061 68.9057 L137.061 70.8964 L124.515 103.466 L119.63 103.466 L131.436 72.8408 L114.839 72.8408 L114.839 68.9057 Z" fill="#000000" fill-rule="nonzero" fill-opacity="1"></path><path clip-path="url(#clip070)" d="M146.181 97.5861 L151.066 97.5861 L151.066 103.466 L146.181 103.466 L146.181 97.5861 Z" fill="#000000" fill-rule="nonzero" fill-opacity="1"></path><path clip-path="url(#clip070)" d="M171.251 71.9844 Q167.64 71.9844 165.811 75.5492 Q164.005 79.0908 164.005 86.2204 Q164.005 93.3268 165.811 96.8916 Q167.64 100.433 171.251 100.433 Q174.885 100.433 176.69 96.8916 Q178.519 93.3268 178.519 86.2204 Q178.519 79.0908 176.69 75.5492 Q174.885 71.9844 171.251 71.9844 M171.251 68.2807 Q177.061 68.2807 180.116 72.8871 Q183.195 77.4704 183.195 86.2204 Q183.195 94.9472 180.116 99.5537 Q177.061 104.137 171.251 104.137 Q165.44 104.137 162.362 99.5537 Q159.306 94.9472 159.306 86.2204 Q159.306 77.4704 162.362 72.8871 Q165.44 68.2807 171.251 68.2807 Z" fill="#000000" fill-rule="nonzero" fill-opacity="1"></path><path clip-path="url(#clip070)" d="M21.7677 1004.43 L39.6235 1004.43 L39.6235 996.349 Q39.6235 991.861 37.3 989.411 Q34.9765 986.96 30.6797 986.96 Q26.4147 986.96 24.0912 989.411 Q21.7677 991.861 21.7677 996.349 L21.7677 1004.43 M16.4842 1010.86 L16.4842 996.349 Q16.4842 988.36 20.1126 984.286 Q23.7092 980.18 30.6797 980.18 Q37.7138 980.18 41.3104 984.286 Q44.907 988.36 44.907 996.349 L44.907 1004.43 L64.0042 1004.43 L64.0042 1010.86 L16.4842 1010.86 Z" fill="#000000" fill-rule="nonzero" fill-opacity="1"></path><path clip-path="url(#clip070)" d="M33.8307 952.298 Q33.2578 953.285 33.0032 954.463 Q32.7167 955.609 32.7167 957.009 Q32.7167 961.974 35.9632 964.648 Q39.1779 967.29 45.2253 967.29 L64.0042 967.29 L64.0042 973.178 L28.3562 973.178 L28.3562 967.29 L33.8944 967.29 Q30.6479 965.444 29.0883 962.484 Q27.4968 959.524 27.4968 955.29 Q27.4968 954.686 27.5923 953.954 Q27.656 953.222 27.8151 952.33 L33.8307 952.298 Z" fill="#000000" fill-rule="nonzero" fill-opacity="1"></path><path clip-path="url(#clip070)" d="M44.7161 917.096 L47.5806 917.096 L47.5806 944.023 Q53.6281 943.641 56.8109 940.395 Q59.9619 937.116 59.9619 931.292 Q59.9619 927.918 59.1344 924.767 Q58.3069 921.584 56.6518 918.465 L62.1899 918.465 Q63.5267 921.616 64.227 924.926 Q64.9272 928.236 64.9272 931.642 Q64.9272 940.172 59.9619 945.169 Q54.9967 950.134 46.5303 950.134 Q37.7774 950.134 32.6531 945.424 Q27.4968 940.681 27.4968 932.66 Q27.4968 925.467 32.1438 921.297 Q36.7589 917.096 44.7161 917.096 M42.9973 922.953 Q38.1912 923.016 35.3266 925.658 Q32.4621 928.268 32.4621 932.597 Q32.4621 937.498 35.2312 940.458 Q38.0002 943.386 43.0292 943.832 L42.9973 922.953 Z" fill="#000000" fill-rule="nonzero" fill-opacity="1"></path><path clip-path="url(#clip070)" d="M33.7671 884.026 L14.479 884.026 L14.479 878.17 L64.0042 878.17 L64.0042 884.026 L58.657 884.026 Q61.8398 885.872 63.3994 888.705 Q64.9272 891.506 64.9272 895.453 Q64.9272 901.914 59.771 905.988 Q54.6147 910.03 46.212 910.03 Q37.8093 910.03 32.6531 905.988 Q27.4968 901.914 27.4968 895.453 Q27.4968 891.506 29.0564 888.705 Q30.5842 885.872 33.7671 884.026 M46.212 903.983 Q52.6732 903.983 56.3653 901.341 Q60.0256 898.667 60.0256 894.02 Q60.0256 889.373 56.3653 886.7 Q52.6732 884.026 46.212 884.026 Q39.7508 884.026 36.0905 886.7 Q32.3984 889.373 32.3984 894.02 Q32.3984 898.667 36.0905 901.341 Q39.7508 903.983 46.212 903.983 Z" fill="#000000" fill-rule="nonzero" fill-opacity="1"></path><path clip-path="url(#clip070)" d="M28.3562 866.107 L28.3562 860.25 L64.0042 860.25 L64.0042 866.107 L28.3562 866.107 M14.479 866.107 L14.479 860.25 L21.895 860.25 L21.895 866.107 L14.479 866.107 Z" fill="#000000" fill-rule="nonzero" fill-opacity="1"></path><path clip-path="url(#clip070)" d="M29.7248 822.343 L35.1993 822.343 Q33.8307 824.825 33.1623 827.34 Q32.4621 829.822 32.4621 832.369 Q32.4621 838.066 36.0905 841.217 Q39.6872 844.368 46.212 844.368 Q52.7369 844.368 56.3653 841.217 Q59.9619 838.066 59.9619 832.369 Q59.9619 829.822 59.2935 827.34 Q58.5933 824.825 57.2247 822.343 L62.6355 822.343 Q63.7814 824.793 64.3543 827.435 Q64.9272 830.045 64.9272 833.005 Q64.9272 841.058 59.8664 845.8 Q54.8057 850.543 46.212 850.543 Q37.491 850.543 32.4939 845.768 Q27.4968 840.962 27.4968 832.623 Q27.4968 829.918 28.0697 827.34 Q28.6108 824.762 29.7248 822.343 Z" fill="#000000" fill-rule="nonzero" fill-opacity="1"></path><path clip-path="url(#clip070)" d="M18.2347 806.365 L28.3562 806.365 L28.3562 794.302 L32.9077 794.302 L32.9077 806.365 L52.2594 806.365 Q56.6199 806.365 57.8613 805.187 Q59.1026 803.978 59.1026 800.317 L59.1026 794.302 L64.0042 794.302 L64.0042 800.317 Q64.0042 807.097 61.4897 809.675 Q58.9434 812.253 52.2594 812.253 L32.9077 812.253 L32.9077 816.55 L28.3562 816.55 L28.3562 812.253 L18.2347 812.253 L18.2347 806.365 Z" fill="#000000" fill-rule="nonzero" fill-opacity="1"></path><path clip-path="url(#clip070)" d="M44.7161 756.107 L47.5806 756.107 L47.5806 783.034 Q53.6281 782.652 56.8109 779.406 Q59.9619 776.128 59.9619 770.303 Q59.9619 766.929 59.1344 763.778 Q58.3069 760.595 56.6518 757.476 L62.1899 757.476 Q63.5267 760.627 64.227 763.937 Q64.9272 767.247 64.9272 770.653 Q64.9272 779.183 59.9619 784.18 Q54.9967 789.145 46.5303 789.145 Q37.7774 789.145 32.6531 784.435 Q27.4968 779.692 27.4968 771.672 Q27.4968 764.478 32.1438 760.309 Q36.7589 756.107 44.7161 756.107 M42.9973 761.964 Q38.1912 762.028 35.3266 764.669 Q32.4621 767.279 32.4621 771.608 Q32.4621 776.509 35.2312 779.47 Q38.0002 782.398 43.0292 782.843 L42.9973 761.964 Z" fill="#000000" fill-rule="nonzero" fill-opacity="1"></path><path clip-path="url(#clip070)" d="M33.7671 723.038 L14.479 723.038 L14.479 717.181 L64.0042 717.181 L64.0042 723.038 L58.657 723.038 Q61.8398 724.884 63.3994 727.716 Q64.9272 730.517 64.9272 734.464 Q64.9272 740.925 59.771 744.999 Q54.6147 749.041 46.212 749.041 Q37.8093 749.041 32.6531 744.999 Q27.4968 740.925 27.4968 734.464 Q27.4968 730.517 29.0564 727.716 Q30.5842 724.884 33.7671 723.038 M46.212 742.994 Q52.6732 742.994 56.3653 740.352 Q60.0256 737.679 60.0256 733.032 Q60.0256 728.385 56.3653 725.711 Q52.6732 723.038 46.212 723.038 Q39.7508 723.038 36.0905 725.711 Q32.3984 728.385 32.3984 733.032 Q32.3984 737.679 36.0905 740.352 Q39.7508 742.994 46.212 742.994 Z" fill="#000000" fill-rule="nonzero" fill-opacity="1"></path><path clip-path="url(#clip070)" d="M20.8447 664.855 Q20.8447 671.857 26.0645 675.995 Q31.2844 680.101 40.2919 680.101 Q49.2675 680.101 54.4874 675.995 Q59.7073 671.857 59.7073 664.855 Q59.7073 657.853 54.4874 653.779 Q49.2675 649.673 40.2919 649.673 Q31.2844 649.673 26.0645 653.779 Q20.8447 657.853 20.8447 664.855 M63.1448 655.848 L72.4069 647.381 L72.4069 655.147 L64.7999 662.181 Q64.8635 663.232 64.8954 663.805 Q64.9272 664.346 64.9272 664.855 Q64.9272 674.881 58.2432 680.897 Q51.5274 686.88 40.2919 686.88 Q29.0246 686.88 22.3406 680.897 Q15.6248 674.881 15.6248 664.855 Q15.6248 654.861 22.3406 648.877 Q29.0246 642.893 40.2919 642.893 Q48.5673 642.893 54.4556 646.235 Q60.3439 649.545 63.1448 655.848 Z" fill="#000000" fill-rule="nonzero" fill-opacity="1"></path><path clip-path="url(#clip070)" d="M49.9359 633.695 L28.3562 633.695 L28.3562 627.838 L49.7131 627.838 Q54.7739 627.838 57.3202 625.865 Q59.8346 623.892 59.8346 619.945 Q59.8346 615.202 56.8109 612.465 Q53.7872 609.696 48.5673 609.696 L28.3562 609.696 L28.3562 603.84 L64.0042 603.84 L64.0042 609.696 L58.5296 609.696 Q61.7762 611.829 63.3676 614.661 Q64.9272 617.462 64.9272 621.186 Q64.9272 627.329 61.1078 630.512 Q57.2883 633.695 49.9359 633.695 M27.4968 618.958 L27.4968 618.958 Z" fill="#000000" fill-rule="nonzero" fill-opacity="1"></path><path clip-path="url(#clip070)" d="M46.0847 575.576 Q46.0847 582.674 47.7079 585.411 Q49.3312 588.148 53.2461 588.148 Q56.3653 588.148 58.2114 586.111 Q60.0256 584.042 60.0256 580.509 Q60.0256 575.64 56.5881 572.711 Q53.1188 569.751 47.3897 569.751 L46.0847 569.751 L46.0847 575.576 M43.6657 563.895 L64.0042 563.895 L64.0042 569.751 L58.5933 569.751 Q61.8398 571.757 63.3994 574.748 Q64.9272 577.74 64.9272 582.069 Q64.9272 587.543 61.8716 590.79 Q58.7843 594.005 53.6281 594.005 Q47.6125 594.005 44.5569 589.994 Q41.5014 585.952 41.5014 577.963 L41.5014 569.751 L40.9285 569.751 Q36.8862 569.751 34.6901 572.425 Q32.4621 575.067 32.4621 579.873 Q32.4621 582.928 33.1941 585.825 Q33.9262 588.721 35.3903 591.395 L29.9795 591.395 Q28.7381 588.18 28.1334 585.156 Q27.4968 582.133 27.4968 579.268 Q27.4968 571.534 31.5072 567.714 Q35.5176 563.895 43.6657 563.895 Z" fill="#000000" fill-rule="nonzero" fill-opacity="1"></path><path clip-path="url(#clip070)" d="M14.479 551.832 L14.479 545.975 L64.0042 545.975 L64.0042 551.832 L14.479 551.832 Z" fill="#000000" fill-rule="nonzero" fill-opacity="1"></path><path clip-path="url(#clip070)" d="M28.3562 533.721 L28.3562 527.865 L64.0042 527.865 L64.0042 533.721 L28.3562 533.721 M14.479 533.721 L14.479 527.865 L21.895 527.865 L21.895 533.721 L14.479 533.721 Z" fill="#000000" fill-rule="nonzero" fill-opacity="1"></path><path clip-path="url(#clip070)" d="M18.2347 509.818 L28.3562 509.818 L28.3562 497.755 L32.9077 497.755 L32.9077 509.818 L52.2594 509.818 Q56.6199 509.818 57.8613 508.641 Q59.1026 507.431 59.1026 503.771 L59.1026 497.755 L64.0042 497.755 L64.0042 503.771 Q64.0042 510.55 61.4897 513.128 Q58.9434 515.706 52.2594 515.706 L32.9077 515.706 L32.9077 520.003 L28.3562 520.003 L28.3562 515.706 L18.2347 515.706 L18.2347 509.818 Z" fill="#000000" fill-rule="nonzero" fill-opacity="1"></path><path clip-path="url(#clip070)" d="M67.3143 475.221 Q73.68 477.703 75.6216 480.059 Q77.5631 482.414 77.5631 486.361 L77.5631 491.039 L72.6615 491.039 L72.6615 487.602 Q72.6615 485.183 71.5157 483.846 Q70.3699 482.509 66.1048 480.886 L63.4312 479.836 L28.3562 494.254 L28.3562 488.047 L56.238 476.908 L28.3562 465.768 L28.3562 459.561 L67.3143 475.221 Z" fill="#000000" fill-rule="nonzero" fill-opacity="1"></path><path clip-path="url(#clip072)" d="M418.392 1384.24 L348.985 1384.24 L487.799 1384.24 L418.392 1384.24 L418.392 1384.24 L418.392 1384.24  Z" fill="#0000ff" fill-rule="evenodd" fill-opacity="1"></path>
<polyline clip-path="url(#clip072)" style="stroke:#000000; stroke-linecap:round; stroke-linejoin:round; stroke-width:4; stroke-opacity:1; fill:none" points="418.392,1384.24 348.985,1384.24 487.799,1384.24 418.392,1384.24 "></polyline>
<path clip-path="url(#clip072)" d="M557.205 1384.24 L557.205 1384.24 L279.579 1384.24 L279.579 1384.24 L557.205 1384.24 L557.205 1384.24 L557.205 1384.24  Z" fill="#0000ff" fill-rule="evenodd" fill-opacity="1"></path>
<polyline clip-path="url(#clip072)" style="stroke:#000000; stroke-linecap:round; stroke-linejoin:round; stroke-width:4; stroke-opacity:1; fill:none" points="557.205,1384.24 557.205,1384.24 279.579,1384.24 557.205,1384.24 "></polyline>
<path clip-path="url(#clip072)" d="M557.205 1059.73 L279.579 1059.73 L279.579 1384.24 L557.205 1384.24 L557.205 1059.73 L418.392 1059.73 L557.205 1059.73  Z" fill="#0000ff" fill-rule="evenodd" fill-opacity="1"></path>
<polyline clip-path="url(#clip072)" style="stroke:#000000; stroke-linecap:round; stroke-linejoin:round; stroke-width:4; stroke-opacity:1; fill:none" points="557.205,1059.73 279.579,1059.73 279.579,1384.24 557.205,1384.24 557.205,1059.73 418.392,1059.73 557.205,1059.73 "></polyline>
<path clip-path="url(#clip072)" d="M418.392 735.212 L348.985 735.212 L487.799 735.212 L418.392 735.212 L418.392 1059.73 L418.392 735.212  Z" fill="#0000ff" fill-rule="evenodd" fill-opacity="1"></path>
<polyline clip-path="url(#clip072)" style="stroke:#000000; stroke-linecap:round; stroke-linejoin:round; stroke-width:4; stroke-opacity:1; fill:none" points="418.392,735.212 348.985,735.212 487.799,735.212 418.392,735.212 418.392,1059.73 418.392,735.212 "></polyline>
<path clip-path="url(#clip072)" d="M765.425 1384.24 L696.019 1384.24 L834.832 1384.24 L765.425 1384.24 L765.425 1384.24 L765.425 1384.24  Z" fill="#0000ff" fill-rule="evenodd" fill-opacity="1"></path>
<polyline clip-path="url(#clip072)" style="stroke:#000000; stroke-linecap:round; stroke-linejoin:round; stroke-width:4; stroke-opacity:1; fill:none" points="765.425,1384.24 696.019,1384.24 834.832,1384.24 765.425,1384.24 "></polyline>
<path clip-path="url(#clip072)" d="M904.239 1384.24 L904.239 1384.24 L626.612 1384.24 L626.612 1384.24 L904.239 1384.24 L904.239 1384.24 L904.239 1384.24  Z" fill="#0000ff" fill-rule="evenodd" fill-opacity="1"></path>
<polyline clip-path="url(#clip072)" style="stroke:#000000; stroke-linecap:round; stroke-linejoin:round; stroke-width:4; stroke-opacity:1; fill:none" points="904.239,1384.24 904.239,1384.24 626.612,1384.24 904.239,1384.24 "></polyline>
<path clip-path="url(#clip072)" d="M904.239 1059.73 L626.612 1059.73 L626.612 1384.24 L904.239 1384.24 L904.239 1059.73 L765.425 1059.73 L904.239 1059.73  Z" fill="#0000ff" fill-rule="evenodd" fill-opacity="1"></path>
<polyline clip-path="url(#clip072)" style="stroke:#000000; stroke-linecap:round; stroke-linejoin:round; stroke-width:4; stroke-opacity:1; fill:none" points="904.239,1059.73 626.612,1059.73 626.612,1384.24 904.239,1384.24 904.239,1059.73 765.425,1059.73 904.239,1059.73 "></polyline>
<path clip-path="url(#clip072)" d="M765.425 735.212 L696.019 735.212 L834.832 735.212 L765.425 735.212 L765.425 1059.73 L765.425 735.212  Z" fill="#0000ff" fill-rule="evenodd" fill-opacity="1"></path>
<polyline clip-path="url(#clip072)" style="stroke:#000000; stroke-linecap:round; stroke-linejoin:round; stroke-width:4; stroke-opacity:1; fill:none" points="765.425,735.212 696.019,735.212 834.832,735.212 765.425,735.212 765.425,1059.73 765.425,735.212 "></polyline>
<path clip-path="url(#clip072)" d="M1112.46 1384.24 L1043.05 1384.24 L1181.87 1384.24 L1112.46 1384.24 L1112.46 1384.24 L1112.46 1384.24  Z" fill="#0000ff" fill-rule="evenodd" fill-opacity="1"></path>
<polyline clip-path="url(#clip072)" style="stroke:#000000; stroke-linecap:round; stroke-linejoin:round; stroke-width:4; stroke-opacity:1; fill:none" points="1112.46,1384.24 1043.05,1384.24 1181.87,1384.24 1112.46,1384.24 "></polyline>
<path clip-path="url(#clip072)" d="M1251.27 1384.24 L1251.27 1384.24 L973.645 1384.24 L973.645 1384.24 L1251.27 1384.24 L1251.27 1384.24 L1251.27 1384.24  Z" fill="#0000ff" fill-rule="evenodd" fill-opacity="1"></path>
<polyline clip-path="url(#clip072)" style="stroke:#000000; stroke-linecap:round; stroke-linejoin:round; stroke-width:4; stroke-opacity:1; fill:none" points="1251.27,1384.24 1251.27,1384.24 973.645,1384.24 1251.27,1384.24 "></polyline>
<path clip-path="url(#clip072)" d="M1251.27 735.212 L973.645 735.212 L973.645 1384.24 L1251.27 1384.24 L1251.27 735.212 L1112.46 735.212 L1251.27 735.212  Z" fill="#0000ff" fill-rule="evenodd" fill-opacity="1"></path>
<polyline clip-path="url(#clip072)" style="stroke:#000000; stroke-linecap:round; stroke-linejoin:round; stroke-width:4; stroke-opacity:1; fill:none" points="1251.27,735.212 973.645,735.212 973.645,1384.24 1251.27,1384.24 1251.27,735.212 1112.46,735.212 1251.27,735.212 "></polyline>
<path clip-path="url(#clip072)" d="M1112.46 86.1857 L1043.05 86.1857 L1181.87 86.1857 L1112.46 86.1857 L1112.46 735.212 L1112.46 86.1857  Z" fill="#0000ff" fill-rule="evenodd" fill-opacity="1"></path>
<polyline clip-path="url(#clip072)" style="stroke:#000000; stroke-linecap:round; stroke-linejoin:round; stroke-width:4; stroke-opacity:1; fill:none" points="1112.46,86.1857 1043.05,86.1857 1181.87,86.1857 1112.46,86.1857 1112.46,735.212 1112.46,86.1857 "></polyline>
<path clip-path="url(#clip072)" d="M1459.49 1384.24 L1390.09 1384.24 L1528.9 1384.24 L1459.49 1384.24 L1459.49 1384.24 L1459.49 1384.24  Z" fill="#0000ff" fill-rule="evenodd" fill-opacity="1"></path>
<polyline clip-path="url(#clip072)" style="stroke:#000000; stroke-linecap:round; stroke-linejoin:round; stroke-width:4; stroke-opacity:1; fill:none" points="1459.49,1384.24 1390.09,1384.24 1528.9,1384.24 1459.49,1384.24 "></polyline>
<path clip-path="url(#clip072)" d="M1598.31 1384.24 L1598.31 735.212 L1320.68 735.212 L1320.68 1384.24 L1598.31 1384.24 L1598.31 735.212 L1598.31 1384.24  Z" fill="#0000ff" fill-rule="evenodd" fill-opacity="1"></path>
<polyline clip-path="url(#clip072)" style="stroke:#000000; stroke-linecap:round; stroke-linejoin:round; stroke-width:4; stroke-opacity:1; fill:none" points="1598.31,1384.24 1598.31,735.212 1320.68,735.212 1320.68,1384.24 1598.31,1384.24 1598.31,735.212 1598.31,1384.24 "></polyline>
<path clip-path="url(#clip072)" d="M1598.31 735.212 L1320.68 735.212 L1320.68 735.212 L1598.31 735.212 L1598.31 735.212 L1459.49 735.212 L1598.31 735.212  Z" fill="#0000ff" fill-rule="evenodd" fill-opacity="1"></path>
<polyline clip-path="url(#clip072)" style="stroke:#000000; stroke-linecap:round; stroke-linejoin:round; stroke-width:4; stroke-opacity:1; fill:none" points="1598.31,735.212 1320.68,735.212 1598.31,735.212 1459.49,735.212 1598.31,735.212 "></polyline>
<path clip-path="url(#clip072)" d="M1459.49 86.1857 L1390.09 86.1857 L1528.9 86.1857 L1459.49 86.1857 L1459.49 735.212 L1459.49 86.1857  Z" fill="#0000ff" fill-rule="evenodd" fill-opacity="1"></path>
<polyline clip-path="url(#clip072)" style="stroke:#000000; stroke-linecap:round; stroke-linejoin:round; stroke-width:4; stroke-opacity:1; fill:none" points="1459.49,86.1857 1390.09,86.1857 1528.9,86.1857 1459.49,86.1857 1459.49,735.212 1459.49,86.1857 "></polyline>
<path clip-path="url(#clip072)" d="M1806.53 735.212 L1737.12 735.212 L1875.93 735.212 L1806.53 735.212 L1806.53 735.212 L1806.53 735.212  Z" fill="#0000ff" fill-rule="evenodd" fill-opacity="1"></path>
<polyline clip-path="url(#clip072)" style="stroke:#000000; stroke-linecap:round; stroke-linejoin:round; stroke-width:4; stroke-opacity:1; fill:none" points="1806.53,735.212 1737.12,735.212 1875.93,735.212 1806.53,735.212 "></polyline>
<path clip-path="url(#clip072)" d="M1945.34 735.212 L1945.34 735.212 L1667.71 735.212 L1667.71 735.212 L1945.34 735.212 L1945.34 735.212 L1945.34 735.212  Z" fill="#0000ff" fill-rule="evenodd" fill-opacity="1"></path>
<polyline clip-path="url(#clip072)" style="stroke:#000000; stroke-linecap:round; stroke-linejoin:round; stroke-width:4; stroke-opacity:1; fill:none" points="1945.34,735.212 1945.34,735.212 1667.71,735.212 1945.34,735.212 "></polyline>
<path clip-path="url(#clip072)" d="M1945.34 735.212 L1667.71 735.212 L1667.71 735.212 L1945.34 735.212 L1945.34 735.212 L1806.53 735.212 L1945.34 735.212  Z" fill="#0000ff" fill-rule="evenodd" fill-opacity="1"></path>
<polyline clip-path="url(#clip072)" style="stroke:#000000; stroke-linecap:round; stroke-linejoin:round; stroke-width:4; stroke-opacity:1; fill:none" points="1945.34,735.212 1667.71,735.212 1945.34,735.212 1806.53,735.212 1945.34,735.212 "></polyline>
<path clip-path="url(#clip072)" d="M1806.53 735.212 L1737.12 735.212 L1875.93 735.212 L1806.53 735.212 L1806.53 735.212 L1806.53 735.212  Z" fill="#0000ff" fill-rule="evenodd" fill-opacity="1"></path>
<polyline clip-path="url(#clip072)" style="stroke:#000000; stroke-linecap:round; stroke-linejoin:round; stroke-width:4; stroke-opacity:1; fill:none" points="1806.53,735.212 1737.12,735.212 1875.93,735.212 1806.53,735.212 "></polyline>
<path clip-path="url(#clip072)" d="M2153.56 248.442 L2084.15 248.442 L2222.97 248.442 L2153.56 248.442 L2153.56 248.442 L2153.56 248.442  Z" fill="#0000ff" fill-rule="evenodd" fill-opacity="1"></path>
<polyline clip-path="url(#clip072)" style="stroke:#000000; stroke-linecap:round; stroke-linejoin:round; stroke-width:4; stroke-opacity:1; fill:none" points="2153.56,248.442 2084.15,248.442 2222.97,248.442 2153.56,248.442 "></polyline>
<path clip-path="url(#clip072)" d="M2292.37 248.442 L2292.37 86.1857 L2014.75 86.1857 L2014.75 248.442 L2292.37 248.442 L2292.37 86.1857 L2292.37 248.442  Z" fill="#0000ff" fill-rule="evenodd" fill-opacity="1"></path>
<polyline clip-path="url(#clip072)" style="stroke:#000000; stroke-linecap:round; stroke-linejoin:round; stroke-width:4; stroke-opacity:1; fill:none" points="2292.37,248.442 2292.37,86.1857 2014.75,86.1857 2014.75,248.442 2292.37,248.442 2292.37,86.1857 2292.37,248.442 "></polyline>
<path clip-path="url(#clip072)" d="M2292.37 86.1857 L2014.75 86.1857 L2014.75 86.1857 L2292.37 86.1857 L2292.37 86.1857 L2153.56 86.1857 L2292.37 86.1857  Z" fill="#0000ff" fill-rule="evenodd" fill-opacity="1"></path>
<polyline clip-path="url(#clip072)" style="stroke:#000000; stroke-linecap:round; stroke-linejoin:round; stroke-width:4; stroke-opacity:1; fill:none" points="2292.37,86.1857 2014.75,86.1857 2292.37,86.1857 2153.56,86.1857 2292.37,86.1857 "></polyline>
<path clip-path="url(#clip072)" d="M2153.56 86.1857 L2084.15 86.1857 L2222.97 86.1857 L2153.56 86.1857 L2153.56 86.1857 L2153.56 86.1857  Z" fill="#0000ff" fill-rule="evenodd" fill-opacity="1"></path>
<polyline clip-path="url(#clip072)" style="stroke:#000000; stroke-linecap:round; stroke-linejoin:round; stroke-width:4; stroke-opacity:1; fill:none" points="2153.56,86.1857 2084.15,86.1857 2222.97,86.1857 2153.56,86.1857 "></polyline>
<circle clip-path="url(#clip072)" cx="1806.53" cy="86.1857" r="14.4" fill="#0000ff" fill-rule="evenodd" fill-opacity="1" stroke="#000000" stroke-opacity="1" stroke-width="3.2"></circle>
<circle clip-path="url(#clip072)" cx="1806.53" cy="86.1857" r="14.4" fill="#0000ff" fill-rule="evenodd" fill-opacity="1" stroke="#000000" stroke-opacity="1" stroke-width="3.2"></circle>
<circle clip-path="url(#clip072)" cx="1806.53" cy="86.1857" r="14.4" fill="#0000ff" fill-rule="evenodd" fill-opacity="1" stroke="#000000" stroke-opacity="1" stroke-width="3.2"></circle>
<circle clip-path="url(#clip072)" cx="1806.53" cy="86.1857" r="14.4" fill="#0000ff" fill-rule="evenodd" fill-opacity="1" stroke="#000000" stroke-opacity="1" stroke-width="3.2"></circle>
<circle clip-path="url(#clip072)" cx="1806.53" cy="1384.24" r="14.4" fill="#0000ff" fill-rule="evenodd" fill-opacity="1" stroke="#000000" stroke-opacity="1" stroke-width="3.2"></circle>
<circle clip-path="url(#clip072)" cx="1806.53" cy="86.1857" r="14.4" fill="#0000ff" fill-rule="evenodd" fill-opacity="1" stroke="#000000" stroke-opacity="1" stroke-width="3.2"></circle>
<circle clip-path="url(#clip072)" cx="1806.53" cy="1384.24" r="14.4" fill="#0000ff" fill-rule="evenodd" fill-opacity="1" stroke="#000000" stroke-opacity="1" stroke-width="3.2"></circle>
<circle clip-path="url(#clip072)" cx="1806.53" cy="1384.24" r="14.4" fill="#0000ff" fill-rule="evenodd" fill-opacity="1" stroke="#000000" stroke-opacity="1" stroke-width="3.2"></circle>
<circle clip-path="url(#clip072)" cx="2153.56" cy="735.212" r="14.4" fill="#0000ff" fill-rule="evenodd" fill-opacity="1" stroke="#000000" stroke-opacity="1" stroke-width="3.2"></circle>
<polyline clip-path="url(#clip072)" style="stroke:#0000ff; stroke-linecap:round; stroke-linejoin:round; stroke-width:0; stroke-opacity:1; fill:none" points="418.392,1384.24 348.985,1384.24 487.799,1384.24 418.392,1384.24 "></polyline>
<polyline clip-path="url(#clip072)" style="stroke:#0000ff; stroke-linecap:round; stroke-linejoin:round; stroke-width:0; stroke-opacity:1; fill:none" points="557.205,1384.24 557.205,1384.24 279.579,1384.24 557.205,1384.24 "></polyline>
<polyline clip-path="url(#clip072)" style="stroke:#0000ff; stroke-linecap:round; stroke-linejoin:round; stroke-width:0; stroke-opacity:1; fill:none" points="557.205,1059.73 279.579,1059.73 279.579,1384.24 557.205,1384.24 557.205,1059.73 418.392,1059.73 "></polyline>
<polyline clip-path="url(#clip072)" style="stroke:#0000ff; stroke-linecap:round; stroke-linejoin:round; stroke-width:0; stroke-opacity:1; fill:none" points="418.392,735.212 348.985,735.212 487.799,735.212 418.392,735.212 418.392,1059.73 "></polyline>
<polyline clip-path="url(#clip072)" style="stroke:#0000ff; stroke-linecap:round; stroke-linejoin:round; stroke-width:0; stroke-opacity:1; fill:none" points="765.425,1384.24 696.019,1384.24 834.832,1384.24 765.425,1384.24 "></polyline>
<polyline clip-path="url(#clip072)" style="stroke:#0000ff; stroke-linecap:round; stroke-linejoin:round; stroke-width:0; stroke-opacity:1; fill:none" points="904.239,1384.24 904.239,1384.24 626.612,1384.24 904.239,1384.24 "></polyline>
<polyline clip-path="url(#clip072)" style="stroke:#0000ff; stroke-linecap:round; stroke-linejoin:round; stroke-width:0; stroke-opacity:1; fill:none" points="904.239,1059.73 626.612,1059.73 626.612,1384.24 904.239,1384.24 904.239,1059.73 765.425,1059.73 "></polyline>
<polyline clip-path="url(#clip072)" style="stroke:#0000ff; stroke-linecap:round; stroke-linejoin:round; stroke-width:0; stroke-opacity:1; fill:none" points="765.425,735.212 696.019,735.212 834.832,735.212 765.425,735.212 765.425,1059.73 "></polyline>
<polyline clip-path="url(#clip072)" style="stroke:#0000ff; stroke-linecap:round; stroke-linejoin:round; stroke-width:0; stroke-opacity:1; fill:none" points="1112.46,1384.24 1043.05,1384.24 1181.87,1384.24 1112.46,1384.24 "></polyline>
<polyline clip-path="url(#clip072)" style="stroke:#0000ff; stroke-linecap:round; stroke-linejoin:round; stroke-width:0; stroke-opacity:1; fill:none" points="1251.27,1384.24 1251.27,1384.24 973.645,1384.24 1251.27,1384.24 "></polyline>
<polyline clip-path="url(#clip072)" style="stroke:#0000ff; stroke-linecap:round; stroke-linejoin:round; stroke-width:0; stroke-opacity:1; fill:none" points="1251.27,735.212 973.645,735.212 973.645,1384.24 1251.27,1384.24 1251.27,735.212 1112.46,735.212 "></polyline>
<polyline clip-path="url(#clip072)" style="stroke:#0000ff; stroke-linecap:round; stroke-linejoin:round; stroke-width:0; stroke-opacity:1; fill:none" points="1112.46,86.1857 1043.05,86.1857 1181.87,86.1857 1112.46,86.1857 1112.46,735.212 "></polyline>
<polyline clip-path="url(#clip072)" style="stroke:#0000ff; stroke-linecap:round; stroke-linejoin:round; stroke-width:0; stroke-opacity:1; fill:none" points="1459.49,1384.24 1390.09,1384.24 1528.9,1384.24 1459.49,1384.24 "></polyline>
<polyline clip-path="url(#clip072)" style="stroke:#0000ff; stroke-linecap:round; stroke-linejoin:round; stroke-width:0; stroke-opacity:1; fill:none" points="1598.31,1384.24 1598.31,735.212 1320.68,735.212 1320.68,1384.24 1598.31,1384.24 1598.31,735.212 "></polyline>
<polyline clip-path="url(#clip072)" style="stroke:#0000ff; stroke-linecap:round; stroke-linejoin:round; stroke-width:0; stroke-opacity:1; fill:none" points="1598.31,735.212 1320.68,735.212 1598.31,735.212 1459.49,735.212 "></polyline>
<polyline clip-path="url(#clip072)" style="stroke:#0000ff; stroke-linecap:round; stroke-linejoin:round; stroke-width:0; stroke-opacity:1; fill:none" points="1459.49,86.1857 1390.09,86.1857 1528.9,86.1857 1459.49,86.1857 1459.49,735.212 "></polyline>
<polyline clip-path="url(#clip072)" style="stroke:#0000ff; stroke-linecap:round; stroke-linejoin:round; stroke-width:0; stroke-opacity:1; fill:none" points="1806.53,735.212 1737.12,735.212 1875.93,735.212 1806.53,735.212 "></polyline>
<polyline clip-path="url(#clip072)" style="stroke:#0000ff; stroke-linecap:round; stroke-linejoin:round; stroke-width:0; stroke-opacity:1; fill:none" points="1945.34,735.212 1945.34,735.212 1667.71,735.212 1945.34,735.212 "></polyline>
<polyline clip-path="url(#clip072)" style="stroke:#0000ff; stroke-linecap:round; stroke-linejoin:round; stroke-width:0; stroke-opacity:1; fill:none" points="1945.34,735.212 1667.71,735.212 1945.34,735.212 1806.53,735.212 "></polyline>
<polyline clip-path="url(#clip072)" style="stroke:#0000ff; stroke-linecap:round; stroke-linejoin:round; stroke-width:0; stroke-opacity:1; fill:none" points="1806.53,735.212 1737.12,735.212 1875.93,735.212 1806.53,735.212 "></polyline>
<polyline clip-path="url(#clip072)" style="stroke:#0000ff; stroke-linecap:round; stroke-linejoin:round; stroke-width:0; stroke-opacity:1; fill:none" points="2153.56,248.442 2084.15,248.442 2222.97,248.442 2153.56,248.442 "></polyline>
<polyline clip-path="url(#clip072)" style="stroke:#0000ff; stroke-linecap:round; stroke-linejoin:round; stroke-width:0; stroke-opacity:1; fill:none" points="2292.37,248.442 2292.37,86.1857 2014.75,86.1857 2014.75,248.442 2292.37,248.442 2292.37,86.1857 "></polyline>
<polyline clip-path="url(#clip072)" style="stroke:#0000ff; stroke-linecap:round; stroke-linejoin:round; stroke-width:0; stroke-opacity:1; fill:none" points="2292.37,86.1857 2014.75,86.1857 2292.37,86.1857 2153.56,86.1857 "></polyline>
<polyline clip-path="url(#clip072)" style="stroke:#0000ff; stroke-linecap:round; stroke-linejoin:round; stroke-width:0; stroke-opacity:1; fill:none" points="2153.56,86.1857 2084.15,86.1857 2222.97,86.1857 2153.56,86.1857 "></polyline>
<path clip-path="url(#clip070)" d="M290.314 196.789 L901.746 196.789 L901.746 93.1086 L290.314 93.1086  Z" fill="#ffffff" fill-rule="evenodd" fill-opacity="1"></path>
<polyline clip-path="url(#clip070)" style="stroke:#000000; stroke-linecap:round; stroke-linejoin:round; stroke-width:4; stroke-opacity:1; fill:none" points="290.314,196.789 901.746,196.789 901.746,93.1086 290.314,93.1086 290.314,196.789 "></polyline>
<path clip-path="url(#clip070)" d="M314.02 165.685 L456.257 165.685 L456.257 124.213 L314.02 124.213 L314.02 165.685  Z" fill="#0000ff" fill-rule="evenodd" fill-opacity="1"></path>
<polyline clip-path="url(#clip070)" style="stroke:#000000; stroke-linecap:round; stroke-linejoin:round; stroke-width:4; stroke-opacity:1; fill:none" points="314.02,165.685 456.257,165.685 456.257,124.213 314.02,124.213 314.02,165.685 "></polyline>
<path clip-path="url(#clip070)" d="M479.964 127.669 L486.26 127.669 L501.584 156.581 L501.584 127.669 L506.121 127.669 L506.121 162.229 L499.825 162.229 L484.501 133.317 L484.501 162.229 L479.964 162.229 L479.964 127.669 Z" fill="#000000" fill-rule="nonzero" fill-opacity="1"></path><path clip-path="url(#clip070)" d="M515.426 127.669 L521.723 127.669 L537.047 156.581 L537.047 127.669 L541.584 127.669 L541.584 162.229 L535.287 162.229 L519.963 133.317 L519.963 162.229 L515.426 162.229 L515.426 127.669 Z" fill="#000000" fill-rule="nonzero" fill-opacity="1"></path><path clip-path="url(#clip070)" d="M550.889 127.669 L555.565 127.669 L555.565 158.293 L572.394 158.293 L572.394 162.229 L550.889 162.229 L550.889 127.669 Z" fill="#000000" fill-rule="nonzero" fill-opacity="1"></path><path clip-path="url(#clip070)" d="M598.018 128.803 L598.018 133.363 Q595.356 132.09 592.995 131.465 Q590.634 130.84 588.435 130.84 Q584.616 130.84 582.532 132.321 Q580.472 133.803 580.472 136.534 Q580.472 138.826 581.838 140.007 Q583.227 141.164 587.069 141.882 L589.893 142.46 Q595.125 143.456 597.602 145.979 Q600.102 148.479 600.102 152.692 Q600.102 157.715 596.722 160.307 Q593.366 162.9 586.861 162.9 Q584.407 162.9 581.63 162.344 Q578.875 161.789 575.912 160.701 L575.912 155.886 Q578.759 157.483 581.491 158.293 Q584.222 159.104 586.861 159.104 Q590.866 159.104 593.042 157.53 Q595.218 155.956 595.218 153.039 Q595.218 150.493 593.643 149.057 Q592.093 147.622 588.528 146.905 L585.681 146.349 Q580.449 145.307 578.111 143.085 Q575.773 140.863 575.773 136.905 Q575.773 132.321 578.991 129.682 Q582.232 127.044 587.903 127.044 Q590.333 127.044 592.856 127.483 Q595.38 127.923 598.018 128.803 Z" fill="#000000" fill-rule="nonzero" fill-opacity="1"></path><path clip-path="url(#clip070)" d="M626.398 158.34 L626.398 172.09 L622.116 172.09 L622.116 136.303 L626.398 136.303 L626.398 140.238 Q627.741 137.923 629.778 136.812 Q631.838 135.678 634.685 135.678 Q639.407 135.678 642.347 139.428 Q645.31 143.178 645.31 149.289 Q645.31 155.4 642.347 159.15 Q639.407 162.9 634.685 162.9 Q631.838 162.9 629.778 161.789 Q627.741 160.655 626.398 158.34 M640.889 149.289 Q640.889 144.59 638.944 141.928 Q637.023 139.243 633.643 139.243 Q630.264 139.243 628.319 141.928 Q626.398 144.59 626.398 149.289 Q626.398 153.988 628.319 156.673 Q630.264 159.335 633.643 159.335 Q637.023 159.335 638.944 156.673 Q640.889 153.988 640.889 149.289 Z" fill="#000000" fill-rule="nonzero" fill-opacity="1"></path><path clip-path="url(#clip070)" d="M667.393 140.284 Q666.675 139.868 665.819 139.682 Q664.986 139.474 663.967 139.474 Q660.356 139.474 658.412 141.835 Q656.49 144.173 656.49 148.571 L656.49 162.229 L652.208 162.229 L652.208 136.303 L656.49 136.303 L656.49 140.331 Q657.833 137.969 659.986 136.835 Q662.138 135.678 665.217 135.678 Q665.657 135.678 666.189 135.747 Q666.722 135.794 667.37 135.909 L667.393 140.284 Z" fill="#000000" fill-rule="nonzero" fill-opacity="1"></path><path clip-path="url(#clip070)" d="M692.995 148.201 L692.995 150.284 L673.412 150.284 Q673.689 154.682 676.05 156.997 Q678.435 159.289 682.671 159.289 Q685.124 159.289 687.416 158.687 Q689.731 158.085 691.999 156.881 L691.999 160.909 Q689.708 161.881 687.3 162.391 Q684.893 162.9 682.416 162.9 Q676.212 162.9 672.578 159.289 Q668.967 155.678 668.967 149.52 Q668.967 143.155 672.393 139.428 Q675.842 135.678 681.675 135.678 Q686.907 135.678 689.939 139.057 Q692.995 142.414 692.995 148.201 M688.736 146.951 Q688.689 143.456 686.768 141.372 Q684.87 139.289 681.722 139.289 Q678.157 139.289 676.004 141.303 Q673.875 143.317 673.55 146.974 L688.736 146.951 Z" fill="#000000" fill-rule="nonzero" fill-opacity="1"></path><path clip-path="url(#clip070)" d="M717.046 140.238 L717.046 126.21 L721.305 126.21 L721.305 162.229 L717.046 162.229 L717.046 158.34 Q715.703 160.655 713.643 161.789 Q711.606 162.9 708.735 162.9 Q704.036 162.9 701.073 159.15 Q698.134 155.4 698.134 149.289 Q698.134 143.178 701.073 139.428 Q704.036 135.678 708.735 135.678 Q711.606 135.678 713.643 136.812 Q715.703 137.923 717.046 140.238 M702.532 149.289 Q702.532 153.988 704.453 156.673 Q706.398 159.335 709.777 159.335 Q713.157 159.335 715.101 156.673 Q717.046 153.988 717.046 149.289 Q717.046 144.59 715.101 141.928 Q713.157 139.243 709.777 139.243 Q706.398 139.243 704.453 141.928 Q702.532 144.59 702.532 149.289 Z" fill="#000000" fill-rule="nonzero" fill-opacity="1"></path><path clip-path="url(#clip070)" d="M730.078 136.303 L734.337 136.303 L734.337 162.229 L730.078 162.229 L730.078 136.303 M730.078 126.21 L734.337 126.21 L734.337 131.604 L730.078 131.604 L730.078 126.21 Z" fill="#000000" fill-rule="nonzero" fill-opacity="1"></path><path clip-path="url(#clip070)" d="M761.906 137.298 L761.906 141.28 Q760.101 140.284 758.272 139.798 Q756.467 139.289 754.615 139.289 Q750.471 139.289 748.18 141.928 Q745.888 144.544 745.888 149.289 Q745.888 154.034 748.18 156.673 Q750.471 159.289 754.615 159.289 Q756.467 159.289 758.272 158.803 Q760.101 158.293 761.906 157.298 L761.906 161.233 Q760.124 162.067 758.203 162.483 Q756.305 162.9 754.152 162.9 Q748.295 162.9 744.846 159.219 Q741.397 155.539 741.397 149.289 Q741.397 142.946 744.87 139.312 Q748.365 135.678 754.43 135.678 Q756.397 135.678 758.272 136.095 Q760.147 136.488 761.906 137.298 Z" fill="#000000" fill-rule="nonzero" fill-opacity="1"></path><path clip-path="url(#clip070)" d="M773.527 128.942 L773.527 136.303 L782.3 136.303 L782.3 139.613 L773.527 139.613 L773.527 153.687 Q773.527 156.858 774.383 157.761 Q775.263 158.664 777.925 158.664 L782.3 158.664 L782.3 162.229 L777.925 162.229 Q772.994 162.229 771.119 160.4 Q769.244 158.548 769.244 153.687 L769.244 139.613 L766.119 139.613 L766.119 136.303 L769.244 136.303 L769.244 128.942 L773.527 128.942 Z" fill="#000000" fill-rule="nonzero" fill-opacity="1"></path><path clip-path="url(#clip070)" d="M787.902 136.303 L792.161 136.303 L792.161 162.229 L787.902 162.229 L787.902 136.303 M787.902 126.21 L792.161 126.21 L792.161 131.604 L787.902 131.604 L787.902 126.21 Z" fill="#000000" fill-rule="nonzero" fill-opacity="1"></path><path clip-path="url(#clip070)" d="M811.119 139.289 Q807.693 139.289 805.703 141.974 Q803.712 144.636 803.712 149.289 Q803.712 153.942 805.679 156.627 Q807.67 159.289 811.119 159.289 Q814.522 159.289 816.513 156.604 Q818.503 153.918 818.503 149.289 Q818.503 144.682 816.513 141.997 Q814.522 139.289 811.119 139.289 M811.119 135.678 Q816.675 135.678 819.846 139.289 Q823.017 142.9 823.017 149.289 Q823.017 155.655 819.846 159.289 Q816.675 162.9 811.119 162.9 Q805.54 162.9 802.369 159.289 Q799.221 155.655 799.221 149.289 Q799.221 142.9 802.369 139.289 Q805.54 135.678 811.119 135.678 Z" fill="#000000" fill-rule="nonzero" fill-opacity="1"></path><path clip-path="url(#clip070)" d="M851.628 146.581 L851.628 162.229 L847.369 162.229 L847.369 146.719 Q847.369 143.039 845.934 141.21 Q844.499 139.382 841.628 139.382 Q838.179 139.382 836.188 141.581 Q834.198 143.78 834.198 147.576 L834.198 162.229 L829.915 162.229 L829.915 136.303 L834.198 136.303 L834.198 140.331 Q835.726 137.993 837.786 136.835 Q839.869 135.678 842.577 135.678 Q847.045 135.678 849.337 138.456 Q851.628 141.21 851.628 146.581 Z" fill="#000000" fill-rule="nonzero" fill-opacity="1"></path><path clip-path="url(#clip070)" d="M876.651 137.067 L876.651 141.094 Q874.846 140.169 872.901 139.706 Q870.957 139.243 868.873 139.243 Q865.702 139.243 864.105 140.215 Q862.531 141.187 862.531 143.131 Q862.531 144.613 863.665 145.469 Q864.799 146.303 868.225 147.067 L869.684 147.391 Q874.221 148.363 876.119 150.145 Q878.04 151.905 878.04 155.076 Q878.04 158.687 875.17 160.793 Q872.323 162.9 867.323 162.9 Q865.239 162.9 862.971 162.483 Q860.725 162.09 858.225 161.28 L858.225 156.881 Q860.586 158.108 862.878 158.733 Q865.17 159.335 867.415 159.335 Q870.424 159.335 872.045 158.317 Q873.665 157.275 873.665 155.4 Q873.665 153.664 872.485 152.738 Q871.327 151.812 867.369 150.956 L865.887 150.608 Q861.929 149.775 860.17 148.062 Q858.411 146.326 858.411 143.317 Q858.411 139.659 861.003 137.669 Q863.596 135.678 868.364 135.678 Q870.725 135.678 872.809 136.025 Q874.892 136.372 876.651 137.067 Z" fill="#000000" fill-rule="nonzero" fill-opacity="1"></path></svg>