<svg xmlns="http://www.w3.org/2000/svg" xmlns:xlink="http://www.w3.org/1999/xlink" width="600" height="400" viewBox="0 0 2400 1600">
<defs>
  <clipPath id="clip390">
    <rect x="0" y="0" width="2400" height="1600"></rect>
  </clipPath>
</defs>
<path clip-path="url(#clip390)" d="M0 1600 L2400 1600 L2400 8.88178e-14 L0 8.88178e-14  Z" fill="#ffffff" fill-rule="evenodd" fill-opacity="1"></path>
<defs>
  <clipPath id="clip391">
    <rect x="480" y="0" width="1681" height="1600"></rect>
  </clipPath>
</defs>
<path clip-path="url(#clip390)" d="M138.959 1486.45 L2352.76 1486.45 L2352.76 123.472 L138.959 123.472  Z" fill="#ffffff" fill-rule="evenodd" fill-opacity="1"></path>
<defs>
  <clipPath id="clip392">
    <rect x="138" y="123" width="2215" height="1364"></rect>
  </clipPath>
</defs>
<polyline clip-path="url(#clip392)" style="stroke:#000000; stroke-linecap:round; stroke-linejoin:round; stroke-width:2; stroke-opacity:0.1; fill:none" points="163.498,1486.45 163.498,123.472 "></polyline>
<polyline clip-path="url(#clip392)" style="stroke:#000000; stroke-linecap:round; stroke-linejoin:round; stroke-width:2; stroke-opacity:0.1; fill:none" points="623.77,1486.45 623.77,123.472 "></polyline>
<polyline clip-path="url(#clip392)" style="stroke:#000000; stroke-linecap:round; stroke-linejoin:round; stroke-width:2; stroke-opacity:0.1; fill:none" points="1084.04,1486.45 1084.04,123.472 "></polyline>
<polyline clip-path="url(#clip392)" style="stroke:#000000; stroke-linecap:round; stroke-linejoin:round; stroke-width:2; stroke-opacity:0.1; fill:none" points="1544.32,1486.45 1544.32,123.472 "></polyline>
<polyline clip-path="url(#clip392)" style="stroke:#000000; stroke-linecap:round; stroke-linejoin:round; stroke-width:2; stroke-opacity:0.1; fill:none" points="2004.59,1486.45 2004.59,123.472 "></polyline>
<polyline clip-path="url(#clip390)" style="stroke:#000000; stroke-linecap:round; stroke-linejoin:round; stroke-width:4; stroke-opacity:1; fill:none" points="138.959,1486.45 2352.76,1486.45 "></polyline>
<polyline clip-path="url(#clip390)" style="stroke:#000000; stroke-linecap:round; stroke-linejoin:round; stroke-width:4; stroke-opacity:1; fill:none" points="163.498,1486.45 163.498,1467.55 "></polyline>
<polyline clip-path="url(#clip390)" style="stroke:#000000; stroke-linecap:round; stroke-linejoin:round; stroke-width:4; stroke-opacity:1; fill:none" points="623.77,1486.45 623.77,1467.55 "></polyline>
<polyline clip-path="url(#clip390)" style="stroke:#000000; stroke-linecap:round; stroke-linejoin:round; stroke-width:4; stroke-opacity:1; fill:none" points="1084.04,1486.45 1084.04,1467.55 "></polyline>
<polyline clip-path="url(#clip390)" style="stroke:#000000; stroke-linecap:round; stroke-linejoin:round; stroke-width:4; stroke-opacity:1; fill:none" points="1544.32,1486.45 1544.32,1467.55 "></polyline>
<polyline clip-path="url(#clip390)" style="stroke:#000000; stroke-linecap:round; stroke-linejoin:round; stroke-width:4; stroke-opacity:1; fill:none" points="2004.59,1486.45 2004.59,1467.55 "></polyline>
<path clip-path="url(#clip390)" d="M118.058 1532.02 L147.734 1532.02 L147.734 1535.95 L118.058 1535.95 L118.058 1532.02 Z" fill="#000000" fill-rule="nonzero" fill-opacity="1"></path><path clip-path="url(#clip390)" d="M161.854 1544.91 L178.174 1544.91 L178.174 1548.85 L156.229 1548.85 L156.229 1544.91 Q158.891 1542.16 163.475 1537.53 Q168.081 1532.88 169.262 1531.53 Q171.507 1529.01 172.387 1527.27 Q173.289 1525.51 173.289 1523.82 Q173.289 1521.07 171.345 1519.33 Q169.424 1517.6 166.322 1517.6 Q164.123 1517.6 161.669 1518.36 Q159.238 1519.13 156.461 1520.68 L156.461 1515.95 Q159.285 1514.82 161.738 1514.24 Q164.192 1513.66 166.229 1513.66 Q171.6 1513.66 174.794 1516.35 Q177.988 1519.03 177.988 1523.52 Q177.988 1525.65 177.178 1527.57 Q176.391 1529.47 174.285 1532.07 Q173.706 1532.74 170.604 1535.95 Q167.502 1539.15 161.854 1544.91 Z" fill="#000000" fill-rule="nonzero" fill-opacity="1"></path><path clip-path="url(#clip390)" d="M188.035 1514.29 L206.391 1514.29 L206.391 1518.22 L192.317 1518.22 L192.317 1526.7 Q193.336 1526.35 194.354 1526.19 Q195.373 1526 196.391 1526 Q202.178 1526 205.558 1529.17 Q208.937 1532.34 208.937 1537.76 Q208.937 1543.34 205.465 1546.44 Q201.993 1549.52 195.673 1549.52 Q193.498 1549.52 191.229 1549.15 Q188.984 1548.78 186.576 1548.04 L186.576 1543.34 Q188.66 1544.47 190.882 1545.03 Q193.104 1545.58 195.581 1545.58 Q199.585 1545.58 201.923 1543.48 Q204.261 1541.37 204.261 1537.76 Q204.261 1534.15 201.923 1532.04 Q199.585 1529.94 195.581 1529.94 Q193.706 1529.94 191.831 1530.35 Q189.979 1530.77 188.035 1531.65 L188.035 1514.29 Z" fill="#000000" fill-rule="nonzero" fill-opacity="1"></path><path clip-path="url(#clip390)" d="M577.833 1532.02 L607.509 1532.02 L607.509 1535.95 L577.833 1535.95 L577.833 1532.02 Z" fill="#000000" fill-rule="nonzero" fill-opacity="1"></path><path clip-path="url(#clip390)" d="M621.629 1544.91 L637.949 1544.91 L637.949 1548.85 L616.004 1548.85 L616.004 1544.91 Q618.666 1542.16 623.25 1537.53 Q627.856 1532.88 629.037 1531.53 Q631.282 1529.01 632.162 1527.27 Q633.064 1525.51 633.064 1523.82 Q633.064 1521.07 631.12 1519.33 Q629.199 1517.6 626.097 1517.6 Q623.898 1517.6 621.444 1518.36 Q619.013 1519.13 616.236 1520.68 L616.236 1515.95 Q619.06 1514.82 621.513 1514.24 Q623.967 1513.66 626.004 1513.66 Q631.375 1513.66 634.569 1516.35 Q637.763 1519.03 637.763 1523.52 Q637.763 1525.65 636.953 1527.57 Q636.166 1529.47 634.06 1532.07 Q633.481 1532.74 630.379 1535.95 Q627.277 1539.15 621.629 1544.91 Z" fill="#000000" fill-rule="nonzero" fill-opacity="1"></path><path clip-path="url(#clip390)" d="M657.763 1517.37 Q654.152 1517.37 652.323 1520.93 Q650.518 1524.47 650.518 1531.6 Q650.518 1538.71 652.323 1542.27 Q654.152 1545.82 657.763 1545.82 Q661.398 1545.82 663.203 1542.27 Q665.032 1538.71 665.032 1531.6 Q665.032 1524.47 663.203 1520.93 Q661.398 1517.37 657.763 1517.37 M657.763 1513.66 Q663.573 1513.66 666.629 1518.27 Q669.708 1522.85 669.708 1531.6 Q669.708 1540.33 666.629 1544.94 Q663.573 1549.52 657.763 1549.52 Q651.953 1549.52 648.874 1544.94 Q645.819 1540.33 645.819 1531.6 Q645.819 1522.85 648.874 1518.27 Q651.953 1513.66 657.763 1513.66 Z" fill="#000000" fill-rule="nonzero" fill-opacity="1"></path><path clip-path="url(#clip390)" d="M1038.6 1532.02 L1068.28 1532.02 L1068.28 1535.95 L1038.6 1535.95 L1038.6 1532.02 Z" fill="#000000" fill-rule="nonzero" fill-opacity="1"></path><path clip-path="url(#clip390)" d="M1079.18 1544.91 L1086.82 1544.91 L1086.82 1518.55 L1078.51 1520.21 L1078.51 1515.95 L1086.77 1514.29 L1091.45 1514.29 L1091.45 1544.91 L1099.09 1544.91 L1099.09 1548.85 L1079.18 1548.85 L1079.18 1544.91 Z" fill="#000000" fill-rule="nonzero" fill-opacity="1"></path><path clip-path="url(#clip390)" d="M1108.58 1514.29 L1126.94 1514.29 L1126.94 1518.22 L1112.86 1518.22 L1112.86 1526.7 Q1113.88 1526.35 1114.9 1526.19 Q1115.92 1526 1116.94 1526 Q1122.72 1526 1126.1 1529.17 Q1129.48 1532.34 1129.48 1537.76 Q1129.48 1543.34 1126.01 1546.44 Q1122.54 1549.52 1116.22 1549.52 Q1114.04 1549.52 1111.77 1549.15 Q1109.53 1548.78 1107.12 1548.04 L1107.12 1543.34 Q1109.2 1544.47 1111.43 1545.03 Q1113.65 1545.58 1116.13 1545.58 Q1120.13 1545.58 1122.47 1543.48 Q1124.81 1541.37 1124.81 1537.76 Q1124.81 1534.15 1122.47 1532.04 Q1120.13 1529.94 1116.13 1529.94 Q1114.25 1529.94 1112.38 1530.35 Q1110.52 1530.77 1108.58 1531.65 L1108.58 1514.29 Z" fill="#000000" fill-rule="nonzero" fill-opacity="1"></path><path clip-path="url(#clip390)" d="M1498.38 1532.02 L1528.05 1532.02 L1528.05 1535.95 L1498.38 1535.95 L1498.38 1532.02 Z" fill="#000000" fill-rule="nonzero" fill-opacity="1"></path><path clip-path="url(#clip390)" d="M1538.96 1544.91 L1546.6 1544.91 L1546.6 1518.55 L1538.29 1520.21 L1538.29 1515.95 L1546.55 1514.29 L1551.23 1514.29 L1551.23 1544.91 L1558.86 1544.91 L1558.86 1548.85 L1538.96 1548.85 L1538.96 1544.91 Z" fill="#000000" fill-rule="nonzero" fill-opacity="1"></path><path clip-path="url(#clip390)" d="M1578.31 1517.37 Q1574.7 1517.37 1572.87 1520.93 Q1571.06 1524.47 1571.06 1531.6 Q1571.06 1538.71 1572.87 1542.27 Q1574.7 1545.82 1578.31 1545.82 Q1581.94 1545.82 1583.75 1542.27 Q1585.58 1538.71 1585.58 1531.6 Q1585.58 1524.47 1583.75 1520.93 Q1581.94 1517.37 1578.31 1517.37 M1578.31 1513.66 Q1584.12 1513.66 1587.17 1518.27 Q1590.25 1522.85 1590.25 1531.6 Q1590.25 1540.33 1587.17 1544.94 Q1584.12 1549.52 1578.31 1549.52 Q1572.5 1549.52 1569.42 1544.94 Q1566.36 1540.33 1566.36 1531.6 Q1566.36 1522.85 1569.42 1518.27 Q1572.5 1513.66 1578.31 1513.66 Z" fill="#000000" fill-rule="nonzero" fill-opacity="1"></path><path clip-path="url(#clip390)" d="M1974.23 1532.02 L2003.91 1532.02 L2003.91 1535.95 L1974.23 1535.95 L1974.23 1532.02 Z" fill="#000000" fill-rule="nonzero" fill-opacity="1"></path><path clip-path="url(#clip390)" d="M2014.04 1514.29 L2032.4 1514.29 L2032.4 1518.22 L2018.33 1518.22 L2018.33 1526.7 Q2019.35 1526.35 2020.36 1526.19 Q2021.38 1526 2022.4 1526 Q2028.19 1526 2031.57 1529.17 Q2034.95 1532.34 2034.95 1537.76 Q2034.95 1543.34 2031.47 1546.44 Q2028 1549.52 2021.68 1549.52 Q2019.51 1549.52 2017.24 1549.15 Q2014.99 1548.78 2012.59 1548.04 L2012.59 1543.34 Q2014.67 1544.47 2016.89 1545.03 Q2019.11 1545.58 2021.59 1545.58 Q2025.6 1545.58 2027.93 1543.48 Q2030.27 1541.37 2030.27 1537.76 Q2030.27 1534.15 2027.93 1532.04 Q2025.6 1529.94 2021.59 1529.94 Q2019.72 1529.94 2017.84 1530.35 Q2015.99 1530.77 2014.04 1531.65 L2014.04 1514.29 Z" fill="#000000" fill-rule="nonzero" fill-opacity="1"></path><polyline clip-path="url(#clip392)" style="stroke:#000000; stroke-linecap:round; stroke-linejoin:round; stroke-width:2; stroke-opacity:0.1; fill:none" points="138.959,1403.71 2352.76,1403.71 "></polyline>
<polyline clip-path="url(#clip392)" style="stroke:#000000; stroke-linecap:round; stroke-linejoin:round; stroke-width:2; stroke-opacity:0.1; fill:none" points="138.959,1050.4 2352.76,1050.4 "></polyline>
<polyline clip-path="url(#clip392)" style="stroke:#000000; stroke-linecap:round; stroke-linejoin:round; stroke-width:2; stroke-opacity:0.1; fill:none" points="138.959,697.098 2352.76,697.098 "></polyline>
<polyline clip-path="url(#clip392)" style="stroke:#000000; stroke-linecap:round; stroke-linejoin:round; stroke-width:2; stroke-opacity:0.1; fill:none" points="138.959,343.792 2352.76,343.792 "></polyline>
<polyline clip-path="url(#clip390)" style="stroke:#000000; stroke-linecap:round; stroke-linejoin:round; stroke-width:4; stroke-opacity:1; fill:none" points="138.959,1486.45 138.959,123.472 "></polyline>
<polyline clip-path="url(#clip390)" style="stroke:#000000; stroke-linecap:round; stroke-linejoin:round; stroke-width:4; stroke-opacity:1; fill:none" points="138.959,1403.71 157.857,1403.71 "></polyline>
<polyline clip-path="url(#clip390)" style="stroke:#000000; stroke-linecap:round; stroke-linejoin:round; stroke-width:4; stroke-opacity:1; fill:none" points="138.959,1050.4 157.857,1050.4 "></polyline>
<polyline clip-path="url(#clip390)" style="stroke:#000000; stroke-linecap:round; stroke-linejoin:round; stroke-width:4; stroke-opacity:1; fill:none" points="138.959,697.098 157.857,697.098 "></polyline>
<polyline clip-path="url(#clip390)" style="stroke:#000000; stroke-linecap:round; stroke-linejoin:round; stroke-width:4; stroke-opacity:1; fill:none" points="138.959,343.792 157.857,343.792 "></polyline>
<path clip-path="url(#clip390)" d="M91.0151 1389.51 Q87.404 1389.51 85.5753 1393.07 Q83.7697 1396.61 83.7697 1403.74 Q83.7697 1410.85 85.5753 1414.42 Q87.404 1417.96 91.0151 1417.96 Q94.6493 1417.96 96.4548 1414.42 Q98.2835 1410.85 98.2835 1403.74 Q98.2835 1396.61 96.4548 1393.07 Q94.6493 1389.51 91.0151 1389.51 M91.0151 1385.8 Q96.8252 1385.8 99.8808 1390.41 Q102.959 1394.99 102.959 1403.74 Q102.959 1412.47 99.8808 1417.08 Q96.8252 1421.66 91.0151 1421.66 Q85.2049 1421.66 82.1262 1417.08 Q79.0707 1412.47 79.0707 1403.74 Q79.0707 1394.99 82.1262 1390.41 Q85.2049 1385.8 91.0151 1385.8 Z" fill="#000000" fill-rule="nonzero" fill-opacity="1"></path><path clip-path="url(#clip390)" d="M82.0568 1033.12 L100.413 1033.12 L100.413 1037.06 L86.3392 1037.06 L86.3392 1045.53 Q87.3577 1045.18 88.3762 1045.02 Q89.3947 1044.84 90.4132 1044.84 Q96.2002 1044.84 99.5798 1048.01 Q102.959 1051.18 102.959 1056.6 Q102.959 1062.17 99.4872 1065.28 Q96.015 1068.36 89.6956 1068.36 Q87.5197 1068.36 85.2512 1067.98 Q83.0058 1067.61 80.5984 1066.87 L80.5984 1062.17 Q82.6818 1063.31 84.904 1063.86 Q87.1262 1064.42 89.603 1064.42 Q93.6076 1064.42 95.9456 1062.31 Q98.2835 1060.21 98.2835 1056.6 Q98.2835 1052.98 95.9456 1050.88 Q93.6076 1048.77 89.603 1048.77 Q87.728 1048.77 85.8531 1049.19 Q84.0012 1049.61 82.0568 1050.48 L82.0568 1033.12 Z" fill="#000000" fill-rule="nonzero" fill-opacity="1"></path><path clip-path="url(#clip390)" d="M51.6634 710.443 L59.3023 710.443 L59.3023 684.077 L50.9921 685.744 L50.9921 681.485 L59.256 679.818 L63.9319 679.818 L63.9319 710.443 L71.5707 710.443 L71.5707 714.378 L51.6634 714.378 L51.6634 710.443 Z" fill="#000000" fill-rule="nonzero" fill-opacity="1"></path><path clip-path="url(#clip390)" d="M91.0151 682.897 Q87.404 682.897 85.5753 686.462 Q83.7697 690.003 83.7697 697.133 Q83.7697 704.239 85.5753 707.804 Q87.404 711.346 91.0151 711.346 Q94.6493 711.346 96.4548 707.804 Q98.2835 704.239 98.2835 697.133 Q98.2835 690.003 96.4548 686.462 Q94.6493 682.897 91.0151 682.897 M91.0151 679.193 Q96.8252 679.193 99.8808 683.8 Q102.959 688.383 102.959 697.133 Q102.959 705.86 99.8808 710.466 Q96.8252 715.049 91.0151 715.049 Q85.2049 715.049 82.1262 710.466 Q79.0707 705.86 79.0707 697.133 Q79.0707 688.383 82.1262 683.8 Q85.2049 679.193 91.0151 679.193 Z" fill="#000000" fill-rule="nonzero" fill-opacity="1"></path><path clip-path="url(#clip390)" d="M52.6588 357.137 L60.2976 357.137 L60.2976 330.771 L51.9875 332.438 L51.9875 328.179 L60.2513 326.512 L64.9272 326.512 L64.9272 357.137 L72.5661 357.137 L72.5661 361.072 L52.6588 361.072 L52.6588 357.137 Z" fill="#000000" fill-rule="nonzero" fill-opacity="1"></path><path clip-path="url(#clip390)" d="M82.0568 326.512 L100.413 326.512 L100.413 330.447 L86.3392 330.447 L86.3392 338.92 Q87.3577 338.572 88.3762 338.41 Q89.3947 338.225 90.4132 338.225 Q96.2002 338.225 99.5798 341.396 Q102.959 344.568 102.959 349.984 Q102.959 355.563 99.4872 358.665 Q96.015 361.744 89.6956 361.744 Q87.5197 361.744 85.2512 361.373 Q83.0058 361.003 80.5984 360.262 L80.5984 355.563 Q82.6818 356.697 84.904 357.253 Q87.1262 357.808 89.603 357.808 Q93.6076 357.808 95.9456 355.702 Q98.2835 353.595 98.2835 349.984 Q98.2835 346.373 95.9456 344.267 Q93.6076 342.16 89.603 342.16 Q87.728 342.16 85.8531 342.577 Q84.0012 342.994 82.0568 343.873 L82.0568 326.512 Z" fill="#000000" fill-rule="nonzero" fill-opacity="1"></path><path clip-path="url(#clip390)" d="M45.8583 12.096 L84.0989 12.096 L84.0989 18.9825 L54.0411 18.9825 L54.0411 36.8875 L82.8431 36.8875 L82.8431 43.7741 L54.0411 43.7741 L54.0411 65.6895 L84.828 65.6895 L84.828 72.576 L45.8583 72.576 L45.8583 12.096 Z" fill="#000000" fill-rule="nonzero" fill-opacity="1"></path><path clip-path="url(#clip390)" d="M106.46 18.8205 L106.46 65.8515 L116.344 65.8515 Q128.861 65.8515 134.654 60.1802 Q140.487 54.509 140.487 42.2752 Q140.487 30.1225 134.654 24.4918 Q128.861 18.8205 116.344 18.8205 L106.46 18.8205 M98.277 12.096 L115.088 12.096 Q132.669 12.096 140.893 19.4281 Q149.116 26.7198 149.116 42.2752 Q149.116 57.9117 140.852 65.2439 Q132.588 72.576 115.088 72.576 L98.277 72.576 L98.277 12.096 Z" fill="#000000" fill-rule="nonzero" fill-opacity="1"></path><path clip-path="url(#clip390)" d="M220.776 49.9314 Q220.776 41.7081 217.374 37.0496 Q214.011 32.3505 208.097 32.3505 Q202.183 32.3505 198.78 37.0496 Q195.418 41.7081 195.418 49.9314 Q195.418 58.1548 198.78 62.8538 Q202.183 67.5124 208.097 67.5124 Q214.011 67.5124 217.374 62.8538 Q220.776 58.1548 220.776 49.9314 M195.418 34.0924 Q197.767 30.0415 201.332 28.0971 Q204.937 26.1121 209.92 26.1121 Q218.184 26.1121 223.328 32.6746 Q228.514 39.2371 228.514 49.9314 Q228.514 60.6258 223.328 67.1883 Q218.184 73.7508 209.92 73.7508 Q204.937 73.7508 201.332 71.8063 Q197.767 69.8214 195.418 65.7705 L195.418 72.576 L187.924 72.576 L187.924 9.54393 L195.418 9.54393 L195.418 34.0924 Z" fill="#000000" fill-rule="nonzero" fill-opacity="1"></path><path clip-path="url(#clip390)" d="M279.677 48.0275 L279.677 51.6733 L245.406 51.6733 Q245.892 59.3701 250.024 63.421 Q254.196 67.4314 261.609 67.4314 Q265.903 67.4314 269.914 66.3781 Q273.965 65.3249 277.935 63.2184 L277.935 70.267 Q273.924 71.9684 269.711 72.8596 Q265.498 73.7508 261.164 73.7508 Q250.307 73.7508 243.948 67.4314 Q237.628 61.1119 237.628 50.3365 Q237.628 39.1965 243.623 32.6746 Q249.659 26.1121 259.868 26.1121 Q269.023 26.1121 274.329 32.0264 Q279.677 37.9003 279.677 48.0275 M272.223 45.84 Q272.142 39.7232 268.78 36.0774 Q265.458 32.4315 259.949 32.4315 Q253.71 32.4315 249.943 35.9558 Q246.216 39.4801 245.649 45.8805 L272.223 45.84 Z" fill="#000000" fill-rule="nonzero" fill-opacity="1"></path><path clip-path="url(#clip390)" d="M299.283 14.324 L299.283 27.2059 L314.636 27.2059 L314.636 32.9987 L299.283 32.9987 L299.283 57.6282 Q299.283 63.1779 300.782 64.7578 Q302.321 66.3376 306.98 66.3376 L314.636 66.3376 L314.636 72.576 L306.98 72.576 Q298.351 72.576 295.07 69.3758 Q291.789 66.1351 291.789 57.6282 L291.789 32.9987 L286.32 32.9987 L286.32 27.2059 L291.789 27.2059 L291.789 14.324 L299.283 14.324 Z" fill="#000000" fill-rule="nonzero" fill-opacity="1"></path><path clip-path="url(#clip390)" d="M320.105 27.2059 L327.558 27.2059 L336.875 62.6108 L346.152 27.2059 L354.942 27.2059 L364.259 62.6108 L373.536 27.2059 L380.99 27.2059 L369.12 72.576 L360.33 72.576 L350.567 35.3887 L340.764 72.576 L331.974 72.576 L320.105 27.2059 Z" fill="#000000" fill-rule="nonzero" fill-opacity="1"></path><path clip-path="url(#clip390)" d="M431.099 48.0275 L431.099 51.6733 L396.829 51.6733 Q397.315 59.3701 401.447 63.421 Q405.619 67.4314 413.032 67.4314 Q417.326 67.4314 421.337 66.3781 Q425.388 65.3249 429.357 63.2184 L429.357 70.267 Q425.347 71.9684 421.134 72.8596 Q416.921 73.7508 412.587 73.7508 Q401.73 73.7508 395.37 67.4314 Q389.051 61.1119 389.051 50.3365 Q389.051 39.1965 395.046 32.6746 Q401.082 26.1121 411.29 26.1121 Q420.445 26.1121 425.752 32.0264 Q431.099 37.9003 431.099 48.0275 M423.646 45.84 Q423.565 39.7232 420.202 36.0774 Q416.881 32.4315 411.371 32.4315 Q405.133 32.4315 401.366 35.9558 Q397.639 39.4801 397.072 45.8805 L423.646 45.84 Z" fill="#000000" fill-rule="nonzero" fill-opacity="1"></path><path clip-path="url(#clip390)" d="M482.141 48.0275 L482.141 51.6733 L447.87 51.6733 Q448.356 59.3701 452.488 63.421 Q456.661 67.4314 464.074 67.4314 Q468.368 67.4314 472.378 66.3781 Q476.429 65.3249 480.399 63.2184 L480.399 70.267 Q476.388 71.9684 472.175 72.8596 Q467.963 73.7508 463.628 73.7508 Q452.772 73.7508 446.412 67.4314 Q440.092 61.1119 440.092 50.3365 Q440.092 39.1965 446.088 32.6746 Q452.124 26.1121 462.332 26.1121 Q471.487 26.1121 476.794 32.0264 Q482.141 37.9003 482.141 48.0275 M474.687 45.84 Q474.606 39.7232 471.244 36.0774 Q467.922 32.4315 462.413 32.4315 Q456.174 32.4315 452.407 35.9558 Q448.68 39.4801 448.113 45.8805 L474.687 45.84 Z" fill="#000000" fill-rule="nonzero" fill-opacity="1"></path><path clip-path="url(#clip390)" d="M532.088 45.1919 L532.088 72.576 L524.635 72.576 L524.635 45.4349 Q524.635 38.994 522.123 35.7938 Q519.612 32.5936 514.588 32.5936 Q508.553 32.5936 505.069 36.4419 Q501.585 40.2903 501.585 46.9338 L501.585 72.576 L494.091 72.576 L494.091 27.2059 L501.585 27.2059 L501.585 34.2544 Q504.259 30.163 507.864 28.1376 Q511.51 26.1121 516.249 26.1121 Q524.068 26.1121 528.078 30.9732 Q532.088 35.7938 532.088 45.1919 Z" fill="#000000" fill-rule="nonzero" fill-opacity="1"></path><path clip-path="url(#clip390)" d="M580.537 65.7705 L580.537 89.8329 L573.043 89.8329 L573.043 27.2059 L580.537 27.2059 L580.537 34.0924 Q582.887 30.0415 586.451 28.0971 Q590.057 26.1121 595.039 26.1121 Q603.303 26.1121 608.448 32.6746 Q613.633 39.2371 613.633 49.9314 Q613.633 60.6258 608.448 67.1883 Q603.303 73.7508 595.039 73.7508 Q590.057 73.7508 586.451 71.8063 Q582.887 69.8214 580.537 65.7705 M605.896 49.9314 Q605.896 41.7081 602.493 37.0496 Q599.131 32.3505 593.216 32.3505 Q587.302 32.3505 583.899 37.0496 Q580.537 41.7081 580.537 49.9314 Q580.537 58.1548 583.899 62.8538 Q587.302 67.5124 593.216 67.5124 Q599.131 67.5124 602.493 62.8538 Q605.896 58.1548 605.896 49.9314 Z" fill="#000000" fill-rule="nonzero" fill-opacity="1"></path><path clip-path="url(#clip390)" d="M643.569 32.4315 Q637.574 32.4315 634.09 37.1306 Q630.606 41.7891 630.606 49.9314 Q630.606 58.0738 634.05 62.7728 Q637.533 67.4314 643.569 67.4314 Q649.524 67.4314 653.008 62.7323 Q656.492 58.0333 656.492 49.9314 Q656.492 41.8701 653.008 37.1711 Q649.524 32.4315 643.569 32.4315 M643.569 26.1121 Q653.291 26.1121 658.841 32.4315 Q664.391 38.7509 664.391 49.9314 Q664.391 61.0714 658.841 67.4314 Q653.291 73.7508 643.569 73.7508 Q633.807 73.7508 628.257 67.4314 Q622.748 61.0714 622.748 49.9314 Q622.748 38.7509 628.257 32.4315 Q633.807 26.1121 643.569 26.1121 Z" fill="#000000" fill-rule="nonzero" fill-opacity="1"></path><path clip-path="url(#clip390)" d="M676.746 27.2059 L684.2 27.2059 L684.2 72.576 L676.746 72.576 L676.746 27.2059 M676.746 9.54393 L684.2 9.54393 L684.2 18.9825 L676.746 18.9825 L676.746 9.54393 Z" fill="#000000" fill-rule="nonzero" fill-opacity="1"></path><path clip-path="url(#clip390)" d="M737.51 45.1919 L737.51 72.576 L730.056 72.576 L730.056 45.4349 Q730.056 38.994 727.544 35.7938 Q725.033 32.5936 720.01 32.5936 Q713.974 32.5936 710.49 36.4419 Q707.006 40.2903 707.006 46.9338 L707.006 72.576 L699.512 72.576 L699.512 27.2059 L707.006 27.2059 L707.006 34.2544 Q709.68 30.163 713.285 28.1376 Q716.931 26.1121 721.671 26.1121 Q729.489 26.1121 733.499 30.9732 Q737.51 35.7938 737.51 45.1919 Z" fill="#000000" fill-rule="nonzero" fill-opacity="1"></path><path clip-path="url(#clip390)" d="M759.749 14.324 L759.749 27.2059 L775.102 27.2059 L775.102 32.9987 L759.749 32.9987 L759.749 57.6282 Q759.749 63.1779 761.248 64.7578 Q762.787 66.3376 767.446 66.3376 L775.102 66.3376 L775.102 72.576 L767.446 72.576 Q758.817 72.576 755.536 69.3758 Q752.255 66.1351 752.255 57.6282 L752.255 32.9987 L746.786 32.9987 L746.786 27.2059 L752.255 27.2059 L752.255 14.324 L759.749 14.324 Z" fill="#000000" fill-rule="nonzero" fill-opacity="1"></path><path clip-path="url(#clip390)" d="M813.829 28.5427 L813.829 35.5912 Q810.669 33.9709 807.266 33.1607 Q803.864 32.3505 800.218 32.3505 Q794.668 32.3505 791.873 34.0519 Q789.118 35.7533 789.118 39.156 Q789.118 41.7486 791.103 43.2475 Q793.088 44.7058 799.083 46.0426 L801.636 46.6097 Q809.575 48.3111 812.897 51.4303 Q816.259 54.509 816.259 60.0587 Q816.259 66.3781 811.236 70.0644 Q806.254 73.7508 797.504 73.7508 Q793.858 73.7508 789.888 73.0216 Q785.959 72.3329 781.584 70.9151 L781.584 63.2184 Q785.715 65.3654 789.726 66.4591 Q793.736 67.5124 797.666 67.5124 Q802.932 67.5124 805.767 65.73 Q808.603 63.9071 808.603 60.6258 Q808.603 57.5877 806.537 55.9673 Q804.512 54.3469 797.585 52.8481 L794.992 52.2405 Q788.065 50.7821 784.986 47.7845 Q781.908 44.7463 781.908 39.4801 Q781.908 33.0797 786.445 29.5959 Q790.982 26.1121 799.327 26.1121 Q803.458 26.1121 807.104 26.7198 Q810.75 27.3274 813.829 28.5427 Z" fill="#000000" fill-rule="nonzero" fill-opacity="1"></path><path clip-path="url(#clip390)" d="M875.119 49.7694 Q866.085 49.7694 862.602 51.8354 Q859.118 53.9013 859.118 58.8839 Q859.118 62.8538 861.71 65.2034 Q864.344 67.5124 868.84 67.5124 Q875.038 67.5124 878.765 63.1374 Q882.532 58.7219 882.532 51.4303 L882.532 49.7694 L875.119 49.7694 M889.986 46.6907 L889.986 72.576 L882.532 72.576 L882.532 65.6895 Q879.98 69.8214 876.172 71.8063 Q872.364 73.7508 866.855 73.7508 Q859.888 73.7508 855.756 69.8619 Q851.664 65.9325 851.664 59.3701 Q851.664 51.7138 856.768 47.825 Q861.913 43.9361 872.081 43.9361 L882.532 43.9361 L882.532 43.2069 Q882.532 38.0623 879.129 35.2672 Q875.767 32.4315 869.65 32.4315 Q865.761 32.4315 862.075 33.3632 Q858.389 34.295 854.986 36.1584 L854.986 29.2718 Q859.077 27.692 862.926 26.9223 Q866.774 26.1121 870.42 26.1121 Q880.264 26.1121 885.125 31.2163 Q889.986 36.3204 889.986 46.6907 Z" fill="#000000" fill-rule="nonzero" fill-opacity="1"></path><path clip-path="url(#clip390)" d="M912.711 14.324 L912.711 27.2059 L928.064 27.2059 L928.064 32.9987 L912.711 32.9987 L912.711 57.6282 Q912.711 63.1779 914.21 64.7578 Q915.749 66.3376 920.408 66.3376 L928.064 66.3376 L928.064 72.576 L920.408 72.576 Q911.78 72.576 908.498 69.3758 Q905.217 66.1351 905.217 57.6282 L905.217 32.9987 L899.748 32.9987 L899.748 27.2059 L905.217 27.2059 L905.217 14.324 L912.711 14.324 Z" fill="#000000" fill-rule="nonzero" fill-opacity="1"></path><path clip-path="url(#clip390)" d="M966.71 65.6895 L980.078 65.6895 L980.078 19.5497 L965.535 22.4663 L965.535 15.0127 L979.997 12.096 L988.18 12.096 L988.18 65.6895 L1001.55 65.6895 L1001.55 72.576 L966.71 72.576 L966.71 65.6895 Z" fill="#000000" fill-rule="nonzero" fill-opacity="1"></path><path clip-path="url(#clip390)" d="M1035.58 17.4837 Q1029.26 17.4837 1026.06 23.7221 Q1022.9 29.92 1022.9 42.3968 Q1022.9 54.833 1026.06 61.0714 Q1029.26 67.2693 1035.58 67.2693 Q1041.94 67.2693 1045.09 61.0714 Q1048.3 54.833 1048.3 42.3968 Q1048.3 29.92 1045.09 23.7221 Q1041.94 17.4837 1035.58 17.4837 M1035.58 11.0023 Q1045.74 11.0023 1051.09 19.0636 Q1056.48 27.0843 1056.48 42.3968 Q1056.48 57.6687 1051.09 65.73 Q1045.74 73.7508 1035.58 73.7508 Q1025.41 73.7508 1020.02 65.73 Q1014.67 57.6687 1014.67 42.3968 Q1014.67 27.0843 1020.02 19.0636 Q1025.41 11.0023 1035.58 11.0023 Z" fill="#000000" fill-rule="nonzero" fill-opacity="1"></path><path clip-path="url(#clip390)" d="M1088.36 43.8551 Q1082.53 43.8551 1079.16 46.9743 Q1075.84 50.0935 1075.84 55.5622 Q1075.84 61.0309 1079.16 64.1501 Q1082.53 67.2693 1088.36 67.2693 Q1094.19 67.2693 1097.55 64.1501 Q1100.92 60.9904 1100.92 55.5622 Q1100.92 50.0935 1097.55 46.9743 Q1094.23 43.8551 1088.36 43.8551 M1080.18 40.3713 Q1074.91 39.075 1071.95 35.4697 Q1069.04 31.8644 1069.04 26.6793 Q1069.04 19.4281 1074.18 15.2152 Q1079.37 11.0023 1088.36 11.0023 Q1097.39 11.0023 1102.54 15.2152 Q1107.68 19.4281 1107.68 26.6793 Q1107.68 31.8644 1104.72 35.4697 Q1101.81 39.075 1096.58 40.3713 Q1102.5 41.7486 1105.78 45.759 Q1109.1 49.7694 1109.1 55.5622 Q1109.1 64.3527 1103.71 69.0517 Q1098.36 73.7508 1088.36 73.7508 Q1078.35 73.7508 1072.97 69.0517 Q1067.62 64.3527 1067.62 55.5622 Q1067.62 49.7694 1070.94 45.759 Q1074.26 41.7486 1080.18 40.3713 M1077.18 27.4489 Q1077.18 32.148 1080.09 34.7811 Q1083.05 37.4142 1088.36 37.4142 Q1093.62 37.4142 1096.58 34.7811 Q1099.58 32.148 1099.58 27.4489 Q1099.58 22.7499 1096.58 20.1168 Q1093.62 17.4837 1088.36 17.4837 Q1083.05 17.4837 1080.09 20.1168 Q1077.18 22.7499 1077.18 27.4489 Z" fill="#000000" fill-rule="nonzero" fill-opacity="1"></path><path clip-path="url(#clip390)" d="M1178.82 34.0924 L1178.82 9.54393 L1186.27 9.54393 L1186.27 72.576 L1178.82 72.576 L1178.82 65.7705 Q1176.47 69.8214 1172.86 71.8063 Q1169.3 73.7508 1164.27 73.7508 Q1156.05 73.7508 1150.86 67.1883 Q1145.72 60.6258 1145.72 49.9314 Q1145.72 39.2371 1150.86 32.6746 Q1156.05 26.1121 1164.27 26.1121 Q1169.3 26.1121 1172.86 28.0971 Q1176.47 30.0415 1178.82 34.0924 M1153.42 49.9314 Q1153.42 58.1548 1156.78 62.8538 Q1160.18 67.5124 1166.1 67.5124 Q1172.01 67.5124 1175.41 62.8538 Q1178.82 58.1548 1178.82 49.9314 Q1178.82 41.7081 1175.41 37.0496 Q1172.01 32.3505 1166.1 32.3505 Q1160.18 32.3505 1156.78 37.0496 Q1153.42 41.7081 1153.42 49.9314 Z" fill="#000000" fill-rule="nonzero" fill-opacity="1"></path><path clip-path="url(#clip390)" d="M1240.43 48.0275 L1240.43 51.6733 L1206.16 51.6733 Q1206.64 59.3701 1210.78 63.421 Q1214.95 67.4314 1222.36 67.4314 Q1226.66 67.4314 1230.67 66.3781 Q1234.72 65.3249 1238.69 63.2184 L1238.69 70.267 Q1234.68 71.9684 1230.46 72.8596 Q1226.25 73.7508 1221.92 73.7508 Q1211.06 73.7508 1204.7 67.4314 Q1198.38 61.1119 1198.38 50.3365 Q1198.38 39.1965 1204.38 32.6746 Q1210.41 26.1121 1220.62 26.1121 Q1229.78 26.1121 1235.08 32.0264 Q1240.43 37.9003 1240.43 48.0275 M1232.98 45.84 Q1232.89 39.7232 1229.53 36.0774 Q1226.21 32.4315 1220.7 32.4315 Q1214.46 32.4315 1210.7 35.9558 Q1206.97 39.4801 1206.4 45.8805 L1232.98 45.84 Z" fill="#000000" fill-rule="nonzero" fill-opacity="1"></path><path clip-path="url(#clip390)" d="M1282.52 49.3643 Q1282.52 41.2625 1279.16 36.8065 Q1275.83 32.3505 1269.8 32.3505 Q1263.8 32.3505 1260.44 36.8065 Q1257.12 41.2625 1257.12 49.3643 Q1257.12 57.4256 1260.44 61.8816 Q1263.8 66.3376 1269.8 66.3376 Q1275.83 66.3376 1279.16 61.8816 Q1282.52 57.4256 1282.52 49.3643 M1289.97 66.9452 Q1289.97 78.5308 1284.83 84.1616 Q1279.68 89.8329 1269.07 89.8329 Q1265.14 89.8329 1261.66 89.2252 Q1258.17 88.6581 1254.89 87.4428 L1254.89 80.1917 Q1258.17 81.9741 1261.37 82.8248 Q1264.57 83.6755 1267.89 83.6755 Q1275.23 83.6755 1278.87 79.8271 Q1282.52 76.0193 1282.52 68.282 L1282.52 64.5957 Q1280.21 68.6061 1276.6 70.5911 Q1273 72.576 1267.98 72.576 Q1259.63 72.576 1254.53 66.2161 Q1249.42 59.8562 1249.42 49.3643 Q1249.42 38.832 1254.53 32.472 Q1259.63 26.1121 1267.98 26.1121 Q1273 26.1121 1276.6 28.0971 Q1280.21 30.082 1282.52 34.0924 L1282.52 27.2059 L1289.97 27.2059 L1289.97 66.9452 Z" fill="#000000" fill-rule="nonzero" fill-opacity="1"></path><path clip-path="url(#clip390)" d="M1331.62 34.1734 Q1330.36 33.4443 1328.86 33.1202 Q1327.4 32.7556 1325.62 32.7556 Q1319.3 32.7556 1315.9 36.8875 Q1312.54 40.9789 1312.54 48.6757 L1312.54 72.576 L1305.04 72.576 L1305.04 27.2059 L1312.54 27.2059 L1312.54 34.2544 Q1314.89 30.1225 1318.65 28.1376 Q1322.42 26.1121 1327.81 26.1121 Q1328.58 26.1121 1329.51 26.2337 Q1330.44 26.3147 1331.57 26.5172 L1331.62 34.1734 Z" fill="#000000" fill-rule="nonzero" fill-opacity="1"></path><path clip-path="url(#clip390)" d="M1376.42 48.0275 L1376.42 51.6733 L1342.15 51.6733 Q1342.63 59.3701 1346.77 63.421 Q1350.94 67.4314 1358.35 67.4314 Q1362.65 67.4314 1366.66 66.3781 Q1370.71 65.3249 1374.68 63.2184 L1374.68 70.267 Q1370.67 71.9684 1366.45 72.8596 Q1362.24 73.7508 1357.91 73.7508 Q1347.05 73.7508 1340.69 67.4314 Q1334.37 61.1119 1334.37 50.3365 Q1334.37 39.1965 1340.37 32.6746 Q1346.4 26.1121 1356.61 26.1121 Q1365.76 26.1121 1371.07 32.0264 Q1376.42 37.9003 1376.42 48.0275 M1368.96 45.84 Q1368.88 39.7232 1365.52 36.0774 Q1362.2 32.4315 1356.69 32.4315 Q1350.45 32.4315 1346.68 35.9558 Q1342.96 39.4801 1342.39 45.8805 L1368.96 45.84 Z" fill="#000000" fill-rule="nonzero" fill-opacity="1"></path><path clip-path="url(#clip390)" d="M1427.46 48.0275 L1427.46 51.6733 L1393.19 51.6733 Q1393.68 59.3701 1397.81 63.421 Q1401.98 67.4314 1409.39 67.4314 Q1413.69 67.4314 1417.7 66.3781 Q1421.75 65.3249 1425.72 63.2184 L1425.72 70.267 Q1421.71 71.9684 1417.49 72.8596 Q1413.28 73.7508 1408.95 73.7508 Q1398.09 73.7508 1391.73 67.4314 Q1385.41 61.1119 1385.41 50.3365 Q1385.41 39.1965 1391.41 32.6746 Q1397.44 26.1121 1407.65 26.1121 Q1416.81 26.1121 1422.11 32.0264 Q1427.46 37.9003 1427.46 48.0275 M1420.01 45.84 Q1419.93 39.7232 1416.56 36.0774 Q1413.24 32.4315 1407.73 32.4315 Q1401.49 32.4315 1397.73 35.9558 Q1394 39.4801 1393.43 45.8805 L1420.01 45.84 Z" fill="#000000" fill-rule="nonzero" fill-opacity="1"></path><path clip-path="url(#clip390)" d="M1468.62 28.5427 L1468.62 35.5912 Q1465.46 33.9709 1462.05 33.1607 Q1458.65 32.3505 1455.01 32.3505 Q1449.46 32.3505 1446.66 34.0519 Q1443.91 35.7533 1443.91 39.156 Q1443.91 41.7486 1445.89 43.2475 Q1447.88 44.7058 1453.87 46.0426 L1456.42 46.6097 Q1464.36 48.3111 1467.69 51.4303 Q1471.05 54.509 1471.05 60.0587 Q1471.05 66.3781 1466.02 70.0644 Q1461.04 73.7508 1452.29 73.7508 Q1448.65 73.7508 1444.68 73.0216 Q1440.75 72.3329 1436.37 70.9151 L1436.37 63.2184 Q1440.5 65.3654 1444.51 66.4591 Q1448.52 67.5124 1452.45 67.5124 Q1457.72 67.5124 1460.56 65.73 Q1463.39 63.9071 1463.39 60.6258 Q1463.39 57.5877 1461.33 55.9673 Q1459.3 54.3469 1452.37 52.8481 L1449.78 52.2405 Q1442.85 50.7821 1439.77 47.7845 Q1436.7 44.7463 1436.7 39.4801 Q1436.7 33.0797 1441.23 29.5959 Q1445.77 26.1121 1454.11 26.1121 Q1458.25 26.1121 1461.89 26.7198 Q1465.54 27.3274 1468.62 28.5427 Z" fill="#000000" fill-rule="nonzero" fill-opacity="1"></path><path clip-path="url(#clip390)" d="M1484.82 62.2867 L1493.37 62.2867 L1493.37 72.576 L1484.82 72.576 L1484.82 62.2867 M1484.82 29.6769 L1493.37 29.6769 L1493.37 39.9662 L1484.82 39.9662 L1484.82 29.6769 Z" fill="#000000" fill-rule="nonzero" fill-opacity="1"></path><path clip-path="url(#clip390)" d="M1555.79 17.4837 Q1549.47 17.4837 1546.27 23.7221 Q1543.11 29.92 1543.11 42.3968 Q1543.11 54.833 1546.27 61.0714 Q1549.47 67.2693 1555.79 67.2693 Q1562.15 67.2693 1565.31 61.0714 Q1568.51 54.833 1568.51 42.3968 Q1568.51 29.92 1565.31 23.7221 Q1562.15 17.4837 1555.79 17.4837 M1555.79 11.0023 Q1565.96 11.0023 1571.31 19.0636 Q1576.7 27.0843 1576.7 42.3968 Q1576.7 57.6687 1571.31 65.73 Q1565.96 73.7508 1555.79 73.7508 Q1545.62 73.7508 1540.24 65.73 Q1534.89 57.6687 1534.89 42.3968 Q1534.89 27.0843 1540.24 19.0636 Q1545.62 11.0023 1555.79 11.0023 Z" fill="#000000" fill-rule="nonzero" fill-opacity="1"></path><path clip-path="url(#clip390)" d="M1591.08 62.2867 L1599.62 62.2867 L1599.62 72.576 L1591.08 72.576 L1591.08 62.2867 Z" fill="#000000" fill-rule="nonzero" fill-opacity="1"></path><path clip-path="url(#clip390)" d="M1642.24 39.9662 Q1648.11 41.222 1651.39 45.1919 Q1654.72 49.1618 1654.72 54.9951 Q1654.72 63.9476 1648.56 68.8492 Q1642.4 73.7508 1631.06 73.7508 Q1627.25 73.7508 1623.2 72.9811 Q1619.19 72.2519 1614.9 70.7531 L1614.9 62.8538 Q1618.3 64.8388 1622.35 65.8515 Q1626.4 66.8642 1630.82 66.8642 Q1638.51 66.8642 1642.52 63.826 Q1646.57 60.7879 1646.57 54.9951 Q1646.57 49.6479 1642.81 46.6502 Q1639.08 43.612 1632.39 43.612 L1625.35 43.612 L1625.35 36.8875 L1632.72 36.8875 Q1638.75 36.8875 1641.96 34.4975 Q1645.16 32.067 1645.16 27.5299 Q1645.16 22.8714 1641.83 20.4004 Q1638.55 17.8888 1632.39 17.8888 Q1629.03 17.8888 1625.18 18.618 Q1621.34 19.3471 1616.72 20.8865 L1616.72 13.5948 Q1621.38 12.2985 1625.43 11.6504 Q1629.52 11.0023 1633.12 11.0023 Q1642.44 11.0023 1647.87 15.2557 Q1653.3 19.4686 1653.3 26.6793 Q1653.3 31.7024 1650.42 35.1862 Q1647.55 38.6294 1642.24 39.9662 Z" fill="#000000" fill-rule="nonzero" fill-opacity="1"></path><path clip-path="url(#clip390)" d="M1687.73 43.8551 Q1681.9 43.8551 1678.53 46.9743 Q1675.21 50.0935 1675.21 55.5622 Q1675.21 61.0309 1678.53 64.1501 Q1681.9 67.2693 1687.73 67.2693 Q1693.56 67.2693 1696.93 64.1501 Q1700.29 60.9904 1700.29 55.5622 Q1700.29 50.0935 1696.93 46.9743 Q1693.6 43.8551 1687.73 43.8551 M1679.55 40.3713 Q1674.28 39.075 1671.32 35.4697 Q1668.41 31.8644 1668.41 26.6793 Q1668.41 19.4281 1673.55 15.2152 Q1678.74 11.0023 1687.73 11.0023 Q1696.76 11.0023 1701.91 15.2152 Q1707.05 19.4281 1707.05 26.6793 Q1707.05 31.8644 1704.1 35.4697 Q1701.18 39.075 1695.95 40.3713 Q1701.87 41.7486 1705.15 45.759 Q1708.47 49.7694 1708.47 55.5622 Q1708.47 64.3527 1703.08 69.0517 Q1697.74 73.7508 1687.73 73.7508 Q1677.72 73.7508 1672.34 69.0517 Q1666.99 64.3527 1666.99 55.5622 Q1666.99 49.7694 1670.31 45.759 Q1673.63 41.7486 1679.55 40.3713 M1676.55 27.4489 Q1676.55 32.148 1679.47 34.7811 Q1682.42 37.4142 1687.73 37.4142 Q1693 37.4142 1695.95 34.7811 Q1698.95 32.148 1698.95 27.4489 Q1698.95 22.7499 1695.95 20.1168 Q1693 17.4837 1687.73 17.4837 Q1682.42 17.4837 1679.47 20.1168 Q1676.55 22.7499 1676.55 27.4489 Z" fill="#000000" fill-rule="nonzero" fill-opacity="1"></path><path clip-path="url(#clip390)" d="M1740.51 43.8551 Q1734.68 43.8551 1731.32 46.9743 Q1728 50.0935 1728 55.5622 Q1728 61.0309 1731.32 64.1501 Q1734.68 67.2693 1740.51 67.2693 Q1746.35 67.2693 1749.71 64.1501 Q1753.07 60.9904 1753.07 55.5622 Q1753.07 50.0935 1749.71 46.9743 Q1746.39 43.8551 1740.51 43.8551 M1732.33 40.3713 Q1727.06 39.075 1724.11 35.4697 Q1721.19 31.8644 1721.19 26.6793 Q1721.19 19.4281 1726.34 15.2152 Q1731.52 11.0023 1740.51 11.0023 Q1749.55 11.0023 1754.69 15.2152 Q1759.84 19.4281 1759.84 26.6793 Q1759.84 31.8644 1756.88 35.4697 Q1753.96 39.075 1748.74 40.3713 Q1754.65 41.7486 1757.93 45.759 Q1761.25 49.7694 1761.25 55.5622 Q1761.25 64.3527 1755.87 69.0517 Q1750.52 73.7508 1740.51 73.7508 Q1730.51 73.7508 1725.12 69.0517 Q1719.77 64.3527 1719.77 55.5622 Q1719.77 49.7694 1723.09 45.759 Q1726.42 41.7486 1732.33 40.3713 M1729.33 27.4489 Q1729.33 32.148 1732.25 34.7811 Q1735.21 37.4142 1740.51 37.4142 Q1745.78 37.4142 1748.74 34.7811 Q1751.73 32.148 1751.73 27.4489 Q1751.73 22.7499 1748.74 20.1168 Q1745.78 17.4837 1740.51 17.4837 Q1735.21 17.4837 1732.25 20.1168 Q1729.33 22.7499 1729.33 27.4489 Z" fill="#000000" fill-rule="nonzero" fill-opacity="1"></path><path clip-path="url(#clip390)" d="M1800.59 39.9662 Q1806.46 41.222 1809.74 45.1919 Q1813.07 49.1618 1813.07 54.9951 Q1813.07 63.9476 1806.91 68.8492 Q1800.75 73.7508 1789.41 73.7508 Q1785.6 73.7508 1781.55 72.9811 Q1777.54 72.2519 1773.24 70.7531 L1773.24 62.8538 Q1776.65 64.8388 1780.7 65.8515 Q1784.75 66.8642 1789.16 66.8642 Q1796.86 66.8642 1800.87 63.826 Q1804.92 60.7879 1804.92 54.9951 Q1804.92 49.6479 1801.16 46.6502 Q1797.43 43.612 1790.74 43.612 L1783.7 43.612 L1783.7 36.8875 L1791.07 36.8875 Q1797.1 36.8875 1800.3 34.4975 Q1803.51 32.067 1803.51 27.5299 Q1803.51 22.8714 1800.18 20.4004 Q1796.9 17.8888 1790.74 17.8888 Q1787.38 17.8888 1783.53 18.618 Q1779.69 19.3471 1775.07 20.8865 L1775.07 13.5948 Q1779.73 12.2985 1783.78 11.6504 Q1787.87 11.0023 1791.47 11.0023 Q1800.79 11.0023 1806.22 15.2557 Q1811.65 19.4686 1811.65 26.6793 Q1811.65 31.7024 1808.77 35.1862 Q1805.9 38.6294 1800.59 39.9662 Z" fill="#000000" fill-rule="nonzero" fill-opacity="1"></path><path clip-path="url(#clip390)" d="M1853.37 39.9662 Q1859.25 41.222 1862.53 45.1919 Q1865.85 49.1618 1865.85 54.9951 Q1865.85 63.9476 1859.69 68.8492 Q1853.53 73.7508 1842.19 73.7508 Q1838.38 73.7508 1834.33 72.9811 Q1830.32 72.2519 1826.03 70.7531 L1826.03 62.8538 Q1829.43 64.8388 1833.48 65.8515 Q1837.53 66.8642 1841.95 66.8642 Q1849.64 66.8642 1853.66 63.826 Q1857.71 60.7879 1857.71 54.9951 Q1857.71 49.6479 1853.94 46.6502 Q1850.21 43.612 1843.53 43.612 L1836.48 43.612 L1836.48 36.8875 L1843.85 36.8875 Q1849.89 36.8875 1853.09 34.4975 Q1856.29 32.067 1856.29 27.5299 Q1856.29 22.8714 1852.97 20.4004 Q1849.69 17.8888 1843.53 17.8888 Q1840.17 17.8888 1836.32 18.618 Q1832.47 19.3471 1827.85 20.8865 L1827.85 13.5948 Q1832.51 12.2985 1836.56 11.6504 Q1840.65 11.0023 1844.26 11.0023 Q1853.57 11.0023 1859 15.2557 Q1864.43 19.4686 1864.43 26.6793 Q1864.43 31.7024 1861.55 35.1862 Q1858.68 38.6294 1853.37 39.9662 Z" fill="#000000" fill-rule="nonzero" fill-opacity="1"></path><path clip-path="url(#clip390)" d="M1898.86 43.8551 Q1893.03 43.8551 1889.67 46.9743 Q1886.35 50.0935 1886.35 55.5622 Q1886.35 61.0309 1889.67 64.1501 Q1893.03 67.2693 1898.86 67.2693 Q1904.7 67.2693 1908.06 64.1501 Q1911.42 60.9904 1911.42 55.5622 Q1911.42 50.0935 1908.06 46.9743 Q1904.74 43.8551 1898.86 43.8551 M1890.68 40.3713 Q1885.41 39.075 1882.46 35.4697 Q1879.54 31.8644 1879.54 26.6793 Q1879.54 19.4281 1884.69 15.2152 Q1889.87 11.0023 1898.86 11.0023 Q1907.9 11.0023 1913.04 15.2152 Q1918.19 19.4281 1918.19 26.6793 Q1918.19 31.8644 1915.23 35.4697 Q1912.31 39.075 1907.09 40.3713 Q1913 41.7486 1916.28 45.759 Q1919.6 49.7694 1919.6 55.5622 Q1919.6 64.3527 1914.22 69.0517 Q1908.87 73.7508 1898.86 73.7508 Q1888.86 73.7508 1883.47 69.0517 Q1878.12 64.3527 1878.12 55.5622 Q1878.12 49.7694 1881.44 45.759 Q1884.77 41.7486 1890.68 40.3713 M1887.68 27.4489 Q1887.68 32.148 1890.6 34.7811 Q1893.56 37.4142 1898.86 37.4142 Q1904.13 37.4142 1907.09 34.7811 Q1910.08 32.148 1910.08 27.4489 Q1910.08 22.7499 1907.09 20.1168 Q1904.13 17.4837 1898.86 17.4837 Q1893.56 17.4837 1890.6 20.1168 Q1887.68 22.7499 1887.68 27.4489 Z" fill="#000000" fill-rule="nonzero" fill-opacity="1"></path><path clip-path="url(#clip390)" d="M1956.63 19.2256 L1935.97 51.5113 L1956.63 51.5113 L1956.63 19.2256 M1954.48 12.096 L1964.77 12.096 L1964.77 51.5113 L1973.4 51.5113 L1973.4 58.3168 L1964.77 58.3168 L1964.77 72.576 L1956.63 72.576 L1956.63 58.3168 L1929.33 58.3168 L1929.33 50.4176 L1954.48 12.096 Z" fill="#000000" fill-rule="nonzero" fill-opacity="1"></path><path clip-path="url(#clip390)" d="M1988.35 65.6895 L2001.72 65.6895 L2001.72 19.5497 L1987.17 22.4663 L1987.17 15.0127 L2001.63 12.096 L2009.82 12.096 L2009.82 65.6895 L2023.19 65.6895 L2023.19 72.576 L1988.35 72.576 L1988.35 65.6895 Z" fill="#000000" fill-rule="nonzero" fill-opacity="1"></path><path clip-path="url(#clip390)" d="M2037.65 12.096 L2076.54 12.096 L2076.54 15.5798 L2054.58 72.576 L2046.03 72.576 L2066.69 18.9825 L2037.65 18.9825 L2037.65 12.096 Z" fill="#000000" fill-rule="nonzero" fill-opacity="1"></path><path clip-path="url(#clip390)" d="M2092.58 12.096 L2124.7 12.096 L2124.7 18.9825 L2100.07 18.9825 L2100.07 33.8088 Q2101.85 33.2012 2103.64 32.9176 Q2105.42 32.5936 2107.2 32.5936 Q2117.33 32.5936 2123.24 38.1433 Q2129.16 43.6931 2129.16 53.1722 Q2129.16 62.9348 2123.08 68.3631 Q2117 73.7508 2105.95 73.7508 Q2102.14 73.7508 2098.17 73.1026 Q2094.24 72.4545 2090.03 71.1582 L2090.03 62.9348 Q2093.67 64.9198 2097.56 65.892 Q2101.45 66.8642 2105.78 66.8642 Q2112.79 66.8642 2116.88 63.1779 Q2120.97 59.4916 2120.97 53.1722 Q2120.97 46.8528 2116.88 43.1664 Q2112.79 39.4801 2105.78 39.4801 Q2102.5 39.4801 2099.22 40.2093 Q2095.98 40.9384 2092.58 42.4778 L2092.58 12.096 Z" fill="#000000" fill-rule="nonzero" fill-opacity="1"></path><path clip-path="url(#clip390)" d="M2162.78 43.8551 Q2156.95 43.8551 2153.58 46.9743 Q2150.26 50.0935 2150.26 55.5622 Q2150.26 61.0309 2153.58 64.1501 Q2156.95 67.2693 2162.78 67.2693 Q2168.61 67.2693 2171.98 64.1501 Q2175.34 60.9904 2175.34 55.5622 Q2175.34 50.0935 2171.98 46.9743 Q2168.65 43.8551 2162.78 43.8551 M2154.6 40.3713 Q2149.33 39.075 2146.37 35.4697 Q2143.46 31.8644 2143.46 26.6793 Q2143.46 19.4281 2148.6 15.2152 Q2153.79 11.0023 2162.78 11.0023 Q2171.81 11.0023 2176.96 15.2152 Q2182.1 19.4281 2182.1 26.6793 Q2182.1 31.8644 2179.15 35.4697 Q2176.23 39.075 2171 40.3713 Q2176.92 41.7486 2180.2 45.759 Q2183.52 49.7694 2183.52 55.5622 Q2183.52 64.3527 2178.13 69.0517 Q2172.79 73.7508 2162.78 73.7508 Q2152.77 73.7508 2147.39 69.0517 Q2142.04 64.3527 2142.04 55.5622 Q2142.04 49.7694 2145.36 45.759 Q2148.68 41.7486 2154.6 40.3713 M2151.6 27.4489 Q2151.6 32.148 2154.52 34.7811 Q2157.47 37.4142 2162.78 37.4142 Q2168.05 37.4142 2171 34.7811 Q2174 32.148 2174 27.4489 Q2174 22.7499 2171 20.1168 Q2168.05 17.4837 2162.78 17.4837 Q2157.47 17.4837 2154.52 20.1168 Q2151.6 22.7499 2151.6 27.4489 Z" fill="#000000" fill-rule="nonzero" fill-opacity="1"></path><path clip-path="url(#clip390)" d="M2222.85 39.9662 Q2228.73 41.222 2232.01 45.1919 Q2235.33 49.1618 2235.33 54.9951 Q2235.33 63.9476 2229.17 68.8492 Q2223.02 73.7508 2211.67 73.7508 Q2207.87 73.7508 2203.82 72.9811 Q2199.81 72.2519 2195.51 70.7531 L2195.51 62.8538 Q2198.91 64.8388 2202.96 65.8515 Q2207.02 66.8642 2211.43 66.8642 Q2219.13 66.8642 2223.14 63.826 Q2227.19 60.7879 2227.19 54.9951 Q2227.19 49.6479 2223.42 46.6502 Q2219.7 43.612 2213.01 43.612 L2205.96 43.612 L2205.96 36.8875 L2213.34 36.8875 Q2219.37 36.8875 2222.57 34.4975 Q2225.77 32.067 2225.77 27.5299 Q2225.77 22.8714 2222.45 20.4004 Q2219.17 17.8888 2213.01 17.8888 Q2209.65 17.8888 2205.8 18.618 Q2201.95 19.3471 2197.33 20.8865 L2197.33 13.5948 Q2201.99 12.2985 2206.04 11.6504 Q2210.13 11.0023 2213.74 11.0023 Q2223.06 11.0023 2228.49 15.2557 Q2233.91 19.4686 2233.91 26.6793 Q2233.91 31.7024 2231.04 35.1862 Q2228.16 38.6294 2222.85 39.9662 Z" fill="#000000" fill-rule="nonzero" fill-opacity="1"></path><path clip-path="url(#clip390)" d="M2268.35 17.4837 Q2262.03 17.4837 2258.83 23.7221 Q2255.67 29.92 2255.67 42.3968 Q2255.67 54.833 2258.83 61.0714 Q2262.03 67.2693 2268.35 67.2693 Q2274.71 67.2693 2277.87 61.0714 Q2281.07 54.833 2281.07 42.3968 Q2281.07 29.92 2277.87 23.7221 Q2274.71 17.4837 2268.35 17.4837 M2268.35 11.0023 Q2278.51 11.0023 2283.86 19.0636 Q2289.25 27.0843 2289.25 42.3968 Q2289.25 57.6687 2283.86 65.73 Q2278.51 73.7508 2268.35 73.7508 Q2258.18 73.7508 2252.79 65.73 Q2247.44 57.6687 2247.44 42.3968 Q2247.44 27.0843 2252.79 19.0636 Q2258.18 11.0023 2268.35 11.0023 Z" fill="#000000" fill-rule="nonzero" fill-opacity="1"></path><path clip-path="url(#clip390)" d="M2303.87 71.3202 L2303.87 63.8666 Q2306.95 65.3249 2310.11 66.0946 Q2313.27 66.8642 2316.31 66.8642 Q2324.41 66.8642 2328.66 61.436 Q2332.96 55.9673 2333.57 44.8678 Q2331.22 48.3516 2327.61 50.215 Q2324.01 52.0784 2319.63 52.0784 Q2310.56 52.0784 2305.25 46.6097 Q2299.98 41.1005 2299.98 31.5808 Q2299.98 22.2638 2305.49 16.633 Q2311 11.0023 2320.16 11.0023 Q2330.65 11.0023 2336.16 19.0636 Q2341.71 27.0843 2341.71 42.3968 Q2341.71 56.6965 2334.9 65.2439 Q2328.14 73.7508 2316.67 73.7508 Q2313.6 73.7508 2310.44 73.1431 Q2307.28 72.5355 2303.87 71.3202 M2320.16 45.678 Q2325.67 45.678 2328.87 41.9107 Q2332.11 38.1433 2332.11 31.5808 Q2332.11 25.0589 2328.87 21.2916 Q2325.67 17.4837 2320.16 17.4837 Q2314.65 17.4837 2311.41 21.2916 Q2308.21 25.0589 2308.21 31.5808 Q2308.21 38.1433 2311.41 41.9107 Q2314.65 45.678 2320.16 45.678 Z" fill="#000000" fill-rule="nonzero" fill-opacity="1"></path><path clip-path="url(#clip390)" d="M2363.46 65.6895 L2392.02 65.6895 L2392.02 72.576 L2353.62 72.576 L2353.62 65.6895 Q2358.28 60.8689 2366.3 52.7671 Q2374.36 44.6248 2376.42 42.2752 Q2380.35 37.8598 2381.89 34.8216 Q2383.47 31.7429 2383.47 28.7857 Q2383.47 23.9651 2380.07 20.927 Q2376.71 17.8888 2371.28 17.8888 Q2367.43 17.8888 2363.14 19.2256 Q2358.88 20.5624 2354.02 23.2765 L2354.02 15.0127 Q2358.97 13.0277 2363.26 12.015 Q2367.55 11.0023 2371.12 11.0023 Q2380.52 11.0023 2386.11 15.7013 Q2391.7 20.4004 2391.7 28.2591 Q2391.7 31.9859 2390.28 35.3482 Q2388.9 38.6699 2385.21 43.2069 Q2384.2 44.3817 2378.77 50.0125 Q2373.35 55.6027 2363.46 65.6895 Z" fill="#000000" fill-rule="nonzero" fill-opacity="1"></path><path clip-path="url(#clip390)" d="M2409.28 12.096 L2441.4 12.096 L2441.4 18.9825 L2416.77 18.9825 L2416.77 33.8088 Q2418.55 33.2012 2420.34 32.9176 Q2422.12 32.5936 2423.9 32.5936 Q2434.03 32.5936 2439.94 38.1433 Q2445.86 43.6931 2445.86 53.1722 Q2445.86 62.9348 2439.78 68.3631 Q2433.7 73.7508 2422.65 73.7508 Q2418.84 73.7508 2414.87 73.1026 Q2410.94 72.4545 2406.73 71.1582 L2406.73 62.9348 Q2410.37 64.9198 2414.26 65.892 Q2418.15 66.8642 2422.48 66.8642 Q2429.49 66.8642 2433.58 63.1779 Q2437.67 59.4916 2437.67 53.1722 Q2437.67 46.8528 2433.58 43.1664 Q2429.49 39.4801 2422.48 39.4801 Q2419.2 39.4801 2415.92 40.2093 Q2412.68 40.9384 2409.28 42.4778 L2409.28 12.096 Z" fill="#000000" fill-rule="nonzero" fill-opacity="1"></path><polyline clip-path="url(#clip392)" style="stroke:#e26f46; stroke-linecap:round; stroke-linejoin:round; stroke-width:4; stroke-opacity:1; fill:none" points="206.264,183.882 293.813,162.047 438.255,274.617 932.893,299.845 1399.08,257.87 1749.28,170.528 1806.17,304.934 1455.98,392.276 1571.97,437.643 1863.07,439.339 1919.96,573.745 1628.87,572.049 1541.32,593.884 1598.21,728.29 1948.41,640.948 2005.3,775.353 1830.2,819.024 2033.75,842.556 2090.64,976.961 1683.55,929.898 1740.44,1064.3 2000.88,1222.24 2145.32,1334.81 2289.76,1447.38 2173.77,1402.01 1941.78,1311.28 1534.69,1264.22 1245.8,1039.08 1018.23,501.453 379.152,363.655 234.71,251.085 206.264,183.882 "></polyline>
<circle clip-path="url(#clip392)" cx="206.264" cy="183.882" r="14.4" fill="#e26f46" fill-rule="evenodd" fill-opacity="1" stroke="#000000" stroke-opacity="1" stroke-width="3.2"></circle>
<circle clip-path="url(#clip392)" cx="293.813" cy="162.047" r="14.4" fill="#e26f46" fill-rule="evenodd" fill-opacity="1" stroke="#000000" stroke-opacity="1" stroke-width="3.2"></circle>
<circle clip-path="url(#clip392)" cx="438.255" cy="274.617" r="14.4" fill="#e26f46" fill-rule="evenodd" fill-opacity="1" stroke="#000000" stroke-opacity="1" stroke-width="3.2"></circle>
<circle clip-path="url(#clip392)" cx="932.893" cy="299.845" r="14.4" fill="#e26f46" fill-rule="evenodd" fill-opacity="1" stroke="#000000" stroke-opacity="1" stroke-width="3.2"></circle>
<circle clip-path="url(#clip392)" cx="1399.08" cy="257.87" r="14.4" fill="#e26f46" fill-rule="evenodd" fill-opacity="1" stroke="#000000" stroke-opacity="1" stroke-width="3.2"></circle>
<circle clip-path="url(#clip392)" cx="1749.28" cy="170.528" r="14.4" fill="#e26f46" fill-rule="evenodd" fill-opacity="1" stroke="#000000" stroke-opacity="1" stroke-width="3.2"></circle>
<circle clip-path="url(#clip392)" cx="1806.17" cy="304.934" r="14.4" fill="#e26f46" fill-rule="evenodd" fill-opacity="1" stroke="#000000" stroke-opacity="1" stroke-width="3.2"></circle>
<circle clip-path="url(#clip392)" cx="1455.98" cy="392.276" r="14.4" fill="#e26f46" fill-rule="evenodd" fill-opacity="1" stroke="#000000" stroke-opacity="1" stroke-width="3.2"></circle>
<circle clip-path="url(#clip392)" cx="1571.97" cy="437.643" r="14.4" fill="#e26f46" fill-rule="evenodd" fill-opacity="1" stroke="#000000" stroke-opacity="1" stroke-width="3.2"></circle>
<circle clip-path="url(#clip392)" cx="1863.07" cy="439.339" r="14.4" fill="#e26f46" fill-rule="evenodd" fill-opacity="1" stroke="#000000" stroke-opacity="1" stroke-width="3.2"></circle>
<circle clip-path="url(#clip392)" cx="1919.96" cy="573.745" r="14.4" fill="#e26f46" fill-rule="evenodd" fill-opacity="1" stroke="#000000" stroke-opacity="1" stroke-width="3.2"></circle>
<circle clip-path="url(#clip392)" cx="1628.87" cy="572.049" r="14.4" fill="#e26f46" fill-rule="evenodd" fill-opacity="1" stroke="#000000" stroke-opacity="1" stroke-width="3.2"></circle>
<circle clip-path="url(#clip392)" cx="1541.32" cy="593.884" r="14.4" fill="#e26f46" fill-rule="evenodd" fill-opacity="1" stroke="#000000" stroke-opacity="1" stroke-width="3.2"></circle>
<circle clip-path="url(#clip392)" cx="1598.21" cy="728.29" r="14.4" fill="#e26f46" fill-rule="evenodd" fill-opacity="1" stroke="#000000" stroke-opacity="1" stroke-width="3.2"></circle>
<circle clip-path="url(#clip392)" cx="1948.41" cy="640.948" r="14.4" fill="#e26f46" fill-rule="evenodd" fill-opacity="1" stroke="#000000" stroke-opacity="1" stroke-width="3.2"></circle>
<circle clip-path="url(#clip392)" cx="2005.3" cy="775.353" r="14.4" fill="#e26f46" fill-rule="evenodd" fill-opacity="1" stroke="#000000" stroke-opacity="1" stroke-width="3.2"></circle>
<circle clip-path="url(#clip392)" cx="1830.2" cy="819.024" r="14.4" fill="#e26f46" fill-rule="evenodd" fill-opacity="1" stroke="#000000" stroke-opacity="1" stroke-width="3.2"></circle>
<circle clip-path="url(#clip392)" cx="2033.75" cy="842.556" r="14.4" fill="#e26f46" fill-rule="evenodd" fill-opacity="1" stroke="#000000" stroke-opacity="1" stroke-width="3.2"></circle>
<circle clip-path="url(#clip392)" cx="2090.64" cy="976.961" r="14.4" fill="#e26f46" fill-rule="evenodd" fill-opacity="1" stroke="#000000" stroke-opacity="1" stroke-width="3.2"></circle>
<circle clip-path="url(#clip392)" cx="1683.55" cy="929.898" r="14.4" fill="#e26f46" fill-rule="evenodd" fill-opacity="1" stroke="#000000" stroke-opacity="1" stroke-width="3.2"></circle>
<circle clip-path="url(#clip392)" cx="1740.44" cy="1064.3" r="14.4" fill="#e26f46" fill-rule="evenodd" fill-opacity="1" stroke="#000000" stroke-opacity="1" stroke-width="3.2"></circle>
<circle clip-path="url(#clip392)" cx="2000.88" cy="1222.24" r="14.4" fill="#e26f46" fill-rule="evenodd" fill-opacity="1" stroke="#000000" stroke-opacity="1" stroke-width="3.2"></circle>
<circle clip-path="url(#clip392)" cx="2145.32" cy="1334.81" r="14.4" fill="#e26f46" fill-rule="evenodd" fill-opacity="1" stroke="#000000" stroke-opacity="1" stroke-width="3.2"></circle>
<circle clip-path="url(#clip392)" cx="2289.76" cy="1447.38" r="14.4" fill="#e26f46" fill-rule="evenodd" fill-opacity="1" stroke="#000000" stroke-opacity="1" stroke-width="3.2"></circle>
<circle clip-path="url(#clip392)" cx="2173.77" cy="1402.01" r="14.4" fill="#e26f46" fill-rule="evenodd" fill-opacity="1" stroke="#000000" stroke-opacity="1" stroke-width="3.2"></circle>
<circle clip-path="url(#clip392)" cx="1941.78" cy="1311.28" r="14.4" fill="#e26f46" fill-rule="evenodd" fill-opacity="1" stroke="#000000" stroke-opacity="1" stroke-width="3.2"></circle>
<circle clip-path="url(#clip392)" cx="1534.69" cy="1264.22" r="14.4" fill="#e26f46" fill-rule="evenodd" fill-opacity="1" stroke="#000000" stroke-opacity="1" stroke-width="3.2"></circle>
<circle clip-path="url(#clip392)" cx="1245.8" cy="1039.08" r="14.4" fill="#e26f46" fill-rule="evenodd" fill-opacity="1" stroke="#000000" stroke-opacity="1" stroke-width="3.2"></circle>
<circle clip-path="url(#clip392)" cx="1018.23" cy="501.453" r="14.4" fill="#e26f46" fill-rule="evenodd" fill-opacity="1" stroke="#000000" stroke-opacity="1" stroke-width="3.2"></circle>
<circle clip-path="url(#clip392)" cx="379.152" cy="363.655" r="14.4" fill="#e26f46" fill-rule="evenodd" fill-opacity="1" stroke="#000000" stroke-opacity="1" stroke-width="3.2"></circle>
<circle clip-path="url(#clip392)" cx="234.71" cy="251.085" r="14.4" fill="#e26f46" fill-rule="evenodd" fill-opacity="1" stroke="#000000" stroke-opacity="1" stroke-width="3.2"></circle>
<circle clip-path="url(#clip392)" cx="206.264" cy="183.882" r="14.4" fill="#e26f46" fill-rule="evenodd" fill-opacity="1" stroke="#000000" stroke-opacity="1" stroke-width="3.2"></circle>
<polyline clip-path="url(#clip392)" style="stroke:#c271d2; stroke-linecap:round; stroke-linejoin:round; stroke-width:4; stroke-opacity:1; fill:none" points="201.614,191.429 288.994,169.347 433.908,281.412 928.341,305.149 1394.01,261.814 1743.53,173.488 1801.06,307.634 1451.54,395.96 1567.69,440.951 1858.6,441.779 1916.13,575.925 1625.22,575.097 1537.84,597.179 1595.38,731.325 1944.9,642.998 2002.43,777.144 1827.67,821.307 2031.2,844.217 2088.73,978.363 1681.68,932.543 1739.21,1066.69 2000.27,1223.74 2145.19,1335.81 2290.1,1447.87 2173.95,1402.88 1941.66,1312.9 1534.61,1267.08 1244.78,1042.95 1014.64,506.368 375.295,370.566 230.381,258.502 201.614,191.429 "></polyline>
<circle clip-path="url(#clip392)" cx="201.614" cy="191.429" r="14.4" fill="#c271d2" fill-rule="evenodd" fill-opacity="1" stroke="#000000" stroke-opacity="1" stroke-width="3.2"></circle>
<circle clip-path="url(#clip392)" cx="288.994" cy="169.347" r="14.4" fill="#c271d2" fill-rule="evenodd" fill-opacity="1" stroke="#000000" stroke-opacity="1" stroke-width="3.2"></circle>
<circle clip-path="url(#clip392)" cx="433.908" cy="281.412" r="14.4" fill="#c271d2" fill-rule="evenodd" fill-opacity="1" stroke="#000000" stroke-opacity="1" stroke-width="3.2"></circle>
<circle clip-path="url(#clip392)" cx="928.341" cy="305.149" r="14.4" fill="#c271d2" fill-rule="evenodd" fill-opacity="1" stroke="#000000" stroke-opacity="1" stroke-width="3.2"></circle>
<circle clip-path="url(#clip392)" cx="1394.01" cy="261.814" r="14.4" fill="#c271d2" fill-rule="evenodd" fill-opacity="1" stroke="#000000" stroke-opacity="1" stroke-width="3.2"></circle>
<circle clip-path="url(#clip392)" cx="1743.53" cy="173.488" r="14.4" fill="#c271d2" fill-rule="evenodd" fill-opacity="1" stroke="#000000" stroke-opacity="1" stroke-width="3.2"></circle>
<circle clip-path="url(#clip392)" cx="1801.06" cy="307.634" r="14.4" fill="#c271d2" fill-rule="evenodd" fill-opacity="1" stroke="#000000" stroke-opacity="1" stroke-width="3.2"></circle>
<circle clip-path="url(#clip392)" cx="1451.54" cy="395.96" r="14.4" fill="#c271d2" fill-rule="evenodd" fill-opacity="1" stroke="#000000" stroke-opacity="1" stroke-width="3.2"></circle>
<circle clip-path="url(#clip392)" cx="1567.69" cy="440.951" r="14.4" fill="#c271d2" fill-rule="evenodd" fill-opacity="1" stroke="#000000" stroke-opacity="1" stroke-width="3.2"></circle>
<circle clip-path="url(#clip392)" cx="1858.6" cy="441.779" r="14.4" fill="#c271d2" fill-rule="evenodd" fill-opacity="1" stroke="#000000" stroke-opacity="1" stroke-width="3.2"></circle>
<circle clip-path="url(#clip392)" cx="1916.13" cy="575.925" r="14.4" fill="#c271d2" fill-rule="evenodd" fill-opacity="1" stroke="#000000" stroke-opacity="1" stroke-width="3.2"></circle>
<circle clip-path="url(#clip392)" cx="1625.22" cy="575.097" r="14.4" fill="#c271d2" fill-rule="evenodd" fill-opacity="1" stroke="#000000" stroke-opacity="1" stroke-width="3.2"></circle>
<circle clip-path="url(#clip392)" cx="1537.84" cy="597.179" r="14.4" fill="#c271d2" fill-rule="evenodd" fill-opacity="1" stroke="#000000" stroke-opacity="1" stroke-width="3.2"></circle>
<circle clip-path="url(#clip392)" cx="1595.38" cy="731.325" r="14.4" fill="#c271d2" fill-rule="evenodd" fill-opacity="1" stroke="#000000" stroke-opacity="1" stroke-width="3.2"></circle>
<circle clip-path="url(#clip392)" cx="1944.9" cy="642.998" r="14.4" fill="#c271d2" fill-rule="evenodd" fill-opacity="1" stroke="#000000" stroke-opacity="1" stroke-width="3.2"></circle>
<circle clip-path="url(#clip392)" cx="2002.43" cy="777.144" r="14.4" fill="#c271d2" fill-rule="evenodd" fill-opacity="1" stroke="#000000" stroke-opacity="1" stroke-width="3.2"></circle>
<circle clip-path="url(#clip392)" cx="1827.67" cy="821.307" r="14.4" fill="#c271d2" fill-rule="evenodd" fill-opacity="1" stroke="#000000" stroke-opacity="1" stroke-width="3.2"></circle>
<circle clip-path="url(#clip392)" cx="2031.2" cy="844.217" r="14.4" fill="#c271d2" fill-rule="evenodd" fill-opacity="1" stroke="#000000" stroke-opacity="1" stroke-width="3.2"></circle>
<circle clip-path="url(#clip392)" cx="2088.73" cy="978.363" r="14.4" fill="#c271d2" fill-rule="evenodd" fill-opacity="1" stroke="#000000" stroke-opacity="1" stroke-width="3.2"></circle>
<circle clip-path="url(#clip392)" cx="1681.68" cy="932.543" r="14.4" fill="#c271d2" fill-rule="evenodd" fill-opacity="1" stroke="#000000" stroke-opacity="1" stroke-width="3.2"></circle>
<circle clip-path="url(#clip392)" cx="1739.21" cy="1066.69" r="14.4" fill="#c271d2" fill-rule="evenodd" fill-opacity="1" stroke="#000000" stroke-opacity="1" stroke-width="3.2"></circle>
<circle clip-path="url(#clip392)" cx="2000.27" cy="1223.74" r="14.4" fill="#c271d2" fill-rule="evenodd" fill-opacity="1" stroke="#000000" stroke-opacity="1" stroke-width="3.2"></circle>
<circle clip-path="url(#clip392)" cx="2145.19" cy="1335.81" r="14.4" fill="#c271d2" fill-rule="evenodd" fill-opacity="1" stroke="#000000" stroke-opacity="1" stroke-width="3.2"></circle>
<circle clip-path="url(#clip392)" cx="2290.1" cy="1447.87" r="14.4" fill="#c271d2" fill-rule="evenodd" fill-opacity="1" stroke="#000000" stroke-opacity="1" stroke-width="3.2"></circle>
<circle clip-path="url(#clip392)" cx="2173.95" cy="1402.88" r="14.4" fill="#c271d2" fill-rule="evenodd" fill-opacity="1" stroke="#000000" stroke-opacity="1" stroke-width="3.2"></circle>
<circle clip-path="url(#clip392)" cx="1941.66" cy="1312.9" r="14.4" fill="#c271d2" fill-rule="evenodd" fill-opacity="1" stroke="#000000" stroke-opacity="1" stroke-width="3.2"></circle>
<circle clip-path="url(#clip392)" cx="1534.61" cy="1267.08" r="14.4" fill="#c271d2" fill-rule="evenodd" fill-opacity="1" stroke="#000000" stroke-opacity="1" stroke-width="3.2"></circle>
<circle clip-path="url(#clip392)" cx="1244.78" cy="1042.95" r="14.4" fill="#c271d2" fill-rule="evenodd" fill-opacity="1" stroke="#000000" stroke-opacity="1" stroke-width="3.2"></circle>
<circle clip-path="url(#clip392)" cx="1014.64" cy="506.368" r="14.4" fill="#c271d2" fill-rule="evenodd" fill-opacity="1" stroke="#000000" stroke-opacity="1" stroke-width="3.2"></circle>
<circle clip-path="url(#clip392)" cx="375.295" cy="370.566" r="14.4" fill="#c271d2" fill-rule="evenodd" fill-opacity="1" stroke="#000000" stroke-opacity="1" stroke-width="3.2"></circle>
<circle clip-path="url(#clip392)" cx="230.381" cy="258.502" r="14.4" fill="#c271d2" fill-rule="evenodd" fill-opacity="1" stroke="#000000" stroke-opacity="1" stroke-width="3.2"></circle>
<circle clip-path="url(#clip392)" cx="201.614" cy="191.429" r="14.4" fill="#c271d2" fill-rule="evenodd" fill-opacity="1" stroke="#000000" stroke-opacity="1" stroke-width="3.2"></circle>
<path clip-path="url(#clip390)" d="M212.753 1441.02 L672.418 1441.02 L672.418 1285.5 L212.753 1285.5  Z" fill="#ffffff" fill-rule="evenodd" fill-opacity="1"></path>
<polyline clip-path="url(#clip390)" style="stroke:#000000; stroke-linecap:round; stroke-linejoin:round; stroke-width:4; stroke-opacity:1; fill:none" points="212.753,1441.02 672.418,1441.02 672.418,1285.5 212.753,1285.5 212.753,1441.02 "></polyline>
<polyline clip-path="url(#clip390)" style="stroke:#e26f46; stroke-linecap:round; stroke-linejoin:round; stroke-width:4; stroke-opacity:1; fill:none" points="237.35,1337.34 384.937,1337.34 "></polyline>
<circle clip-path="url(#clip390)" cx="311.144" cy="1337.34" r="20.48" fill="#e26f46" fill-rule="evenodd" fill-opacity="1" stroke="#000000" stroke-opacity="1" stroke-width="4.55111"></circle>
<path clip-path="url(#clip390)" d="M409.535 1320.06 L429.396 1320.06 L429.396 1323.99 L414.21 1323.99 L414.21 1334.18 L427.914 1334.18 L427.914 1338.11 L414.21 1338.11 L414.21 1354.62 L409.535 1354.62 L409.535 1320.06 Z" fill="#000000" fill-rule="nonzero" fill-opacity="1"></path><path clip-path="url(#clip390)" d="M436.618 1318.6 L440.877 1318.6 L440.877 1354.62 L436.618 1354.62 L436.618 1318.6 Z" fill="#000000" fill-rule="nonzero" fill-opacity="1"></path><path clip-path="url(#clip390)" d="M459.835 1331.68 Q456.409 1331.68 454.419 1334.36 Q452.428 1337.02 452.428 1341.68 Q452.428 1346.33 454.395 1349.01 Q456.386 1351.68 459.835 1351.68 Q463.238 1351.68 465.229 1348.99 Q467.219 1346.31 467.219 1341.68 Q467.219 1337.07 465.229 1334.38 Q463.238 1331.68 459.835 1331.68 M459.835 1328.06 Q465.391 1328.06 468.562 1331.68 Q471.733 1335.29 471.733 1341.68 Q471.733 1348.04 468.562 1351.68 Q465.391 1355.29 459.835 1355.29 Q454.257 1355.29 451.085 1351.68 Q447.937 1348.04 447.937 1341.68 Q447.937 1335.29 451.085 1331.68 Q454.257 1328.06 459.835 1328.06 Z" fill="#000000" fill-rule="nonzero" fill-opacity="1"></path><path clip-path="url(#clip390)" d="M490.576 1341.58 Q485.414 1341.58 483.423 1342.76 Q481.432 1343.94 481.432 1346.79 Q481.432 1349.06 482.914 1350.4 Q484.418 1351.72 486.988 1351.72 Q490.53 1351.72 492.659 1349.22 Q494.812 1346.7 494.812 1342.53 L494.812 1341.58 L490.576 1341.58 M499.071 1339.82 L499.071 1354.62 L494.812 1354.62 L494.812 1350.68 Q493.354 1353.04 491.178 1354.18 Q489.002 1355.29 485.854 1355.29 Q481.872 1355.29 479.511 1353.06 Q477.173 1350.82 477.173 1347.07 Q477.173 1342.69 480.09 1340.47 Q483.03 1338.25 488.84 1338.25 L494.812 1338.25 L494.812 1337.83 Q494.812 1334.89 492.867 1333.3 Q490.946 1331.68 487.451 1331.68 Q485.229 1331.68 483.122 1332.21 Q481.016 1332.74 479.071 1333.81 L479.071 1329.87 Q481.409 1328.97 483.608 1328.53 Q485.807 1328.06 487.891 1328.06 Q493.516 1328.06 496.293 1330.98 Q499.071 1333.9 499.071 1339.82 Z" fill="#000000" fill-rule="nonzero" fill-opacity="1"></path><path clip-path="url(#clip390)" d="M512.057 1321.33 L512.057 1328.69 L520.83 1328.69 L520.83 1332 L512.057 1332 L512.057 1346.07 Q512.057 1349.25 512.914 1350.15 Q513.793 1351.05 516.455 1351.05 L520.83 1351.05 L520.83 1354.62 L516.455 1354.62 Q511.525 1354.62 509.65 1352.79 Q507.775 1350.93 507.775 1346.07 L507.775 1332 L504.65 1332 L504.65 1328.69 L507.775 1328.69 L507.775 1321.33 L512.057 1321.33 Z" fill="#000000" fill-rule="nonzero" fill-opacity="1"></path><path clip-path="url(#clip390)" d="M537.613 1335.47 Q534.464 1335.47 532.613 1337.62 Q530.784 1339.78 530.784 1343.53 Q530.784 1347.25 532.613 1349.43 Q534.464 1351.58 537.613 1351.58 Q540.761 1351.58 542.589 1349.43 Q544.441 1347.25 544.441 1343.53 Q544.441 1339.78 542.589 1337.62 Q540.761 1335.47 537.613 1335.47 M546.895 1320.82 L546.895 1325.08 Q545.136 1324.25 543.33 1323.81 Q541.548 1323.37 539.788 1323.37 Q535.159 1323.37 532.705 1326.49 Q530.275 1329.62 529.927 1335.93 Q531.293 1333.92 533.353 1332.86 Q535.414 1331.77 537.89 1331.77 Q543.099 1331.77 546.108 1334.94 Q549.14 1338.09 549.14 1343.53 Q549.14 1348.85 545.992 1352.07 Q542.844 1355.29 537.613 1355.29 Q531.617 1355.29 528.446 1350.7 Q525.275 1346.1 525.275 1337.37 Q525.275 1329.18 529.164 1324.31 Q533.052 1319.43 539.603 1319.43 Q541.363 1319.43 543.145 1319.78 Q544.951 1320.12 546.895 1320.82 Z" fill="#000000" fill-rule="nonzero" fill-opacity="1"></path><path clip-path="url(#clip390)" d="M570.043 1324.13 L558.237 1342.58 L570.043 1342.58 L570.043 1324.13 M568.816 1320.06 L574.696 1320.06 L574.696 1342.58 L579.626 1342.58 L579.626 1346.47 L574.696 1346.47 L574.696 1354.62 L570.043 1354.62 L570.043 1346.47 L554.441 1346.47 L554.441 1341.95 L568.816 1320.06 Z" fill="#000000" fill-rule="nonzero" fill-opacity="1"></path><polyline clip-path="url(#clip390)" style="stroke:#c271d2; stroke-linecap:round; stroke-linejoin:round; stroke-width:4; stroke-opacity:1; fill:none" points="237.35,1389.18 384.937,1389.18 "></polyline>
<circle clip-path="url(#clip390)" cx="311.144" cy="1389.18" r="20.48" fill="#c271d2" fill-rule="evenodd" fill-opacity="1" stroke="#000000" stroke-opacity="1" stroke-width="4.55111"></circle>
<path clip-path="url(#clip390)" d="M409.535 1371.9 L416.502 1371.9 L425.322 1395.41 L434.187 1371.9 L441.155 1371.9 L441.155 1406.46 L436.595 1406.46 L436.595 1376.11 L427.683 1399.81 L422.984 1399.81 L414.072 1376.11 L414.072 1406.46 L409.535 1406.46 L409.535 1371.9 Z" fill="#000000" fill-rule="nonzero" fill-opacity="1"></path><path clip-path="url(#clip390)" d="M462.034 1393.42 Q456.872 1393.42 454.882 1394.6 Q452.891 1395.78 452.891 1398.63 Q452.891 1400.9 454.372 1402.24 Q455.877 1403.56 458.446 1403.56 Q461.988 1403.56 464.118 1401.06 Q466.27 1398.54 466.27 1394.37 L466.27 1393.42 L462.034 1393.42 M470.53 1391.66 L470.53 1406.46 L466.27 1406.46 L466.27 1402.52 Q464.812 1404.88 462.636 1406.02 Q460.46 1407.13 457.312 1407.13 Q453.331 1407.13 450.97 1404.9 Q448.632 1402.66 448.632 1398.91 Q448.632 1394.53 451.548 1392.31 Q454.488 1390.09 460.298 1390.09 L466.27 1390.09 L466.27 1389.67 Q466.27 1386.73 464.326 1385.14 Q462.405 1383.52 458.909 1383.52 Q456.687 1383.52 454.581 1384.05 Q452.474 1384.58 450.53 1385.65 L450.53 1381.71 Q452.868 1380.81 455.067 1380.37 Q457.266 1379.9 459.349 1379.9 Q464.974 1379.9 467.752 1382.82 Q470.53 1385.74 470.53 1391.66 Z" fill="#000000" fill-rule="nonzero" fill-opacity="1"></path><path clip-path="url(#clip390)" d="M494.326 1384.51 Q493.608 1384.09 492.752 1383.91 Q491.918 1383.7 490.9 1383.7 Q487.289 1383.7 485.344 1386.06 Q483.423 1388.4 483.423 1392.8 L483.423 1406.46 L479.141 1406.46 L479.141 1380.53 L483.423 1380.53 L483.423 1384.56 Q484.766 1382.2 486.918 1381.06 Q489.071 1379.9 492.15 1379.9 Q492.59 1379.9 493.122 1379.97 Q493.654 1380.02 494.303 1380.14 L494.326 1384.51 Z" fill="#000000" fill-rule="nonzero" fill-opacity="1"></path><path clip-path="url(#clip390)" d="M498.793 1380.53 L503.053 1380.53 L503.053 1406.46 L498.793 1406.46 L498.793 1380.53 M498.793 1370.44 L503.053 1370.44 L503.053 1375.83 L498.793 1375.83 L498.793 1370.44 Z" fill="#000000" fill-rule="nonzero" fill-opacity="1"></path><path clip-path="url(#clip390)" d="M522.011 1383.52 Q518.585 1383.52 516.594 1386.2 Q514.603 1388.86 514.603 1393.52 Q514.603 1398.17 516.571 1400.85 Q518.562 1403.52 522.011 1403.52 Q525.414 1403.52 527.404 1400.83 Q529.395 1398.15 529.395 1393.52 Q529.395 1388.91 527.404 1386.22 Q525.414 1383.52 522.011 1383.52 M522.011 1379.9 Q527.566 1379.9 530.738 1383.52 Q533.909 1387.13 533.909 1393.52 Q533.909 1399.88 530.738 1403.52 Q527.566 1407.13 522.011 1407.13 Q516.432 1407.13 513.261 1403.52 Q510.113 1399.88 510.113 1393.52 Q510.113 1387.13 513.261 1383.52 Q516.432 1379.9 522.011 1379.9 Z" fill="#000000" fill-rule="nonzero" fill-opacity="1"></path><path clip-path="url(#clip390)" d="M556.224 1371.9 L560.899 1371.9 L560.899 1386.5 L576.409 1371.9 L582.427 1371.9 L565.274 1388.01 L583.654 1406.46 L577.497 1406.46 L560.899 1389.81 L560.899 1406.46 L556.224 1406.46 L556.224 1371.9 Z" fill="#000000" fill-rule="nonzero" fill-opacity="1"></path><path clip-path="url(#clip390)" d="M598.075 1393.42 Q592.913 1393.42 590.922 1394.6 Q588.932 1395.78 588.932 1398.63 Q588.932 1400.9 590.413 1402.24 Q591.918 1403.56 594.487 1403.56 Q598.029 1403.56 600.159 1401.06 Q602.311 1398.54 602.311 1394.37 L602.311 1393.42 L598.075 1393.42 M606.571 1391.66 L606.571 1406.46 L602.311 1406.46 L602.311 1402.52 Q600.853 1404.88 598.677 1406.02 Q596.501 1407.13 593.353 1407.13 Q589.372 1407.13 587.01 1404.9 Q584.673 1402.66 584.673 1398.91 Q584.673 1394.53 587.589 1392.31 Q590.529 1390.09 596.339 1390.09 L602.311 1390.09 L602.311 1389.67 Q602.311 1386.73 600.367 1385.14 Q598.446 1383.52 594.95 1383.52 Q592.728 1383.52 590.622 1384.05 Q588.515 1384.58 586.571 1385.65 L586.571 1381.71 Q588.909 1380.81 591.108 1380.37 Q593.307 1379.9 595.39 1379.9 Q601.015 1379.9 603.793 1382.82 Q606.571 1385.74 606.571 1391.66 Z" fill="#000000" fill-rule="nonzero" fill-opacity="1"></path><path clip-path="url(#clip390)" d="M630.367 1384.51 Q629.649 1384.09 628.793 1383.91 Q627.959 1383.7 626.941 1383.7 Q623.33 1383.7 621.385 1386.06 Q619.464 1388.4 619.464 1392.8 L619.464 1406.46 L615.182 1406.46 L615.182 1380.53 L619.464 1380.53 L619.464 1384.56 Q620.807 1382.2 622.959 1381.06 Q625.112 1379.9 628.191 1379.9 Q628.631 1379.9 629.163 1379.97 Q629.695 1380.02 630.344 1380.14 L630.367 1384.51 Z" fill="#000000" fill-rule="nonzero" fill-opacity="1"></path><path clip-path="url(#clip390)" d="M639.047 1373.17 L639.047 1380.53 L647.82 1380.53 L647.82 1383.84 L639.047 1383.84 L639.047 1397.91 Q639.047 1401.09 639.904 1401.99 Q640.783 1402.89 643.445 1402.89 L647.82 1402.89 L647.82 1406.46 L643.445 1406.46 Q638.515 1406.46 636.64 1404.63 Q634.765 1402.77 634.765 1397.91 L634.765 1383.84 L631.64 1383.84 L631.64 1380.53 L634.765 1380.53 L634.765 1373.17 L639.047 1373.17 Z" fill="#000000" fill-rule="nonzero" fill-opacity="1"></path></svg>