<svg xmlns="http://www.w3.org/2000/svg" xmlns:xlink="http://www.w3.org/1999/xlink" width="600" height="400" viewBox="0 0 2400 1600">
<defs>
  <clipPath id="clip750">
    <rect x="0" y="0" width="2400" height="1600"></rect>
  </clipPath>
</defs>
<path clip-path="url(#clip750)" d="M0 1600 L2400 1600 L2400 8.88178e-14 L0 8.88178e-14  Z" fill="#ffffff" fill-rule="evenodd" fill-opacity="1"></path>
<defs>
  <clipPath id="clip751">
    <rect x="480" y="0" width="1681" height="1600"></rect>
  </clipPath>
</defs>
<path clip-path="url(#clip750)" d="M219.195 1423.18 L2352.76 1423.18 L2352.76 47.2441 L219.195 47.2441  Z" fill="#ffffff" fill-rule="evenodd" fill-opacity="1"></path>
<defs>
  <clipPath id="clip752">
    <rect x="219" y="47" width="2135" height="1377"></rect>
  </clipPath>
</defs>
<polyline clip-path="url(#clip752)" style="stroke:#000000; stroke-linecap:round; stroke-linejoin:round; stroke-width:2; stroke-opacity:0.1; fill:none" points="418.392,1423.18 418.392,47.2441 "></polyline>
<polyline clip-path="url(#clip752)" style="stroke:#000000; stroke-linecap:round; stroke-linejoin:round; stroke-width:2; stroke-opacity:0.1; fill:none" points="765.425,1423.18 765.425,47.2441 "></polyline>
<polyline clip-path="url(#clip752)" style="stroke:#000000; stroke-linecap:round; stroke-linejoin:round; stroke-width:2; stroke-opacity:0.1; fill:none" points="1112.46,1423.18 1112.46,47.2441 "></polyline>
<polyline clip-path="url(#clip752)" style="stroke:#000000; stroke-linecap:round; stroke-linejoin:round; stroke-width:2; stroke-opacity:0.1; fill:none" points="1459.49,1423.18 1459.49,47.2441 "></polyline>
<polyline clip-path="url(#clip752)" style="stroke:#000000; stroke-linecap:round; stroke-linejoin:round; stroke-width:2; stroke-opacity:0.1; fill:none" points="1806.53,1423.18 1806.53,47.2441 "></polyline>
<polyline clip-path="url(#clip752)" style="stroke:#000000; stroke-linecap:round; stroke-linejoin:round; stroke-width:2; stroke-opacity:0.1; fill:none" points="2153.56,1423.18 2153.56,47.2441 "></polyline>
<polyline clip-path="url(#clip750)" style="stroke:#000000; stroke-linecap:round; stroke-linejoin:round; stroke-width:4; stroke-opacity:1; fill:none" points="219.195,1423.18 2352.76,1423.18 "></polyline>
<polyline clip-path="url(#clip750)" style="stroke:#000000; stroke-linecap:round; stroke-linejoin:round; stroke-width:4; stroke-opacity:1; fill:none" points="418.392,1423.18 418.392,1404.28 "></polyline>
<polyline clip-path="url(#clip750)" style="stroke:#000000; stroke-linecap:round; stroke-linejoin:round; stroke-width:4; stroke-opacity:1; fill:none" points="765.425,1423.18 765.425,1404.28 "></polyline>
<polyline clip-path="url(#clip750)" style="stroke:#000000; stroke-linecap:round; stroke-linejoin:round; stroke-width:4; stroke-opacity:1; fill:none" points="1112.46,1423.18 1112.46,1404.28 "></polyline>
<polyline clip-path="url(#clip750)" style="stroke:#000000; stroke-linecap:round; stroke-linejoin:round; stroke-width:4; stroke-opacity:1; fill:none" points="1459.49,1423.18 1459.49,1404.28 "></polyline>
<polyline clip-path="url(#clip750)" style="stroke:#000000; stroke-linecap:round; stroke-linejoin:round; stroke-width:4; stroke-opacity:1; fill:none" points="1806.53,1423.18 1806.53,1404.28 "></polyline>
<polyline clip-path="url(#clip750)" style="stroke:#000000; stroke-linecap:round; stroke-linejoin:round; stroke-width:4; stroke-opacity:1; fill:none" points="2153.56,1423.18 2153.56,1404.28 "></polyline>
<path clip-path="url(#clip750)" d="M422.64 1466.95 Q425.996 1467.66 427.871 1469.93 Q429.769 1472.2 429.769 1475.53 Q429.769 1480.65 426.251 1483.45 Q422.732 1486.25 416.251 1486.25 Q414.075 1486.25 411.76 1485.81 Q409.469 1485.39 407.015 1484.54 L407.015 1480.02 Q408.959 1481.16 411.274 1481.74 Q413.589 1482.32 416.112 1482.32 Q420.51 1482.32 422.802 1480.58 Q425.117 1478.84 425.117 1475.53 Q425.117 1472.48 422.964 1470.77 Q420.834 1469.03 417.015 1469.03 L412.987 1469.03 L412.987 1465.19 L417.2 1465.19 Q420.649 1465.19 422.478 1463.82 Q424.306 1462.43 424.306 1459.84 Q424.306 1457.18 422.408 1455.77 Q420.533 1454.33 417.015 1454.33 Q415.094 1454.33 412.894 1454.75 Q410.695 1455.16 408.057 1456.04 L408.057 1451.88 Q410.719 1451.14 413.033 1450.77 Q415.371 1450.39 417.431 1450.39 Q422.756 1450.39 425.857 1452.83 Q428.959 1455.23 428.959 1459.35 Q428.959 1462.22 427.316 1464.21 Q425.672 1466.18 422.64 1466.95 Z" fill="#000000" fill-rule="nonzero" fill-opacity="1"></path><path clip-path="url(#clip750)" d="M768.435 1455.09 L756.629 1473.54 L768.435 1473.54 L768.435 1455.09 M767.208 1451.02 L773.087 1451.02 L773.087 1473.54 L778.018 1473.54 L778.018 1477.43 L773.087 1477.43 L773.087 1485.58 L768.435 1485.58 L768.435 1477.43 L752.833 1477.43 L752.833 1472.92 L767.208 1451.02 Z" fill="#000000" fill-rule="nonzero" fill-opacity="1"></path><path clip-path="url(#clip750)" d="M1102.74 1451.02 L1121.09 1451.02 L1121.09 1454.96 L1107.02 1454.96 L1107.02 1463.43 Q1108.04 1463.08 1109.06 1462.92 Q1110.07 1462.73 1111.09 1462.73 Q1116.88 1462.73 1120.26 1465.9 Q1123.64 1469.08 1123.64 1474.49 Q1123.64 1480.07 1120.17 1483.17 Q1116.69 1486.25 1110.38 1486.25 Q1108.2 1486.25 1105.93 1485.88 Q1103.69 1485.51 1101.28 1484.77 L1101.28 1480.07 Q1103.36 1481.2 1105.58 1481.76 Q1107.81 1482.32 1110.28 1482.32 Q1114.29 1482.32 1116.63 1480.21 Q1118.96 1478.1 1118.96 1474.49 Q1118.96 1470.88 1116.63 1468.77 Q1114.29 1466.67 1110.28 1466.67 Q1108.41 1466.67 1106.53 1467.08 Q1104.68 1467.5 1102.74 1468.38 L1102.74 1451.02 Z" fill="#000000" fill-rule="nonzero" fill-opacity="1"></path><path clip-path="url(#clip750)" d="M1459.9 1466.44 Q1456.75 1466.44 1454.9 1468.59 Q1453.07 1470.74 1453.07 1474.49 Q1453.07 1478.22 1454.9 1480.39 Q1456.75 1482.55 1459.9 1482.55 Q1463.05 1482.55 1464.87 1480.39 Q1466.73 1478.22 1466.73 1474.49 Q1466.73 1470.74 1464.87 1468.59 Q1463.05 1466.44 1459.9 1466.44 M1469.18 1451.78 L1469.18 1456.04 Q1467.42 1455.21 1465.61 1454.77 Q1463.83 1454.33 1462.07 1454.33 Q1457.44 1454.33 1454.99 1457.45 Q1452.56 1460.58 1452.21 1466.9 Q1453.58 1464.89 1455.64 1463.82 Q1457.7 1462.73 1460.17 1462.73 Q1465.38 1462.73 1468.39 1465.9 Q1471.42 1469.05 1471.42 1474.49 Q1471.42 1479.82 1468.28 1483.03 Q1465.13 1486.25 1459.9 1486.25 Q1453.9 1486.25 1450.73 1481.67 Q1447.56 1477.06 1447.56 1468.33 Q1447.56 1460.14 1451.45 1455.28 Q1455.34 1450.39 1461.89 1450.39 Q1463.65 1450.39 1465.43 1450.74 Q1467.24 1451.09 1469.18 1451.78 Z" fill="#000000" fill-rule="nonzero" fill-opacity="1"></path><path clip-path="url(#clip750)" d="M1795.41 1451.02 L1817.64 1451.02 L1817.64 1453.01 L1805.09 1485.58 L1800.21 1485.58 L1812.01 1454.96 L1795.41 1454.96 L1795.41 1451.02 Z" fill="#000000" fill-rule="nonzero" fill-opacity="1"></path><path clip-path="url(#clip750)" d="M2153.56 1469.17 Q2150.23 1469.17 2148.3 1470.95 Q2146.41 1472.73 2146.41 1475.86 Q2146.41 1478.98 2148.3 1480.77 Q2150.23 1482.55 2153.56 1482.55 Q2156.89 1482.55 2158.81 1480.77 Q2160.73 1478.96 2160.73 1475.86 Q2160.73 1472.73 2158.81 1470.95 Q2156.92 1469.17 2153.56 1469.17 M2148.88 1467.18 Q2145.87 1466.44 2144.18 1464.38 Q2142.52 1462.32 2142.52 1459.35 Q2142.52 1455.21 2145.46 1452.8 Q2148.42 1450.39 2153.56 1450.39 Q2158.72 1450.39 2161.66 1452.8 Q2164.6 1455.21 2164.6 1459.35 Q2164.6 1462.32 2162.91 1464.38 Q2161.24 1466.44 2158.26 1467.18 Q2161.64 1467.96 2163.51 1470.26 Q2165.41 1472.55 2165.41 1475.86 Q2165.41 1480.88 2162.33 1483.57 Q2159.28 1486.25 2153.56 1486.25 Q2147.84 1486.25 2144.76 1483.57 Q2141.71 1480.88 2141.71 1475.86 Q2141.71 1472.55 2143.61 1470.26 Q2145.5 1467.96 2148.88 1467.18 M2147.17 1459.79 Q2147.17 1462.48 2148.84 1463.98 Q2150.53 1465.49 2153.56 1465.49 Q2156.57 1465.49 2158.26 1463.98 Q2159.97 1462.48 2159.97 1459.79 Q2159.97 1457.11 2158.26 1455.6 Q2156.57 1454.1 2153.56 1454.1 Q2150.53 1454.1 2148.84 1455.6 Q2147.17 1457.11 2147.17 1459.79 Z" fill="#000000" fill-rule="nonzero" fill-opacity="1"></path><path clip-path="url(#clip750)" d="M1080.04 1526.86 L1071.32 1550.51 L1088.8 1550.51 L1080.04 1526.86 M1076.42 1520.52 L1083.71 1520.52 L1101.82 1568.04 L1095.13 1568.04 L1090.8 1555.85 L1069.38 1555.85 L1065.05 1568.04 L1058.27 1568.04 L1076.42 1520.52 Z" fill="#000000" fill-rule="nonzero" fill-opacity="1"></path><path clip-path="url(#clip750)" d="M1133.01 1533.76 L1133.01 1539.24 Q1130.52 1537.87 1128.01 1537.2 Q1125.53 1536.5 1122.98 1536.5 Q1117.28 1536.5 1114.13 1540.13 Q1110.98 1543.73 1110.98 1550.25 Q1110.98 1556.78 1114.13 1560.4 Q1117.28 1564 1122.98 1564 Q1125.53 1564 1128.01 1563.33 Q1130.52 1562.63 1133.01 1561.26 L1133.01 1566.68 Q1130.56 1567.82 1127.91 1568.39 Q1125.31 1568.97 1122.34 1568.97 Q1114.29 1568.97 1109.55 1563.91 Q1104.81 1558.85 1104.81 1550.25 Q1104.81 1541.53 1109.58 1536.53 Q1114.39 1531.54 1122.73 1531.54 Q1125.43 1531.54 1128.01 1532.11 Q1130.59 1532.65 1133.01 1533.76 Z" fill="#000000" fill-rule="nonzero" fill-opacity="1"></path><path clip-path="url(#clip750)" d="M1148.99 1522.27 L1148.99 1532.4 L1161.05 1532.4 L1161.05 1536.95 L1148.99 1536.95 L1148.99 1556.3 Q1148.99 1560.66 1150.16 1561.9 Q1151.37 1563.14 1155.03 1563.14 L1161.05 1563.14 L1161.05 1568.04 L1155.03 1568.04 Q1148.25 1568.04 1145.68 1565.53 Q1143.1 1562.98 1143.1 1556.3 L1143.1 1536.95 L1138.8 1536.95 L1138.8 1532.4 L1143.1 1532.4 L1143.1 1522.27 L1148.99 1522.27 Z" fill="#000000" fill-rule="nonzero" fill-opacity="1"></path><path clip-path="url(#clip750)" d="M1168.15 1553.98 L1168.15 1532.4 L1174 1532.4 L1174 1553.75 Q1174 1558.81 1175.98 1561.36 Q1177.95 1563.87 1181.9 1563.87 Q1186.64 1563.87 1189.38 1560.85 Q1192.14 1557.83 1192.14 1552.61 L1192.14 1532.4 L1198 1532.4 L1198 1568.04 L1192.14 1568.04 L1192.14 1562.57 Q1190.01 1565.82 1187.18 1567.41 Q1184.38 1568.97 1180.65 1568.97 Q1174.51 1568.97 1171.33 1565.15 Q1168.15 1561.33 1168.15 1553.98 M1182.88 1531.54 L1182.88 1531.54 Z" fill="#000000" fill-rule="nonzero" fill-opacity="1"></path><path clip-path="url(#clip750)" d="M1226.27 1550.12 Q1219.17 1550.12 1216.43 1551.75 Q1213.69 1553.37 1213.69 1557.29 Q1213.69 1560.4 1215.73 1562.25 Q1217.8 1564.07 1221.33 1564.07 Q1226.2 1564.07 1229.13 1560.63 Q1232.09 1557.16 1232.09 1551.43 L1232.09 1550.12 L1226.27 1550.12 M1237.95 1547.71 L1237.95 1568.04 L1232.09 1568.04 L1232.09 1562.63 Q1230.08 1565.88 1227.09 1567.44 Q1224.1 1568.97 1219.77 1568.97 Q1214.3 1568.97 1211.05 1565.91 Q1207.84 1562.82 1207.84 1557.67 Q1207.84 1551.65 1211.85 1548.6 Q1215.89 1545.54 1223.88 1545.54 L1232.09 1545.54 L1232.09 1544.97 Q1232.09 1540.93 1229.42 1538.73 Q1226.77 1536.5 1221.97 1536.5 Q1218.91 1536.5 1216.02 1537.23 Q1213.12 1537.97 1210.45 1539.43 L1210.45 1534.02 Q1213.66 1532.78 1216.68 1532.17 Q1219.71 1531.54 1222.57 1531.54 Q1230.31 1531.54 1234.13 1535.55 Q1237.95 1539.56 1237.95 1547.71 Z" fill="#000000" fill-rule="nonzero" fill-opacity="1"></path><path clip-path="url(#clip750)" d="M1250.01 1518.52 L1255.87 1518.52 L1255.87 1568.04 L1250.01 1568.04 L1250.01 1518.52 Z" fill="#000000" fill-rule="nonzero" fill-opacity="1"></path><path clip-path="url(#clip750)" d="M1308.38 1524.88 Q1301.38 1524.88 1297.24 1530.1 Q1293.14 1535.32 1293.14 1544.33 Q1293.14 1553.31 1297.24 1558.53 Q1301.38 1563.75 1308.38 1563.75 Q1315.39 1563.75 1319.46 1558.53 Q1323.56 1553.31 1323.56 1544.33 Q1323.56 1535.32 1319.46 1530.1 Q1315.39 1524.88 1308.38 1524.88 M1317.39 1567.18 L1325.86 1576.45 L1318.09 1576.45 L1311.06 1568.84 Q1310.01 1568.9 1309.43 1568.94 Q1308.89 1568.97 1308.38 1568.97 Q1298.36 1568.97 1292.34 1562.28 Q1286.36 1555.57 1286.36 1544.33 Q1286.36 1533.06 1292.34 1526.38 Q1298.36 1519.66 1308.38 1519.66 Q1318.38 1519.66 1324.36 1526.38 Q1330.34 1533.06 1330.34 1544.33 Q1330.34 1552.61 1327 1558.5 Q1323.69 1564.38 1317.39 1567.18 Z" fill="#000000" fill-rule="nonzero" fill-opacity="1"></path><path clip-path="url(#clip750)" d="M1339.54 1553.98 L1339.54 1532.4 L1345.4 1532.4 L1345.4 1553.75 Q1345.4 1558.81 1347.37 1561.36 Q1349.35 1563.87 1353.29 1563.87 Q1358.04 1563.87 1360.77 1560.85 Q1363.54 1557.83 1363.54 1552.61 L1363.54 1532.4 L1369.4 1532.4 L1369.4 1568.04 L1363.54 1568.04 L1363.54 1562.57 Q1361.41 1565.82 1358.58 1567.41 Q1355.78 1568.97 1352.05 1568.97 Q1345.91 1568.97 1342.73 1565.15 Q1339.54 1561.33 1339.54 1553.98 M1354.28 1531.54 L1354.28 1531.54 Z" fill="#000000" fill-rule="nonzero" fill-opacity="1"></path><path clip-path="url(#clip750)" d="M1397.66 1550.12 Q1390.56 1550.12 1387.83 1551.75 Q1385.09 1553.37 1385.09 1557.29 Q1385.09 1560.4 1387.13 1562.25 Q1389.2 1564.07 1392.73 1564.07 Q1397.6 1564.07 1400.53 1560.63 Q1403.49 1557.16 1403.49 1551.43 L1403.49 1550.12 L1397.66 1550.12 M1409.34 1547.71 L1409.34 1568.04 L1403.49 1568.04 L1403.49 1562.63 Q1401.48 1565.88 1398.49 1567.44 Q1395.5 1568.97 1391.17 1568.97 Q1385.69 1568.97 1382.45 1565.91 Q1379.23 1562.82 1379.23 1557.67 Q1379.23 1551.65 1383.24 1548.6 Q1387.29 1545.54 1395.27 1545.54 L1403.49 1545.54 L1403.49 1544.97 Q1403.49 1540.93 1400.81 1538.73 Q1398.17 1536.5 1393.36 1536.5 Q1390.31 1536.5 1387.41 1537.23 Q1384.52 1537.97 1381.84 1539.43 L1381.84 1534.02 Q1385.06 1532.78 1388.08 1532.17 Q1391.11 1531.54 1393.97 1531.54 Q1401.7 1531.54 1405.52 1535.55 Q1409.34 1539.56 1409.34 1547.71 Z" fill="#000000" fill-rule="nonzero" fill-opacity="1"></path><path clip-path="url(#clip750)" d="M1421.41 1518.52 L1427.26 1518.52 L1427.26 1568.04 L1421.41 1568.04 L1421.41 1518.52 Z" fill="#000000" fill-rule="nonzero" fill-opacity="1"></path><path clip-path="url(#clip750)" d="M1439.52 1532.4 L1445.37 1532.4 L1445.37 1568.04 L1439.52 1568.04 L1439.52 1532.4 M1439.52 1518.52 L1445.37 1518.52 L1445.37 1525.93 L1439.52 1525.93 L1439.52 1518.52 Z" fill="#000000" fill-rule="nonzero" fill-opacity="1"></path><path clip-path="url(#clip750)" d="M1463.42 1522.27 L1463.42 1532.4 L1475.48 1532.4 L1475.48 1536.95 L1463.42 1536.95 L1463.42 1556.3 Q1463.42 1560.66 1464.6 1561.9 Q1465.81 1563.14 1469.47 1563.14 L1475.48 1563.14 L1475.48 1568.04 L1469.47 1568.04 Q1462.69 1568.04 1460.11 1565.53 Q1457.53 1562.98 1457.53 1556.3 L1457.53 1536.95 L1453.23 1536.95 L1453.23 1532.4 L1457.53 1532.4 L1457.53 1522.27 L1463.42 1522.27 Z" fill="#000000" fill-rule="nonzero" fill-opacity="1"></path><path clip-path="url(#clip750)" d="M1498.02 1571.35 Q1495.53 1577.72 1493.18 1579.66 Q1490.82 1581.6 1486.88 1581.6 L1482.2 1581.6 L1482.2 1576.7 L1485.64 1576.7 Q1488.05 1576.7 1489.39 1575.56 Q1490.73 1574.41 1492.35 1570.14 L1493.4 1567.47 L1478.98 1532.4 L1485.19 1532.4 L1496.33 1560.28 L1507.47 1532.4 L1513.68 1532.4 L1498.02 1571.35 Z" fill="#000000" fill-rule="nonzero" fill-opacity="1"></path><polyline clip-path="url(#clip752)" style="stroke:#000000; stroke-linecap:round; stroke-linejoin:round; stroke-width:2; stroke-opacity:0.1; fill:none" points="219.195,1217.02 2352.76,1217.02 "></polyline>
<polyline clip-path="url(#clip752)" style="stroke:#000000; stroke-linecap:round; stroke-linejoin:round; stroke-width:2; stroke-opacity:0.1; fill:none" points="219.195,994.354 2352.76,994.354 "></polyline>
<polyline clip-path="url(#clip752)" style="stroke:#000000; stroke-linecap:round; stroke-linejoin:round; stroke-width:2; stroke-opacity:0.1; fill:none" points="219.195,771.685 2352.76,771.685 "></polyline>
<polyline clip-path="url(#clip752)" style="stroke:#000000; stroke-linecap:round; stroke-linejoin:round; stroke-width:2; stroke-opacity:0.1; fill:none" points="219.195,549.015 2352.76,549.015 "></polyline>
<polyline clip-path="url(#clip752)" style="stroke:#000000; stroke-linecap:round; stroke-linejoin:round; stroke-width:2; stroke-opacity:0.1; fill:none" points="219.195,326.346 2352.76,326.346 "></polyline>
<polyline clip-path="url(#clip752)" style="stroke:#000000; stroke-linecap:round; stroke-linejoin:round; stroke-width:2; stroke-opacity:0.1; fill:none" points="219.195,103.676 2352.76,103.676 "></polyline>
<polyline clip-path="url(#clip750)" style="stroke:#000000; stroke-linecap:round; stroke-linejoin:round; stroke-width:4; stroke-opacity:1; fill:none" points="219.195,1423.18 219.195,47.2441 "></polyline>
<polyline clip-path="url(#clip750)" style="stroke:#000000; stroke-linecap:round; stroke-linejoin:round; stroke-width:4; stroke-opacity:1; fill:none" points="219.195,1217.02 238.093,1217.02 "></polyline>
<polyline clip-path="url(#clip750)" style="stroke:#000000; stroke-linecap:round; stroke-linejoin:round; stroke-width:4; stroke-opacity:1; fill:none" points="219.195,994.354 238.093,994.354 "></polyline>
<polyline clip-path="url(#clip750)" style="stroke:#000000; stroke-linecap:round; stroke-linejoin:round; stroke-width:4; stroke-opacity:1; fill:none" points="219.195,771.685 238.093,771.685 "></polyline>
<polyline clip-path="url(#clip750)" style="stroke:#000000; stroke-linecap:round; stroke-linejoin:round; stroke-width:4; stroke-opacity:1; fill:none" points="219.195,549.015 238.093,549.015 "></polyline>
<polyline clip-path="url(#clip750)" style="stroke:#000000; stroke-linecap:round; stroke-linejoin:round; stroke-width:4; stroke-opacity:1; fill:none" points="219.195,326.346 238.093,326.346 "></polyline>
<polyline clip-path="url(#clip750)" style="stroke:#000000; stroke-linecap:round; stroke-linejoin:round; stroke-width:4; stroke-opacity:1; fill:none" points="219.195,103.676 238.093,103.676 "></polyline>
<path clip-path="url(#clip750)" d="M116.066 1199.74 L134.422 1199.74 L134.422 1203.68 L120.348 1203.68 L120.348 1212.15 Q121.367 1211.8 122.385 1211.64 Q123.404 1211.46 124.422 1211.46 Q130.209 1211.46 133.589 1214.63 Q136.968 1217.8 136.968 1223.22 Q136.968 1228.79 133.496 1231.9 Q130.024 1234.98 123.705 1234.98 Q121.529 1234.98 119.26 1234.61 Q117.015 1234.23 114.607 1233.49 L114.607 1228.79 Q116.691 1229.93 118.913 1230.48 Q121.135 1231.04 123.612 1231.04 Q127.617 1231.04 129.955 1228.93 Q132.292 1226.83 132.292 1223.22 Q132.292 1219.61 129.955 1217.5 Q127.617 1215.39 123.612 1215.39 Q121.737 1215.39 119.862 1215.81 Q118.01 1216.23 116.066 1217.11 L116.066 1199.74 Z" fill="#000000" fill-rule="nonzero" fill-opacity="1"></path><path clip-path="url(#clip750)" d="M146.181 1228.42 L151.066 1228.42 L151.066 1234.3 L146.181 1234.3 L146.181 1228.42 Z" fill="#000000" fill-rule="nonzero" fill-opacity="1"></path><path clip-path="url(#clip750)" d="M171.251 1202.82 Q167.64 1202.82 165.811 1206.39 Q164.005 1209.93 164.005 1217.06 Q164.005 1224.17 165.811 1227.73 Q167.64 1231.27 171.251 1231.27 Q174.885 1231.27 176.69 1227.73 Q178.519 1224.17 178.519 1217.06 Q178.519 1209.93 176.69 1206.39 Q174.885 1202.82 171.251 1202.82 M171.251 1199.12 Q177.061 1199.12 180.116 1203.73 Q183.195 1208.31 183.195 1217.06 Q183.195 1225.79 180.116 1230.39 Q177.061 1234.98 171.251 1234.98 Q165.44 1234.98 162.362 1230.39 Q159.306 1225.79 159.306 1217.06 Q159.306 1208.31 162.362 1203.73 Q165.44 1199.12 171.251 1199.12 Z" fill="#000000" fill-rule="nonzero" fill-opacity="1"></path><path clip-path="url(#clip750)" d="M117.061 977.074 L135.417 977.074 L135.417 981.01 L121.343 981.01 L121.343 989.482 Q122.362 989.135 123.38 988.973 Q124.399 988.787 125.418 988.787 Q131.205 988.787 134.584 991.959 Q137.964 995.13 137.964 1000.55 Q137.964 1006.13 134.492 1009.23 Q131.019 1012.31 124.7 1012.31 Q122.524 1012.31 120.255 1011.94 Q118.01 1011.57 115.603 1010.82 L115.603 1006.13 Q117.686 1007.26 119.908 1007.82 Q122.13 1008.37 124.607 1008.37 Q128.612 1008.37 130.95 1006.26 Q133.288 1004.16 133.288 1000.55 Q133.288 996.935 130.95 994.829 Q128.612 992.723 124.607 992.723 Q122.732 992.723 120.857 993.139 Q119.006 993.556 117.061 994.436 L117.061 977.074 Z" fill="#000000" fill-rule="nonzero" fill-opacity="1"></path><path clip-path="url(#clip750)" d="M147.177 1005.75 L152.061 1005.75 L152.061 1011.63 L147.177 1011.63 L147.177 1005.75 Z" fill="#000000" fill-rule="nonzero" fill-opacity="1"></path><path clip-path="url(#clip750)" d="M162.292 977.074 L180.649 977.074 L180.649 981.01 L166.575 981.01 L166.575 989.482 Q167.593 989.135 168.612 988.973 Q169.63 988.787 170.649 988.787 Q176.436 988.787 179.815 991.959 Q183.195 995.13 183.195 1000.55 Q183.195 1006.13 179.723 1009.23 Q176.251 1012.31 169.931 1012.31 Q167.755 1012.31 165.487 1011.94 Q163.241 1011.57 160.834 1010.82 L160.834 1006.13 Q162.917 1007.26 165.14 1007.82 Q167.362 1008.37 169.839 1008.37 Q173.843 1008.37 176.181 1006.26 Q178.519 1004.16 178.519 1000.55 Q178.519 996.935 176.181 994.829 Q173.843 992.723 169.839 992.723 Q167.964 992.723 166.089 993.139 Q164.237 993.556 162.292 994.436 L162.292 977.074 Z" fill="#000000" fill-rule="nonzero" fill-opacity="1"></path><path clip-path="url(#clip750)" d="M126.598 769.821 Q123.45 769.821 121.598 771.974 Q119.769 774.127 119.769 777.877 Q119.769 781.604 121.598 783.78 Q123.45 785.932 126.598 785.932 Q129.746 785.932 131.575 783.78 Q133.427 781.604 133.427 777.877 Q133.427 774.127 131.575 771.974 Q129.746 769.821 126.598 769.821 M135.88 755.169 L135.88 759.428 Q134.121 758.595 132.316 758.155 Q130.533 757.715 128.774 757.715 Q124.144 757.715 121.691 760.84 Q119.26 763.965 118.913 770.284 Q120.279 768.271 122.339 767.206 Q124.399 766.118 126.876 766.118 Q132.084 766.118 135.093 769.289 Q138.126 772.437 138.126 777.877 Q138.126 783.201 134.978 786.419 Q131.83 789.636 126.598 789.636 Q120.603 789.636 117.431 785.053 Q114.26 780.446 114.26 771.72 Q114.26 763.525 118.149 758.664 Q122.038 753.78 128.589 753.78 Q130.348 753.78 132.13 754.127 Q133.936 754.474 135.88 755.169 Z" fill="#000000" fill-rule="nonzero" fill-opacity="1"></path><path clip-path="url(#clip750)" d="M146.181 783.085 L151.066 783.085 L151.066 788.965 L146.181 788.965 L146.181 783.085 Z" fill="#000000" fill-rule="nonzero" fill-opacity="1"></path><path clip-path="url(#clip750)" d="M171.251 757.484 Q167.64 757.484 165.811 761.048 Q164.005 764.59 164.005 771.72 Q164.005 778.826 165.811 782.391 Q167.64 785.932 171.251 785.932 Q174.885 785.932 176.69 782.391 Q178.519 778.826 178.519 771.72 Q178.519 764.59 176.69 761.048 Q174.885 757.484 171.251 757.484 M171.251 753.78 Q177.061 753.78 180.116 758.386 Q183.195 762.97 183.195 771.72 Q183.195 780.446 180.116 785.053 Q177.061 789.636 171.251 789.636 Q165.44 789.636 162.362 785.053 Q159.306 780.446 159.306 771.72 Q159.306 762.97 162.362 758.386 Q165.44 753.78 171.251 753.78 Z" fill="#000000" fill-rule="nonzero" fill-opacity="1"></path><path clip-path="url(#clip750)" d="M127.593 547.152 Q124.445 547.152 122.593 549.305 Q120.765 551.457 120.765 555.207 Q120.765 558.934 122.593 561.11 Q124.445 563.263 127.593 563.263 Q130.742 563.263 132.57 561.11 Q134.422 558.934 134.422 555.207 Q134.422 551.457 132.57 549.305 Q130.742 547.152 127.593 547.152 M136.876 532.499 L136.876 536.758 Q135.117 535.925 133.311 535.485 Q131.529 535.045 129.769 535.045 Q125.14 535.045 122.686 538.17 Q120.255 541.295 119.908 547.615 Q121.274 545.601 123.334 544.536 Q125.394 543.448 127.871 543.448 Q133.08 543.448 136.089 546.619 Q139.121 549.768 139.121 555.207 Q139.121 560.531 135.973 563.749 Q132.825 566.966 127.593 566.966 Q121.598 566.966 118.427 562.383 Q115.256 557.777 115.256 549.05 Q115.256 540.856 119.144 535.994 Q123.033 531.11 129.584 531.11 Q131.343 531.11 133.126 531.457 Q134.931 531.805 136.876 532.499 Z" fill="#000000" fill-rule="nonzero" fill-opacity="1"></path><path clip-path="url(#clip750)" d="M147.177 560.416 L152.061 560.416 L152.061 566.295 L147.177 566.295 L147.177 560.416 Z" fill="#000000" fill-rule="nonzero" fill-opacity="1"></path><path clip-path="url(#clip750)" d="M162.292 531.735 L180.649 531.735 L180.649 535.67 L166.575 535.67 L166.575 544.143 Q167.593 543.795 168.612 543.633 Q169.63 543.448 170.649 543.448 Q176.436 543.448 179.815 546.619 Q183.195 549.791 183.195 555.207 Q183.195 560.786 179.723 563.888 Q176.251 566.966 169.931 566.966 Q167.755 566.966 165.487 566.596 Q163.241 566.226 160.834 565.485 L160.834 560.786 Q162.917 561.92 165.14 562.476 Q167.362 563.031 169.839 563.031 Q173.843 563.031 176.181 560.925 Q178.519 558.818 178.519 555.207 Q178.519 551.596 176.181 549.49 Q173.843 547.383 169.839 547.383 Q167.964 547.383 166.089 547.8 Q164.237 548.217 162.292 549.096 L162.292 531.735 Z" fill="#000000" fill-rule="nonzero" fill-opacity="1"></path><path clip-path="url(#clip750)" d="M114.839 309.066 L137.061 309.066 L137.061 311.056 L124.515 343.626 L119.63 343.626 L131.436 313.001 L114.839 313.001 L114.839 309.066 Z" fill="#000000" fill-rule="nonzero" fill-opacity="1"></path><path clip-path="url(#clip750)" d="M146.181 337.746 L151.066 337.746 L151.066 343.626 L146.181 343.626 L146.181 337.746 Z" fill="#000000" fill-rule="nonzero" fill-opacity="1"></path><path clip-path="url(#clip750)" d="M171.251 312.144 Q167.64 312.144 165.811 315.709 Q164.005 319.251 164.005 326.38 Q164.005 333.487 165.811 337.052 Q167.64 340.593 171.251 340.593 Q174.885 340.593 176.69 337.052 Q178.519 333.487 178.519 326.38 Q178.519 319.251 176.69 315.709 Q174.885 312.144 171.251 312.144 M171.251 308.441 Q177.061 308.441 180.116 313.047 Q183.195 317.63 183.195 326.38 Q183.195 335.107 180.116 339.714 Q177.061 344.297 171.251 344.297 Q165.44 344.297 162.362 339.714 Q159.306 335.107 159.306 326.38 Q159.306 317.63 162.362 313.047 Q165.44 308.441 171.251 308.441 Z" fill="#000000" fill-rule="nonzero" fill-opacity="1"></path><path clip-path="url(#clip750)" d="M115.834 86.3959 L138.056 86.3959 L138.056 88.3866 L125.51 120.956 L120.626 120.956 L132.431 90.3311 L115.834 90.3311 L115.834 86.3959 Z" fill="#000000" fill-rule="nonzero" fill-opacity="1"></path><path clip-path="url(#clip750)" d="M147.177 115.076 L152.061 115.076 L152.061 120.956 L147.177 120.956 L147.177 115.076 Z" fill="#000000" fill-rule="nonzero" fill-opacity="1"></path><path clip-path="url(#clip750)" d="M162.292 86.3959 L180.649 86.3959 L180.649 90.3311 L166.575 90.3311 L166.575 98.8033 Q167.593 98.456 168.612 98.294 Q169.63 98.1088 170.649 98.1088 Q176.436 98.1088 179.815 101.28 Q183.195 104.451 183.195 109.868 Q183.195 115.447 179.723 118.549 Q176.251 121.627 169.931 121.627 Q167.755 121.627 165.487 121.257 Q163.241 120.886 160.834 120.146 L160.834 115.447 Q162.917 116.581 165.14 117.136 Q167.362 117.692 169.839 117.692 Q173.843 117.692 176.181 115.586 Q178.519 113.479 178.519 109.868 Q178.519 106.257 176.181 104.15 Q173.843 102.044 169.839 102.044 Q167.964 102.044 166.089 102.461 Q164.237 102.877 162.292 103.757 L162.292 86.3959 Z" fill="#000000" fill-rule="nonzero" fill-opacity="1"></path><path clip-path="url(#clip750)" d="M21.7677 1004.43 L39.6235 1004.43 L39.6235 996.349 Q39.6235 991.861 37.3 989.411 Q34.9765 986.96 30.6797 986.96 Q26.4147 986.96 24.0912 989.411 Q21.7677 991.861 21.7677 996.349 L21.7677 1004.43 M16.4842 1010.86 L16.4842 996.349 Q16.4842 988.36 20.1126 984.286 Q23.7092 980.18 30.6797 980.18 Q37.7138 980.18 41.3104 984.286 Q44.907 988.36 44.907 996.349 L44.907 1004.43 L64.0042 1004.43 L64.0042 1010.86 L16.4842 1010.86 Z" fill="#000000" fill-rule="nonzero" fill-opacity="1"></path><path clip-path="url(#clip750)" d="M33.8307 952.298 Q33.2578 953.285 33.0032 954.463 Q32.7167 955.609 32.7167 957.009 Q32.7167 961.974 35.9632 964.648 Q39.1779 967.29 45.2253 967.29 L64.0042 967.29 L64.0042 973.178 L28.3562 973.178 L28.3562 967.29 L33.8944 967.29 Q30.6479 965.444 29.0883 962.484 Q27.4968 959.524 27.4968 955.29 Q27.4968 954.686 27.5923 953.954 Q27.656 953.222 27.8151 952.33 L33.8307 952.298 Z" fill="#000000" fill-rule="nonzero" fill-opacity="1"></path><path clip-path="url(#clip750)" d="M44.7161 917.096 L47.5806 917.096 L47.5806 944.023 Q53.6281 943.641 56.8109 940.395 Q59.9619 937.116 59.9619 931.292 Q59.9619 927.918 59.1344 924.767 Q58.3069 921.584 56.6518 918.465 L62.1899 918.465 Q63.5267 921.616 64.227 924.926 Q64.9272 928.236 64.9272 931.642 Q64.9272 940.172 59.9619 945.169 Q54.9967 950.134 46.5303 950.134 Q37.7774 950.134 32.6531 945.424 Q27.4968 940.681 27.4968 932.66 Q27.4968 925.467 32.1438 921.297 Q36.7589 917.096 44.7161 917.096 M42.9973 922.953 Q38.1912 923.016 35.3266 925.658 Q32.4621 928.268 32.4621 932.597 Q32.4621 937.498 35.2312 940.458 Q38.0002 943.386 43.0292 943.832 L42.9973 922.953 Z" fill="#000000" fill-rule="nonzero" fill-opacity="1"></path><path clip-path="url(#clip750)" d="M33.7671 884.026 L14.479 884.026 L14.479 878.17 L64.0042 878.17 L64.0042 884.026 L58.657 884.026 Q61.8398 885.872 63.3994 888.705 Q64.9272 891.506 64.9272 895.453 Q64.9272 901.914 59.771 905.988 Q54.6147 910.03 46.212 910.03 Q37.8093 910.03 32.6531 905.988 Q27.4968 901.914 27.4968 895.453 Q27.4968 891.506 29.0564 888.705 Q30.5842 885.872 33.7671 884.026 M46.212 903.983 Q52.6732 903.983 56.3653 901.341 Q60.0256 898.667 60.0256 894.02 Q60.0256 889.373 56.3653 886.7 Q52.6732 884.026 46.212 884.026 Q39.7508 884.026 36.0905 886.7 Q32.3984 889.373 32.3984 894.02 Q32.3984 898.667 36.0905 901.341 Q39.7508 903.983 46.212 903.983 Z" fill="#000000" fill-rule="nonzero" fill-opacity="1"></path><path clip-path="url(#clip750)" d="M28.3562 866.107 L28.3562 860.25 L64.0042 860.25 L64.0042 866.107 L28.3562 866.107 M14.479 866.107 L14.479 860.25 L21.895 860.25 L21.895 866.107 L14.479 866.107 Z" fill="#000000" fill-rule="nonzero" fill-opacity="1"></path><path clip-path="url(#clip750)" d="M29.7248 822.343 L35.1993 822.343 Q33.8307 824.825 33.1623 827.34 Q32.4621 829.822 32.4621 832.369 Q32.4621 838.066 36.0905 841.217 Q39.6872 844.368 46.212 844.368 Q52.7369 844.368 56.3653 841.217 Q59.9619 838.066 59.9619 832.369 Q59.9619 829.822 59.2935 827.34 Q58.5933 824.825 57.2247 822.343 L62.6355 822.343 Q63.7814 824.793 64.3543 827.435 Q64.9272 830.045 64.9272 833.005 Q64.9272 841.058 59.8664 845.8 Q54.8057 850.543 46.212 850.543 Q37.491 850.543 32.4939 845.768 Q27.4968 840.962 27.4968 832.623 Q27.4968 829.918 28.0697 827.34 Q28.6108 824.762 29.7248 822.343 Z" fill="#000000" fill-rule="nonzero" fill-opacity="1"></path><path clip-path="url(#clip750)" d="M18.2347 806.365 L28.3562 806.365 L28.3562 794.302 L32.9077 794.302 L32.9077 806.365 L52.2594 806.365 Q56.6199 806.365 57.8613 805.187 Q59.1026 803.978 59.1026 800.317 L59.1026 794.302 L64.0042 794.302 L64.0042 800.317 Q64.0042 807.097 61.4897 809.675 Q58.9434 812.253 52.2594 812.253 L32.9077 812.253 L32.9077 816.55 L28.3562 816.55 L28.3562 812.253 L18.2347 812.253 L18.2347 806.365 Z" fill="#000000" fill-rule="nonzero" fill-opacity="1"></path><path clip-path="url(#clip750)" d="M44.7161 756.107 L47.5806 756.107 L47.5806 783.034 Q53.6281 782.652 56.8109 779.406 Q59.9619 776.128 59.9619 770.303 Q59.9619 766.929 59.1344 763.778 Q58.3069 760.595 56.6518 757.476 L62.1899 757.476 Q63.5267 760.627 64.227 763.937 Q64.9272 767.247 64.9272 770.653 Q64.9272 779.183 59.9619 784.18 Q54.9967 789.145 46.5303 789.145 Q37.7774 789.145 32.6531 784.435 Q27.4968 779.692 27.4968 771.672 Q27.4968 764.478 32.1438 760.309 Q36.7589 756.107 44.7161 756.107 M42.9973 761.964 Q38.1912 762.028 35.3266 764.669 Q32.4621 767.279 32.4621 771.608 Q32.4621 776.509 35.2312 779.47 Q38.0002 782.398 43.0292 782.843 L42.9973 761.964 Z" fill="#000000" fill-rule="nonzero" fill-opacity="1"></path><path clip-path="url(#clip750)" d="M33.7671 723.038 L14.479 723.038 L14.479 717.181 L64.0042 717.181 L64.0042 723.038 L58.657 723.038 Q61.8398 724.884 63.3994 727.716 Q64.9272 730.517 64.9272 734.464 Q64.9272 740.925 59.771 744.999 Q54.6147 749.041 46.212 749.041 Q37.8093 749.041 32.6531 744.999 Q27.4968 740.925 27.4968 734.464 Q27.4968 730.517 29.0564 727.716 Q30.5842 724.884 33.7671 723.038 M46.212 742.994 Q52.6732 742.994 56.3653 740.352 Q60.0256 737.679 60.0256 733.032 Q60.0256 728.385 56.3653 725.711 Q52.6732 723.038 46.212 723.038 Q39.7508 723.038 36.0905 725.711 Q32.3984 728.385 32.3984 733.032 Q32.3984 737.679 36.0905 740.352 Q39.7508 742.994 46.212 742.994 Z" fill="#000000" fill-rule="nonzero" fill-opacity="1"></path><path clip-path="url(#clip750)" d="M20.8447 664.855 Q20.8447 671.857 26.0645 675.995 Q31.2844 680.101 40.2919 680.101 Q49.2675 680.101 54.4874 675.995 Q59.7073 671.857 59.7073 664.855 Q59.7073 657.853 54.4874 653.779 Q49.2675 649.673 40.2919 649.673 Q31.2844 649.673 26.0645 653.779 Q20.8447 657.853 20.8447 664.855 M63.1448 655.848 L72.4069 647.381 L72.4069 655.147 L64.7999 662.181 Q64.8635 663.232 64.8954 663.805 Q64.9272 664.346 64.9272 664.855 Q64.9272 674.881 58.2432 680.897 Q51.5274 686.88 40.2919 686.88 Q29.0246 686.88 22.3406 680.897 Q15.6248 674.881 15.6248 664.855 Q15.6248 654.861 22.3406 648.877 Q29.0246 642.893 40.2919 642.893 Q48.5673 642.893 54.4556 646.235 Q60.3439 649.545 63.1448 655.848 Z" fill="#000000" fill-rule="nonzero" fill-opacity="1"></path><path clip-path="url(#clip750)" d="M49.9359 633.695 L28.3562 633.695 L28.3562 627.838 L49.7131 627.838 Q54.7739 627.838 57.3202 625.865 Q59.8346 623.892 59.8346 619.945 Q59.8346 615.202 56.8109 612.465 Q53.7872 609.696 48.5673 609.696 L28.3562 609.696 L28.3562 603.84 L64.0042 603.84 L64.0042 609.696 L58.5296 609.696 Q61.7762 611.829 63.3676 614.661 Q64.9272 617.462 64.9272 621.186 Q64.9272 627.329 61.1078 630.512 Q57.2883 633.695 49.9359 633.695 M27.4968 618.958 L27.4968 618.958 Z" fill="#000000" fill-rule="nonzero" fill-opacity="1"></path><path clip-path="url(#clip750)" d="M46.0847 575.576 Q46.0847 582.674 47.7079 585.411 Q49.3312 588.148 53.2461 588.148 Q56.3653 588.148 58.2114 586.111 Q60.0256 584.042 60.0256 580.509 Q60.0256 575.64 56.5881 572.711 Q53.1188 569.751 47.3897 569.751 L46.0847 569.751 L46.0847 575.576 M43.6657 563.895 L64.0042 563.895 L64.0042 569.751 L58.5933 569.751 Q61.8398 571.757 63.3994 574.748 Q64.9272 577.74 64.9272 582.069 Q64.9272 587.543 61.8716 590.79 Q58.7843 594.005 53.6281 594.005 Q47.6125 594.005 44.5569 589.994 Q41.5014 585.952 41.5014 577.963 L41.5014 569.751 L40.9285 569.751 Q36.8862 569.751 34.6901 572.425 Q32.4621 575.067 32.4621 579.873 Q32.4621 582.928 33.1941 585.825 Q33.9262 588.721 35.3903 591.395 L29.9795 591.395 Q28.7381 588.18 28.1334 585.156 Q27.4968 582.133 27.4968 579.268 Q27.4968 571.534 31.5072 567.714 Q35.5176 563.895 43.6657 563.895 Z" fill="#000000" fill-rule="nonzero" fill-opacity="1"></path><path clip-path="url(#clip750)" d="M14.479 551.832 L14.479 545.975 L64.0042 545.975 L64.0042 551.832 L14.479 551.832 Z" fill="#000000" fill-rule="nonzero" fill-opacity="1"></path><path clip-path="url(#clip750)" d="M28.3562 533.721 L28.3562 527.865 L64.0042 527.865 L64.0042 533.721 L28.3562 533.721 M14.479 533.721 L14.479 527.865 L21.895 527.865 L21.895 533.721 L14.479 533.721 Z" fill="#000000" fill-rule="nonzero" fill-opacity="1"></path><path clip-path="url(#clip750)" d="M18.2347 509.818 L28.3562 509.818 L28.3562 497.755 L32.9077 497.755 L32.9077 509.818 L52.2594 509.818 Q56.6199 509.818 57.8613 508.641 Q59.1026 507.431 59.1026 503.771 L59.1026 497.755 L64.0042 497.755 L64.0042 503.771 Q64.0042 510.55 61.4897 513.128 Q58.9434 515.706 52.2594 515.706 L32.9077 515.706 L32.9077 520.003 L28.3562 520.003 L28.3562 515.706 L18.2347 515.706 L18.2347 509.818 Z" fill="#000000" fill-rule="nonzero" fill-opacity="1"></path><path clip-path="url(#clip750)" d="M67.3143 475.221 Q73.68 477.703 75.6216 480.059 Q77.5631 482.414 77.5631 486.361 L77.5631 491.039 L72.6615 491.039 L72.6615 487.602 Q72.6615 485.183 71.5157 483.846 Q70.3699 482.509 66.1048 480.886 L63.4312 479.836 L28.3562 494.254 L28.3562 488.047 L56.238 476.908 L28.3562 465.768 L28.3562 459.561 L67.3143 475.221 Z" fill="#000000" fill-rule="nonzero" fill-opacity="1"></path><path clip-path="url(#clip752)" d="M418.392 1166.08 L348.985 1166.08 L487.799 1166.08 L418.392 1166.08 L418.392 1156.63 L418.392 1166.08  Z" fill="#ff0000" fill-rule="evenodd" fill-opacity="1"></path>
<polyline clip-path="url(#clip752)" style="stroke:#000000; stroke-linecap:round; stroke-linejoin:round; stroke-width:4; stroke-opacity:1; fill:none" points="418.392,1166.08 348.985,1166.08 487.799,1166.08 418.392,1166.08 418.392,1156.63 418.392,1166.08 "></polyline>
<path clip-path="url(#clip752)" d="M557.205 1156.63 L557.205 1147.18 L279.579 1147.18 L279.579 1156.63 L557.205 1156.63 L557.205 1147.18 L557.205 1156.63  Z" fill="#ff0000" fill-rule="evenodd" fill-opacity="1"></path>
<polyline clip-path="url(#clip752)" style="stroke:#000000; stroke-linecap:round; stroke-linejoin:round; stroke-width:4; stroke-opacity:1; fill:none" points="557.205,1156.63 557.205,1147.18 279.579,1147.18 279.579,1156.63 557.205,1156.63 557.205,1147.18 557.205,1156.63 "></polyline>
<path clip-path="url(#clip752)" d="M557.205 1137.74 L279.579 1137.74 L279.579 1147.18 L557.205 1147.18 L557.205 1137.74 L418.392 1137.74 L557.205 1137.74  Z" fill="#ff0000" fill-rule="evenodd" fill-opacity="1"></path>
<polyline clip-path="url(#clip752)" style="stroke:#000000; stroke-linecap:round; stroke-linejoin:round; stroke-width:4; stroke-opacity:1; fill:none" points="557.205,1137.74 279.579,1137.74 279.579,1147.18 557.205,1147.18 557.205,1137.74 418.392,1137.74 557.205,1137.74 "></polyline>
<path clip-path="url(#clip752)" d="M418.392 1128.29 L348.985 1128.29 L487.799 1128.29 L418.392 1128.29 L418.392 1137.74 L418.392 1128.29  Z" fill="#ff0000" fill-rule="evenodd" fill-opacity="1"></path>
<polyline clip-path="url(#clip752)" style="stroke:#000000; stroke-linecap:round; stroke-linejoin:round; stroke-width:4; stroke-opacity:1; fill:none" points="418.392,1128.29 348.985,1128.29 487.799,1128.29 418.392,1128.29 418.392,1137.74 418.392,1128.29 "></polyline>
<path clip-path="url(#clip752)" d="M765.425 1348.16 L696.019 1348.16 L834.832 1348.16 L765.425 1348.16 L765.425 1199.39 L765.425 1348.16  Z" fill="#ff0000" fill-rule="evenodd" fill-opacity="1"></path>
<polyline clip-path="url(#clip752)" style="stroke:#000000; stroke-linecap:round; stroke-linejoin:round; stroke-width:4; stroke-opacity:1; fill:none" points="765.425,1348.16 696.019,1348.16 834.832,1348.16 765.425,1348.16 765.425,1199.39 765.425,1348.16 "></polyline>
<path clip-path="url(#clip752)" d="M904.239 1199.39 L904.239 1042.62 L626.612 1042.62 L626.612 1199.39 L904.239 1199.39 L904.239 1042.62 L904.239 1199.39  Z" fill="#ff0000" fill-rule="evenodd" fill-opacity="1"></path>
<polyline clip-path="url(#clip752)" style="stroke:#000000; stroke-linecap:round; stroke-linejoin:round; stroke-width:4; stroke-opacity:1; fill:none" points="904.239,1199.39 904.239,1042.62 626.612,1042.62 626.612,1199.39 904.239,1199.39 904.239,1042.62 904.239,1199.39 "></polyline>
<path clip-path="url(#clip752)" d="M904.239 931.821 L626.612 931.821 L626.612 1042.62 L904.239 1042.62 L904.239 931.821 L765.425 931.821 L904.239 931.821  Z" fill="#ff0000" fill-rule="evenodd" fill-opacity="1"></path>
<polyline clip-path="url(#clip752)" style="stroke:#000000; stroke-linecap:round; stroke-linejoin:round; stroke-width:4; stroke-opacity:1; fill:none" points="904.239,931.821 626.612,931.821 626.612,1042.62 904.239,1042.62 904.239,931.821 765.425,931.821 904.239,931.821 "></polyline>
<path clip-path="url(#clip752)" d="M765.425 615.347 L696.019 615.347 L834.832 615.347 L765.425 615.347 L765.425 931.821 L765.425 615.347  Z" fill="#ff0000" fill-rule="evenodd" fill-opacity="1"></path>
<polyline clip-path="url(#clip752)" style="stroke:#000000; stroke-linecap:round; stroke-linejoin:round; stroke-width:4; stroke-opacity:1; fill:none" points="765.425,615.347 696.019,615.347 834.832,615.347 765.425,615.347 765.425,931.821 765.425,615.347 "></polyline>
<path clip-path="url(#clip752)" d="M1112.46 1384.24 L1043.05 1384.24 L1181.87 1384.24 L1112.46 1384.24 L1112.46 1161.59 L1112.46 1384.24  Z" fill="#ff0000" fill-rule="evenodd" fill-opacity="1"></path>
<polyline clip-path="url(#clip752)" style="stroke:#000000; stroke-linecap:round; stroke-linejoin:round; stroke-width:4; stroke-opacity:1; fill:none" points="1112.46,1384.24 1043.05,1384.24 1181.87,1384.24 1112.46,1384.24 1112.46,1161.59 1112.46,1384.24 "></polyline>
<path clip-path="url(#clip752)" d="M1251.27 1161.59 L1251.27 1080.84 L973.645 1080.84 L973.645 1161.59 L1251.27 1161.59 L1251.27 1080.84 L1251.27 1161.59  Z" fill="#ff0000" fill-rule="evenodd" fill-opacity="1"></path>
<polyline clip-path="url(#clip752)" style="stroke:#000000; stroke-linecap:round; stroke-linejoin:round; stroke-width:4; stroke-opacity:1; fill:none" points="1251.27,1161.59 1251.27,1080.84 973.645,1080.84 973.645,1161.59 1251.27,1161.59 1251.27,1080.84 1251.27,1161.59 "></polyline>
<path clip-path="url(#clip752)" d="M1251.27 941.346 L973.645 941.346 L973.645 1080.84 L1251.27 1080.84 L1251.27 941.346 L1112.46 941.346 L1251.27 941.346  Z" fill="#ff0000" fill-rule="evenodd" fill-opacity="1"></path>
<polyline clip-path="url(#clip752)" style="stroke:#000000; stroke-linecap:round; stroke-linejoin:round; stroke-width:4; stroke-opacity:1; fill:none" points="1251.27,941.346 973.645,941.346 973.645,1080.84 1251.27,1080.84 1251.27,941.346 1112.46,941.346 1251.27,941.346 "></polyline>
<path clip-path="url(#clip752)" d="M1112.46 680.165 L1043.05 680.165 L1181.87 680.165 L1112.46 680.165 L1112.46 941.346 L1112.46 680.165  Z" fill="#ff0000" fill-rule="evenodd" fill-opacity="1"></path>
<polyline clip-path="url(#clip752)" style="stroke:#000000; stroke-linecap:round; stroke-linejoin:round; stroke-width:4; stroke-opacity:1; fill:none" points="1112.46,680.165 1043.05,680.165 1181.87,680.165 1112.46,680.165 1112.46,941.346 1112.46,680.165 "></polyline>
<path clip-path="url(#clip752)" d="M1459.49 1380.53 L1390.09 1380.53 L1528.9 1380.53 L1459.49 1380.53 L1459.49 1050.8 L1459.49 1380.53  Z" fill="#ff0000" fill-rule="evenodd" fill-opacity="1"></path>
<polyline clip-path="url(#clip752)" style="stroke:#000000; stroke-linecap:round; stroke-linejoin:round; stroke-width:4; stroke-opacity:1; fill:none" points="1459.49,1380.53 1390.09,1380.53 1528.9,1380.53 1459.49,1380.53 1459.49,1050.8 1459.49,1380.53 "></polyline>
<path clip-path="url(#clip752)" d="M1598.31 1050.8 L1598.31 901.331 L1320.68 901.331 L1320.68 1050.8 L1598.31 1050.8 L1598.31 901.331 L1598.31 1050.8  Z" fill="#ff0000" fill-rule="evenodd" fill-opacity="1"></path>
<polyline clip-path="url(#clip752)" style="stroke:#000000; stroke-linecap:round; stroke-linejoin:round; stroke-width:4; stroke-opacity:1; fill:none" points="1598.31,1050.8 1598.31,901.331 1320.68,901.331 1320.68,1050.8 1598.31,1050.8 1598.31,901.331 1598.31,1050.8 "></polyline>
<path clip-path="url(#clip752)" d="M1598.31 770.004 L1320.68 770.004 L1320.68 901.331 L1598.31 901.331 L1598.31 770.004 L1459.49 770.004 L1598.31 770.004  Z" fill="#ff0000" fill-rule="evenodd" fill-opacity="1"></path>
<polyline clip-path="url(#clip752)" style="stroke:#000000; stroke-linecap:round; stroke-linejoin:round; stroke-width:4; stroke-opacity:1; fill:none" points="1598.31,770.004 1320.68,770.004 1320.68,901.331 1598.31,901.331 1598.31,770.004 1459.49,770.004 1598.31,770.004 "></polyline>
<path clip-path="url(#clip752)" d="M1459.49 415.493 L1390.09 415.493 L1528.9 415.493 L1459.49 415.493 L1459.49 770.004 L1459.49 415.493  Z" fill="#ff0000" fill-rule="evenodd" fill-opacity="1"></path>
<polyline clip-path="url(#clip752)" style="stroke:#000000; stroke-linecap:round; stroke-linejoin:round; stroke-width:4; stroke-opacity:1; fill:none" points="1459.49,415.493 1390.09,415.493 1528.9,415.493 1459.49,415.493 1459.49,770.004 1459.49,415.493 "></polyline>
<path clip-path="url(#clip752)" d="M1806.53 940.495 L1737.12 940.495 L1875.93 940.495 L1806.53 940.495 L1806.53 726.885 L1806.53 940.495  Z" fill="#ff0000" fill-rule="evenodd" fill-opacity="1"></path>
<polyline clip-path="url(#clip752)" style="stroke:#000000; stroke-linecap:round; stroke-linejoin:round; stroke-width:4; stroke-opacity:1; fill:none" points="1806.53,940.495 1737.12,940.495 1875.93,940.495 1806.53,940.495 1806.53,726.885 1806.53,940.495 "></polyline>
<path clip-path="url(#clip752)" d="M1945.34 726.885 L1945.34 679.969 L1667.71 679.969 L1667.71 726.885 L1945.34 726.885 L1945.34 679.969 L1945.34 726.885  Z" fill="#ff0000" fill-rule="evenodd" fill-opacity="1"></path>
<polyline clip-path="url(#clip752)" style="stroke:#000000; stroke-linecap:round; stroke-linejoin:round; stroke-width:4; stroke-opacity:1; fill:none" points="1945.34,726.885 1945.34,679.969 1667.71,679.969 1667.71,726.885 1945.34,726.885 1945.34,679.969 1945.34,726.885 "></polyline>
<path clip-path="url(#clip752)" d="M1945.34 562.394 L1667.71 562.394 L1667.71 679.969 L1945.34 679.969 L1945.34 562.394 L1806.53 562.394 L1945.34 562.394  Z" fill="#ff0000" fill-rule="evenodd" fill-opacity="1"></path>
<polyline clip-path="url(#clip752)" style="stroke:#000000; stroke-linecap:round; stroke-linejoin:round; stroke-width:4; stroke-opacity:1; fill:none" points="1945.34,562.394 1667.71,562.394 1667.71,679.969 1945.34,679.969 1945.34,562.394 1806.53,562.394 1945.34,562.394 "></polyline>
<path clip-path="url(#clip752)" d="M1806.53 349.014 L1737.12 349.014 L1875.93 349.014 L1806.53 349.014 L1806.53 562.394 L1806.53 349.014  Z" fill="#ff0000" fill-rule="evenodd" fill-opacity="1"></path>
<polyline clip-path="url(#clip752)" style="stroke:#000000; stroke-linecap:round; stroke-linejoin:round; stroke-width:4; stroke-opacity:1; fill:none" points="1806.53,349.014 1737.12,349.014 1875.93,349.014 1806.53,349.014 1806.53,562.394 1806.53,349.014 "></polyline>
<path clip-path="url(#clip752)" d="M2153.56 701.367 L2084.15 701.367 L2222.97 701.367 L2153.56 701.367 L2153.56 638.416 L2153.56 701.367  Z" fill="#ff0000" fill-rule="evenodd" fill-opacity="1"></path>
<polyline clip-path="url(#clip752)" style="stroke:#000000; stroke-linecap:round; stroke-linejoin:round; stroke-width:4; stroke-opacity:1; fill:none" points="2153.56,701.367 2084.15,701.367 2222.97,701.367 2153.56,701.367 2153.56,638.416 2153.56,701.367 "></polyline>
<path clip-path="url(#clip752)" d="M2292.37 638.416 L2292.37 575.466 L2014.75 575.466 L2014.75 638.416 L2292.37 638.416 L2292.37 575.466 L2292.37 638.416  Z" fill="#ff0000" fill-rule="evenodd" fill-opacity="1"></path>
<polyline clip-path="url(#clip752)" style="stroke:#000000; stroke-linecap:round; stroke-linejoin:round; stroke-width:4; stroke-opacity:1; fill:none" points="2292.37,638.416 2292.37,575.466 2014.75,575.466 2014.75,638.416 2292.37,638.416 2292.37,575.466 2292.37,638.416 "></polyline>
<path clip-path="url(#clip752)" d="M2292.37 512.515 L2014.75 512.515 L2014.75 575.466 L2292.37 575.466 L2292.37 512.515 L2153.56 512.515 L2292.37 512.515  Z" fill="#ff0000" fill-rule="evenodd" fill-opacity="1"></path>
<polyline clip-path="url(#clip752)" style="stroke:#000000; stroke-linecap:round; stroke-linejoin:round; stroke-width:4; stroke-opacity:1; fill:none" points="2292.37,512.515 2014.75,512.515 2014.75,575.466 2292.37,575.466 2292.37,512.515 2153.56,512.515 2292.37,512.515 "></polyline>
<path clip-path="url(#clip752)" d="M2153.56 449.564 L2084.15 449.564 L2222.97 449.564 L2153.56 449.564 L2153.56 512.515 L2153.56 449.564  Z" fill="#ff0000" fill-rule="evenodd" fill-opacity="1"></path>
<polyline clip-path="url(#clip752)" style="stroke:#000000; stroke-linecap:round; stroke-linejoin:round; stroke-width:4; stroke-opacity:1; fill:none" points="2153.56,449.564 2084.15,449.564 2222.97,449.564 2153.56,449.564 2153.56,512.515 2153.56,449.564 "></polyline>
<circle clip-path="url(#clip752)" cx="1112.46" cy="552.191" r="14.4" fill="#ff0000" fill-rule="evenodd" fill-opacity="1" stroke="#000000" stroke-opacity="1" stroke-width="3.2"></circle>
<circle clip-path="url(#clip752)" cx="1112.46" cy="86.1857" r="14.4" fill="#ff0000" fill-rule="evenodd" fill-opacity="1" stroke="#000000" stroke-opacity="1" stroke-width="3.2"></circle>
<polyline clip-path="url(#clip752)" style="stroke:#ff0000; stroke-linecap:round; stroke-linejoin:round; stroke-width:0; stroke-opacity:1; fill:none" points="418.392,1166.08 348.985,1166.08 487.799,1166.08 418.392,1166.08 418.392,1156.63 "></polyline>
<polyline clip-path="url(#clip752)" style="stroke:#ff0000; stroke-linecap:round; stroke-linejoin:round; stroke-width:0; stroke-opacity:1; fill:none" points="557.205,1156.63 557.205,1147.18 279.579,1147.18 279.579,1156.63 557.205,1156.63 557.205,1147.18 "></polyline>
<polyline clip-path="url(#clip752)" style="stroke:#ff0000; stroke-linecap:round; stroke-linejoin:round; stroke-width:0; stroke-opacity:1; fill:none" points="557.205,1137.74 279.579,1137.74 279.579,1147.18 557.205,1147.18 557.205,1137.74 418.392,1137.74 "></polyline>
<polyline clip-path="url(#clip752)" style="stroke:#ff0000; stroke-linecap:round; stroke-linejoin:round; stroke-width:0; stroke-opacity:1; fill:none" points="418.392,1128.29 348.985,1128.29 487.799,1128.29 418.392,1128.29 418.392,1137.74 "></polyline>
<polyline clip-path="url(#clip752)" style="stroke:#ff0000; stroke-linecap:round; stroke-linejoin:round; stroke-width:0; stroke-opacity:1; fill:none" points="765.425,1348.16 696.019,1348.16 834.832,1348.16 765.425,1348.16 765.425,1199.39 "></polyline>
<polyline clip-path="url(#clip752)" style="stroke:#ff0000; stroke-linecap:round; stroke-linejoin:round; stroke-width:0; stroke-opacity:1; fill:none" points="904.239,1199.39 904.239,1042.62 626.612,1042.62 626.612,1199.39 904.239,1199.39 904.239,1042.62 "></polyline>
<polyline clip-path="url(#clip752)" style="stroke:#ff0000; stroke-linecap:round; stroke-linejoin:round; stroke-width:0; stroke-opacity:1; fill:none" points="904.239,931.821 626.612,931.821 626.612,1042.62 904.239,1042.62 904.239,931.821 765.425,931.821 "></polyline>
<polyline clip-path="url(#clip752)" style="stroke:#ff0000; stroke-linecap:round; stroke-linejoin:round; stroke-width:0; stroke-opacity:1; fill:none" points="765.425,615.347 696.019,615.347 834.832,615.347 765.425,615.347 765.425,931.821 "></polyline>
<polyline clip-path="url(#clip752)" style="stroke:#ff0000; stroke-linecap:round; stroke-linejoin:round; stroke-width:0; stroke-opacity:1; fill:none" points="1112.46,1384.24 1043.05,1384.24 1181.87,1384.24 1112.46,1384.24 1112.46,1161.59 "></polyline>
<polyline clip-path="url(#clip752)" style="stroke:#ff0000; stroke-linecap:round; stroke-linejoin:round; stroke-width:0; stroke-opacity:1; fill:none" points="1251.27,1161.59 1251.27,1080.84 973.645,1080.84 973.645,1161.59 1251.27,1161.59 1251.27,1080.84 "></polyline>
<polyline clip-path="url(#clip752)" style="stroke:#ff0000; stroke-linecap:round; stroke-linejoin:round; stroke-width:0; stroke-opacity:1; fill:none" points="1251.27,941.346 973.645,941.346 973.645,1080.84 1251.27,1080.84 1251.27,941.346 1112.46,941.346 "></polyline>
<polyline clip-path="url(#clip752)" style="stroke:#ff0000; stroke-linecap:round; stroke-linejoin:round; stroke-width:0; stroke-opacity:1; fill:none" points="1112.46,680.165 1043.05,680.165 1181.87,680.165 1112.46,680.165 1112.46,941.346 "></polyline>
<polyline clip-path="url(#clip752)" style="stroke:#ff0000; stroke-linecap:round; stroke-linejoin:round; stroke-width:0; stroke-opacity:1; fill:none" points="1459.49,1380.53 1390.09,1380.53 1528.9,1380.53 1459.49,1380.53 1459.49,1050.8 "></polyline>
<polyline clip-path="url(#clip752)" style="stroke:#ff0000; stroke-linecap:round; stroke-linejoin:round; stroke-width:0; stroke-opacity:1; fill:none" points="1598.31,1050.8 1598.31,901.331 1320.68,901.331 1320.68,1050.8 1598.31,1050.8 1598.31,901.331 "></polyline>
<polyline clip-path="url(#clip752)" style="stroke:#ff0000; stroke-linecap:round; stroke-linejoin:round; stroke-width:0; stroke-opacity:1; fill:none" points="1598.31,770.004 1320.68,770.004 1320.68,901.331 1598.31,901.331 1598.31,770.004 1459.49,770.004 "></polyline>
<polyline clip-path="url(#clip752)" style="stroke:#ff0000; stroke-linecap:round; stroke-linejoin:round; stroke-width:0; stroke-opacity:1; fill:none" points="1459.49,415.493 1390.09,415.493 1528.9,415.493 1459.49,415.493 1459.49,770.004 "></polyline>
<polyline clip-path="url(#clip752)" style="stroke:#ff0000; stroke-linecap:round; stroke-linejoin:round; stroke-width:0; stroke-opacity:1; fill:none" points="1806.53,940.495 1737.12,940.495 1875.93,940.495 1806.53,940.495 1806.53,726.885 "></polyline>
<polyline clip-path="url(#clip752)" style="stroke:#ff0000; stroke-linecap:round; stroke-linejoin:round; stroke-width:0; stroke-opacity:1; fill:none" points="1945.34,726.885 1945.34,679.969 1667.71,679.969 1667.71,726.885 1945.34,726.885 1945.34,679.969 "></polyline>
<polyline clip-path="url(#clip752)" style="stroke:#ff0000; stroke-linecap:round; stroke-linejoin:round; stroke-width:0; stroke-opacity:1; fill:none" points="1945.34,562.394 1667.71,562.394 1667.71,679.969 1945.34,679.969 1945.34,562.394 1806.53,562.394 "></polyline>
<polyline clip-path="url(#clip752)" style="stroke:#ff0000; stroke-linecap:round; stroke-linejoin:round; stroke-width:0; stroke-opacity:1; fill:none" points="1806.53,349.014 1737.12,349.014 1875.93,349.014 1806.53,349.014 1806.53,562.394 "></polyline>
<polyline clip-path="url(#clip752)" style="stroke:#ff0000; stroke-linecap:round; stroke-linejoin:round; stroke-width:0; stroke-opacity:1; fill:none" points="2153.56,701.367 2084.15,701.367 2222.97,701.367 2153.56,701.367 2153.56,638.416 "></polyline>
<polyline clip-path="url(#clip752)" style="stroke:#ff0000; stroke-linecap:round; stroke-linejoin:round; stroke-width:0; stroke-opacity:1; fill:none" points="2292.37,638.416 2292.37,575.466 2014.75,575.466 2014.75,638.416 2292.37,638.416 2292.37,575.466 "></polyline>
<polyline clip-path="url(#clip752)" style="stroke:#ff0000; stroke-linecap:round; stroke-linejoin:round; stroke-width:0; stroke-opacity:1; fill:none" points="2292.37,512.515 2014.75,512.515 2014.75,575.466 2292.37,575.466 2292.37,512.515 2153.56,512.515 "></polyline>
<polyline clip-path="url(#clip752)" style="stroke:#ff0000; stroke-linecap:round; stroke-linejoin:round; stroke-width:0; stroke-opacity:1; fill:none" points="2153.56,449.564 2084.15,449.564 2222.97,449.564 2153.56,449.564 2153.56,512.515 "></polyline>
<path clip-path="url(#clip750)" d="M290.314 196.789 L866.052 196.789 L866.052 93.1086 L290.314 93.1086  Z" fill="#ffffff" fill-rule="evenodd" fill-opacity="1"></path>
<polyline clip-path="url(#clip750)" style="stroke:#000000; stroke-linecap:round; stroke-linejoin:round; stroke-width:4; stroke-opacity:1; fill:none" points="290.314,196.789 866.052,196.789 866.052,93.1086 290.314,93.1086 290.314,196.789 "></polyline>
<path clip-path="url(#clip750)" d="M314.02 165.685 L456.257 165.685 L456.257 124.213 L314.02 124.213 L314.02 165.685  Z" fill="#ff0000" fill-rule="evenodd" fill-opacity="1"></path>
<polyline clip-path="url(#clip750)" style="stroke:#000000; stroke-linecap:round; stroke-linejoin:round; stroke-width:4; stroke-opacity:1; fill:none" points="314.02,165.685 456.257,165.685 456.257,124.213 314.02,124.213 314.02,165.685 "></polyline>
<path clip-path="url(#clip750)" d="M479.964 127.669 L484.663 127.669 L484.663 148.664 Q484.663 154.219 486.676 156.673 Q488.69 159.104 493.204 159.104 Q497.695 159.104 499.709 156.673 Q501.723 154.219 501.723 148.664 L501.723 127.669 L506.422 127.669 L506.422 149.243 Q506.422 156.002 503.065 159.451 Q499.732 162.9 493.204 162.9 Q486.653 162.9 483.297 159.451 Q479.964 156.002 479.964 149.243 L479.964 127.669 Z" fill="#000000" fill-rule="nonzero" fill-opacity="1"></path><path clip-path="url(#clip750)" d="M515.195 127.669 L519.871 127.669 L519.871 158.293 L536.699 158.293 L536.699 162.229 L515.195 162.229 L515.195 127.669 Z" fill="#000000" fill-rule="nonzero" fill-opacity="1"></path><path clip-path="url(#clip750)" d="M562.324 128.803 L562.324 133.363 Q559.662 132.09 557.301 131.465 Q554.94 130.84 552.741 130.84 Q548.921 130.84 546.838 132.321 Q544.778 133.803 544.778 136.534 Q544.778 138.826 546.144 140.007 Q547.533 141.164 551.375 141.882 L554.199 142.46 Q559.431 143.456 561.908 145.979 Q564.408 148.479 564.408 152.692 Q564.408 157.715 561.028 160.307 Q557.671 162.9 551.167 162.9 Q548.713 162.9 545.935 162.344 Q543.181 161.789 540.218 160.701 L540.218 155.886 Q543.065 157.483 545.797 158.293 Q548.528 159.104 551.167 159.104 Q555.171 159.104 557.347 157.53 Q559.523 155.956 559.523 153.039 Q559.523 150.493 557.949 149.057 Q556.398 147.622 552.834 146.905 L549.986 146.349 Q544.755 145.307 542.417 143.085 Q540.079 140.863 540.079 136.905 Q540.079 132.321 543.297 129.682 Q546.537 127.044 552.209 127.044 Q554.639 127.044 557.162 127.483 Q559.685 127.923 562.324 128.803 Z" fill="#000000" fill-rule="nonzero" fill-opacity="1"></path><path clip-path="url(#clip750)" d="M590.704 158.34 L590.704 172.09 L586.421 172.09 L586.421 136.303 L590.704 136.303 L590.704 140.238 Q592.046 137.923 594.083 136.812 Q596.143 135.678 598.991 135.678 Q603.713 135.678 606.653 139.428 Q609.616 143.178 609.616 149.289 Q609.616 155.4 606.653 159.15 Q603.713 162.9 598.991 162.9 Q596.143 162.9 594.083 161.789 Q592.046 160.655 590.704 158.34 M605.194 149.289 Q605.194 144.59 603.25 141.928 Q601.329 139.243 597.949 139.243 Q594.569 139.243 592.625 141.928 Q590.704 144.59 590.704 149.289 Q590.704 153.988 592.625 156.673 Q594.569 159.335 597.949 159.335 Q601.329 159.335 603.25 156.673 Q605.194 153.988 605.194 149.289 Z" fill="#000000" fill-rule="nonzero" fill-opacity="1"></path><path clip-path="url(#clip750)" d="M631.699 140.284 Q630.981 139.868 630.125 139.682 Q629.291 139.474 628.273 139.474 Q624.662 139.474 622.717 141.835 Q620.796 144.173 620.796 148.571 L620.796 162.229 L616.514 162.229 L616.514 136.303 L620.796 136.303 L620.796 140.331 Q622.139 137.969 624.291 136.835 Q626.444 135.678 629.523 135.678 Q629.963 135.678 630.495 135.747 Q631.028 135.794 631.676 135.909 L631.699 140.284 Z" fill="#000000" fill-rule="nonzero" fill-opacity="1"></path><path clip-path="url(#clip750)" d="M657.301 148.201 L657.301 150.284 L637.717 150.284 Q637.995 154.682 640.356 156.997 Q642.74 159.289 646.977 159.289 Q649.43 159.289 651.722 158.687 Q654.037 158.085 656.305 156.881 L656.305 160.909 Q654.014 161.881 651.606 162.391 Q649.199 162.9 646.722 162.9 Q640.518 162.9 636.884 159.289 Q633.273 155.678 633.273 149.52 Q633.273 143.155 636.699 139.428 Q640.148 135.678 645.981 135.678 Q651.213 135.678 654.245 139.057 Q657.301 142.414 657.301 148.201 M653.041 146.951 Q652.995 143.456 651.074 141.372 Q649.176 139.289 646.027 139.289 Q642.463 139.289 640.31 141.303 Q638.18 143.317 637.856 146.974 L653.041 146.951 Z" fill="#000000" fill-rule="nonzero" fill-opacity="1"></path><path clip-path="url(#clip750)" d="M681.351 140.238 L681.351 126.21 L685.611 126.21 L685.611 162.229 L681.351 162.229 L681.351 158.34 Q680.009 160.655 677.949 161.789 Q675.912 162.9 673.041 162.9 Q668.342 162.9 665.379 159.15 Q662.439 155.4 662.439 149.289 Q662.439 143.178 665.379 139.428 Q668.342 135.678 673.041 135.678 Q675.912 135.678 677.949 136.812 Q680.009 137.923 681.351 140.238 M666.838 149.289 Q666.838 153.988 668.759 156.673 Q670.703 159.335 674.083 159.335 Q677.462 159.335 679.407 156.673 Q681.351 153.988 681.351 149.289 Q681.351 144.59 679.407 141.928 Q677.462 139.243 674.083 139.243 Q670.703 139.243 668.759 141.928 Q666.838 144.59 666.838 149.289 Z" fill="#000000" fill-rule="nonzero" fill-opacity="1"></path><path clip-path="url(#clip750)" d="M694.384 136.303 L698.643 136.303 L698.643 162.229 L694.384 162.229 L694.384 136.303 M694.384 126.21 L698.643 126.21 L698.643 131.604 L694.384 131.604 L694.384 126.21 Z" fill="#000000" fill-rule="nonzero" fill-opacity="1"></path><path clip-path="url(#clip750)" d="M726.212 137.298 L726.212 141.28 Q724.407 140.284 722.578 139.798 Q720.772 139.289 718.921 139.289 Q714.777 139.289 712.485 141.928 Q710.194 144.544 710.194 149.289 Q710.194 154.034 712.485 156.673 Q714.777 159.289 718.921 159.289 Q720.772 159.289 722.578 158.803 Q724.407 158.293 726.212 157.298 L726.212 161.233 Q724.43 162.067 722.509 162.483 Q720.61 162.9 718.458 162.9 Q712.601 162.9 709.152 159.219 Q705.703 155.539 705.703 149.289 Q705.703 142.946 709.175 139.312 Q712.671 135.678 718.735 135.678 Q720.703 135.678 722.578 136.095 Q724.453 136.488 726.212 137.298 Z" fill="#000000" fill-rule="nonzero" fill-opacity="1"></path><path clip-path="url(#clip750)" d="M737.833 128.942 L737.833 136.303 L746.606 136.303 L746.606 139.613 L737.833 139.613 L737.833 153.687 Q737.833 156.858 738.689 157.761 Q739.569 158.664 742.231 158.664 L746.606 158.664 L746.606 162.229 L742.231 162.229 Q737.3 162.229 735.425 160.4 Q733.55 158.548 733.55 153.687 L733.55 139.613 L730.425 139.613 L730.425 136.303 L733.55 136.303 L733.55 128.942 L737.833 128.942 Z" fill="#000000" fill-rule="nonzero" fill-opacity="1"></path><path clip-path="url(#clip750)" d="M752.207 136.303 L756.467 136.303 L756.467 162.229 L752.207 162.229 L752.207 136.303 M752.207 126.21 L756.467 126.21 L756.467 131.604 L752.207 131.604 L752.207 126.21 Z" fill="#000000" fill-rule="nonzero" fill-opacity="1"></path><path clip-path="url(#clip750)" d="M775.425 139.289 Q771.999 139.289 770.008 141.974 Q768.018 144.636 768.018 149.289 Q768.018 153.942 769.985 156.627 Q771.976 159.289 775.425 159.289 Q778.828 159.289 780.818 156.604 Q782.809 153.918 782.809 149.289 Q782.809 144.682 780.818 141.997 Q778.828 139.289 775.425 139.289 M775.425 135.678 Q780.98 135.678 784.152 139.289 Q787.323 142.9 787.323 149.289 Q787.323 155.655 784.152 159.289 Q780.98 162.9 775.425 162.9 Q769.846 162.9 766.675 159.289 Q763.527 155.655 763.527 149.289 Q763.527 142.9 766.675 139.289 Q769.846 135.678 775.425 135.678 Z" fill="#000000" fill-rule="nonzero" fill-opacity="1"></path><path clip-path="url(#clip750)" d="M815.934 146.581 L815.934 162.229 L811.675 162.229 L811.675 146.719 Q811.675 143.039 810.24 141.21 Q808.804 139.382 805.934 139.382 Q802.485 139.382 800.494 141.581 Q798.503 143.78 798.503 147.576 L798.503 162.229 L794.221 162.229 L794.221 136.303 L798.503 136.303 L798.503 140.331 Q800.031 137.993 802.091 136.835 Q804.175 135.678 806.883 135.678 Q811.351 135.678 813.642 138.456 Q815.934 141.21 815.934 146.581 Z" fill="#000000" fill-rule="nonzero" fill-opacity="1"></path><path clip-path="url(#clip750)" d="M840.957 137.067 L840.957 141.094 Q839.151 140.169 837.207 139.706 Q835.263 139.243 833.179 139.243 Q830.008 139.243 828.411 140.215 Q826.837 141.187 826.837 143.131 Q826.837 144.613 827.971 145.469 Q829.105 146.303 832.531 147.067 L833.989 147.391 Q838.526 148.363 840.425 150.145 Q842.346 151.905 842.346 155.076 Q842.346 158.687 839.475 160.793 Q836.628 162.9 831.628 162.9 Q829.545 162.9 827.276 162.483 Q825.031 162.09 822.531 161.28 L822.531 156.881 Q824.892 158.108 827.184 158.733 Q829.476 159.335 831.721 159.335 Q834.73 159.335 836.351 158.317 Q837.971 157.275 837.971 155.4 Q837.971 153.664 836.79 152.738 Q835.633 151.812 831.675 150.956 L830.193 150.608 Q826.235 149.775 824.476 148.062 Q822.716 146.326 822.716 143.317 Q822.716 139.659 825.309 137.669 Q827.901 135.678 832.67 135.678 Q835.031 135.678 837.114 136.025 Q839.198 136.372 840.957 137.067 Z" fill="#000000" fill-rule="nonzero" fill-opacity="1"></path></svg>