<svg xmlns="http://www.w3.org/2000/svg" xmlns:xlink="http://www.w3.org/1999/xlink" width="600" height="400" viewBox="0 0 2400 1600">
<defs>
  <clipPath id="clip310">
    <rect x="0" y="0" width="2400" height="1600"></rect>
  </clipPath>
</defs>
<path clip-path="url(#clip310)" d="M0 1600 L2400 1600 L2400 8.88178e-14 L0 8.88178e-14  Z" fill="#ffffff" fill-rule="evenodd" fill-opacity="1"></path>
<defs>
  <clipPath id="clip311">
    <rect x="480" y="0" width="1681" height="1600"></rect>
  </clipPath>
</defs>
<path clip-path="url(#clip310)" d="M242.135 1423.18 L2352.76 1423.18 L2352.76 123.472 L242.135 123.472  Z" fill="#ffffff" fill-rule="evenodd" fill-opacity="1"></path>
<defs>
  <clipPath id="clip312">
    <rect x="242" y="123" width="2112" height="1301"></rect>
  </clipPath>
</defs>
<polyline clip-path="url(#clip312)" style="stroke:#000000; stroke-linecap:round; stroke-linejoin:round; stroke-width:2; stroke-opacity:0.1; fill:none" points="301.869,1423.18 301.869,123.472 "></polyline>
<polyline clip-path="url(#clip312)" style="stroke:#000000; stroke-linecap:round; stroke-linejoin:round; stroke-width:2; stroke-opacity:0.1; fill:none" points="633.728,1423.18 633.728,123.472 "></polyline>
<polyline clip-path="url(#clip312)" style="stroke:#000000; stroke-linecap:round; stroke-linejoin:round; stroke-width:2; stroke-opacity:0.1; fill:none" points="965.587,1423.18 965.587,123.472 "></polyline>
<polyline clip-path="url(#clip312)" style="stroke:#000000; stroke-linecap:round; stroke-linejoin:round; stroke-width:2; stroke-opacity:0.1; fill:none" points="1297.45,1423.18 1297.45,123.472 "></polyline>
<polyline clip-path="url(#clip312)" style="stroke:#000000; stroke-linecap:round; stroke-linejoin:round; stroke-width:2; stroke-opacity:0.1; fill:none" points="1629.3,1423.18 1629.3,123.472 "></polyline>
<polyline clip-path="url(#clip312)" style="stroke:#000000; stroke-linecap:round; stroke-linejoin:round; stroke-width:2; stroke-opacity:0.1; fill:none" points="1961.16,1423.18 1961.16,123.472 "></polyline>
<polyline clip-path="url(#clip312)" style="stroke:#000000; stroke-linecap:round; stroke-linejoin:round; stroke-width:2; stroke-opacity:0.1; fill:none" points="2293.02,1423.18 2293.02,123.472 "></polyline>
<polyline clip-path="url(#clip310)" style="stroke:#000000; stroke-linecap:round; stroke-linejoin:round; stroke-width:4; stroke-opacity:1; fill:none" points="242.135,1423.18 2352.76,1423.18 "></polyline>
<polyline clip-path="url(#clip310)" style="stroke:#000000; stroke-linecap:round; stroke-linejoin:round; stroke-width:4; stroke-opacity:1; fill:none" points="301.869,1423.18 301.869,1404.28 "></polyline>
<polyline clip-path="url(#clip310)" style="stroke:#000000; stroke-linecap:round; stroke-linejoin:round; stroke-width:4; stroke-opacity:1; fill:none" points="633.728,1423.18 633.728,1404.28 "></polyline>
<polyline clip-path="url(#clip310)" style="stroke:#000000; stroke-linecap:round; stroke-linejoin:round; stroke-width:4; stroke-opacity:1; fill:none" points="965.587,1423.18 965.587,1404.28 "></polyline>
<polyline clip-path="url(#clip310)" style="stroke:#000000; stroke-linecap:round; stroke-linejoin:round; stroke-width:4; stroke-opacity:1; fill:none" points="1297.45,1423.18 1297.45,1404.28 "></polyline>
<polyline clip-path="url(#clip310)" style="stroke:#000000; stroke-linecap:round; stroke-linejoin:round; stroke-width:4; stroke-opacity:1; fill:none" points="1629.3,1423.18 1629.3,1404.28 "></polyline>
<polyline clip-path="url(#clip310)" style="stroke:#000000; stroke-linecap:round; stroke-linejoin:round; stroke-width:4; stroke-opacity:1; fill:none" points="1961.16,1423.18 1961.16,1404.28 "></polyline>
<polyline clip-path="url(#clip310)" style="stroke:#000000; stroke-linecap:round; stroke-linejoin:round; stroke-width:4; stroke-opacity:1; fill:none" points="2293.02,1423.18 2293.02,1404.28 "></polyline>
<path clip-path="url(#clip310)" d="M271.337 1468.75 L301.013 1468.75 L301.013 1472.69 L271.337 1472.69 L271.337 1468.75 Z" fill="#000000" fill-rule="nonzero" fill-opacity="1"></path><path clip-path="url(#clip310)" d="M325.272 1466.95 Q328.628 1467.66 330.503 1469.93 Q332.401 1472.2 332.401 1475.53 Q332.401 1480.65 328.883 1483.45 Q325.364 1486.25 318.883 1486.25 Q316.707 1486.25 314.392 1485.81 Q312.101 1485.39 309.647 1484.54 L309.647 1480.02 Q311.591 1481.16 313.906 1481.74 Q316.221 1482.32 318.744 1482.32 Q323.142 1482.32 325.434 1480.58 Q327.749 1478.84 327.749 1475.53 Q327.749 1472.48 325.596 1470.77 Q323.466 1469.03 319.647 1469.03 L315.619 1469.03 L315.619 1465.19 L319.832 1465.19 Q323.281 1465.19 325.11 1463.82 Q326.939 1462.43 326.939 1459.84 Q326.939 1457.18 325.04 1455.77 Q323.165 1454.33 319.647 1454.33 Q317.726 1454.33 315.527 1454.75 Q313.328 1455.16 310.689 1456.04 L310.689 1451.88 Q313.351 1451.14 315.665 1450.77 Q318.003 1450.39 320.064 1450.39 Q325.388 1450.39 328.489 1452.83 Q331.591 1455.23 331.591 1459.35 Q331.591 1462.22 329.948 1464.21 Q328.304 1466.18 325.272 1466.95 Z" fill="#000000" fill-rule="nonzero" fill-opacity="1"></path><path clip-path="url(#clip310)" d="M603.67 1468.75 L633.346 1468.75 L633.346 1472.69 L603.67 1472.69 L603.67 1468.75 Z" fill="#000000" fill-rule="nonzero" fill-opacity="1"></path><path clip-path="url(#clip310)" d="M647.466 1481.64 L663.786 1481.64 L663.786 1485.58 L641.841 1485.58 L641.841 1481.64 Q644.503 1478.89 649.087 1474.26 Q653.693 1469.61 654.874 1468.27 Q657.119 1465.74 657.999 1464.01 Q658.901 1462.25 658.901 1460.56 Q658.901 1457.8 656.957 1456.07 Q655.036 1454.33 651.934 1454.33 Q649.735 1454.33 647.281 1455.09 Q644.851 1455.86 642.073 1457.41 L642.073 1452.69 Q644.897 1451.55 647.351 1450.97 Q649.804 1450.39 651.841 1450.39 Q657.212 1450.39 660.406 1453.08 Q663.6 1455.77 663.6 1460.26 Q663.6 1462.39 662.79 1464.31 Q662.003 1466.2 659.897 1468.8 Q659.318 1469.47 656.216 1472.69 Q653.114 1475.88 647.466 1481.64 Z" fill="#000000" fill-rule="nonzero" fill-opacity="1"></path><path clip-path="url(#clip310)" d="M935.344 1468.75 L965.019 1468.75 L965.019 1472.69 L935.344 1472.69 L935.344 1468.75 Z" fill="#000000" fill-rule="nonzero" fill-opacity="1"></path><path clip-path="url(#clip310)" d="M975.922 1481.64 L983.561 1481.64 L983.561 1455.28 L975.251 1456.95 L975.251 1452.69 L983.515 1451.02 L988.191 1451.02 L988.191 1481.64 L995.829 1481.64 L995.829 1485.58 L975.922 1485.58 L975.922 1481.64 Z" fill="#000000" fill-rule="nonzero" fill-opacity="1"></path><path clip-path="url(#clip310)" d="M1297.45 1454.1 Q1293.83 1454.1 1292.01 1457.66 Q1290.2 1461.2 1290.2 1468.33 Q1290.2 1475.44 1292.01 1479.01 Q1293.83 1482.55 1297.45 1482.55 Q1301.08 1482.55 1302.89 1479.01 Q1304.71 1475.44 1304.71 1468.33 Q1304.71 1461.2 1302.89 1457.66 Q1301.08 1454.1 1297.45 1454.1 M1297.45 1450.39 Q1303.26 1450.39 1306.31 1455 Q1309.39 1459.58 1309.39 1468.33 Q1309.39 1477.06 1306.31 1481.67 Q1303.26 1486.25 1297.45 1486.25 Q1291.64 1486.25 1288.56 1481.67 Q1285.5 1477.06 1285.5 1468.33 Q1285.5 1459.58 1288.56 1455 Q1291.64 1450.39 1297.45 1450.39 Z" fill="#000000" fill-rule="nonzero" fill-opacity="1"></path><path clip-path="url(#clip310)" d="M1619.69 1481.64 L1627.32 1481.64 L1627.32 1455.28 L1619.01 1456.95 L1619.01 1452.69 L1627.28 1451.02 L1631.95 1451.02 L1631.95 1481.64 L1639.59 1481.64 L1639.59 1485.58 L1619.69 1485.58 L1619.69 1481.64 Z" fill="#000000" fill-rule="nonzero" fill-opacity="1"></path><path clip-path="url(#clip310)" d="M1955.82 1481.64 L1972.13 1481.64 L1972.13 1485.58 L1950.19 1485.58 L1950.19 1481.64 Q1952.85 1478.89 1957.44 1474.26 Q1962.04 1469.61 1963.22 1468.27 Q1965.47 1465.74 1966.35 1464.01 Q1967.25 1462.25 1967.25 1460.56 Q1967.25 1457.8 1965.31 1456.07 Q1963.38 1454.33 1960.28 1454.33 Q1958.08 1454.33 1955.63 1455.09 Q1953.2 1455.86 1950.42 1457.41 L1950.42 1452.69 Q1953.25 1451.55 1955.7 1450.97 Q1958.15 1450.39 1960.19 1450.39 Q1965.56 1450.39 1968.76 1453.08 Q1971.95 1455.77 1971.95 1460.26 Q1971.95 1462.39 1971.14 1464.31 Q1970.35 1466.2 1968.25 1468.8 Q1967.67 1469.47 1964.57 1472.69 Q1961.46 1475.88 1955.82 1481.64 Z" fill="#000000" fill-rule="nonzero" fill-opacity="1"></path><path clip-path="url(#clip310)" d="M2297.27 1466.95 Q2300.63 1467.66 2302.5 1469.93 Q2304.4 1472.2 2304.4 1475.53 Q2304.4 1480.65 2300.88 1483.45 Q2297.36 1486.25 2290.88 1486.25 Q2288.7 1486.25 2286.39 1485.81 Q2284.1 1485.39 2281.64 1484.54 L2281.64 1480.02 Q2283.59 1481.16 2285.9 1481.74 Q2288.22 1482.32 2290.74 1482.32 Q2295.14 1482.32 2297.43 1480.58 Q2299.75 1478.84 2299.75 1475.53 Q2299.75 1472.48 2297.59 1470.77 Q2295.46 1469.03 2291.64 1469.03 L2287.62 1469.03 L2287.62 1465.19 L2291.83 1465.19 Q2295.28 1465.19 2297.11 1463.82 Q2298.94 1462.43 2298.94 1459.84 Q2298.94 1457.18 2297.04 1455.77 Q2295.16 1454.33 2291.64 1454.33 Q2289.72 1454.33 2287.52 1454.75 Q2285.32 1455.16 2282.69 1456.04 L2282.69 1451.88 Q2285.35 1451.14 2287.66 1450.77 Q2290 1450.39 2292.06 1450.39 Q2297.38 1450.39 2300.49 1452.83 Q2303.59 1455.23 2303.59 1459.35 Q2303.59 1462.22 2301.94 1464.21 Q2300.3 1466.18 2297.27 1466.95 Z" fill="#000000" fill-rule="nonzero" fill-opacity="1"></path><path clip-path="url(#clip310)" d="M1314.06 1532.4 L1301.17 1549.74 L1314.73 1568.04 L1307.82 1568.04 L1297.45 1554.04 L1287.07 1568.04 L1280.16 1568.04 L1294.01 1549.39 L1281.34 1532.4 L1288.25 1532.4 L1297.7 1545.1 L1307.15 1532.4 L1314.06 1532.4 Z" fill="#000000" fill-rule="nonzero" fill-opacity="1"></path><polyline clip-path="url(#clip312)" style="stroke:#000000; stroke-linecap:round; stroke-linejoin:round; stroke-width:2; stroke-opacity:0.1; fill:none" points="242.135,1358.37 2352.76,1358.37 "></polyline>
<polyline clip-path="url(#clip312)" style="stroke:#000000; stroke-linecap:round; stroke-linejoin:round; stroke-width:2; stroke-opacity:0.1; fill:none" points="242.135,1059.44 2352.76,1059.44 "></polyline>
<polyline clip-path="url(#clip312)" style="stroke:#000000; stroke-linecap:round; stroke-linejoin:round; stroke-width:2; stroke-opacity:0.1; fill:none" points="242.135,760.511 2352.76,760.511 "></polyline>
<polyline clip-path="url(#clip312)" style="stroke:#000000; stroke-linecap:round; stroke-linejoin:round; stroke-width:2; stroke-opacity:0.1; fill:none" points="242.135,461.581 2352.76,461.581 "></polyline>
<polyline clip-path="url(#clip312)" style="stroke:#000000; stroke-linecap:round; stroke-linejoin:round; stroke-width:2; stroke-opacity:0.1; fill:none" points="242.135,162.651 2352.76,162.651 "></polyline>
<polyline clip-path="url(#clip310)" style="stroke:#000000; stroke-linecap:round; stroke-linejoin:round; stroke-width:4; stroke-opacity:1; fill:none" points="242.135,1423.18 242.135,123.472 "></polyline>
<polyline clip-path="url(#clip310)" style="stroke:#000000; stroke-linecap:round; stroke-linejoin:round; stroke-width:4; stroke-opacity:1; fill:none" points="242.135,1358.37 261.032,1358.37 "></polyline>
<polyline clip-path="url(#clip310)" style="stroke:#000000; stroke-linecap:round; stroke-linejoin:round; stroke-width:4; stroke-opacity:1; fill:none" points="242.135,1059.44 261.032,1059.44 "></polyline>
<polyline clip-path="url(#clip310)" style="stroke:#000000; stroke-linecap:round; stroke-linejoin:round; stroke-width:4; stroke-opacity:1; fill:none" points="242.135,760.511 261.032,760.511 "></polyline>
<polyline clip-path="url(#clip310)" style="stroke:#000000; stroke-linecap:round; stroke-linejoin:round; stroke-width:4; stroke-opacity:1; fill:none" points="242.135,461.581 261.032,461.581 "></polyline>
<polyline clip-path="url(#clip310)" style="stroke:#000000; stroke-linecap:round; stroke-linejoin:round; stroke-width:4; stroke-opacity:1; fill:none" points="242.135,162.651 261.032,162.651 "></polyline>
<path clip-path="url(#clip310)" d="M114.26 1358.82 L143.936 1358.82 L143.936 1362.76 L114.26 1362.76 L114.26 1358.82 Z" fill="#000000" fill-rule="nonzero" fill-opacity="1"></path><path clip-path="url(#clip310)" d="M166.876 1345.17 L155.07 1363.61 L166.876 1363.61 L166.876 1345.17 M165.649 1341.09 L171.528 1341.09 L171.528 1363.61 L176.459 1363.61 L176.459 1367.5 L171.528 1367.5 L171.528 1375.65 L166.876 1375.65 L166.876 1367.5 L151.274 1367.5 L151.274 1362.99 L165.649 1341.09 Z" fill="#000000" fill-rule="nonzero" fill-opacity="1"></path><path clip-path="url(#clip310)" d="M194.19 1344.17 Q190.579 1344.17 188.75 1347.73 Q186.945 1351.28 186.945 1358.41 Q186.945 1365.51 188.75 1369.08 Q190.579 1372.62 194.19 1372.62 Q197.825 1372.62 199.63 1369.08 Q201.459 1365.51 201.459 1358.41 Q201.459 1351.28 199.63 1347.73 Q197.825 1344.17 194.19 1344.17 M194.19 1340.47 Q200 1340.47 203.056 1345.07 Q206.135 1349.66 206.135 1358.41 Q206.135 1367.13 203.056 1371.74 Q200 1376.32 194.19 1376.32 Q188.38 1376.32 185.301 1371.74 Q182.246 1367.13 182.246 1358.41 Q182.246 1349.66 185.301 1345.07 Q188.38 1340.47 194.19 1340.47 Z" fill="#000000" fill-rule="nonzero" fill-opacity="1"></path><path clip-path="url(#clip310)" d="M114.26 1059.89 L143.936 1059.89 L143.936 1063.83 L114.26 1063.83 L114.26 1059.89 Z" fill="#000000" fill-rule="nonzero" fill-opacity="1"></path><path clip-path="url(#clip310)" d="M168.195 1058.09 Q171.552 1058.8 173.427 1061.07 Q175.325 1063.34 175.325 1066.67 Q175.325 1071.79 171.806 1074.59 Q168.288 1077.39 161.806 1077.39 Q159.63 1077.39 157.315 1076.95 Q155.024 1076.54 152.57 1075.68 L152.57 1071.17 Q154.515 1072.3 156.829 1072.88 Q159.144 1073.46 161.667 1073.46 Q166.065 1073.46 168.357 1071.72 Q170.672 1069.98 170.672 1066.67 Q170.672 1063.62 168.519 1061.91 Q166.39 1060.17 162.57 1060.17 L158.542 1060.17 L158.542 1056.33 L162.755 1056.33 Q166.204 1056.33 168.033 1054.96 Q169.862 1053.57 169.862 1050.98 Q169.862 1048.32 167.964 1046.91 Q166.089 1045.47 162.57 1045.47 Q160.649 1045.47 158.45 1045.89 Q156.251 1046.3 153.612 1047.18 L153.612 1043.02 Q156.274 1042.28 158.589 1041.91 Q160.927 1041.54 162.987 1041.54 Q168.311 1041.54 171.413 1043.97 Q174.514 1046.37 174.514 1050.49 Q174.514 1053.36 172.871 1055.36 Q171.227 1057.32 168.195 1058.09 Z" fill="#000000" fill-rule="nonzero" fill-opacity="1"></path><path clip-path="url(#clip310)" d="M194.19 1045.24 Q190.579 1045.24 188.75 1048.8 Q186.945 1052.35 186.945 1059.48 Q186.945 1066.58 188.75 1070.15 Q190.579 1073.69 194.19 1073.69 Q197.825 1073.69 199.63 1070.15 Q201.459 1066.58 201.459 1059.48 Q201.459 1052.35 199.63 1048.8 Q197.825 1045.24 194.19 1045.24 M194.19 1041.54 Q200 1041.54 203.056 1046.14 Q206.135 1050.73 206.135 1059.48 Q206.135 1068.2 203.056 1072.81 Q200 1077.39 194.19 1077.39 Q188.38 1077.39 185.301 1072.81 Q182.246 1068.2 182.246 1059.48 Q182.246 1050.73 185.301 1046.14 Q188.38 1041.54 194.19 1041.54 Z" fill="#000000" fill-rule="nonzero" fill-opacity="1"></path><path clip-path="url(#clip310)" d="M114.26 760.962 L143.936 760.962 L143.936 764.897 L114.26 764.897 L114.26 760.962 Z" fill="#000000" fill-rule="nonzero" fill-opacity="1"></path><path clip-path="url(#clip310)" d="M158.056 773.856 L174.376 773.856 L174.376 777.791 L152.431 777.791 L152.431 773.856 Q155.093 771.101 159.677 766.471 Q164.283 761.819 165.464 760.476 Q167.709 757.953 168.589 756.217 Q169.491 754.458 169.491 752.768 Q169.491 750.013 167.547 748.277 Q165.626 746.541 162.524 746.541 Q160.325 746.541 157.871 747.305 Q155.44 748.069 152.663 749.62 L152.663 744.898 Q155.487 743.763 157.94 743.185 Q160.394 742.606 162.431 742.606 Q167.802 742.606 170.996 745.291 Q174.19 747.976 174.19 752.467 Q174.19 754.597 173.38 756.518 Q172.593 758.416 170.487 761.009 Q169.908 761.68 166.806 764.897 Q163.704 768.092 158.056 773.856 Z" fill="#000000" fill-rule="nonzero" fill-opacity="1"></path><path clip-path="url(#clip310)" d="M194.19 746.31 Q190.579 746.31 188.75 749.874 Q186.945 753.416 186.945 760.546 Q186.945 767.652 188.75 771.217 Q190.579 774.758 194.19 774.758 Q197.825 774.758 199.63 771.217 Q201.459 767.652 201.459 760.546 Q201.459 753.416 199.63 749.874 Q197.825 746.31 194.19 746.31 M194.19 742.606 Q200 742.606 203.056 747.212 Q206.135 751.796 206.135 760.546 Q206.135 769.272 203.056 773.879 Q200 778.462 194.19 778.462 Q188.38 778.462 185.301 773.879 Q182.246 769.272 182.246 760.546 Q182.246 751.796 185.301 747.212 Q188.38 742.606 194.19 742.606 Z" fill="#000000" fill-rule="nonzero" fill-opacity="1"></path><path clip-path="url(#clip310)" d="M114.26 462.032 L143.936 462.032 L143.936 465.967 L114.26 465.967 L114.26 462.032 Z" fill="#000000" fill-rule="nonzero" fill-opacity="1"></path><path clip-path="url(#clip310)" d="M154.839 474.926 L162.477 474.926 L162.477 448.56 L154.167 450.227 L154.167 445.967 L162.431 444.301 L167.107 444.301 L167.107 474.926 L174.746 474.926 L174.746 478.861 L154.839 478.861 L154.839 474.926 Z" fill="#000000" fill-rule="nonzero" fill-opacity="1"></path><path clip-path="url(#clip310)" d="M194.19 447.379 Q190.579 447.379 188.75 450.944 Q186.945 454.486 186.945 461.616 Q186.945 468.722 188.75 472.287 Q190.579 475.828 194.19 475.828 Q197.825 475.828 199.63 472.287 Q201.459 468.722 201.459 461.616 Q201.459 454.486 199.63 450.944 Q197.825 447.379 194.19 447.379 M194.19 443.676 Q200 443.676 203.056 448.282 Q206.135 452.866 206.135 461.616 Q206.135 470.342 203.056 474.949 Q200 479.532 194.19 479.532 Q188.38 479.532 185.301 474.949 Q182.246 470.342 182.246 461.616 Q182.246 452.866 185.301 448.282 Q188.38 443.676 194.19 443.676 Z" fill="#000000" fill-rule="nonzero" fill-opacity="1"></path><path clip-path="url(#clip310)" d="M194.19 148.449 Q190.579 148.449 188.75 152.014 Q186.945 155.556 186.945 162.685 Q186.945 169.792 188.75 173.357 Q190.579 176.898 194.19 176.898 Q197.825 176.898 199.63 173.357 Q201.459 169.792 201.459 162.685 Q201.459 155.556 199.63 152.014 Q197.825 148.449 194.19 148.449 M194.19 144.746 Q200 144.746 203.056 149.352 Q206.135 153.936 206.135 162.685 Q206.135 171.412 203.056 176.019 Q200 180.602 194.19 180.602 Q188.38 180.602 185.301 176.019 Q182.246 171.412 182.246 162.685 Q182.246 153.936 185.301 149.352 Q188.38 144.746 194.19 144.746 Z" fill="#000000" fill-rule="nonzero" fill-opacity="1"></path><path clip-path="url(#clip310)" d="M14.479 803.277 L19.3487 803.277 L19.3487 808.878 Q19.3487 812.029 20.6219 813.271 Q21.895 814.48 25.2052 814.48 L28.3562 814.48 L28.3562 804.836 L32.9077 804.836 L32.9077 814.48 L64.0042 814.48 L64.0042 820.369 L32.9077 820.369 L32.9077 825.97 L28.3562 825.97 L28.3562 820.369 L25.8736 820.369 Q19.9216 820.369 17.2162 817.599 Q14.479 814.83 14.479 808.815 L14.479 803.277 Z" fill="#000000" fill-rule="nonzero" fill-opacity="1"></path><path clip-path="url(#clip310)" d="M14.5426 784.307 Q21.8632 788.572 29.0246 790.641 Q36.186 792.71 43.5384 792.71 Q50.8908 792.71 58.1159 790.641 Q65.3091 788.54 72.5979 784.307 L72.5979 789.399 Q65.1182 794.174 57.8931 796.561 Q50.668 798.916 43.5384 798.916 Q36.4406 798.916 29.2474 796.561 Q22.0542 794.206 14.5426 789.399 L14.5426 784.307 Z" fill="#000000" fill-rule="nonzero" fill-opacity="1"></path><path clip-path="url(#clip310)" d="M28.3562 743.312 L45.7028 756.202 L64.0042 742.643 L64.0042 749.55 L49.9996 759.926 L64.0042 770.302 L64.0042 777.209 L45.3526 763.364 L28.3562 776.031 L28.3562 769.125 L41.0558 759.672 L28.3562 750.218 L28.3562 743.312 Z" fill="#000000" fill-rule="nonzero" fill-opacity="1"></path><path clip-path="url(#clip310)" d="M14.5426 735.291 L14.5426 730.198 Q22.0542 725.424 29.2474 723.069 Q36.4406 720.682 43.5384 720.682 Q50.668 720.682 57.8931 723.069 Q65.1182 725.424 72.5979 730.198 L72.5979 735.291 Q65.3091 731.058 58.1159 728.989 Q50.8908 726.888 43.5384 726.888 Q36.186 726.888 29.0246 728.989 Q21.8632 731.058 14.5426 735.291 Z" fill="#000000" fill-rule="nonzero" fill-opacity="1"></path><path clip-path="url(#clip310)" d="M392.453 12.096 L400.636 12.096 L400.636 65.6895 L430.086 65.6895 L430.086 72.576 L392.453 72.576 L392.453 12.096 Z" fill="#000000" fill-rule="nonzero" fill-opacity="1"></path><path clip-path="url(#clip310)" d="M454.472 32.4315 Q448.477 32.4315 444.993 37.1306 Q441.509 41.7891 441.509 49.9314 Q441.509 58.0738 444.953 62.7728 Q448.437 67.4314 454.472 67.4314 Q460.427 67.4314 463.911 62.7323 Q467.395 58.0333 467.395 49.9314 Q467.395 41.8701 463.911 37.1711 Q460.427 32.4315 454.472 32.4315 M454.472 26.1121 Q464.195 26.1121 469.744 32.4315 Q475.294 38.7509 475.294 49.9314 Q475.294 61.0714 469.744 67.4314 Q464.195 73.7508 454.472 73.7508 Q444.71 73.7508 439.16 67.4314 Q433.651 61.0714 433.651 49.9314 Q433.651 38.7509 439.16 32.4315 Q444.71 26.1121 454.472 26.1121 Z" fill="#000000" fill-rule="nonzero" fill-opacity="1"></path><path clip-path="url(#clip310)" d="M520.3 28.9478 L520.3 35.9153 Q517.14 34.1734 513.94 33.3227 Q510.78 32.4315 507.539 32.4315 Q500.288 32.4315 496.278 37.0496 Q492.267 41.6271 492.267 49.9314 Q492.267 58.2358 496.278 62.8538 Q500.288 67.4314 507.539 67.4314 Q510.78 67.4314 513.94 66.5807 Q517.14 65.6895 520.3 63.9476 L520.3 70.8341 Q517.18 72.2924 513.818 73.0216 Q510.496 73.7508 506.729 73.7508 Q496.48 73.7508 490.444 67.3098 Q484.409 60.8689 484.409 49.9314 Q484.409 38.832 490.485 32.472 Q496.602 26.1121 507.215 26.1121 Q510.658 26.1121 513.94 26.8413 Q517.221 27.5299 520.3 28.9478 Z" fill="#000000" fill-rule="nonzero" fill-opacity="1"></path><path clip-path="url(#clip310)" d="M553.882 49.7694 Q544.848 49.7694 541.364 51.8354 Q537.88 53.9013 537.88 58.8839 Q537.88 62.8538 540.473 65.2034 Q543.106 67.5124 547.603 67.5124 Q553.801 67.5124 557.527 63.1374 Q561.295 58.7219 561.295 51.4303 L561.295 49.7694 L553.882 49.7694 M568.748 46.6907 L568.748 72.576 L561.295 72.576 L561.295 65.6895 Q558.743 69.8214 554.935 71.8063 Q551.127 73.7508 545.618 73.7508 Q538.65 73.7508 534.518 69.8619 Q530.427 65.9325 530.427 59.3701 Q530.427 51.7138 535.531 47.825 Q540.676 43.9361 550.843 43.9361 L561.295 43.9361 L561.295 43.2069 Q561.295 38.0623 557.892 35.2672 Q554.53 32.4315 548.413 32.4315 Q544.524 32.4315 540.838 33.3632 Q537.151 34.295 533.749 36.1584 L533.749 29.2718 Q537.84 27.692 541.688 26.9223 Q545.537 26.1121 549.183 26.1121 Q559.026 26.1121 563.887 31.2163 Q568.748 36.3204 568.748 46.6907 Z" fill="#000000" fill-rule="nonzero" fill-opacity="1"></path><path clip-path="url(#clip310)" d="M584.101 9.54393 L591.555 9.54393 L591.555 72.576 L584.101 72.576 L584.101 9.54393 Z" fill="#000000" fill-rule="nonzero" fill-opacity="1"></path><path clip-path="url(#clip310)" d="M633.846 12.096 L646.04 12.096 L661.474 53.2532 L676.989 12.096 L689.182 12.096 L689.182 72.576 L681.201 72.576 L681.201 19.4686 L665.605 60.9499 L657.382 60.9499 L641.786 19.4686 L641.786 72.576 L633.846 72.576 L633.846 12.096 Z" fill="#000000" fill-rule="nonzero" fill-opacity="1"></path><path clip-path="url(#clip310)" d="M705.102 27.2059 L712.555 27.2059 L712.555 72.576 L705.102 72.576 L705.102 27.2059 M705.102 9.54393 L712.555 9.54393 L712.555 18.9825 L705.102 18.9825 L705.102 9.54393 Z" fill="#000000" fill-rule="nonzero" fill-opacity="1"></path><path clip-path="url(#clip310)" d="M765.865 45.1919 L765.865 72.576 L758.412 72.576 L758.412 45.4349 Q758.412 38.994 755.9 35.7938 Q753.389 32.5936 748.365 32.5936 Q742.33 32.5936 738.846 36.4419 Q735.362 40.2903 735.362 46.9338 L735.362 72.576 L727.868 72.576 L727.868 27.2059 L735.362 27.2059 L735.362 34.2544 Q738.036 30.163 741.641 28.1376 Q745.287 26.1121 750.026 26.1121 Q757.845 26.1121 761.855 30.9732 Q765.865 35.7938 765.865 45.1919 Z" fill="#000000" fill-rule="nonzero" fill-opacity="1"></path><path clip-path="url(#clip310)" d="M780.732 27.2059 L788.186 27.2059 L788.186 72.576 L780.732 72.576 L780.732 27.2059 M780.732 9.54393 L788.186 9.54393 L788.186 18.9825 L780.732 18.9825 L780.732 9.54393 Z" fill="#000000" fill-rule="nonzero" fill-opacity="1"></path><path clip-path="url(#clip310)" d="M839.106 35.9153 Q841.901 30.8922 845.79 28.5022 Q849.679 26.1121 854.945 26.1121 Q862.034 26.1121 865.882 31.0947 Q869.731 36.0368 869.731 45.1919 L869.731 72.576 L862.236 72.576 L862.236 45.4349 Q862.236 38.913 859.927 35.7533 Q857.618 32.5936 852.879 32.5936 Q847.086 32.5936 843.724 36.4419 Q840.362 40.2903 840.362 46.9338 L840.362 72.576 L832.867 72.576 L832.867 45.4349 Q832.867 38.8725 830.558 35.7533 Q828.249 32.5936 823.429 32.5936 Q817.717 32.5936 814.355 36.4824 Q810.992 40.3308 810.992 46.9338 L810.992 72.576 L803.498 72.576 L803.498 27.2059 L810.992 27.2059 L810.992 34.2544 Q813.545 30.082 817.109 28.0971 Q820.674 26.1121 825.576 26.1121 Q830.518 26.1121 833.961 28.6237 Q837.445 31.1352 839.106 35.9153 Z" fill="#000000" fill-rule="nonzero" fill-opacity="1"></path><path clip-path="url(#clip310)" d="M884.597 27.2059 L892.051 27.2059 L892.051 72.576 L884.597 72.576 L884.597 27.2059 M884.597 9.54393 L892.051 9.54393 L892.051 18.9825 L884.597 18.9825 L884.597 9.54393 Z" fill="#000000" fill-rule="nonzero" fill-opacity="1"></path><path clip-path="url(#clip310)" d="M904.406 27.2059 L939.811 27.2059 L939.811 34.0114 L911.779 66.6212 L939.811 66.6212 L939.811 72.576 L903.394 72.576 L903.394 65.7705 L931.426 33.1607 L904.406 33.1607 L904.406 27.2059 Z" fill="#000000" fill-rule="nonzero" fill-opacity="1"></path><path clip-path="url(#clip310)" d="M990.002 48.0275 L990.002 51.6733 L955.731 51.6733 Q956.217 59.3701 960.349 63.421 Q964.522 67.4314 971.935 67.4314 Q976.229 67.4314 980.239 66.3781 Q984.29 65.3249 988.26 63.2184 L988.26 70.267 Q984.25 71.9684 980.037 72.8596 Q975.824 73.7508 971.489 73.7508 Q960.633 73.7508 954.273 67.4314 Q947.954 61.1119 947.954 50.3365 Q947.954 39.1965 953.949 32.6746 Q959.985 26.1121 970.193 26.1121 Q979.348 26.1121 984.655 32.0264 Q990.002 37.9003 990.002 48.0275 M982.548 45.84 Q982.467 39.7232 979.105 36.0774 Q975.783 32.4315 970.274 32.4315 Q964.036 32.4315 960.268 35.9558 Q956.541 39.4801 955.974 45.8805 L982.548 45.84 Z" fill="#000000" fill-rule="nonzero" fill-opacity="1"></path><path clip-path="url(#clip310)" d="M1028.53 34.1734 Q1027.27 33.4443 1025.77 33.1202 Q1024.31 32.7556 1022.53 32.7556 Q1016.21 32.7556 1012.81 36.8875 Q1009.45 40.9789 1009.45 48.6757 L1009.45 72.576 L1001.95 72.576 L1001.95 27.2059 L1009.45 27.2059 L1009.45 34.2544 Q1011.8 30.1225 1015.56 28.1376 Q1019.33 26.1121 1024.72 26.1121 Q1025.49 26.1121 1026.42 26.2337 Q1027.35 26.3147 1028.49 26.5172 L1028.53 34.1734 Z" fill="#000000" fill-rule="nonzero" fill-opacity="1"></path><path clip-path="url(#clip310)" d="M1080.3 32.4315 Q1074.3 32.4315 1070.82 37.1306 Q1067.33 41.7891 1067.33 49.9314 Q1067.33 58.0738 1070.78 62.7728 Q1074.26 67.4314 1080.3 67.4314 Q1086.25 67.4314 1089.74 62.7323 Q1093.22 58.0333 1093.22 49.9314 Q1093.22 41.8701 1089.74 37.1711 Q1086.25 32.4315 1080.3 32.4315 M1080.3 26.1121 Q1090.02 26.1121 1095.57 32.4315 Q1101.12 38.7509 1101.12 49.9314 Q1101.12 61.0714 1095.57 67.4314 Q1090.02 73.7508 1080.3 73.7508 Q1070.53 73.7508 1064.98 67.4314 Q1059.47 61.0714 1059.47 49.9314 Q1059.47 38.7509 1064.98 32.4315 Q1070.53 26.1121 1080.3 26.1121 Z" fill="#000000" fill-rule="nonzero" fill-opacity="1"></path><path clip-path="url(#clip310)" d="M1136.44 9.54393 L1136.44 15.7418 L1129.31 15.7418 Q1125.3 15.7418 1123.72 17.3622 Q1122.18 18.9825 1122.18 23.1955 L1122.18 27.2059 L1134.46 27.2059 L1134.46 32.9987 L1122.18 32.9987 L1122.18 72.576 L1114.69 72.576 L1114.69 32.9987 L1107.56 32.9987 L1107.56 27.2059 L1114.69 27.2059 L1114.69 24.0462 Q1114.69 16.471 1118.21 13.0277 Q1121.74 9.54393 1129.39 9.54393 L1136.44 9.54393 Z" fill="#000000" fill-rule="nonzero" fill-opacity="1"></path><path clip-path="url(#clip310)" d="M1198.91 49.3643 Q1198.91 41.2625 1195.54 36.8065 Q1192.22 32.3505 1186.19 32.3505 Q1180.19 32.3505 1176.83 36.8065 Q1173.51 41.2625 1173.51 49.3643 Q1173.51 57.4256 1176.83 61.8816 Q1180.19 66.3376 1186.19 66.3376 Q1192.22 66.3376 1195.54 61.8816 Q1198.91 57.4256 1198.91 49.3643 M1206.36 66.9452 Q1206.36 78.5308 1201.22 84.1616 Q1196.07 89.8329 1185.46 89.8329 Q1181.53 89.8329 1178.04 89.2252 Q1174.56 88.6581 1171.28 87.4428 L1171.28 80.1917 Q1174.56 81.9741 1177.76 82.8248 Q1180.96 83.6755 1184.28 83.6755 Q1191.62 83.6755 1195.26 79.8271 Q1198.91 76.0193 1198.91 68.282 L1198.91 64.5957 Q1196.6 68.6061 1192.99 70.5911 Q1189.39 72.576 1184.36 72.576 Q1176.02 72.576 1170.92 66.2161 Q1165.81 59.8562 1165.81 49.3643 Q1165.81 38.832 1170.92 32.472 Q1176.02 26.1121 1184.36 26.1121 Q1189.39 26.1121 1192.99 28.0971 Q1196.6 30.082 1198.91 34.0924 L1198.91 27.2059 L1206.36 27.2059 L1206.36 66.9452 Z" fill="#000000" fill-rule="nonzero" fill-opacity="1"></path><path clip-path="url(#clip310)" d="M1239.62 9.62495 Q1234.19 18.942 1231.56 28.0566 Q1228.92 37.1711 1228.92 46.5287 Q1228.92 55.8863 1231.56 65.0818 Q1234.23 74.2369 1239.62 83.5134 L1233.14 83.5134 Q1227.06 73.9938 1224.02 64.7983 Q1221.02 55.6027 1221.02 46.5287 Q1221.02 37.4952 1224.02 28.3401 Q1227.02 19.1851 1233.14 9.62495 L1239.62 9.62495 Z" fill="#000000" fill-rule="nonzero" fill-opacity="1"></path><path clip-path="url(#clip310)" d="M1291.79 27.2059 L1275.39 49.2833 L1292.64 72.576 L1283.85 72.576 L1270.65 54.752 L1257.44 72.576 L1248.65 72.576 L1266.27 48.8377 L1250.15 27.2059 L1258.94 27.2059 L1270.97 43.369 L1283 27.2059 L1291.79 27.2059 Z" fill="#000000" fill-rule="nonzero" fill-opacity="1"></path><path clip-path="url(#clip310)" d="M1302 9.62495 L1308.48 9.62495 Q1314.56 19.1851 1317.56 28.3401 Q1320.6 37.4952 1320.6 46.5287 Q1320.6 55.6027 1317.56 64.7983 Q1314.56 73.9938 1308.48 83.5134 L1302 83.5134 Q1307.39 74.2369 1310.02 65.0818 Q1312.7 55.8863 1312.7 46.5287 Q1312.7 37.1711 1310.02 28.0566 Q1307.39 18.942 1302 9.62495 Z" fill="#000000" fill-rule="nonzero" fill-opacity="1"></path><path clip-path="url(#clip310)" d="M1362.89 34.9026 L1414.82 34.9026 L1414.82 41.7081 L1362.89 41.7081 L1362.89 34.9026 M1362.89 51.4303 L1414.82 51.4303 L1414.82 58.3168 L1362.89 58.3168 L1362.89 51.4303 Z" fill="#000000" fill-rule="nonzero" fill-opacity="1"></path><path clip-path="url(#clip310)" d="M1495.51 27.2059 L1479.11 49.2833 L1496.36 72.576 L1487.57 72.576 L1474.37 54.752 L1461.16 72.576 L1452.37 72.576 L1469.99 48.8377 L1453.87 27.2059 L1462.66 27.2059 L1474.69 43.369 L1486.72 27.2059 L1495.51 27.2059 Z" fill="#000000" fill-rule="nonzero" fill-opacity="1"></path><path clip-path="url(#clip310)" d="M1537.81 12.096 L1559.8 34.6595 L1551.66 34.6595 L1533.84 18.6585 L1516.01 34.6595 L1507.87 34.6595 L1529.87 12.096 L1537.81 12.096 Z" fill="#000000" fill-rule="nonzero" fill-opacity="1"></path><path clip-path="url(#clip310)" d="M1599.95 19.2256 L1579.29 51.5113 L1599.95 51.5113 L1599.95 19.2256 M1597.8 12.096 L1608.09 12.096 L1608.09 51.5113 L1616.72 51.5113 L1616.72 58.3168 L1608.09 58.3168 L1608.09 72.576 L1599.95 72.576 L1599.95 58.3168 L1572.64 58.3168 L1572.64 50.4176 L1597.8 12.096 Z" fill="#000000" fill-rule="nonzero" fill-opacity="1"></path><path clip-path="url(#clip310)" d="M1651.8 46.5287 L1673.63 46.5287 L1673.63 53.1722 L1651.8 53.1722 L1651.8 46.5287 Z" fill="#000000" fill-rule="nonzero" fill-opacity="1"></path><path clip-path="url(#clip310)" d="M1714.34 65.6895 L1727.71 65.6895 L1727.71 19.5497 L1713.17 22.4663 L1713.17 15.0127 L1727.63 12.096 L1735.81 12.096 L1735.81 65.6895 L1749.18 65.6895 L1749.18 72.576 L1714.34 72.576 L1714.34 65.6895 Z" fill="#000000" fill-rule="nonzero" fill-opacity="1"></path><path clip-path="url(#clip310)" d="M1772.76 65.6895 L1801.32 65.6895 L1801.32 72.576 L1762.91 72.576 L1762.91 65.6895 Q1767.57 60.8689 1775.59 52.7671 Q1783.66 44.6248 1785.72 42.2752 Q1789.65 37.8598 1791.19 34.8216 Q1792.77 31.7429 1792.77 28.7857 Q1792.77 23.9651 1789.37 20.927 Q1786 17.8888 1780.58 17.8888 Q1776.73 17.8888 1772.43 19.2256 Q1768.18 20.5624 1763.32 23.2765 L1763.32 15.0127 Q1768.26 13.0277 1772.56 12.015 Q1776.85 11.0023 1780.41 11.0023 Q1789.81 11.0023 1795.4 15.7013 Q1800.99 20.4004 1800.99 28.2591 Q1800.99 31.9859 1799.58 35.3482 Q1798.2 38.6699 1794.51 43.2069 Q1793.5 44.3817 1788.07 50.0125 Q1782.64 55.6027 1772.76 65.6895 Z" fill="#000000" fill-rule="nonzero" fill-opacity="1"></path><path clip-path="url(#clip310)" d="M1855.15 27.2059 L1838.75 49.2833 L1856 72.576 L1847.21 72.576 L1834.01 54.752 L1820.8 72.576 L1812.01 72.576 L1829.63 48.8377 L1813.51 27.2059 L1822.3 27.2059 L1834.33 43.369 L1846.36 27.2059 L1855.15 27.2059 Z" fill="#000000" fill-rule="nonzero" fill-opacity="1"></path><path clip-path="url(#clip310)" d="M1897.44 12.096 L1919.44 34.6595 L1911.3 34.6595 L1893.48 18.6585 L1875.65 34.6595 L1867.51 34.6595 L1889.51 12.096 L1897.44 12.096 Z" fill="#000000" fill-rule="nonzero" fill-opacity="1"></path><path clip-path="url(#clip310)" d="M1944.15 65.6895 L1972.71 65.6895 L1972.71 72.576 L1934.31 72.576 L1934.31 65.6895 Q1938.97 60.8689 1946.99 52.7671 Q1955.05 44.6248 1957.11 42.2752 Q1961.04 37.8598 1962.58 34.8216 Q1964.16 31.7429 1964.16 28.7857 Q1964.16 23.9651 1960.76 20.927 Q1957.4 17.8888 1951.97 17.8888 Q1948.12 17.8888 1943.83 19.2256 Q1939.57 20.5624 1934.71 23.2765 L1934.71 15.0127 Q1939.66 13.0277 1943.95 12.015 Q1948.24 11.0023 1951.81 11.0023 Q1961.21 11.0023 1966.8 15.7013 Q1972.39 20.4004 1972.39 28.2591 Q1972.39 31.9859 1970.97 35.3482 Q1969.59 38.6699 1965.91 43.2069 Q1964.89 44.3817 1959.46 50.0125 Q1954.04 55.6027 1944.15 65.6895 Z" fill="#000000" fill-rule="nonzero" fill-opacity="1"></path><path clip-path="url(#clip310)" d="M2045.55 20.5624 L2045.55 43.1259 L2068.11 43.1259 L2068.11 50.0125 L2045.55 50.0125 L2045.55 72.576 L2038.74 72.576 L2038.74 50.0125 L2016.18 50.0125 L2016.18 43.1259 L2038.74 43.1259 L2038.74 20.5624 L2045.55 20.5624 Z" fill="#000000" fill-rule="nonzero" fill-opacity="1"></path><path clip-path="url(#clip310)" d="M2119.19 65.6895 L2147.75 65.6895 L2147.75 72.576 L2109.35 72.576 L2109.35 65.6895 Q2114.01 60.8689 2122.03 52.7671 Q2130.09 44.6248 2132.15 42.2752 Q2136.08 37.8598 2137.62 34.8216 Q2139.2 31.7429 2139.2 28.7857 Q2139.2 23.9651 2135.8 20.927 Q2132.44 17.8888 2127.01 17.8888 Q2123.16 17.8888 2118.87 19.2256 Q2114.61 20.5624 2109.75 23.2765 L2109.75 15.0127 Q2114.69 13.0277 2118.99 12.015 Q2123.28 11.0023 2126.85 11.0023 Q2136.25 11.0023 2141.84 15.7013 Q2147.43 20.4004 2147.43 28.2591 Q2147.43 31.9859 2146.01 35.3482 Q2144.63 38.6699 2140.94 43.2069 Q2139.93 44.3817 2134.5 50.0125 Q2129.08 55.6027 2119.19 65.6895 Z" fill="#000000" fill-rule="nonzero" fill-opacity="1"></path><path clip-path="url(#clip310)" d="M2201.59 27.2059 L2185.18 49.2833 L2202.44 72.576 L2193.65 72.576 L2180.44 54.752 L2167.24 72.576 L2158.44 72.576 L2176.07 48.8377 L2159.94 27.2059 L2168.73 27.2059 L2180.77 43.369 L2192.8 27.2059 L2201.59 27.2059 Z" fill="#000000" fill-rule="nonzero" fill-opacity="1"></path><polyline clip-path="url(#clip312)" style="stroke:#009af9; stroke-linecap:round; stroke-linejoin:round; stroke-width:4; stroke-opacity:1; fill:none" points="301.869,1149.12 335.055,1238.56 368.241,1304.99 401.427,1350.48 434.613,1376.98 467.799,1386.4 500.984,1380.56 534.17,1361.24 567.356,1330.1 600.542,1288.78 633.728,1238.8 666.914,1181.64 700.1,1118.7 733.286,1051.31 766.471,980.715 799.657,908.108 832.843,834.598 866.029,761.225 899.215,688.959 932.401,618.695 965.587,551.26 998.772,487.405 1031.96,427.814 1065.14,373.095 1098.33,323.786 1131.52,280.354 1164.7,243.194 1197.89,212.629 1231.07,188.909 1264.26,172.214 1297.45,162.651 1330.63,160.256 1363.82,164.994 1397,176.757 1430.19,195.366 1463.37,220.568 1496.56,252.043 1529.75,289.394 1562.93,332.156 1596.12,379.791 1629.3,431.688 1662.49,487.166 1695.68,545.473 1728.86,605.782 1762.05,667.197 1795.23,728.75 1828.42,789.399 1861.61,848.035 1894.79,903.471 1927.98,954.454 1961.16,999.655 1994.35,1037.68 2027.53,1067.05 2060.72,1086.22 2093.91,1093.59 2127.09,1087.47 2160.28,1066.09 2193.46,1027.63 2226.65,970.192 2259.84,891.798 2293.02,790.404 "></polyline>
<circle clip-path="url(#clip312)" cx="467.799" cy="1386.4" r="14.4" fill="#ff0000" fill-rule="evenodd" fill-opacity="1" stroke="#000000" stroke-opacity="1" stroke-width="3.2"></circle>
<circle clip-path="url(#clip312)" cx="2093.91" cy="1093.59" r="14.4" fill="#ffa500" fill-rule="evenodd" fill-opacity="1" stroke="#000000" stroke-opacity="1" stroke-width="3.2"></circle>
<path clip-path="url(#clip310)" d="M1018.94 374.156 L2282.4 374.156 L2282.4 166.796 L1018.94 166.796  Z" fill="#ffffff" fill-rule="evenodd" fill-opacity="1"></path>
<polyline clip-path="url(#clip310)" style="stroke:#000000; stroke-linecap:round; stroke-linejoin:round; stroke-width:4; stroke-opacity:1; fill:none" points="1018.94,374.156 2282.4,374.156 2282.4,166.796 1018.94,166.796 1018.94,374.156 "></polyline>
<polyline clip-path="url(#clip310)" style="stroke:#009af9; stroke-linecap:round; stroke-linejoin:round; stroke-width:4; stroke-opacity:1; fill:none" points="1042.39,218.636 1183.1,218.636 "></polyline>
<path clip-path="url(#clip310)" d="M1225.46 222.652 Q1225.46 218.022 1223.54 215.476 Q1221.64 212.93 1218.19 212.93 Q1214.77 212.93 1212.85 215.476 Q1210.95 218.022 1210.95 222.652 Q1210.95 227.258 1212.85 229.805 Q1214.77 232.351 1218.19 232.351 Q1221.64 232.351 1223.54 229.805 Q1225.46 227.258 1225.46 222.652 M1229.72 232.698 Q1229.72 239.318 1226.78 242.536 Q1223.84 245.777 1217.78 245.777 Q1215.53 245.777 1213.54 245.43 Q1211.55 245.105 1209.67 244.411 L1209.67 240.268 Q1211.55 241.286 1213.38 241.772 Q1215.21 242.258 1217.1 242.258 Q1221.29 242.258 1223.38 240.059 Q1225.46 237.883 1225.46 233.462 L1225.46 231.356 Q1224.14 233.647 1222.08 234.781 Q1220.02 235.916 1217.15 235.916 Q1212.38 235.916 1209.47 232.281 Q1206.55 228.647 1206.55 222.652 Q1206.55 216.633 1209.47 212.999 Q1212.38 209.365 1217.15 209.365 Q1220.02 209.365 1222.08 210.499 Q1224.14 211.633 1225.46 213.925 L1225.46 209.99 L1229.72 209.99 L1229.72 232.698 Z" fill="#000000" fill-rule="nonzero" fill-opacity="1"></path><path clip-path="url(#clip310)" d="M1248.72 199.944 Q1245.62 205.268 1244.12 210.476 Q1242.61 215.684 1242.61 221.032 Q1242.61 226.379 1244.12 231.633 Q1245.65 236.865 1248.72 242.166 L1245.02 242.166 Q1241.55 236.726 1239.81 231.471 Q1238.1 226.217 1238.1 221.032 Q1238.1 215.87 1239.81 210.638 Q1241.53 205.407 1245.02 199.944 L1248.72 199.944 Z" fill="#000000" fill-rule="nonzero" fill-opacity="1"></path><path clip-path="url(#clip310)" d="M1278.54 209.99 L1269.16 222.606 L1279.03 235.916 L1274 235.916 L1266.46 225.731 L1258.91 235.916 L1253.89 235.916 L1263.96 222.351 L1254.74 209.99 L1259.77 209.99 L1266.64 219.226 L1273.52 209.99 L1278.54 209.99 Z" fill="#000000" fill-rule="nonzero" fill-opacity="1"></path><path clip-path="url(#clip310)" d="M1284.37 199.944 L1288.08 199.944 Q1291.55 205.407 1293.26 210.638 Q1295 215.87 1295 221.032 Q1295 226.217 1293.26 231.471 Q1291.55 236.726 1288.08 242.166 L1284.37 242.166 Q1287.45 236.865 1288.96 231.633 Q1290.48 226.379 1290.48 221.032 Q1290.48 215.684 1288.96 210.476 Q1287.45 205.268 1284.37 199.944 Z" fill="#000000" fill-rule="nonzero" fill-opacity="1"></path><path clip-path="url(#clip310)" d="M1319.16 214.388 L1348.84 214.388 L1348.84 218.277 L1319.16 218.277 L1319.16 214.388 M1319.16 223.832 L1348.84 223.832 L1348.84 227.768 L1319.16 227.768 L1319.16 223.832 Z" fill="#000000" fill-rule="nonzero" fill-opacity="1"></path><path clip-path="url(#clip310)" d="M1394.95 209.99 L1385.58 222.606 L1395.44 235.916 L1390.41 235.916 L1382.87 225.731 L1375.32 235.916 L1370.3 235.916 L1380.37 222.351 L1371.15 209.99 L1376.18 209.99 L1383.05 219.226 L1389.93 209.99 L1394.95 209.99 Z" fill="#000000" fill-rule="nonzero" fill-opacity="1"></path><path clip-path="url(#clip310)" d="M1419.12 201.356 L1431.69 214.249 L1427.03 214.249 L1416.85 205.106 L1406.66 214.249 L1402.01 214.249 L1414.58 201.356 L1419.12 201.356 Z" fill="#000000" fill-rule="nonzero" fill-opacity="1"></path><path clip-path="url(#clip310)" d="M1454.63 205.43 L1442.82 223.879 L1454.63 223.879 L1454.63 205.43 M1453.4 201.356 L1459.28 201.356 L1459.28 223.879 L1464.21 223.879 L1464.21 227.768 L1459.28 227.768 L1459.28 235.916 L1454.63 235.916 L1454.63 227.768 L1439.02 227.768 L1439.02 223.254 L1453.4 201.356 Z" fill="#000000" fill-rule="nonzero" fill-opacity="1"></path><path clip-path="url(#clip310)" d="M1484.26 221.032 L1496.73 221.032 L1496.73 224.828 L1484.26 224.828 L1484.26 221.032 Z" fill="#000000" fill-rule="nonzero" fill-opacity="1"></path><path clip-path="url(#clip310)" d="M1525.07 209.99 L1515.69 222.606 L1525.55 235.916 L1520.53 235.916 L1512.98 225.731 L1505.44 235.916 L1500.41 235.916 L1510.48 222.351 L1501.27 209.99 L1506.29 209.99 L1513.17 219.226 L1520.04 209.99 L1525.07 209.99 Z" fill="#000000" fill-rule="nonzero" fill-opacity="1"></path><path clip-path="url(#clip310)" d="M1549.23 201.356 L1561.8 214.249 L1557.15 214.249 L1546.96 205.106 L1536.78 214.249 L1532.13 214.249 L1544.7 201.356 L1549.23 201.356 Z" fill="#000000" fill-rule="nonzero" fill-opacity="1"></path><path clip-path="url(#clip310)" d="M1575.92 231.981 L1592.24 231.981 L1592.24 235.916 L1570.3 235.916 L1570.3 231.981 Q1572.96 229.226 1577.54 224.596 Q1582.15 219.944 1583.33 218.601 Q1585.57 216.078 1586.45 214.342 Q1587.36 212.583 1587.36 210.893 Q1587.36 208.138 1585.41 206.402 Q1583.49 204.666 1580.39 204.666 Q1578.19 204.666 1575.74 205.43 Q1573.31 206.194 1570.53 207.745 L1570.53 203.022 Q1573.35 201.888 1575.81 201.309 Q1578.26 200.731 1580.3 200.731 Q1585.67 200.731 1588.86 203.416 Q1592.06 206.101 1592.06 210.592 Q1592.06 212.721 1591.25 214.643 Q1590.46 216.541 1588.35 219.133 Q1587.77 219.805 1584.67 223.022 Q1581.57 226.217 1575.92 231.981 Z" fill="#000000" fill-rule="nonzero" fill-opacity="1"></path><path clip-path="url(#clip310)" d="M1633.86 206.194 L1633.86 219.087 L1646.75 219.087 L1646.75 223.022 L1633.86 223.022 L1633.86 235.916 L1629.97 235.916 L1629.97 223.022 L1617.08 223.022 L1617.08 219.087 L1629.97 219.087 L1629.97 206.194 L1633.86 206.194 Z" fill="#000000" fill-rule="nonzero" fill-opacity="1"></path><path clip-path="url(#clip310)" d="M1684.76 205.43 L1672.96 223.879 L1684.76 223.879 L1684.76 205.43 M1683.54 201.356 L1689.42 201.356 L1689.42 223.879 L1694.35 223.879 L1694.35 227.768 L1689.42 227.768 L1689.42 235.916 L1684.76 235.916 L1684.76 227.768 L1669.16 227.768 L1669.16 223.254 L1683.54 201.356 Z" fill="#000000" fill-rule="nonzero" fill-opacity="1"></path><circle clip-path="url(#clip310)" cx="1112.74" cy="270.476" r="20.48" fill="#ff0000" fill-rule="evenodd" fill-opacity="1" stroke="#000000" stroke-opacity="1" stroke-width="4.55111"></circle>
<path clip-path="url(#clip310)" d="M1206.55 253.196 L1211.22 253.196 L1211.22 283.821 L1228.05 283.821 L1228.05 287.756 L1206.55 287.756 L1206.55 253.196 Z" fill="#000000" fill-rule="nonzero" fill-opacity="1"></path><path clip-path="url(#clip310)" d="M1241.99 264.816 Q1238.56 264.816 1236.57 267.501 Q1234.58 270.163 1234.58 274.816 Q1234.58 279.469 1236.55 282.154 Q1238.54 284.816 1241.99 284.816 Q1245.39 284.816 1247.38 282.131 Q1249.37 279.446 1249.37 274.816 Q1249.37 270.21 1247.38 267.524 Q1245.39 264.816 1241.99 264.816 M1241.99 261.205 Q1247.54 261.205 1250.72 264.816 Q1253.89 268.427 1253.89 274.816 Q1253.89 281.182 1250.72 284.816 Q1247.54 288.427 1241.99 288.427 Q1236.41 288.427 1233.24 284.816 Q1230.09 281.182 1230.09 274.816 Q1230.09 268.427 1233.24 264.816 Q1236.41 261.205 1241.99 261.205 Z" fill="#000000" fill-rule="nonzero" fill-opacity="1"></path><path clip-path="url(#clip310)" d="M1279.6 262.825 L1279.6 266.807 Q1277.8 265.811 1275.97 265.325 Q1274.16 264.816 1272.31 264.816 Q1268.17 264.816 1265.88 267.455 Q1263.59 270.071 1263.59 274.816 Q1263.59 279.561 1265.88 282.2 Q1268.17 284.816 1272.31 284.816 Q1274.16 284.816 1275.97 284.33 Q1277.8 283.821 1279.6 282.825 L1279.6 286.76 Q1277.82 287.594 1275.9 288.01 Q1274 288.427 1271.85 288.427 Q1265.99 288.427 1262.54 284.746 Q1259.09 281.066 1259.09 274.816 Q1259.09 268.473 1262.57 264.839 Q1266.06 261.205 1272.13 261.205 Q1274.09 261.205 1275.97 261.622 Q1277.84 262.015 1279.6 262.825 Z" fill="#000000" fill-rule="nonzero" fill-opacity="1"></path><path clip-path="url(#clip310)" d="M1298.79 274.723 Q1293.63 274.723 1291.64 275.904 Q1289.65 277.084 1289.65 279.932 Q1289.65 282.2 1291.13 283.543 Q1292.64 284.862 1295.21 284.862 Q1298.75 284.862 1300.88 282.362 Q1303.03 279.839 1303.03 275.672 L1303.03 274.723 L1298.79 274.723 M1307.29 272.964 L1307.29 287.756 L1303.03 287.756 L1303.03 283.821 Q1301.57 286.182 1299.4 287.316 Q1297.22 288.427 1294.07 288.427 Q1290.09 288.427 1287.73 286.205 Q1285.39 283.959 1285.39 280.209 Q1285.39 275.834 1288.31 273.612 Q1291.25 271.39 1297.06 271.39 L1303.03 271.39 L1303.03 270.973 Q1303.03 268.034 1301.09 266.436 Q1299.16 264.816 1295.67 264.816 Q1293.45 264.816 1291.34 265.348 Q1289.23 265.881 1287.29 266.946 L1287.29 263.01 Q1289.63 262.108 1291.83 261.668 Q1294.03 261.205 1296.11 261.205 Q1301.73 261.205 1304.51 264.122 Q1307.29 267.038 1307.29 272.964 Z" fill="#000000" fill-rule="nonzero" fill-opacity="1"></path><path clip-path="url(#clip310)" d="M1316.06 251.737 L1320.32 251.737 L1320.32 287.756 L1316.06 287.756 L1316.06 251.737 Z" fill="#000000" fill-rule="nonzero" fill-opacity="1"></path><path clip-path="url(#clip310)" d="M1344.49 253.196 L1351.46 253.196 L1360.27 276.714 L1369.14 253.196 L1376.11 253.196 L1376.11 287.756 L1371.55 287.756 L1371.55 257.409 L1362.64 281.112 L1357.94 281.112 L1349.02 257.409 L1349.02 287.756 L1344.49 287.756 L1344.49 253.196 Z" fill="#000000" fill-rule="nonzero" fill-opacity="1"></path><path clip-path="url(#clip310)" d="M1385.21 261.83 L1389.46 261.83 L1389.46 287.756 L1385.21 287.756 L1385.21 261.83 M1385.21 251.737 L1389.46 251.737 L1389.46 257.131 L1385.21 257.131 L1385.21 251.737 Z" fill="#000000" fill-rule="nonzero" fill-opacity="1"></path><path clip-path="url(#clip310)" d="M1419.93 272.108 L1419.93 287.756 L1415.67 287.756 L1415.67 272.247 Q1415.67 268.566 1414.23 266.737 Q1412.8 264.909 1409.93 264.909 Q1406.48 264.909 1404.49 267.108 Q1402.5 269.307 1402.5 273.103 L1402.5 287.756 L1398.21 287.756 L1398.21 261.83 L1402.5 261.83 L1402.5 265.858 Q1404.02 263.52 1406.08 262.362 Q1408.17 261.205 1410.88 261.205 Q1415.34 261.205 1417.64 263.983 Q1419.93 266.737 1419.93 272.108 Z" fill="#000000" fill-rule="nonzero" fill-opacity="1"></path><path clip-path="url(#clip310)" d="M1428.42 261.83 L1432.68 261.83 L1432.68 287.756 L1428.42 287.756 L1428.42 261.83 M1428.42 251.737 L1432.68 251.737 L1432.68 257.131 L1428.42 257.131 L1428.42 251.737 Z" fill="#000000" fill-rule="nonzero" fill-opacity="1"></path><path clip-path="url(#clip310)" d="M1461.78 266.807 Q1463.38 263.936 1465.6 262.571 Q1467.82 261.205 1470.83 261.205 Q1474.88 261.205 1477.08 264.052 Q1479.28 266.876 1479.28 272.108 L1479.28 287.756 L1475 287.756 L1475 272.247 Q1475 268.52 1473.68 266.714 Q1472.36 264.909 1469.65 264.909 Q1466.34 264.909 1464.42 267.108 Q1462.5 269.307 1462.5 273.103 L1462.5 287.756 L1458.21 287.756 L1458.21 272.247 Q1458.21 268.497 1456.89 266.714 Q1455.58 264.909 1452.82 264.909 Q1449.56 264.909 1447.64 267.131 Q1445.71 269.33 1445.71 273.103 L1445.71 287.756 L1441.43 287.756 L1441.43 261.83 L1445.71 261.83 L1445.71 265.858 Q1447.17 263.473 1449.21 262.339 Q1451.25 261.205 1454.05 261.205 Q1456.87 261.205 1458.84 262.64 Q1460.83 264.075 1461.78 266.807 Z" fill="#000000" fill-rule="nonzero" fill-opacity="1"></path><path clip-path="url(#clip310)" d="M1487.77 261.83 L1492.03 261.83 L1492.03 287.756 L1487.77 287.756 L1487.77 261.83 M1487.77 251.737 L1492.03 251.737 L1492.03 257.131 L1487.77 257.131 L1487.77 251.737 Z" fill="#000000" fill-rule="nonzero" fill-opacity="1"></path><path clip-path="url(#clip310)" d="M1499.09 261.83 L1519.32 261.83 L1519.32 265.719 L1503.31 284.353 L1519.32 284.353 L1519.32 287.756 L1498.51 287.756 L1498.51 283.867 L1514.53 265.233 L1499.09 265.233 L1499.09 261.83 Z" fill="#000000" fill-rule="nonzero" fill-opacity="1"></path><path clip-path="url(#clip310)" d="M1548.01 273.728 L1548.01 275.811 L1528.42 275.811 Q1528.7 280.209 1531.06 282.524 Q1533.45 284.816 1537.68 284.816 Q1540.13 284.816 1542.43 284.214 Q1544.74 283.612 1547.01 282.409 L1547.01 286.436 Q1544.72 287.408 1542.31 287.918 Q1539.9 288.427 1537.43 288.427 Q1531.22 288.427 1527.59 284.816 Q1523.98 281.205 1523.98 275.047 Q1523.98 268.682 1527.4 264.955 Q1530.85 261.205 1536.69 261.205 Q1541.92 261.205 1544.95 264.585 Q1548.01 267.941 1548.01 273.728 M1543.75 272.478 Q1543.7 268.983 1541.78 266.899 Q1539.88 264.816 1536.73 264.816 Q1533.17 264.816 1531.01 266.83 Q1528.88 268.844 1528.56 272.501 L1543.75 272.478 Z" fill="#000000" fill-rule="nonzero" fill-opacity="1"></path><path clip-path="url(#clip310)" d="M1570.02 265.811 Q1569.3 265.395 1568.44 265.21 Q1567.61 265.001 1566.59 265.001 Q1562.98 265.001 1561.04 267.362 Q1559.12 269.7 1559.12 274.098 L1559.12 287.756 L1554.83 287.756 L1554.83 261.83 L1559.12 261.83 L1559.12 265.858 Q1560.46 263.497 1562.61 262.362 Q1564.76 261.205 1567.84 261.205 Q1568.28 261.205 1568.82 261.274 Q1569.35 261.321 1570 261.436 L1570.02 265.811 Z" fill="#000000" fill-rule="nonzero" fill-opacity="1"></path><path clip-path="url(#clip310)" d="M1589.56 261.83 L1593.82 261.83 L1593.82 287.756 L1589.56 287.756 L1589.56 261.83 M1589.56 251.737 L1593.82 251.737 L1593.82 257.131 L1589.56 257.131 L1589.56 251.737 Z" fill="#000000" fill-rule="nonzero" fill-opacity="1"></path><path clip-path="url(#clip310)" d="M1624.28 272.108 L1624.28 287.756 L1620.02 287.756 L1620.02 272.247 Q1620.02 268.566 1618.58 266.737 Q1617.15 264.909 1614.28 264.909 Q1610.83 264.909 1608.84 267.108 Q1606.85 269.307 1606.85 273.103 L1606.85 287.756 L1602.57 287.756 L1602.57 261.83 L1606.85 261.83 L1606.85 265.858 Q1608.38 263.52 1610.44 262.362 Q1612.52 261.205 1615.23 261.205 Q1619.69 261.205 1621.99 263.983 Q1624.28 266.737 1624.28 272.108 Z" fill="#000000" fill-rule="nonzero" fill-opacity="1"></path><path clip-path="url(#clip310)" d="M1669.39 272.108 L1669.39 287.756 L1665.13 287.756 L1665.13 272.247 Q1665.13 268.566 1663.7 266.737 Q1662.26 264.909 1659.39 264.909 Q1655.94 264.909 1653.95 267.108 Q1651.96 269.307 1651.96 273.103 L1651.96 287.756 L1647.68 287.756 L1647.68 261.83 L1651.96 261.83 L1651.96 265.858 Q1653.49 263.52 1655.55 262.362 Q1657.63 261.205 1660.34 261.205 Q1664.81 261.205 1667.1 263.983 Q1669.39 266.737 1669.39 272.108 Z" fill="#000000" fill-rule="nonzero" fill-opacity="1"></path><path clip-path="url(#clip310)" d="M1700.06 273.728 L1700.06 275.811 L1680.48 275.811 Q1680.76 280.209 1683.12 282.524 Q1685.5 284.816 1689.74 284.816 Q1692.19 284.816 1694.49 284.214 Q1696.8 283.612 1699.07 282.409 L1699.07 286.436 Q1696.78 287.408 1694.37 287.918 Q1691.96 288.427 1689.49 288.427 Q1683.28 288.427 1679.65 284.816 Q1676.04 281.205 1676.04 275.047 Q1676.04 268.682 1679.46 264.955 Q1682.91 261.205 1688.75 261.205 Q1693.98 261.205 1697.01 264.585 Q1700.06 267.941 1700.06 273.728 M1695.81 272.478 Q1695.76 268.983 1693.84 266.899 Q1691.94 264.816 1688.79 264.816 Q1685.23 264.816 1683.07 266.83 Q1680.94 268.844 1680.62 272.501 L1695.81 272.478 Z" fill="#000000" fill-rule="nonzero" fill-opacity="1"></path><path clip-path="url(#clip310)" d="M1707.06 261.83 L1711.31 261.83 L1711.31 287.756 L1707.06 287.756 L1707.06 261.83 M1707.06 251.737 L1711.31 251.737 L1711.31 257.131 L1707.06 257.131 L1707.06 251.737 Z" fill="#000000" fill-rule="nonzero" fill-opacity="1"></path><path clip-path="url(#clip310)" d="M1737.29 274.492 Q1737.29 269.862 1735.37 267.316 Q1733.47 264.77 1730.02 264.77 Q1726.59 264.77 1724.67 267.316 Q1722.77 269.862 1722.77 274.492 Q1722.77 279.098 1724.67 281.645 Q1726.59 284.191 1730.02 284.191 Q1733.47 284.191 1735.37 281.645 Q1737.29 279.098 1737.29 274.492 M1741.55 284.538 Q1741.55 291.158 1738.61 294.376 Q1735.67 297.617 1729.6 297.617 Q1727.36 297.617 1725.37 297.27 Q1723.37 296.945 1721.5 296.251 L1721.5 292.108 Q1723.37 293.126 1725.2 293.612 Q1727.03 294.098 1728.93 294.098 Q1733.12 294.098 1735.2 291.899 Q1737.29 289.723 1737.29 285.302 L1737.29 283.196 Q1735.97 285.487 1733.91 286.621 Q1731.85 287.756 1728.98 287.756 Q1724.21 287.756 1721.29 284.121 Q1718.37 280.487 1718.37 274.492 Q1718.37 268.473 1721.29 264.839 Q1724.21 261.205 1728.98 261.205 Q1731.85 261.205 1733.91 262.339 Q1735.97 263.473 1737.29 265.765 L1737.29 261.83 L1741.55 261.83 L1741.55 284.538 Z" fill="#000000" fill-rule="nonzero" fill-opacity="1"></path><path clip-path="url(#clip310)" d="M1771.87 272.108 L1771.87 287.756 L1767.61 287.756 L1767.61 272.247 Q1767.61 268.566 1766.18 266.737 Q1764.74 264.909 1761.87 264.909 Q1758.42 264.909 1756.43 267.108 Q1754.44 269.307 1754.44 273.103 L1754.44 287.756 L1750.16 287.756 L1750.16 251.737 L1754.44 251.737 L1754.44 265.858 Q1755.97 263.52 1758.03 262.362 Q1760.11 261.205 1762.82 261.205 Q1767.29 261.205 1769.58 263.983 Q1771.87 266.737 1771.87 272.108 Z" fill="#000000" fill-rule="nonzero" fill-opacity="1"></path><path clip-path="url(#clip310)" d="M1798.98 274.816 Q1798.98 270.117 1797.03 267.455 Q1795.11 264.77 1791.73 264.77 Q1788.35 264.77 1786.41 267.455 Q1784.49 270.117 1784.49 274.816 Q1784.49 279.515 1786.41 282.2 Q1788.35 284.862 1791.73 284.862 Q1795.11 284.862 1797.03 282.2 Q1798.98 279.515 1798.98 274.816 M1784.49 265.765 Q1785.83 263.45 1787.87 262.339 Q1789.93 261.205 1792.77 261.205 Q1797.49 261.205 1800.43 264.955 Q1803.4 268.705 1803.4 274.816 Q1803.4 280.927 1800.43 284.677 Q1797.49 288.427 1792.77 288.427 Q1789.93 288.427 1787.87 287.316 Q1785.83 286.182 1784.49 283.867 L1784.49 287.756 L1780.2 287.756 L1780.2 251.737 L1784.49 251.737 L1784.49 265.765 Z" fill="#000000" fill-rule="nonzero" fill-opacity="1"></path><path clip-path="url(#clip310)" d="M1820.5 264.816 Q1817.08 264.816 1815.09 267.501 Q1813.1 270.163 1813.1 274.816 Q1813.1 279.469 1815.06 282.154 Q1817.05 284.816 1820.5 284.816 Q1823.91 284.816 1825.9 282.131 Q1827.89 279.446 1827.89 274.816 Q1827.89 270.21 1825.9 267.524 Q1823.91 264.816 1820.5 264.816 M1820.5 261.205 Q1826.06 261.205 1829.23 264.816 Q1832.4 268.427 1832.4 274.816 Q1832.4 281.182 1829.23 284.816 Q1826.06 288.427 1820.5 288.427 Q1814.93 288.427 1811.75 284.816 Q1808.61 281.182 1808.61 274.816 Q1808.61 268.427 1811.75 264.816 Q1814.93 261.205 1820.5 261.205 Z" fill="#000000" fill-rule="nonzero" fill-opacity="1"></path><path clip-path="url(#clip310)" d="M1854.49 265.811 Q1853.77 265.395 1852.91 265.21 Q1852.08 265.001 1851.06 265.001 Q1847.45 265.001 1845.5 267.362 Q1843.58 269.7 1843.58 274.098 L1843.58 287.756 L1839.3 287.756 L1839.3 261.83 L1843.58 261.83 L1843.58 265.858 Q1844.92 263.497 1847.08 262.362 Q1849.23 261.205 1852.31 261.205 Q1852.75 261.205 1853.28 261.274 Q1853.81 261.321 1854.46 261.436 L1854.49 265.811 Z" fill="#000000" fill-rule="nonzero" fill-opacity="1"></path><path clip-path="url(#clip310)" d="M1879.67 272.108 L1879.67 287.756 L1875.41 287.756 L1875.41 272.247 Q1875.41 268.566 1873.98 266.737 Q1872.54 264.909 1869.67 264.909 Q1866.22 264.909 1864.23 267.108 Q1862.24 269.307 1862.24 273.103 L1862.24 287.756 L1857.96 287.756 L1857.96 251.737 L1862.24 251.737 L1862.24 265.858 Q1863.77 263.52 1865.83 262.362 Q1867.91 261.205 1870.62 261.205 Q1875.09 261.205 1877.38 263.983 Q1879.67 266.737 1879.67 272.108 Z" fill="#000000" fill-rule="nonzero" fill-opacity="1"></path><path clip-path="url(#clip310)" d="M1898.21 264.816 Q1894.79 264.816 1892.8 267.501 Q1890.8 270.163 1890.8 274.816 Q1890.8 279.469 1892.77 282.154 Q1894.76 284.816 1898.21 284.816 Q1901.61 284.816 1903.61 282.131 Q1905.6 279.446 1905.6 274.816 Q1905.6 270.21 1903.61 267.524 Q1901.61 264.816 1898.21 264.816 M1898.21 261.205 Q1903.77 261.205 1906.94 264.816 Q1910.11 268.427 1910.11 274.816 Q1910.11 281.182 1906.94 284.816 Q1903.77 288.427 1898.21 288.427 Q1892.63 288.427 1889.46 284.816 Q1886.31 281.182 1886.31 274.816 Q1886.31 268.427 1889.46 264.816 Q1892.63 261.205 1898.21 261.205 Z" fill="#000000" fill-rule="nonzero" fill-opacity="1"></path><path clip-path="url(#clip310)" d="M1927.22 264.816 Q1923.79 264.816 1921.8 267.501 Q1919.81 270.163 1919.81 274.816 Q1919.81 279.469 1921.78 282.154 Q1923.77 284.816 1927.22 284.816 Q1930.62 284.816 1932.61 282.131 Q1934.6 279.446 1934.6 274.816 Q1934.6 270.21 1932.61 267.524 Q1930.62 264.816 1927.22 264.816 M1927.22 261.205 Q1932.77 261.205 1935.94 264.816 Q1939.11 268.427 1939.11 274.816 Q1939.11 281.182 1935.94 284.816 Q1932.77 288.427 1927.22 288.427 Q1921.64 288.427 1918.47 284.816 Q1915.32 281.182 1915.32 274.816 Q1915.32 268.427 1918.47 264.816 Q1921.64 261.205 1927.22 261.205 Z" fill="#000000" fill-rule="nonzero" fill-opacity="1"></path><path clip-path="url(#clip310)" d="M1963.23 265.765 L1963.23 251.737 L1967.49 251.737 L1967.49 287.756 L1963.23 287.756 L1963.23 283.867 Q1961.89 286.182 1959.83 287.316 Q1957.79 288.427 1954.92 288.427 Q1950.23 288.427 1947.26 284.677 Q1944.32 280.927 1944.32 274.816 Q1944.32 268.705 1947.26 264.955 Q1950.23 261.205 1954.92 261.205 Q1957.79 261.205 1959.83 262.339 Q1961.89 263.45 1963.23 265.765 M1948.72 274.816 Q1948.72 279.515 1950.64 282.2 Q1952.59 284.862 1955.97 284.862 Q1959.35 284.862 1961.29 282.2 Q1963.23 279.515 1963.23 274.816 Q1963.23 270.117 1961.29 267.455 Q1959.35 264.77 1955.97 264.77 Q1952.59 264.77 1950.64 267.455 Q1948.72 270.117 1948.72 274.816 Z" fill="#000000" fill-rule="nonzero" fill-opacity="1"></path><path clip-path="url(#clip310)" d="M1989.18 272.872 L2001.66 272.872 L2001.66 276.668 L1989.18 276.668 L1989.18 272.872 Z" fill="#000000" fill-rule="nonzero" fill-opacity="1"></path><path clip-path="url(#clip310)" d="M2023.21 269.122 Q2026.57 269.839 2028.44 272.108 Q2030.34 274.376 2030.34 277.709 Q2030.34 282.825 2026.82 285.626 Q2023.3 288.427 2016.82 288.427 Q2014.65 288.427 2012.33 287.987 Q2010.04 287.571 2007.59 286.714 L2007.59 282.2 Q2009.53 283.334 2011.85 283.913 Q2014.16 284.492 2016.68 284.492 Q2021.08 284.492 2023.37 282.756 Q2025.69 281.02 2025.69 277.709 Q2025.69 274.654 2023.54 272.941 Q2021.41 271.205 2017.59 271.205 L2013.56 271.205 L2013.56 267.362 L2017.77 267.362 Q2021.22 267.362 2023.05 265.997 Q2024.88 264.608 2024.88 262.015 Q2024.88 259.353 2022.98 257.941 Q2021.1 256.506 2017.59 256.506 Q2015.66 256.506 2013.47 256.923 Q2011.27 257.339 2008.63 258.219 L2008.63 254.052 Q2011.29 253.311 2013.6 252.941 Q2015.94 252.571 2018 252.571 Q2023.33 252.571 2026.43 255.001 Q2029.53 257.409 2029.53 261.529 Q2029.53 264.399 2027.89 266.39 Q2026.24 268.358 2023.21 269.122 Z" fill="#000000" fill-rule="nonzero" fill-opacity="1"></path><path clip-path="url(#clip310)" d="M2039.21 281.876 L2044.09 281.876 L2044.09 287.756 L2039.21 287.756 L2039.21 281.876 Z" fill="#000000" fill-rule="nonzero" fill-opacity="1"></path><path clip-path="url(#clip310)" d="M2064.28 256.274 Q2060.66 256.274 2058.84 259.839 Q2057.03 263.381 2057.03 270.51 Q2057.03 277.617 2058.84 281.182 Q2060.66 284.723 2064.28 284.723 Q2067.91 284.723 2069.72 281.182 Q2071.54 277.617 2071.54 270.51 Q2071.54 263.381 2069.72 259.839 Q2067.91 256.274 2064.28 256.274 M2064.28 252.571 Q2070.09 252.571 2073.14 257.177 Q2076.22 261.76 2076.22 270.51 Q2076.22 279.237 2073.14 283.844 Q2070.09 288.427 2064.28 288.427 Q2058.47 288.427 2055.39 283.844 Q2052.33 279.237 2052.33 270.51 Q2052.33 261.76 2055.39 257.177 Q2058.47 252.571 2064.28 252.571 Z" fill="#000000" fill-rule="nonzero" fill-opacity="1"></path><path clip-path="url(#clip310)" d="M2084.92 281.876 L2089.81 281.876 L2089.81 287.756 L2084.92 287.756 L2084.92 281.876 M2084.92 263.242 L2089.81 263.242 L2089.81 269.122 L2084.92 269.122 L2084.92 263.242 Z" fill="#000000" fill-rule="nonzero" fill-opacity="1"></path><path clip-path="url(#clip310)" d="M2110.41 256.274 Q2106.8 256.274 2104.97 259.839 Q2103.16 263.381 2103.16 270.51 Q2103.16 277.617 2104.97 281.182 Q2106.8 284.723 2110.41 284.723 Q2114.04 284.723 2115.85 281.182 Q2117.68 277.617 2117.68 270.51 Q2117.68 263.381 2115.85 259.839 Q2114.04 256.274 2110.41 256.274 M2110.41 252.571 Q2116.22 252.571 2119.28 257.177 Q2122.35 261.76 2122.35 270.51 Q2122.35 279.237 2119.28 283.844 Q2116.22 288.427 2110.41 288.427 Q2104.6 288.427 2101.52 283.844 Q2098.47 279.237 2098.47 270.51 Q2098.47 261.76 2101.52 257.177 Q2104.6 252.571 2110.41 252.571 Z" fill="#000000" fill-rule="nonzero" fill-opacity="1"></path><path clip-path="url(#clip310)" d="M2130.57 281.876 L2135.46 281.876 L2135.46 287.756 L2130.57 287.756 L2130.57 281.876 Z" fill="#000000" fill-rule="nonzero" fill-opacity="1"></path><path clip-path="url(#clip310)" d="M2146.45 283.821 L2154.09 283.821 L2154.09 257.455 L2145.78 259.122 L2145.78 254.862 L2154.04 253.196 L2158.72 253.196 L2158.72 283.821 L2166.36 283.821 L2166.36 287.756 L2146.45 287.756 L2146.45 283.821 Z" fill="#000000" fill-rule="nonzero" fill-opacity="1"></path><path clip-path="url(#clip310)" d="M2176.29 281.876 L2181.17 281.876 L2181.17 287.756 L2176.29 287.756 L2176.29 281.876 M2176.29 263.242 L2181.17 263.242 L2181.17 269.122 L2176.29 269.122 L2176.29 263.242 Z" fill="#000000" fill-rule="nonzero" fill-opacity="1"></path><path clip-path="url(#clip310)" d="M2201.77 256.274 Q2198.16 256.274 2196.34 259.839 Q2194.53 263.381 2194.53 270.51 Q2194.53 277.617 2196.34 281.182 Q2198.16 284.723 2201.77 284.723 Q2205.41 284.723 2207.21 281.182 Q2209.04 277.617 2209.04 270.51 Q2209.04 263.381 2207.21 259.839 Q2205.41 256.274 2201.77 256.274 M2201.77 252.571 Q2207.59 252.571 2210.64 257.177 Q2213.72 261.76 2213.72 270.51 Q2213.72 279.237 2210.64 283.844 Q2207.59 288.427 2201.77 288.427 Q2195.96 288.427 2192.89 283.844 Q2189.83 279.237 2189.83 270.51 Q2189.83 261.76 2192.89 257.177 Q2195.96 252.571 2201.77 252.571 Z" fill="#000000" fill-rule="nonzero" fill-opacity="1"></path><path clip-path="url(#clip310)" d="M2221.94 281.876 L2226.82 281.876 L2226.82 287.756 L2221.94 287.756 L2221.94 281.876 Z" fill="#000000" fill-rule="nonzero" fill-opacity="1"></path><path clip-path="url(#clip310)" d="M2247.01 256.274 Q2243.4 256.274 2241.57 259.839 Q2239.76 263.381 2239.76 270.51 Q2239.76 277.617 2241.57 281.182 Q2243.4 284.723 2247.01 284.723 Q2250.64 284.723 2252.45 281.182 Q2254.27 277.617 2254.27 270.51 Q2254.27 263.381 2252.45 259.839 Q2250.64 256.274 2247.01 256.274 M2247.01 252.571 Q2252.82 252.571 2255.87 257.177 Q2258.95 261.76 2258.95 270.51 Q2258.95 279.237 2255.87 283.844 Q2252.82 288.427 2247.01 288.427 Q2241.2 288.427 2238.12 283.844 Q2235.06 279.237 2235.06 270.51 Q2235.06 261.76 2238.12 257.177 Q2241.2 252.571 2247.01 252.571 Z" fill="#000000" fill-rule="nonzero" fill-opacity="1"></path><circle clip-path="url(#clip310)" cx="1112.74" cy="322.316" r="20.48" fill="#ffa500" fill-rule="evenodd" fill-opacity="1" stroke="#000000" stroke-opacity="1" stroke-width="4.55111"></circle>
<path clip-path="url(#clip310)" d="M1206.55 305.036 L1211.22 305.036 L1211.22 335.661 L1228.05 335.661 L1228.05 339.596 L1206.55 339.596 L1206.55 305.036 Z" fill="#000000" fill-rule="nonzero" fill-opacity="1"></path><path clip-path="url(#clip310)" d="M1241.99 316.656 Q1238.56 316.656 1236.57 319.341 Q1234.58 322.003 1234.58 326.656 Q1234.58 331.309 1236.55 333.994 Q1238.54 336.656 1241.99 336.656 Q1245.39 336.656 1247.38 333.971 Q1249.37 331.286 1249.37 326.656 Q1249.37 322.05 1247.38 319.364 Q1245.39 316.656 1241.99 316.656 M1241.99 313.045 Q1247.54 313.045 1250.72 316.656 Q1253.89 320.267 1253.89 326.656 Q1253.89 333.022 1250.72 336.656 Q1247.54 340.267 1241.99 340.267 Q1236.41 340.267 1233.24 336.656 Q1230.09 333.022 1230.09 326.656 Q1230.09 320.267 1233.24 316.656 Q1236.41 313.045 1241.99 313.045 Z" fill="#000000" fill-rule="nonzero" fill-opacity="1"></path><path clip-path="url(#clip310)" d="M1279.6 314.665 L1279.6 318.647 Q1277.8 317.651 1275.97 317.165 Q1274.16 316.656 1272.31 316.656 Q1268.17 316.656 1265.88 319.295 Q1263.59 321.911 1263.59 326.656 Q1263.59 331.401 1265.88 334.04 Q1268.17 336.656 1272.31 336.656 Q1274.16 336.656 1275.97 336.17 Q1277.8 335.661 1279.6 334.665 L1279.6 338.6 Q1277.82 339.434 1275.9 339.85 Q1274 340.267 1271.85 340.267 Q1265.99 340.267 1262.54 336.586 Q1259.09 332.906 1259.09 326.656 Q1259.09 320.313 1262.57 316.679 Q1266.06 313.045 1272.13 313.045 Q1274.09 313.045 1275.97 313.462 Q1277.84 313.855 1279.6 314.665 Z" fill="#000000" fill-rule="nonzero" fill-opacity="1"></path><path clip-path="url(#clip310)" d="M1298.79 326.563 Q1293.63 326.563 1291.64 327.744 Q1289.65 328.924 1289.65 331.772 Q1289.65 334.04 1291.13 335.383 Q1292.64 336.702 1295.21 336.702 Q1298.75 336.702 1300.88 334.202 Q1303.03 331.679 1303.03 327.512 L1303.03 326.563 L1298.79 326.563 M1307.29 324.804 L1307.29 339.596 L1303.03 339.596 L1303.03 335.661 Q1301.57 338.022 1299.4 339.156 Q1297.22 340.267 1294.07 340.267 Q1290.09 340.267 1287.73 338.045 Q1285.39 335.799 1285.39 332.049 Q1285.39 327.674 1288.31 325.452 Q1291.25 323.23 1297.06 323.23 L1303.03 323.23 L1303.03 322.813 Q1303.03 319.874 1301.09 318.276 Q1299.16 316.656 1295.67 316.656 Q1293.45 316.656 1291.34 317.188 Q1289.23 317.721 1287.29 318.786 L1287.29 314.85 Q1289.63 313.948 1291.83 313.508 Q1294.03 313.045 1296.11 313.045 Q1301.73 313.045 1304.51 315.962 Q1307.29 318.878 1307.29 324.804 Z" fill="#000000" fill-rule="nonzero" fill-opacity="1"></path><path clip-path="url(#clip310)" d="M1316.06 303.577 L1320.32 303.577 L1320.32 339.596 L1316.06 339.596 L1316.06 303.577 Z" fill="#000000" fill-rule="nonzero" fill-opacity="1"></path><path clip-path="url(#clip310)" d="M1344.49 305.036 L1351.46 305.036 L1360.27 328.554 L1369.14 305.036 L1376.11 305.036 L1376.11 339.596 L1371.55 339.596 L1371.55 309.249 L1362.64 332.952 L1357.94 332.952 L1349.02 309.249 L1349.02 339.596 L1344.49 339.596 L1344.49 305.036 Z" fill="#000000" fill-rule="nonzero" fill-opacity="1"></path><path clip-path="url(#clip310)" d="M1385.21 313.67 L1389.46 313.67 L1389.46 339.596 L1385.21 339.596 L1385.21 313.67 M1385.21 303.577 L1389.46 303.577 L1389.46 308.971 L1385.21 308.971 L1385.21 303.577 Z" fill="#000000" fill-rule="nonzero" fill-opacity="1"></path><path clip-path="url(#clip310)" d="M1419.93 323.948 L1419.93 339.596 L1415.67 339.596 L1415.67 324.087 Q1415.67 320.406 1414.23 318.577 Q1412.8 316.749 1409.93 316.749 Q1406.48 316.749 1404.49 318.948 Q1402.5 321.147 1402.5 324.943 L1402.5 339.596 L1398.21 339.596 L1398.21 313.67 L1402.5 313.67 L1402.5 317.698 Q1404.02 315.36 1406.08 314.202 Q1408.17 313.045 1410.88 313.045 Q1415.34 313.045 1417.64 315.823 Q1419.93 318.577 1419.93 323.948 Z" fill="#000000" fill-rule="nonzero" fill-opacity="1"></path><path clip-path="url(#clip310)" d="M1428.42 313.67 L1432.68 313.67 L1432.68 339.596 L1428.42 339.596 L1428.42 313.67 M1428.42 303.577 L1432.68 303.577 L1432.68 308.971 L1428.42 308.971 L1428.42 303.577 Z" fill="#000000" fill-rule="nonzero" fill-opacity="1"></path><path clip-path="url(#clip310)" d="M1461.78 318.647 Q1463.38 315.776 1465.6 314.411 Q1467.82 313.045 1470.83 313.045 Q1474.88 313.045 1477.08 315.892 Q1479.28 318.716 1479.28 323.948 L1479.28 339.596 L1475 339.596 L1475 324.087 Q1475 320.36 1473.68 318.554 Q1472.36 316.749 1469.65 316.749 Q1466.34 316.749 1464.42 318.948 Q1462.5 321.147 1462.5 324.943 L1462.5 339.596 L1458.21 339.596 L1458.21 324.087 Q1458.21 320.337 1456.89 318.554 Q1455.58 316.749 1452.82 316.749 Q1449.56 316.749 1447.64 318.971 Q1445.71 321.17 1445.71 324.943 L1445.71 339.596 L1441.43 339.596 L1441.43 313.67 L1445.71 313.67 L1445.71 317.698 Q1447.17 315.313 1449.21 314.179 Q1451.25 313.045 1454.05 313.045 Q1456.87 313.045 1458.84 314.48 Q1460.83 315.915 1461.78 318.647 Z" fill="#000000" fill-rule="nonzero" fill-opacity="1"></path><path clip-path="url(#clip310)" d="M1487.77 313.67 L1492.03 313.67 L1492.03 339.596 L1487.77 339.596 L1487.77 313.67 M1487.77 303.577 L1492.03 303.577 L1492.03 308.971 L1487.77 308.971 L1487.77 303.577 Z" fill="#000000" fill-rule="nonzero" fill-opacity="1"></path><path clip-path="url(#clip310)" d="M1499.09 313.67 L1519.32 313.67 L1519.32 317.559 L1503.31 336.193 L1519.32 336.193 L1519.32 339.596 L1498.51 339.596 L1498.51 335.707 L1514.53 317.073 L1499.09 317.073 L1499.09 313.67 Z" fill="#000000" fill-rule="nonzero" fill-opacity="1"></path><path clip-path="url(#clip310)" d="M1548.01 325.568 L1548.01 327.651 L1528.42 327.651 Q1528.7 332.049 1531.06 334.364 Q1533.45 336.656 1537.68 336.656 Q1540.13 336.656 1542.43 336.054 Q1544.74 335.452 1547.01 334.249 L1547.01 338.276 Q1544.72 339.248 1542.31 339.758 Q1539.9 340.267 1537.43 340.267 Q1531.22 340.267 1527.59 336.656 Q1523.98 333.045 1523.98 326.887 Q1523.98 320.522 1527.4 316.795 Q1530.85 313.045 1536.69 313.045 Q1541.92 313.045 1544.95 316.425 Q1548.01 319.781 1548.01 325.568 M1543.75 324.318 Q1543.7 320.823 1541.78 318.739 Q1539.88 316.656 1536.73 316.656 Q1533.17 316.656 1531.01 318.67 Q1528.88 320.684 1528.56 324.341 L1543.75 324.318 Z" fill="#000000" fill-rule="nonzero" fill-opacity="1"></path><path clip-path="url(#clip310)" d="M1570.02 317.651 Q1569.3 317.235 1568.44 317.05 Q1567.61 316.841 1566.59 316.841 Q1562.98 316.841 1561.04 319.202 Q1559.12 321.54 1559.12 325.938 L1559.12 339.596 L1554.83 339.596 L1554.83 313.67 L1559.12 313.67 L1559.12 317.698 Q1560.46 315.337 1562.61 314.202 Q1564.76 313.045 1567.84 313.045 Q1568.28 313.045 1568.82 313.114 Q1569.35 313.161 1570 313.276 L1570.02 317.651 Z" fill="#000000" fill-rule="nonzero" fill-opacity="1"></path><path clip-path="url(#clip310)" d="M1589.56 313.67 L1593.82 313.67 L1593.82 339.596 L1589.56 339.596 L1589.56 313.67 M1589.56 303.577 L1593.82 303.577 L1593.82 308.971 L1589.56 308.971 L1589.56 303.577 Z" fill="#000000" fill-rule="nonzero" fill-opacity="1"></path><path clip-path="url(#clip310)" d="M1624.28 323.948 L1624.28 339.596 L1620.02 339.596 L1620.02 324.087 Q1620.02 320.406 1618.58 318.577 Q1617.15 316.749 1614.28 316.749 Q1610.83 316.749 1608.84 318.948 Q1606.85 321.147 1606.85 324.943 L1606.85 339.596 L1602.57 339.596 L1602.57 313.67 L1606.85 313.67 L1606.85 317.698 Q1608.38 315.36 1610.44 314.202 Q1612.52 313.045 1615.23 313.045 Q1619.69 313.045 1621.99 315.823 Q1624.28 318.577 1624.28 323.948 Z" fill="#000000" fill-rule="nonzero" fill-opacity="1"></path><path clip-path="url(#clip310)" d="M1669.39 323.948 L1669.39 339.596 L1665.13 339.596 L1665.13 324.087 Q1665.13 320.406 1663.7 318.577 Q1662.26 316.749 1659.39 316.749 Q1655.94 316.749 1653.95 318.948 Q1651.96 321.147 1651.96 324.943 L1651.96 339.596 L1647.68 339.596 L1647.68 313.67 L1651.96 313.67 L1651.96 317.698 Q1653.49 315.36 1655.55 314.202 Q1657.63 313.045 1660.34 313.045 Q1664.81 313.045 1667.1 315.823 Q1669.39 318.577 1669.39 323.948 Z" fill="#000000" fill-rule="nonzero" fill-opacity="1"></path><path clip-path="url(#clip310)" d="M1700.06 325.568 L1700.06 327.651 L1680.48 327.651 Q1680.76 332.049 1683.12 334.364 Q1685.5 336.656 1689.74 336.656 Q1692.19 336.656 1694.49 336.054 Q1696.8 335.452 1699.07 334.249 L1699.07 338.276 Q1696.78 339.248 1694.37 339.758 Q1691.96 340.267 1689.49 340.267 Q1683.28 340.267 1679.65 336.656 Q1676.04 333.045 1676.04 326.887 Q1676.04 320.522 1679.46 316.795 Q1682.91 313.045 1688.75 313.045 Q1693.98 313.045 1697.01 316.425 Q1700.06 319.781 1700.06 325.568 M1695.81 324.318 Q1695.76 320.823 1693.84 318.739 Q1691.94 316.656 1688.79 316.656 Q1685.23 316.656 1683.07 318.67 Q1680.94 320.684 1680.62 324.341 L1695.81 324.318 Z" fill="#000000" fill-rule="nonzero" fill-opacity="1"></path><path clip-path="url(#clip310)" d="M1707.06 313.67 L1711.31 313.67 L1711.31 339.596 L1707.06 339.596 L1707.06 313.67 M1707.06 303.577 L1711.31 303.577 L1711.31 308.971 L1707.06 308.971 L1707.06 303.577 Z" fill="#000000" fill-rule="nonzero" fill-opacity="1"></path><path clip-path="url(#clip310)" d="M1737.29 326.332 Q1737.29 321.702 1735.37 319.156 Q1733.47 316.61 1730.02 316.61 Q1726.59 316.61 1724.67 319.156 Q1722.77 321.702 1722.77 326.332 Q1722.77 330.938 1724.67 333.485 Q1726.59 336.031 1730.02 336.031 Q1733.47 336.031 1735.37 333.485 Q1737.29 330.938 1737.29 326.332 M1741.55 336.378 Q1741.55 342.998 1738.61 346.216 Q1735.67 349.457 1729.6 349.457 Q1727.36 349.457 1725.37 349.11 Q1723.37 348.785 1721.5 348.091 L1721.5 343.948 Q1723.37 344.966 1725.2 345.452 Q1727.03 345.938 1728.93 345.938 Q1733.12 345.938 1735.2 343.739 Q1737.29 341.563 1737.29 337.142 L1737.29 335.036 Q1735.97 337.327 1733.91 338.461 Q1731.85 339.596 1728.98 339.596 Q1724.21 339.596 1721.29 335.961 Q1718.37 332.327 1718.37 326.332 Q1718.37 320.313 1721.29 316.679 Q1724.21 313.045 1728.98 313.045 Q1731.85 313.045 1733.91 314.179 Q1735.97 315.313 1737.29 317.605 L1737.29 313.67 L1741.55 313.67 L1741.55 336.378 Z" fill="#000000" fill-rule="nonzero" fill-opacity="1"></path><path clip-path="url(#clip310)" d="M1771.87 323.948 L1771.87 339.596 L1767.61 339.596 L1767.61 324.087 Q1767.61 320.406 1766.18 318.577 Q1764.74 316.749 1761.87 316.749 Q1758.42 316.749 1756.43 318.948 Q1754.44 321.147 1754.44 324.943 L1754.44 339.596 L1750.16 339.596 L1750.16 303.577 L1754.44 303.577 L1754.44 317.698 Q1755.97 315.36 1758.03 314.202 Q1760.11 313.045 1762.82 313.045 Q1767.29 313.045 1769.58 315.823 Q1771.87 318.577 1771.87 323.948 Z" fill="#000000" fill-rule="nonzero" fill-opacity="1"></path><path clip-path="url(#clip310)" d="M1798.98 326.656 Q1798.98 321.957 1797.03 319.295 Q1795.11 316.61 1791.73 316.61 Q1788.35 316.61 1786.41 319.295 Q1784.49 321.957 1784.49 326.656 Q1784.49 331.355 1786.41 334.04 Q1788.35 336.702 1791.73 336.702 Q1795.11 336.702 1797.03 334.04 Q1798.98 331.355 1798.98 326.656 M1784.49 317.605 Q1785.83 315.29 1787.87 314.179 Q1789.93 313.045 1792.77 313.045 Q1797.49 313.045 1800.43 316.795 Q1803.4 320.545 1803.4 326.656 Q1803.4 332.767 1800.43 336.517 Q1797.49 340.267 1792.77 340.267 Q1789.93 340.267 1787.87 339.156 Q1785.83 338.022 1784.49 335.707 L1784.49 339.596 L1780.2 339.596 L1780.2 303.577 L1784.49 303.577 L1784.49 317.605 Z" fill="#000000" fill-rule="nonzero" fill-opacity="1"></path><path clip-path="url(#clip310)" d="M1820.5 316.656 Q1817.08 316.656 1815.09 319.341 Q1813.1 322.003 1813.1 326.656 Q1813.1 331.309 1815.06 333.994 Q1817.05 336.656 1820.5 336.656 Q1823.91 336.656 1825.9 333.971 Q1827.89 331.286 1827.89 326.656 Q1827.89 322.05 1825.9 319.364 Q1823.91 316.656 1820.5 316.656 M1820.5 313.045 Q1826.06 313.045 1829.23 316.656 Q1832.4 320.267 1832.4 326.656 Q1832.4 333.022 1829.23 336.656 Q1826.06 340.267 1820.5 340.267 Q1814.93 340.267 1811.75 336.656 Q1808.61 333.022 1808.61 326.656 Q1808.61 320.267 1811.75 316.656 Q1814.93 313.045 1820.5 313.045 Z" fill="#000000" fill-rule="nonzero" fill-opacity="1"></path><path clip-path="url(#clip310)" d="M1854.49 317.651 Q1853.77 317.235 1852.91 317.05 Q1852.08 316.841 1851.06 316.841 Q1847.45 316.841 1845.5 319.202 Q1843.58 321.54 1843.58 325.938 L1843.58 339.596 L1839.3 339.596 L1839.3 313.67 L1843.58 313.67 L1843.58 317.698 Q1844.92 315.337 1847.08 314.202 Q1849.23 313.045 1852.31 313.045 Q1852.75 313.045 1853.28 313.114 Q1853.81 313.161 1854.46 313.276 L1854.49 317.651 Z" fill="#000000" fill-rule="nonzero" fill-opacity="1"></path><path clip-path="url(#clip310)" d="M1879.67 323.948 L1879.67 339.596 L1875.41 339.596 L1875.41 324.087 Q1875.41 320.406 1873.98 318.577 Q1872.54 316.749 1869.67 316.749 Q1866.22 316.749 1864.23 318.948 Q1862.24 321.147 1862.24 324.943 L1862.24 339.596 L1857.96 339.596 L1857.96 303.577 L1862.24 303.577 L1862.24 317.698 Q1863.77 315.36 1865.83 314.202 Q1867.91 313.045 1870.62 313.045 Q1875.09 313.045 1877.38 315.823 Q1879.67 318.577 1879.67 323.948 Z" fill="#000000" fill-rule="nonzero" fill-opacity="1"></path><path clip-path="url(#clip310)" d="M1898.21 316.656 Q1894.79 316.656 1892.8 319.341 Q1890.8 322.003 1890.8 326.656 Q1890.8 331.309 1892.77 333.994 Q1894.76 336.656 1898.21 336.656 Q1901.61 336.656 1903.61 333.971 Q1905.6 331.286 1905.6 326.656 Q1905.6 322.05 1903.61 319.364 Q1901.61 316.656 1898.21 316.656 M1898.21 313.045 Q1903.77 313.045 1906.94 316.656 Q1910.11 320.267 1910.11 326.656 Q1910.11 333.022 1906.94 336.656 Q1903.77 340.267 1898.21 340.267 Q1892.63 340.267 1889.46 336.656 Q1886.31 333.022 1886.31 326.656 Q1886.31 320.267 1889.46 316.656 Q1892.63 313.045 1898.21 313.045 Z" fill="#000000" fill-rule="nonzero" fill-opacity="1"></path><path clip-path="url(#clip310)" d="M1927.22 316.656 Q1923.79 316.656 1921.8 319.341 Q1919.81 322.003 1919.81 326.656 Q1919.81 331.309 1921.78 333.994 Q1923.77 336.656 1927.22 336.656 Q1930.62 336.656 1932.61 333.971 Q1934.6 331.286 1934.6 326.656 Q1934.6 322.05 1932.61 319.364 Q1930.62 316.656 1927.22 316.656 M1927.22 313.045 Q1932.77 313.045 1935.94 316.656 Q1939.11 320.267 1939.11 326.656 Q1939.11 333.022 1935.94 336.656 Q1932.77 340.267 1927.22 340.267 Q1921.64 340.267 1918.47 336.656 Q1915.32 333.022 1915.32 326.656 Q1915.32 320.267 1918.47 316.656 Q1921.64 313.045 1927.22 313.045 Z" fill="#000000" fill-rule="nonzero" fill-opacity="1"></path><path clip-path="url(#clip310)" d="M1963.23 317.605 L1963.23 303.577 L1967.49 303.577 L1967.49 339.596 L1963.23 339.596 L1963.23 335.707 Q1961.89 338.022 1959.83 339.156 Q1957.79 340.267 1954.92 340.267 Q1950.23 340.267 1947.26 336.517 Q1944.32 332.767 1944.32 326.656 Q1944.32 320.545 1947.26 316.795 Q1950.23 313.045 1954.92 313.045 Q1957.79 313.045 1959.83 314.179 Q1961.89 315.29 1963.23 317.605 M1948.72 326.656 Q1948.72 331.355 1950.64 334.04 Q1952.59 336.702 1955.97 336.702 Q1959.35 336.702 1961.29 334.04 Q1963.23 331.355 1963.23 326.656 Q1963.23 321.957 1961.29 319.295 Q1959.35 316.61 1955.97 316.61 Q1952.59 316.61 1950.64 319.295 Q1948.72 321.957 1948.72 326.656 Z" fill="#000000" fill-rule="nonzero" fill-opacity="1"></path><path clip-path="url(#clip310)" d="M2001.94 308.114 Q1998.33 308.114 1996.5 311.679 Q1994.69 315.221 1994.69 322.35 Q1994.69 329.457 1996.5 333.022 Q1998.33 336.563 2001.94 336.563 Q2005.57 336.563 2007.38 333.022 Q2009.21 329.457 2009.21 322.35 Q2009.21 315.221 2007.38 311.679 Q2005.57 308.114 2001.94 308.114 M2001.94 304.411 Q2007.75 304.411 2010.8 309.017 Q2013.88 313.6 2013.88 322.35 Q2013.88 331.077 2010.8 335.684 Q2007.75 340.267 2001.94 340.267 Q1996.13 340.267 1993.05 335.684 Q1989.99 331.077 1989.99 322.35 Q1989.99 313.6 1993.05 309.017 Q1996.13 304.411 2001.94 304.411 Z" fill="#000000" fill-rule="nonzero" fill-opacity="1"></path><path clip-path="url(#clip310)" d="M2022.1 333.716 L2026.98 333.716 L2026.98 339.596 L2022.1 339.596 L2022.1 333.716 Z" fill="#000000" fill-rule="nonzero" fill-opacity="1"></path><path clip-path="url(#clip310)" d="M2047.17 308.114 Q2043.56 308.114 2041.73 311.679 Q2039.92 315.221 2039.92 322.35 Q2039.92 329.457 2041.73 333.022 Q2043.56 336.563 2047.17 336.563 Q2050.8 336.563 2052.61 333.022 Q2054.44 329.457 2054.44 322.35 Q2054.44 315.221 2052.61 311.679 Q2050.8 308.114 2047.17 308.114 M2047.17 304.411 Q2052.98 304.411 2056.03 309.017 Q2059.11 313.6 2059.11 322.35 Q2059.11 331.077 2056.03 335.684 Q2052.98 340.267 2047.17 340.267 Q2041.36 340.267 2038.28 335.684 Q2035.22 331.077 2035.22 322.35 Q2035.22 313.6 2038.28 309.017 Q2041.36 304.411 2047.17 304.411 Z" fill="#000000" fill-rule="nonzero" fill-opacity="1"></path><path clip-path="url(#clip310)" d="M2067.82 333.716 L2072.7 333.716 L2072.7 339.596 L2067.82 339.596 L2067.82 333.716 M2067.82 315.082 L2072.7 315.082 L2072.7 320.962 L2067.82 320.962 L2067.82 315.082 Z" fill="#000000" fill-rule="nonzero" fill-opacity="1"></path><path clip-path="url(#clip310)" d="M2093.3 308.114 Q2089.69 308.114 2087.86 311.679 Q2086.06 315.221 2086.06 322.35 Q2086.06 329.457 2087.86 333.022 Q2089.69 336.563 2093.3 336.563 Q2096.94 336.563 2098.74 333.022 Q2100.57 329.457 2100.57 322.35 Q2100.57 315.221 2098.74 311.679 Q2096.94 308.114 2093.3 308.114 M2093.3 304.411 Q2099.11 304.411 2102.17 309.017 Q2105.25 313.6 2105.25 322.35 Q2105.25 331.077 2102.17 335.684 Q2099.11 340.267 2093.3 340.267 Q2087.49 340.267 2084.41 335.684 Q2081.36 331.077 2081.36 322.35 Q2081.36 313.6 2084.41 309.017 Q2087.49 304.411 2093.3 304.411 Z" fill="#000000" fill-rule="nonzero" fill-opacity="1"></path><path clip-path="url(#clip310)" d="M2113.47 333.716 L2118.35 333.716 L2118.35 339.596 L2113.47 339.596 L2113.47 333.716 Z" fill="#000000" fill-rule="nonzero" fill-opacity="1"></path><path clip-path="url(#clip310)" d="M2129.34 335.661 L2136.98 335.661 L2136.98 309.295 L2128.67 310.962 L2128.67 306.702 L2136.94 305.036 L2141.61 305.036 L2141.61 335.661 L2149.25 335.661 L2149.25 339.596 L2129.34 339.596 L2129.34 335.661 Z" fill="#000000" fill-rule="nonzero" fill-opacity="1"></path><path clip-path="url(#clip310)" d="M2159.18 333.716 L2164.07 333.716 L2164.07 339.596 L2159.18 339.596 L2159.18 333.716 M2159.18 315.082 L2164.07 315.082 L2164.07 320.962 L2159.18 320.962 L2159.18 315.082 Z" fill="#000000" fill-rule="nonzero" fill-opacity="1"></path><path clip-path="url(#clip310)" d="M2188.84 320.962 Q2192.19 321.679 2194.07 323.948 Q2195.96 326.216 2195.96 329.549 Q2195.96 334.665 2192.45 337.466 Q2188.93 340.267 2182.45 340.267 Q2180.27 340.267 2177.96 339.827 Q2175.66 339.411 2173.21 338.554 L2173.21 334.04 Q2175.15 335.174 2177.47 335.753 Q2179.78 336.332 2182.31 336.332 Q2186.71 336.332 2189 334.596 Q2191.31 332.86 2191.31 329.549 Q2191.31 326.494 2189.16 324.781 Q2187.03 323.045 2183.21 323.045 L2179.18 323.045 L2179.18 319.202 L2183.4 319.202 Q2186.84 319.202 2188.67 317.837 Q2190.5 316.448 2190.5 313.855 Q2190.5 311.193 2188.6 309.781 Q2186.73 308.346 2183.21 308.346 Q2181.29 308.346 2179.09 308.763 Q2176.89 309.179 2174.25 310.059 L2174.25 305.892 Q2176.91 305.151 2179.23 304.781 Q2181.57 304.411 2183.63 304.411 Q2188.95 304.411 2192.05 306.841 Q2195.15 309.249 2195.15 313.369 Q2195.15 316.239 2193.51 318.23 Q2191.87 320.198 2188.84 320.962 Z" fill="#000000" fill-rule="nonzero" fill-opacity="1"></path><path clip-path="url(#clip310)" d="M2204.83 333.716 L2209.71 333.716 L2209.71 339.596 L2204.83 339.596 L2204.83 333.716 Z" fill="#000000" fill-rule="nonzero" fill-opacity="1"></path><path clip-path="url(#clip310)" d="M2229.9 308.114 Q2226.29 308.114 2224.46 311.679 Q2222.65 315.221 2222.65 322.35 Q2222.65 329.457 2224.46 333.022 Q2226.29 336.563 2229.9 336.563 Q2233.53 336.563 2235.34 333.022 Q2237.17 329.457 2237.17 322.35 Q2237.17 315.221 2235.34 311.679 Q2233.53 308.114 2229.9 308.114 M2229.9 304.411 Q2235.71 304.411 2238.77 309.017 Q2241.84 313.6 2241.84 322.35 Q2241.84 331.077 2238.77 335.684 Q2235.71 340.267 2229.9 340.267 Q2224.09 340.267 2221.01 335.684 Q2217.96 331.077 2217.96 322.35 Q2217.96 313.6 2221.01 309.017 Q2224.09 304.411 2229.9 304.411 Z" fill="#000000" fill-rule="nonzero" fill-opacity="1"></path></svg>