<svg xmlns="http://www.w3.org/2000/svg" xmlns:xlink="http://www.w3.org/1999/xlink" width="600" height="400" viewBox="0 0 2400 1600">
<defs>
  <clipPath id="clip710">
    <rect x="0" y="0" width="2400" height="1600"></rect>
  </clipPath>
</defs>
<path clip-path="url(#clip710)" d="M0 1600 L2400 1600 L2400 8.88178e-14 L0 8.88178e-14  Z" fill="#ffffff" fill-rule="evenodd" fill-opacity="1"></path>
<defs>
  <clipPath id="clip711">
    <rect x="480" y="0" width="1681" height="1600"></rect>
  </clipPath>
</defs>
<path clip-path="url(#clip710)" d="M174.126 1423.18 L2352.76 1423.18 L2352.76 47.2441 L174.126 47.2441  Z" fill="#ffffff" fill-rule="evenodd" fill-opacity="1"></path>
<defs>
  <clipPath id="clip712">
    <rect x="174" y="47" width="2180" height="1377"></rect>
  </clipPath>
</defs>
<polyline clip-path="url(#clip712)" style="stroke:#000000; stroke-linecap:round; stroke-linejoin:round; stroke-width:2; stroke-opacity:0.1; fill:none" points="377.531,1423.18 377.531,47.2441 "></polyline>
<polyline clip-path="url(#clip712)" style="stroke:#000000; stroke-linecap:round; stroke-linejoin:round; stroke-width:2; stroke-opacity:0.1; fill:none" points="731.895,1423.18 731.895,47.2441 "></polyline>
<polyline clip-path="url(#clip712)" style="stroke:#000000; stroke-linecap:round; stroke-linejoin:round; stroke-width:2; stroke-opacity:0.1; fill:none" points="1086.26,1423.18 1086.26,47.2441 "></polyline>
<polyline clip-path="url(#clip712)" style="stroke:#000000; stroke-linecap:round; stroke-linejoin:round; stroke-width:2; stroke-opacity:0.1; fill:none" points="1440.62,1423.18 1440.62,47.2441 "></polyline>
<polyline clip-path="url(#clip712)" style="stroke:#000000; stroke-linecap:round; stroke-linejoin:round; stroke-width:2; stroke-opacity:0.1; fill:none" points="1794.99,1423.18 1794.99,47.2441 "></polyline>
<polyline clip-path="url(#clip712)" style="stroke:#000000; stroke-linecap:round; stroke-linejoin:round; stroke-width:2; stroke-opacity:0.1; fill:none" points="2149.35,1423.18 2149.35,47.2441 "></polyline>
<polyline clip-path="url(#clip710)" style="stroke:#000000; stroke-linecap:round; stroke-linejoin:round; stroke-width:4; stroke-opacity:1; fill:none" points="174.126,1423.18 2352.76,1423.18 "></polyline>
<polyline clip-path="url(#clip710)" style="stroke:#000000; stroke-linecap:round; stroke-linejoin:round; stroke-width:4; stroke-opacity:1; fill:none" points="377.531,1423.18 377.531,1404.28 "></polyline>
<polyline clip-path="url(#clip710)" style="stroke:#000000; stroke-linecap:round; stroke-linejoin:round; stroke-width:4; stroke-opacity:1; fill:none" points="731.895,1423.18 731.895,1404.28 "></polyline>
<polyline clip-path="url(#clip710)" style="stroke:#000000; stroke-linecap:round; stroke-linejoin:round; stroke-width:4; stroke-opacity:1; fill:none" points="1086.26,1423.18 1086.26,1404.28 "></polyline>
<polyline clip-path="url(#clip710)" style="stroke:#000000; stroke-linecap:round; stroke-linejoin:round; stroke-width:4; stroke-opacity:1; fill:none" points="1440.62,1423.18 1440.62,1404.28 "></polyline>
<polyline clip-path="url(#clip710)" style="stroke:#000000; stroke-linecap:round; stroke-linejoin:round; stroke-width:4; stroke-opacity:1; fill:none" points="1794.99,1423.18 1794.99,1404.28 "></polyline>
<polyline clip-path="url(#clip710)" style="stroke:#000000; stroke-linecap:round; stroke-linejoin:round; stroke-width:4; stroke-opacity:1; fill:none" points="2149.35,1423.18 2149.35,1404.28 "></polyline>
<path clip-path="url(#clip710)" d="M381.778 1466.95 Q385.135 1467.66 387.01 1469.93 Q388.908 1472.2 388.908 1475.53 Q388.908 1480.65 385.389 1483.45 Q381.871 1486.25 375.39 1486.25 Q373.214 1486.25 370.899 1485.81 Q368.607 1485.39 366.153 1484.54 L366.153 1480.02 Q368.098 1481.16 370.413 1481.74 Q372.728 1482.32 375.251 1482.32 Q379.649 1482.32 381.94 1480.58 Q384.255 1478.84 384.255 1475.53 Q384.255 1472.48 382.102 1470.77 Q379.973 1469.03 376.153 1469.03 L372.126 1469.03 L372.126 1465.19 L376.339 1465.19 Q379.788 1465.19 381.616 1463.82 Q383.445 1462.43 383.445 1459.84 Q383.445 1457.18 381.547 1455.77 Q379.672 1454.33 376.153 1454.33 Q374.232 1454.33 372.033 1454.75 Q369.834 1455.16 367.195 1456.04 L367.195 1451.88 Q369.857 1451.14 372.172 1450.77 Q374.51 1450.39 376.57 1450.39 Q381.894 1450.39 384.996 1452.83 Q388.098 1455.23 388.098 1459.35 Q388.098 1462.22 386.454 1464.21 Q384.811 1466.18 381.778 1466.95 Z" fill="#000000" fill-rule="nonzero" fill-opacity="1"></path><path clip-path="url(#clip710)" d="M734.904 1455.09 L723.099 1473.54 L734.904 1473.54 L734.904 1455.09 M733.677 1451.02 L739.557 1451.02 L739.557 1473.54 L744.487 1473.54 L744.487 1477.43 L739.557 1477.43 L739.557 1485.58 L734.904 1485.58 L734.904 1477.43 L719.302 1477.43 L719.302 1472.92 L733.677 1451.02 Z" fill="#000000" fill-rule="nonzero" fill-opacity="1"></path><path clip-path="url(#clip710)" d="M1076.54 1451.02 L1094.89 1451.02 L1094.89 1454.96 L1080.82 1454.96 L1080.82 1463.43 Q1081.84 1463.08 1082.86 1462.92 Q1083.87 1462.73 1084.89 1462.73 Q1090.68 1462.73 1094.06 1465.9 Q1097.44 1469.08 1097.44 1474.49 Q1097.44 1480.07 1093.97 1483.17 Q1090.49 1486.25 1084.18 1486.25 Q1082 1486.25 1079.73 1485.88 Q1077.49 1485.51 1075.08 1484.77 L1075.08 1480.07 Q1077.16 1481.2 1079.38 1481.76 Q1081.61 1482.32 1084.08 1482.32 Q1088.09 1482.32 1090.43 1480.21 Q1092.76 1478.1 1092.76 1474.49 Q1092.76 1470.88 1090.43 1468.77 Q1088.09 1466.67 1084.08 1466.67 Q1082.21 1466.67 1080.33 1467.08 Q1078.48 1467.5 1076.54 1468.38 L1076.54 1451.02 Z" fill="#000000" fill-rule="nonzero" fill-opacity="1"></path><path clip-path="url(#clip710)" d="M1441.03 1466.44 Q1437.88 1466.44 1436.03 1468.59 Q1434.2 1470.74 1434.2 1474.49 Q1434.2 1478.22 1436.03 1480.39 Q1437.88 1482.55 1441.03 1482.55 Q1444.18 1482.55 1446 1480.39 Q1447.86 1478.22 1447.86 1474.49 Q1447.86 1470.74 1446 1468.59 Q1444.18 1466.44 1441.03 1466.44 M1450.31 1451.78 L1450.31 1456.04 Q1448.55 1455.21 1446.75 1454.77 Q1444.96 1454.33 1443.2 1454.33 Q1438.57 1454.33 1436.12 1457.45 Q1433.69 1460.58 1433.34 1466.9 Q1434.71 1464.89 1436.77 1463.82 Q1438.83 1462.73 1441.31 1462.73 Q1446.51 1462.73 1449.52 1465.9 Q1452.56 1469.05 1452.56 1474.49 Q1452.56 1479.82 1449.41 1483.03 Q1446.26 1486.25 1441.03 1486.25 Q1435.03 1486.25 1431.86 1481.67 Q1428.69 1477.06 1428.69 1468.33 Q1428.69 1460.14 1432.58 1455.28 Q1436.47 1450.39 1443.02 1450.39 Q1444.78 1450.39 1446.56 1450.74 Q1448.37 1451.09 1450.31 1451.78 Z" fill="#000000" fill-rule="nonzero" fill-opacity="1"></path><path clip-path="url(#clip710)" d="M1783.88 1451.02 L1806.1 1451.02 L1806.1 1453.01 L1793.55 1485.58 L1788.67 1485.58 L1800.47 1454.96 L1783.88 1454.96 L1783.88 1451.02 Z" fill="#000000" fill-rule="nonzero" fill-opacity="1"></path><path clip-path="url(#clip710)" d="M2149.35 1469.17 Q2146.02 1469.17 2144.1 1470.95 Q2142.2 1472.73 2142.2 1475.86 Q2142.2 1478.98 2144.1 1480.77 Q2146.02 1482.55 2149.35 1482.55 Q2152.68 1482.55 2154.61 1480.77 Q2156.53 1478.96 2156.53 1475.86 Q2156.53 1472.73 2154.61 1470.95 Q2152.71 1469.17 2149.35 1469.17 M2144.68 1467.18 Q2141.67 1466.44 2139.98 1464.38 Q2138.31 1462.32 2138.31 1459.35 Q2138.31 1455.21 2141.25 1452.8 Q2144.21 1450.39 2149.35 1450.39 Q2154.51 1450.39 2157.45 1452.8 Q2160.39 1455.21 2160.39 1459.35 Q2160.39 1462.32 2158.7 1464.38 Q2157.04 1466.44 2154.05 1467.18 Q2157.43 1467.96 2159.3 1470.26 Q2161.2 1472.55 2161.2 1475.86 Q2161.2 1480.88 2158.12 1483.57 Q2155.07 1486.25 2149.35 1486.25 Q2143.63 1486.25 2140.55 1483.57 Q2137.5 1480.88 2137.5 1475.86 Q2137.5 1472.55 2139.4 1470.26 Q2141.3 1467.96 2144.68 1467.18 M2142.96 1459.79 Q2142.96 1462.48 2144.63 1463.98 Q2146.32 1465.49 2149.35 1465.49 Q2152.36 1465.49 2154.05 1463.98 Q2155.76 1462.48 2155.76 1459.79 Q2155.76 1457.11 2154.05 1455.6 Q2152.36 1454.1 2149.35 1454.1 Q2146.32 1454.1 2144.63 1455.6 Q2142.96 1457.11 2142.96 1459.79 Z" fill="#000000" fill-rule="nonzero" fill-opacity="1"></path><path clip-path="url(#clip710)" d="M1057.51 1526.86 L1048.79 1550.51 L1066.26 1550.51 L1057.51 1526.86 M1053.88 1520.52 L1061.17 1520.52 L1079.28 1568.04 L1072.6 1568.04 L1068.27 1555.85 L1046.85 1555.85 L1042.52 1568.04 L1035.74 1568.04 L1053.88 1520.52 Z" fill="#000000" fill-rule="nonzero" fill-opacity="1"></path><path clip-path="url(#clip710)" d="M1110.47 1533.76 L1110.47 1539.24 Q1107.99 1537.87 1105.48 1537.2 Q1102.99 1536.5 1100.45 1536.5 Q1094.75 1536.5 1091.6 1540.13 Q1088.45 1543.73 1088.45 1550.25 Q1088.45 1556.78 1091.6 1560.4 Q1094.75 1564 1100.45 1564 Q1102.99 1564 1105.48 1563.33 Q1107.99 1562.63 1110.47 1561.26 L1110.47 1566.68 Q1108.02 1567.82 1105.38 1568.39 Q1102.77 1568.97 1099.81 1568.97 Q1091.76 1568.97 1087.02 1563.91 Q1082.27 1558.85 1082.27 1550.25 Q1082.27 1541.53 1087.05 1536.53 Q1091.85 1531.54 1100.19 1531.54 Q1102.9 1531.54 1105.48 1532.11 Q1108.05 1532.65 1110.47 1533.76 Z" fill="#000000" fill-rule="nonzero" fill-opacity="1"></path><path clip-path="url(#clip710)" d="M1126.45 1522.27 L1126.45 1532.4 L1138.51 1532.4 L1138.51 1536.95 L1126.45 1536.95 L1126.45 1556.3 Q1126.45 1560.66 1127.63 1561.9 Q1128.84 1563.14 1132.5 1563.14 L1138.51 1563.14 L1138.51 1568.04 L1132.5 1568.04 Q1125.72 1568.04 1123.14 1565.53 Q1120.56 1562.98 1120.56 1556.3 L1120.56 1536.95 L1116.27 1536.95 L1116.27 1532.4 L1120.56 1532.4 L1120.56 1522.27 L1126.45 1522.27 Z" fill="#000000" fill-rule="nonzero" fill-opacity="1"></path><path clip-path="url(#clip710)" d="M1145.61 1553.98 L1145.61 1532.4 L1151.47 1532.4 L1151.47 1553.75 Q1151.47 1558.81 1153.44 1561.36 Q1155.41 1563.87 1159.36 1563.87 Q1164.1 1563.87 1166.84 1560.85 Q1169.61 1557.83 1169.61 1552.61 L1169.61 1532.4 L1175.47 1532.4 L1175.47 1568.04 L1169.61 1568.04 L1169.61 1562.57 Q1167.48 1565.82 1164.65 1567.41 Q1161.84 1568.97 1158.12 1568.97 Q1151.98 1568.97 1148.79 1565.15 Q1145.61 1561.33 1145.61 1553.98 M1160.35 1531.54 L1160.35 1531.54 Z" fill="#000000" fill-rule="nonzero" fill-opacity="1"></path><path clip-path="url(#clip710)" d="M1203.73 1550.12 Q1196.63 1550.12 1193.9 1551.75 Q1191.16 1553.37 1191.16 1557.29 Q1191.16 1560.4 1193.2 1562.25 Q1195.26 1564.07 1198.8 1564.07 Q1203.67 1564.07 1206.6 1560.63 Q1209.56 1557.16 1209.56 1551.43 L1209.56 1550.12 L1203.73 1550.12 M1215.41 1547.71 L1215.41 1568.04 L1209.56 1568.04 L1209.56 1562.63 Q1207.55 1565.88 1204.56 1567.44 Q1201.57 1568.97 1197.24 1568.97 Q1191.76 1568.97 1188.52 1565.91 Q1185.3 1562.82 1185.3 1557.67 Q1185.3 1551.65 1189.31 1548.6 Q1193.35 1545.54 1201.34 1545.54 L1209.56 1545.54 L1209.56 1544.97 Q1209.56 1540.93 1206.88 1538.73 Q1204.24 1536.5 1199.43 1536.5 Q1196.38 1536.5 1193.48 1537.23 Q1190.59 1537.97 1187.91 1539.43 L1187.91 1534.02 Q1191.13 1532.78 1194.15 1532.17 Q1197.17 1531.54 1200.04 1531.54 Q1207.77 1531.54 1211.59 1535.55 Q1215.41 1539.56 1215.41 1547.71 Z" fill="#000000" fill-rule="nonzero" fill-opacity="1"></path><path clip-path="url(#clip710)" d="M1227.47 1518.52 L1233.33 1518.52 L1233.33 1568.04 L1227.47 1568.04 L1227.47 1518.52 Z" fill="#000000" fill-rule="nonzero" fill-opacity="1"></path><path clip-path="url(#clip710)" d="M1285.85 1524.88 Q1278.85 1524.88 1274.71 1530.1 Q1270.6 1535.32 1270.6 1544.33 Q1270.6 1553.31 1274.71 1558.53 Q1278.85 1563.75 1285.85 1563.75 Q1292.85 1563.75 1296.92 1558.53 Q1301.03 1553.31 1301.03 1544.33 Q1301.03 1535.32 1296.92 1530.1 Q1292.85 1524.88 1285.85 1524.88 M1294.86 1567.18 L1303.32 1576.45 L1295.56 1576.45 L1288.52 1568.84 Q1287.47 1568.9 1286.9 1568.94 Q1286.36 1568.97 1285.85 1568.97 Q1275.82 1568.97 1269.81 1562.28 Q1263.82 1555.57 1263.82 1544.33 Q1263.82 1533.06 1269.81 1526.38 Q1275.82 1519.66 1285.85 1519.66 Q1295.84 1519.66 1301.83 1526.38 Q1307.81 1533.06 1307.81 1544.33 Q1307.81 1552.61 1304.47 1558.5 Q1301.16 1564.38 1294.86 1567.18 Z" fill="#000000" fill-rule="nonzero" fill-opacity="1"></path><path clip-path="url(#clip710)" d="M1317.01 1553.98 L1317.01 1532.4 L1322.86 1532.4 L1322.86 1553.75 Q1322.86 1558.81 1324.84 1561.36 Q1326.81 1563.87 1330.76 1563.87 Q1335.5 1563.87 1338.24 1560.85 Q1341.01 1557.83 1341.01 1552.61 L1341.01 1532.4 L1346.86 1532.4 L1346.86 1568.04 L1341.01 1568.04 L1341.01 1562.57 Q1338.87 1565.82 1336.04 1567.41 Q1333.24 1568.97 1329.52 1568.97 Q1323.37 1568.97 1320.19 1565.15 Q1317.01 1561.33 1317.01 1553.98 M1331.74 1531.54 L1331.74 1531.54 Z" fill="#000000" fill-rule="nonzero" fill-opacity="1"></path><path clip-path="url(#clip710)" d="M1375.13 1550.12 Q1368.03 1550.12 1365.29 1551.75 Q1362.55 1553.37 1362.55 1557.29 Q1362.55 1560.4 1364.59 1562.25 Q1366.66 1564.07 1370.19 1564.07 Q1375.06 1564.07 1377.99 1560.63 Q1380.95 1557.16 1380.95 1551.43 L1380.95 1550.12 L1375.13 1550.12 M1386.81 1547.71 L1386.81 1568.04 L1380.95 1568.04 L1380.95 1562.63 Q1378.95 1565.88 1375.95 1567.44 Q1372.96 1568.97 1368.63 1568.97 Q1363.16 1568.97 1359.91 1565.91 Q1356.7 1562.82 1356.7 1557.67 Q1356.7 1551.65 1360.71 1548.6 Q1364.75 1545.54 1372.74 1545.54 L1380.95 1545.54 L1380.95 1544.97 Q1380.95 1540.93 1378.28 1538.73 Q1375.64 1536.5 1370.83 1536.5 Q1367.77 1536.5 1364.88 1537.23 Q1361.98 1537.97 1359.31 1539.43 L1359.31 1534.02 Q1362.52 1532.78 1365.55 1532.17 Q1368.57 1531.54 1371.44 1531.54 Q1379.17 1531.54 1382.99 1535.55 Q1386.81 1539.56 1386.81 1547.71 Z" fill="#000000" fill-rule="nonzero" fill-opacity="1"></path><path clip-path="url(#clip710)" d="M1398.87 1518.52 L1404.73 1518.52 L1404.73 1568.04 L1398.87 1568.04 L1398.87 1518.52 Z" fill="#000000" fill-rule="nonzero" fill-opacity="1"></path><path clip-path="url(#clip710)" d="M1416.98 1532.4 L1422.84 1532.4 L1422.84 1568.04 L1416.98 1568.04 L1416.98 1532.4 M1416.98 1518.52 L1422.84 1518.52 L1422.84 1525.93 L1416.98 1525.93 L1416.98 1518.52 Z" fill="#000000" fill-rule="nonzero" fill-opacity="1"></path><path clip-path="url(#clip710)" d="M1440.88 1522.27 L1440.88 1532.4 L1452.95 1532.4 L1452.95 1536.95 L1440.88 1536.95 L1440.88 1556.3 Q1440.88 1560.66 1442.06 1561.9 Q1443.27 1563.14 1446.93 1563.14 L1452.95 1563.14 L1452.95 1568.04 L1446.93 1568.04 Q1440.15 1568.04 1437.57 1565.53 Q1435 1562.98 1435 1556.3 L1435 1536.95 L1430.7 1536.95 L1430.7 1532.4 L1435 1532.4 L1435 1522.27 L1440.88 1522.27 Z" fill="#000000" fill-rule="nonzero" fill-opacity="1"></path><path clip-path="url(#clip710)" d="M1475.48 1571.35 Q1473 1577.72 1470.64 1579.66 Q1468.29 1581.6 1464.34 1581.6 L1459.66 1581.6 L1459.66 1576.7 L1463.1 1576.7 Q1465.52 1576.7 1466.86 1575.56 Q1468.19 1574.41 1469.82 1570.14 L1470.87 1567.47 L1456.45 1532.4 L1462.66 1532.4 L1473.8 1560.28 L1484.94 1532.4 L1491.14 1532.4 L1475.48 1571.35 Z" fill="#000000" fill-rule="nonzero" fill-opacity="1"></path><polyline clip-path="url(#clip712)" style="stroke:#000000; stroke-linecap:round; stroke-linejoin:round; stroke-width:2; stroke-opacity:0.1; fill:none" points="174.126,1288.46 2352.76,1288.46 "></polyline>
<polyline clip-path="url(#clip712)" style="stroke:#000000; stroke-linecap:round; stroke-linejoin:round; stroke-width:2; stroke-opacity:0.1; fill:none" points="174.126,885.584 2352.76,885.584 "></polyline>
<polyline clip-path="url(#clip712)" style="stroke:#000000; stroke-linecap:round; stroke-linejoin:round; stroke-width:2; stroke-opacity:0.1; fill:none" points="174.126,482.705 2352.76,482.705 "></polyline>
<polyline clip-path="url(#clip712)" style="stroke:#000000; stroke-linecap:round; stroke-linejoin:round; stroke-width:2; stroke-opacity:0.1; fill:none" points="174.126,79.825 2352.76,79.825 "></polyline>
<polyline clip-path="url(#clip710)" style="stroke:#000000; stroke-linecap:round; stroke-linejoin:round; stroke-width:4; stroke-opacity:1; fill:none" points="174.126,1423.18 174.126,47.2441 "></polyline>
<polyline clip-path="url(#clip710)" style="stroke:#000000; stroke-linecap:round; stroke-linejoin:round; stroke-width:4; stroke-opacity:1; fill:none" points="174.126,1288.46 193.023,1288.46 "></polyline>
<polyline clip-path="url(#clip710)" style="stroke:#000000; stroke-linecap:round; stroke-linejoin:round; stroke-width:4; stroke-opacity:1; fill:none" points="174.126,885.584 193.023,885.584 "></polyline>
<polyline clip-path="url(#clip710)" style="stroke:#000000; stroke-linecap:round; stroke-linejoin:round; stroke-width:4; stroke-opacity:1; fill:none" points="174.126,482.705 193.023,482.705 "></polyline>
<polyline clip-path="url(#clip710)" style="stroke:#000000; stroke-linecap:round; stroke-linejoin:round; stroke-width:4; stroke-opacity:1; fill:none" points="174.126,79.825 193.023,79.825 "></polyline>
<path clip-path="url(#clip710)" d="M117.223 1271.18 L135.579 1271.18 L135.579 1275.12 L121.505 1275.12 L121.505 1283.59 Q122.524 1283.24 123.543 1283.08 Q124.561 1282.9 125.58 1282.9 Q131.367 1282.9 134.746 1286.07 Q138.126 1289.24 138.126 1294.66 Q138.126 1300.23 134.654 1303.34 Q131.181 1306.42 124.862 1306.42 Q122.686 1306.42 120.418 1306.04 Q118.172 1305.67 115.765 1304.93 L115.765 1300.23 Q117.848 1301.37 120.07 1301.92 Q122.293 1302.48 124.769 1302.48 Q128.774 1302.48 131.112 1300.37 Q133.45 1298.27 133.45 1294.66 Q133.45 1291.04 131.112 1288.94 Q128.774 1286.83 124.769 1286.83 Q122.894 1286.83 121.019 1287.25 Q119.168 1287.67 117.223 1288.54 L117.223 1271.18 Z" fill="#000000" fill-rule="nonzero" fill-opacity="1"></path><path clip-path="url(#clip710)" d="M126.598 883.721 Q123.45 883.721 121.598 885.874 Q119.769 888.026 119.769 891.776 Q119.769 895.503 121.598 897.679 Q123.45 899.832 126.598 899.832 Q129.746 899.832 131.575 897.679 Q133.427 895.503 133.427 891.776 Q133.427 888.026 131.575 885.874 Q129.746 883.721 126.598 883.721 M135.88 869.068 L135.88 873.327 Q134.121 872.494 132.316 872.054 Q130.533 871.614 128.774 871.614 Q124.144 871.614 121.691 874.739 Q119.26 877.864 118.913 884.184 Q120.279 882.17 122.339 881.105 Q124.399 880.017 126.876 880.017 Q132.084 880.017 135.093 883.188 Q138.126 886.337 138.126 891.776 Q138.126 897.1 134.978 900.318 Q131.83 903.536 126.598 903.536 Q120.603 903.536 117.431 898.952 Q114.26 894.346 114.26 885.619 Q114.26 877.425 118.149 872.564 Q122.038 867.679 128.589 867.679 Q130.348 867.679 132.13 868.027 Q133.936 868.374 135.88 869.068 Z" fill="#000000" fill-rule="nonzero" fill-opacity="1"></path><path clip-path="url(#clip710)" d="M115.904 465.425 L138.126 465.425 L138.126 467.415 L125.58 499.985 L120.695 499.985 L132.501 469.36 L115.904 469.36 L115.904 465.425 Z" fill="#000000" fill-rule="nonzero" fill-opacity="1"></path><path clip-path="url(#clip710)" d="M126.274 80.693 Q122.941 80.693 121.019 82.4754 Q119.121 84.2578 119.121 87.3828 Q119.121 90.5078 121.019 92.2902 Q122.941 94.0726 126.274 94.0726 Q129.607 94.0726 131.529 92.2902 Q133.45 90.4846 133.45 87.3828 Q133.45 84.2578 131.529 82.4754 Q129.63 80.693 126.274 80.693 M121.598 78.7023 Q118.589 77.9615 116.899 75.9014 Q115.232 73.8412 115.232 70.8782 Q115.232 66.7347 118.172 64.3273 Q121.135 61.92 126.274 61.92 Q131.436 61.92 134.376 64.3273 Q137.316 66.7347 137.316 70.8782 Q137.316 73.8412 135.626 75.9014 Q133.959 77.9615 130.973 78.7023 Q134.353 79.4893 136.228 81.781 Q138.126 84.0726 138.126 87.3828 Q138.126 92.4059 135.047 95.0911 Q131.992 97.7762 126.274 97.7762 Q120.556 97.7762 117.478 95.0911 Q114.422 92.4059 114.422 87.3828 Q114.422 84.0726 116.32 81.781 Q118.218 79.4893 121.598 78.7023 M119.885 71.3181 Q119.885 74.0032 121.552 75.5078 Q123.242 77.0125 126.274 77.0125 Q129.283 77.0125 130.973 75.5078 Q132.686 74.0032 132.686 71.3181 Q132.686 68.6329 130.973 67.1283 Q129.283 65.6236 126.274 65.6236 Q123.242 65.6236 121.552 67.1283 Q119.885 68.6329 119.885 71.3181 Z" fill="#000000" fill-rule="nonzero" fill-opacity="1"></path><path clip-path="url(#clip710)" d="M21.7677 1004.43 L39.6235 1004.43 L39.6235 996.349 Q39.6235 991.861 37.3 989.411 Q34.9765 986.96 30.6797 986.96 Q26.4147 986.96 24.0912 989.411 Q21.7677 991.861 21.7677 996.349 L21.7677 1004.43 M16.4842 1010.86 L16.4842 996.349 Q16.4842 988.36 20.1126 984.286 Q23.7092 980.18 30.6797 980.18 Q37.7138 980.18 41.3104 984.286 Q44.907 988.36 44.907 996.349 L44.907 1004.43 L64.0042 1004.43 L64.0042 1010.86 L16.4842 1010.86 Z" fill="#000000" fill-rule="nonzero" fill-opacity="1"></path><path clip-path="url(#clip710)" d="M33.8307 952.298 Q33.2578 953.285 33.0032 954.463 Q32.7167 955.609 32.7167 957.009 Q32.7167 961.974 35.9632 964.648 Q39.1779 967.29 45.2253 967.29 L64.0042 967.29 L64.0042 973.178 L28.3562 973.178 L28.3562 967.29 L33.8944 967.29 Q30.6479 965.444 29.0883 962.484 Q27.4968 959.524 27.4968 955.29 Q27.4968 954.686 27.5923 953.954 Q27.656 953.222 27.8151 952.33 L33.8307 952.298 Z" fill="#000000" fill-rule="nonzero" fill-opacity="1"></path><path clip-path="url(#clip710)" d="M44.7161 917.096 L47.5806 917.096 L47.5806 944.023 Q53.6281 943.641 56.8109 940.395 Q59.9619 937.116 59.9619 931.292 Q59.9619 927.918 59.1344 924.767 Q58.3069 921.584 56.6518 918.465 L62.1899 918.465 Q63.5267 921.616 64.227 924.926 Q64.9272 928.236 64.9272 931.642 Q64.9272 940.172 59.9619 945.169 Q54.9967 950.134 46.5303 950.134 Q37.7774 950.134 32.6531 945.424 Q27.4968 940.681 27.4968 932.66 Q27.4968 925.467 32.1438 921.297 Q36.7589 917.096 44.7161 917.096 M42.9973 922.953 Q38.1912 923.016 35.3266 925.658 Q32.4621 928.268 32.4621 932.597 Q32.4621 937.498 35.2312 940.458 Q38.0002 943.386 43.0292 943.832 L42.9973 922.953 Z" fill="#000000" fill-rule="nonzero" fill-opacity="1"></path><path clip-path="url(#clip710)" d="M33.7671 884.026 L14.479 884.026 L14.479 878.17 L64.0042 878.17 L64.0042 884.026 L58.657 884.026 Q61.8398 885.872 63.3994 888.705 Q64.9272 891.506 64.9272 895.453 Q64.9272 901.914 59.771 905.988 Q54.6147 910.03 46.212 910.03 Q37.8093 910.03 32.6531 905.988 Q27.4968 901.914 27.4968 895.453 Q27.4968 891.506 29.0564 888.705 Q30.5842 885.872 33.7671 884.026 M46.212 903.983 Q52.6732 903.983 56.3653 901.341 Q60.0256 898.667 60.0256 894.02 Q60.0256 889.373 56.3653 886.7 Q52.6732 884.026 46.212 884.026 Q39.7508 884.026 36.0905 886.7 Q32.3984 889.373 32.3984 894.02 Q32.3984 898.667 36.0905 901.341 Q39.7508 903.983 46.212 903.983 Z" fill="#000000" fill-rule="nonzero" fill-opacity="1"></path><path clip-path="url(#clip710)" d="M28.3562 866.107 L28.3562 860.25 L64.0042 860.25 L64.0042 866.107 L28.3562 866.107 M14.479 866.107 L14.479 860.25 L21.895 860.25 L21.895 866.107 L14.479 866.107 Z" fill="#000000" fill-rule="nonzero" fill-opacity="1"></path><path clip-path="url(#clip710)" d="M29.7248 822.343 L35.1993 822.343 Q33.8307 824.825 33.1623 827.34 Q32.4621 829.822 32.4621 832.369 Q32.4621 838.066 36.0905 841.217 Q39.6872 844.368 46.212 844.368 Q52.7369 844.368 56.3653 841.217 Q59.9619 838.066 59.9619 832.369 Q59.9619 829.822 59.2935 827.34 Q58.5933 824.825 57.2247 822.343 L62.6355 822.343 Q63.7814 824.793 64.3543 827.435 Q64.9272 830.045 64.9272 833.005 Q64.9272 841.058 59.8664 845.8 Q54.8057 850.543 46.212 850.543 Q37.491 850.543 32.4939 845.768 Q27.4968 840.962 27.4968 832.623 Q27.4968 829.918 28.0697 827.34 Q28.6108 824.762 29.7248 822.343 Z" fill="#000000" fill-rule="nonzero" fill-opacity="1"></path><path clip-path="url(#clip710)" d="M18.2347 806.365 L28.3562 806.365 L28.3562 794.302 L32.9077 794.302 L32.9077 806.365 L52.2594 806.365 Q56.6199 806.365 57.8613 805.187 Q59.1026 803.978 59.1026 800.317 L59.1026 794.302 L64.0042 794.302 L64.0042 800.317 Q64.0042 807.097 61.4897 809.675 Q58.9434 812.253 52.2594 812.253 L32.9077 812.253 L32.9077 816.55 L28.3562 816.55 L28.3562 812.253 L18.2347 812.253 L18.2347 806.365 Z" fill="#000000" fill-rule="nonzero" fill-opacity="1"></path><path clip-path="url(#clip710)" d="M44.7161 756.107 L47.5806 756.107 L47.5806 783.034 Q53.6281 782.652 56.8109 779.406 Q59.9619 776.128 59.9619 770.303 Q59.9619 766.929 59.1344 763.778 Q58.3069 760.595 56.6518 757.476 L62.1899 757.476 Q63.5267 760.627 64.227 763.937 Q64.9272 767.247 64.9272 770.653 Q64.9272 779.183 59.9619 784.18 Q54.9967 789.145 46.5303 789.145 Q37.7774 789.145 32.6531 784.435 Q27.4968 779.692 27.4968 771.672 Q27.4968 764.478 32.1438 760.309 Q36.7589 756.107 44.7161 756.107 M42.9973 761.964 Q38.1912 762.028 35.3266 764.669 Q32.4621 767.279 32.4621 771.608 Q32.4621 776.509 35.2312 779.47 Q38.0002 782.398 43.0292 782.843 L42.9973 761.964 Z" fill="#000000" fill-rule="nonzero" fill-opacity="1"></path><path clip-path="url(#clip710)" d="M33.7671 723.038 L14.479 723.038 L14.479 717.181 L64.0042 717.181 L64.0042 723.038 L58.657 723.038 Q61.8398 724.884 63.3994 727.716 Q64.9272 730.517 64.9272 734.464 Q64.9272 740.925 59.771 744.999 Q54.6147 749.041 46.212 749.041 Q37.8093 749.041 32.6531 744.999 Q27.4968 740.925 27.4968 734.464 Q27.4968 730.517 29.0564 727.716 Q30.5842 724.884 33.7671 723.038 M46.212 742.994 Q52.6732 742.994 56.3653 740.352 Q60.0256 737.679 60.0256 733.032 Q60.0256 728.385 56.3653 725.711 Q52.6732 723.038 46.212 723.038 Q39.7508 723.038 36.0905 725.711 Q32.3984 728.385 32.3984 733.032 Q32.3984 737.679 36.0905 740.352 Q39.7508 742.994 46.212 742.994 Z" fill="#000000" fill-rule="nonzero" fill-opacity="1"></path><path clip-path="url(#clip710)" d="M20.8447 664.855 Q20.8447 671.857 26.0645 675.995 Q31.2844 680.101 40.2919 680.101 Q49.2675 680.101 54.4874 675.995 Q59.7073 671.857 59.7073 664.855 Q59.7073 657.853 54.4874 653.779 Q49.2675 649.673 40.2919 649.673 Q31.2844 649.673 26.0645 653.779 Q20.8447 657.853 20.8447 664.855 M63.1448 655.848 L72.4069 647.381 L72.4069 655.147 L64.7999 662.181 Q64.8635 663.232 64.8954 663.805 Q64.9272 664.346 64.9272 664.855 Q64.9272 674.881 58.2432 680.897 Q51.5274 686.88 40.2919 686.88 Q29.0246 686.88 22.3406 680.897 Q15.6248 674.881 15.6248 664.855 Q15.6248 654.861 22.3406 648.877 Q29.0246 642.893 40.2919 642.893 Q48.5673 642.893 54.4556 646.235 Q60.3439 649.545 63.1448 655.848 Z" fill="#000000" fill-rule="nonzero" fill-opacity="1"></path><path clip-path="url(#clip710)" d="M49.9359 633.695 L28.3562 633.695 L28.3562 627.838 L49.7131 627.838 Q54.7739 627.838 57.3202 625.865 Q59.8346 623.892 59.8346 619.945 Q59.8346 615.202 56.8109 612.465 Q53.7872 609.696 48.5673 609.696 L28.3562 609.696 L28.3562 603.84 L64.0042 603.84 L64.0042 609.696 L58.5296 609.696 Q61.7762 611.829 63.3676 614.661 Q64.9272 617.462 64.9272 621.186 Q64.9272 627.329 61.1078 630.512 Q57.2883 633.695 49.9359 633.695 M27.4968 618.958 L27.4968 618.958 Z" fill="#000000" fill-rule="nonzero" fill-opacity="1"></path><path clip-path="url(#clip710)" d="M46.0847 575.576 Q46.0847 582.674 47.7079 585.411 Q49.3312 588.148 53.2461 588.148 Q56.3653 588.148 58.2114 586.111 Q60.0256 584.042 60.0256 580.509 Q60.0256 575.64 56.5881 572.711 Q53.1188 569.751 47.3897 569.751 L46.0847 569.751 L46.0847 575.576 M43.6657 563.895 L64.0042 563.895 L64.0042 569.751 L58.5933 569.751 Q61.8398 571.757 63.3994 574.748 Q64.9272 577.74 64.9272 582.069 Q64.9272 587.543 61.8716 590.79 Q58.7843 594.005 53.6281 594.005 Q47.6125 594.005 44.5569 589.994 Q41.5014 585.952 41.5014 577.963 L41.5014 569.751 L40.9285 569.751 Q36.8862 569.751 34.6901 572.425 Q32.4621 575.067 32.4621 579.873 Q32.4621 582.928 33.1941 585.825 Q33.9262 588.721 35.3903 591.395 L29.9795 591.395 Q28.7381 588.18 28.1334 585.156 Q27.4968 582.133 27.4968 579.268 Q27.4968 571.534 31.5072 567.714 Q35.5176 563.895 43.6657 563.895 Z" fill="#000000" fill-rule="nonzero" fill-opacity="1"></path><path clip-path="url(#clip710)" d="M14.479 551.832 L14.479 545.975 L64.0042 545.975 L64.0042 551.832 L14.479 551.832 Z" fill="#000000" fill-rule="nonzero" fill-opacity="1"></path><path clip-path="url(#clip710)" d="M28.3562 533.721 L28.3562 527.865 L64.0042 527.865 L64.0042 533.721 L28.3562 533.721 M14.479 533.721 L14.479 527.865 L21.895 527.865 L21.895 533.721 L14.479 533.721 Z" fill="#000000" fill-rule="nonzero" fill-opacity="1"></path><path clip-path="url(#clip710)" d="M18.2347 509.818 L28.3562 509.818 L28.3562 497.755 L32.9077 497.755 L32.9077 509.818 L52.2594 509.818 Q56.6199 509.818 57.8613 508.641 Q59.1026 507.431 59.1026 503.771 L59.1026 497.755 L64.0042 497.755 L64.0042 503.771 Q64.0042 510.55 61.4897 513.128 Q58.9434 515.706 52.2594 515.706 L32.9077 515.706 L32.9077 520.003 L28.3562 520.003 L28.3562 515.706 L18.2347 515.706 L18.2347 509.818 Z" fill="#000000" fill-rule="nonzero" fill-opacity="1"></path><path clip-path="url(#clip710)" d="M67.3143 475.221 Q73.68 477.703 75.6216 480.059 Q77.5631 482.414 77.5631 486.361 L77.5631 491.039 L72.6615 491.039 L72.6615 487.602 Q72.6615 485.183 71.5157 483.846 Q70.3699 482.509 66.1048 480.886 L63.4312 479.836 L28.3562 494.254 L28.3562 488.047 L56.238 476.908 L28.3562 465.768 L28.3562 459.561 L67.3143 475.221 Z" fill="#000000" fill-rule="nonzero" fill-opacity="1"></path><path clip-path="url(#clip712)" d="M377.531 1195.58 L306.658 1195.58 L448.404 1195.58 L377.531 1195.58 L377.531 1185.25 L377.531 1195.58  Z" fill="#0000ff" fill-rule="evenodd" fill-opacity="1"></path>
<polyline clip-path="url(#clip712)" style="stroke:#000000; stroke-linecap:round; stroke-linejoin:round; stroke-width:4; stroke-opacity:1; fill:none" points="377.531,1195.58 306.658,1195.58 448.404,1195.58 377.531,1195.58 377.531,1185.25 377.531,1195.58 "></polyline>
<path clip-path="url(#clip712)" d="M519.276 1185.25 L519.276 1174.92 L235.785 1174.92 L235.785 1185.25 L519.276 1185.25 L519.276 1174.92 L519.276 1185.25  Z" fill="#0000ff" fill-rule="evenodd" fill-opacity="1"></path>
<polyline clip-path="url(#clip712)" style="stroke:#000000; stroke-linecap:round; stroke-linejoin:round; stroke-width:4; stroke-opacity:1; fill:none" points="519.276,1185.25 519.276,1174.92 235.785,1174.92 235.785,1185.25 519.276,1185.25 519.276,1174.92 519.276,1185.25 "></polyline>
<path clip-path="url(#clip712)" d="M519.276 1164.6 L235.785 1164.6 L235.785 1174.92 L519.276 1174.92 L519.276 1164.6 L377.531 1164.6 L519.276 1164.6  Z" fill="#0000ff" fill-rule="evenodd" fill-opacity="1"></path>
<polyline clip-path="url(#clip712)" style="stroke:#000000; stroke-linecap:round; stroke-linejoin:round; stroke-width:4; stroke-opacity:1; fill:none" points="519.276,1164.6 235.785,1164.6 235.785,1174.92 519.276,1174.92 519.276,1164.6 377.531,1164.6 519.276,1164.6 "></polyline>
<path clip-path="url(#clip712)" d="M377.531 1154.27 L306.658 1154.27 L448.404 1154.27 L377.531 1154.27 L377.531 1164.6 L377.531 1154.27  Z" fill="#0000ff" fill-rule="evenodd" fill-opacity="1"></path>
<polyline clip-path="url(#clip712)" style="stroke:#000000; stroke-linecap:round; stroke-linejoin:round; stroke-width:4; stroke-opacity:1; fill:none" points="377.531,1154.27 306.658,1154.27 448.404,1154.27 377.531,1154.27 377.531,1164.6 377.531,1154.27 "></polyline>
<path clip-path="url(#clip712)" d="M731.895 1331.87 L661.022 1331.87 L802.768 1331.87 L731.895 1331.87 L731.895 1161.49 L731.895 1331.87  Z" fill="#0000ff" fill-rule="evenodd" fill-opacity="1"></path>
<polyline clip-path="url(#clip712)" style="stroke:#000000; stroke-linecap:round; stroke-linejoin:round; stroke-width:4; stroke-opacity:1; fill:none" points="731.895,1331.87 661.022,1331.87 802.768,1331.87 731.895,1331.87 731.895,1161.49 731.895,1331.87 "></polyline>
<path clip-path="url(#clip712)" d="M873.64 1161.49 L873.64 1112.49 L590.149 1112.49 L590.149 1161.49 L873.64 1161.49 L873.64 1112.49 L873.64 1161.49  Z" fill="#0000ff" fill-rule="evenodd" fill-opacity="1"></path>
<polyline clip-path="url(#clip712)" style="stroke:#000000; stroke-linecap:round; stroke-linejoin:round; stroke-width:4; stroke-opacity:1; fill:none" points="873.64,1161.49 873.64,1112.49 590.149,1112.49 590.149,1161.49 873.64,1161.49 873.64,1112.49 873.64,1161.49 "></polyline>
<path clip-path="url(#clip712)" d="M873.64 1031.61 L590.149 1031.61 L590.149 1112.49 L873.64 1112.49 L873.64 1031.61 L731.895 1031.61 L873.64 1031.61  Z" fill="#0000ff" fill-rule="evenodd" fill-opacity="1"></path>
<polyline clip-path="url(#clip712)" style="stroke:#000000; stroke-linecap:round; stroke-linejoin:round; stroke-width:4; stroke-opacity:1; fill:none" points="873.64,1031.61 590.149,1031.61 590.149,1112.49 873.64,1112.49 873.64,1031.61 731.895,1031.61 873.64,1031.61 "></polyline>
<path clip-path="url(#clip712)" d="M731.895 1014.68 L661.022 1014.68 L802.768 1014.68 L731.895 1014.68 L731.895 1031.61 L731.895 1014.68  Z" fill="#0000ff" fill-rule="evenodd" fill-opacity="1"></path>
<polyline clip-path="url(#clip712)" style="stroke:#000000; stroke-linecap:round; stroke-linejoin:round; stroke-width:4; stroke-opacity:1; fill:none" points="731.895,1014.68 661.022,1014.68 802.768,1014.68 731.895,1014.68 731.895,1031.61 731.895,1014.68 "></polyline>
<path clip-path="url(#clip712)" d="M1086.26 1325.75 L1015.39 1325.75 L1157.13 1325.75 L1086.26 1325.75 L1086.26 1198.11 L1086.26 1325.75  Z" fill="#0000ff" fill-rule="evenodd" fill-opacity="1"></path>
<polyline clip-path="url(#clip712)" style="stroke:#000000; stroke-linecap:round; stroke-linejoin:round; stroke-width:4; stroke-opacity:1; fill:none" points="1086.26,1325.75 1015.39,1325.75 1157.13,1325.75 1086.26,1325.75 1086.26,1198.11 1086.26,1325.75 "></polyline>
<path clip-path="url(#clip712)" d="M1228 1198.11 L1228 1118.7 L944.513 1118.7 L944.513 1198.11 L1228 1198.11 L1228 1118.7 L1228 1198.11  Z" fill="#0000ff" fill-rule="evenodd" fill-opacity="1"></path>
<polyline clip-path="url(#clip712)" style="stroke:#000000; stroke-linecap:round; stroke-linejoin:round; stroke-width:4; stroke-opacity:1; fill:none" points="1228,1198.11 1228,1118.7 944.513,1118.7 944.513,1198.11 1228,1198.11 1228,1118.7 1228,1198.11 "></polyline>
<path clip-path="url(#clip712)" d="M1228 1030.48 L944.513 1030.48 L944.513 1118.7 L1228 1118.7 L1228 1030.48 L1086.26 1030.48 L1228 1030.48  Z" fill="#0000ff" fill-rule="evenodd" fill-opacity="1"></path>
<polyline clip-path="url(#clip712)" style="stroke:#000000; stroke-linecap:round; stroke-linejoin:round; stroke-width:4; stroke-opacity:1; fill:none" points="1228,1030.48 944.513,1030.48 944.513,1118.7 1228,1118.7 1228,1030.48 1086.26,1030.48 1228,1030.48 "></polyline>
<path clip-path="url(#clip712)" d="M1086.26 871.084 L1015.39 871.084 L1157.13 871.084 L1086.26 871.084 L1086.26 1030.48 L1086.26 871.084  Z" fill="#0000ff" fill-rule="evenodd" fill-opacity="1"></path>
<polyline clip-path="url(#clip712)" style="stroke:#000000; stroke-linecap:round; stroke-linejoin:round; stroke-width:4; stroke-opacity:1; fill:none" points="1086.26,871.084 1015.39,871.084 1157.13,871.084 1086.26,871.084 1086.26,1030.48 1086.26,871.084 "></polyline>
<path clip-path="url(#clip712)" d="M1440.62 1325.01 L1369.75 1325.01 L1511.5 1325.01 L1440.62 1325.01 L1440.62 1145.18 L1440.62 1325.01  Z" fill="#0000ff" fill-rule="evenodd" fill-opacity="1"></path>
<polyline clip-path="url(#clip712)" style="stroke:#000000; stroke-linecap:round; stroke-linejoin:round; stroke-width:4; stroke-opacity:1; fill:none" points="1440.62,1325.01 1369.75,1325.01 1511.5,1325.01 1440.62,1325.01 1440.62,1145.18 1440.62,1325.01 "></polyline>
<path clip-path="url(#clip712)" d="M1582.37 1145.18 L1582.37 1036.86 L1298.88 1036.86 L1298.88 1145.18 L1582.37 1145.18 L1582.37 1036.86 L1582.37 1145.18  Z" fill="#0000ff" fill-rule="evenodd" fill-opacity="1"></path>
<polyline clip-path="url(#clip712)" style="stroke:#000000; stroke-linecap:round; stroke-linejoin:round; stroke-width:4; stroke-opacity:1; fill:none" points="1582.37,1145.18 1582.37,1036.86 1298.88,1036.86 1298.88,1145.18 1582.37,1145.18 1582.37,1036.86 1582.37,1145.18 "></polyline>
<path clip-path="url(#clip712)" d="M1582.37 901.009 L1298.88 901.009 L1298.88 1036.86 L1582.37 1036.86 L1582.37 901.009 L1440.62 901.009 L1582.37 901.009  Z" fill="#0000ff" fill-rule="evenodd" fill-opacity="1"></path>
<polyline clip-path="url(#clip712)" style="stroke:#000000; stroke-linecap:round; stroke-linejoin:round; stroke-width:4; stroke-opacity:1; fill:none" points="1582.37,901.009 1298.88,901.009 1298.88,1036.86 1582.37,1036.86 1582.37,901.009 1440.62,901.009 1582.37,901.009 "></polyline>
<path clip-path="url(#clip712)" d="M1440.62 544.176 L1369.75 544.176 L1511.5 544.176 L1440.62 544.176 L1440.62 901.009 L1440.62 544.176  Z" fill="#0000ff" fill-rule="evenodd" fill-opacity="1"></path>
<polyline clip-path="url(#clip712)" style="stroke:#000000; stroke-linecap:round; stroke-linejoin:round; stroke-width:4; stroke-opacity:1; fill:none" points="1440.62,544.176 1369.75,544.176 1511.5,544.176 1440.62,544.176 1440.62,901.009 1440.62,544.176 "></polyline>
<path clip-path="url(#clip712)" d="M1794.99 1035.24 L1724.11 1035.24 L1865.86 1035.24 L1794.99 1035.24 L1794.99 910.494 L1794.99 1035.24  Z" fill="#0000ff" fill-rule="evenodd" fill-opacity="1"></path>
<polyline clip-path="url(#clip712)" style="stroke:#000000; stroke-linecap:round; stroke-linejoin:round; stroke-width:4; stroke-opacity:1; fill:none" points="1794.99,1035.24 1724.11,1035.24 1865.86,1035.24 1794.99,1035.24 1794.99,910.494 1794.99,1035.24 "></polyline>
<path clip-path="url(#clip712)" d="M1936.73 910.494 L1936.73 843.685 L1653.24 843.685 L1653.24 910.494 L1936.73 910.494 L1936.73 843.685 L1936.73 910.494  Z" fill="#0000ff" fill-rule="evenodd" fill-opacity="1"></path>
<polyline clip-path="url(#clip712)" style="stroke:#000000; stroke-linecap:round; stroke-linejoin:round; stroke-width:4; stroke-opacity:1; fill:none" points="1936.73,910.494 1936.73,843.685 1653.24,843.685 1653.24,910.494 1936.73,910.494 1936.73,843.685 1936.73,910.494 "></polyline>
<path clip-path="url(#clip712)" d="M1936.73 781.204 L1653.24 781.204 L1653.24 843.685 L1936.73 843.685 L1936.73 781.204 L1794.99 781.204 L1936.73 781.204  Z" fill="#0000ff" fill-rule="evenodd" fill-opacity="1"></path>
<polyline clip-path="url(#clip712)" style="stroke:#000000; stroke-linecap:round; stroke-linejoin:round; stroke-width:4; stroke-opacity:1; fill:none" points="1936.73,781.204 1653.24,781.204 1653.24,843.685 1936.73,843.685 1936.73,781.204 1794.99,781.204 1936.73,781.204 "></polyline>
<path clip-path="url(#clip712)" d="M1794.99 632.335 L1724.11 632.335 L1865.86 632.335 L1794.99 632.335 L1794.99 781.204 L1794.99 632.335  Z" fill="#0000ff" fill-rule="evenodd" fill-opacity="1"></path>
<polyline clip-path="url(#clip712)" style="stroke:#000000; stroke-linecap:round; stroke-linejoin:round; stroke-width:4; stroke-opacity:1; fill:none" points="1794.99,632.335 1724.11,632.335 1865.86,632.335 1794.99,632.335 1794.99,781.204 1794.99,632.335 "></polyline>
<path clip-path="url(#clip712)" d="M2149.35 1009.52 L2078.48 1009.52 L2220.22 1009.52 L2149.35 1009.52 L2149.35 910.665 L2149.35 1009.52  Z" fill="#0000ff" fill-rule="evenodd" fill-opacity="1"></path>
<polyline clip-path="url(#clip712)" style="stroke:#000000; stroke-linecap:round; stroke-linejoin:round; stroke-width:4; stroke-opacity:1; fill:none" points="2149.35,1009.52 2078.48,1009.52 2220.22,1009.52 2149.35,1009.52 2149.35,910.665 2149.35,1009.52 "></polyline>
<path clip-path="url(#clip712)" d="M2291.1 910.665 L2291.1 811.814 L2007.61 811.814 L2007.61 910.665 L2291.1 910.665 L2291.1 811.814 L2291.1 910.665  Z" fill="#0000ff" fill-rule="evenodd" fill-opacity="1"></path>
<polyline clip-path="url(#clip712)" style="stroke:#000000; stroke-linecap:round; stroke-linejoin:round; stroke-width:4; stroke-opacity:1; fill:none" points="2291.1,910.665 2291.1,811.814 2007.61,811.814 2007.61,910.665 2291.1,910.665 2291.1,811.814 2291.1,910.665 "></polyline>
<path clip-path="url(#clip712)" d="M2291.1 712.963 L2007.61 712.963 L2007.61 811.814 L2291.1 811.814 L2291.1 712.963 L2149.35 712.963 L2291.1 712.963  Z" fill="#0000ff" fill-rule="evenodd" fill-opacity="1"></path>
<polyline clip-path="url(#clip712)" style="stroke:#000000; stroke-linecap:round; stroke-linejoin:round; stroke-width:4; stroke-opacity:1; fill:none" points="2291.1,712.963 2007.61,712.963 2007.61,811.814 2291.1,811.814 2291.1,712.963 2149.35,712.963 2291.1,712.963 "></polyline>
<path clip-path="url(#clip712)" d="M2149.35 614.112 L2078.48 614.112 L2220.22 614.112 L2149.35 614.112 L2149.35 712.963 L2149.35 614.112  Z" fill="#0000ff" fill-rule="evenodd" fill-opacity="1"></path>
<polyline clip-path="url(#clip712)" style="stroke:#000000; stroke-linecap:round; stroke-linejoin:round; stroke-width:4; stroke-opacity:1; fill:none" points="2149.35,614.112 2078.48,614.112 2220.22,614.112 2149.35,614.112 2149.35,712.963 2149.35,614.112 "></polyline>
<circle clip-path="url(#clip712)" cx="731.895" cy="707.157" r="14.4" fill="#0000ff" fill-rule="evenodd" fill-opacity="1" stroke="#000000" stroke-opacity="1" stroke-width="3.2"></circle>
<circle clip-path="url(#clip712)" cx="731.895" cy="1384.24" r="14.4" fill="#0000ff" fill-rule="evenodd" fill-opacity="1" stroke="#000000" stroke-opacity="1" stroke-width="3.2"></circle>
<circle clip-path="url(#clip712)" cx="731.895" cy="825.774" r="14.4" fill="#0000ff" fill-rule="evenodd" fill-opacity="1" stroke="#000000" stroke-opacity="1" stroke-width="3.2"></circle>
<circle clip-path="url(#clip712)" cx="1086.26" cy="753.99" r="14.4" fill="#0000ff" fill-rule="evenodd" fill-opacity="1" stroke="#000000" stroke-opacity="1" stroke-width="3.2"></circle>
<circle clip-path="url(#clip712)" cx="1086.26" cy="423.107" r="14.4" fill="#0000ff" fill-rule="evenodd" fill-opacity="1" stroke="#000000" stroke-opacity="1" stroke-width="3.2"></circle>
<circle clip-path="url(#clip712)" cx="1086.26" cy="86.1857" r="14.4" fill="#0000ff" fill-rule="evenodd" fill-opacity="1" stroke="#000000" stroke-opacity="1" stroke-width="3.2"></circle>
<circle clip-path="url(#clip712)" cx="1086.26" cy="775.55" r="14.4" fill="#0000ff" fill-rule="evenodd" fill-opacity="1" stroke="#000000" stroke-opacity="1" stroke-width="3.2"></circle>
<circle clip-path="url(#clip712)" cx="1440.62" cy="504.482" r="14.4" fill="#0000ff" fill-rule="evenodd" fill-opacity="1" stroke="#000000" stroke-opacity="1" stroke-width="3.2"></circle>
<circle clip-path="url(#clip712)" cx="1794.99" cy="576.433" r="14.4" fill="#0000ff" fill-rule="evenodd" fill-opacity="1" stroke="#000000" stroke-opacity="1" stroke-width="3.2"></circle>
<circle clip-path="url(#clip712)" cx="1794.99" cy="571.146" r="14.4" fill="#0000ff" fill-rule="evenodd" fill-opacity="1" stroke="#000000" stroke-opacity="1" stroke-width="3.2"></circle>
<circle clip-path="url(#clip712)" cx="1794.99" cy="515.727" r="14.4" fill="#0000ff" fill-rule="evenodd" fill-opacity="1" stroke="#000000" stroke-opacity="1" stroke-width="3.2"></circle>
<polyline clip-path="url(#clip712)" style="stroke:#0000ff; stroke-linecap:round; stroke-linejoin:round; stroke-width:0; stroke-opacity:1; fill:none" points="377.531,1195.58 306.658,1195.58 448.404,1195.58 377.531,1195.58 377.531,1185.25 "></polyline>
<polyline clip-path="url(#clip712)" style="stroke:#0000ff; stroke-linecap:round; stroke-linejoin:round; stroke-width:0; stroke-opacity:1; fill:none" points="519.276,1185.25 519.276,1174.92 235.785,1174.92 235.785,1185.25 519.276,1185.25 519.276,1174.92 "></polyline>
<polyline clip-path="url(#clip712)" style="stroke:#0000ff; stroke-linecap:round; stroke-linejoin:round; stroke-width:0; stroke-opacity:1; fill:none" points="519.276,1164.6 235.785,1164.6 235.785,1174.92 519.276,1174.92 519.276,1164.6 377.531,1164.6 "></polyline>
<polyline clip-path="url(#clip712)" style="stroke:#0000ff; stroke-linecap:round; stroke-linejoin:round; stroke-width:0; stroke-opacity:1; fill:none" points="377.531,1154.27 306.658,1154.27 448.404,1154.27 377.531,1154.27 377.531,1164.6 "></polyline>
<polyline clip-path="url(#clip712)" style="stroke:#0000ff; stroke-linecap:round; stroke-linejoin:round; stroke-width:0; stroke-opacity:1; fill:none" points="731.895,1331.87 661.022,1331.87 802.768,1331.87 731.895,1331.87 731.895,1161.49 "></polyline>
<polyline clip-path="url(#clip712)" style="stroke:#0000ff; stroke-linecap:round; stroke-linejoin:round; stroke-width:0; stroke-opacity:1; fill:none" points="873.64,1161.49 873.64,1112.49 590.149,1112.49 590.149,1161.49 873.64,1161.49 873.64,1112.49 "></polyline>
<polyline clip-path="url(#clip712)" style="stroke:#0000ff; stroke-linecap:round; stroke-linejoin:round; stroke-width:0; stroke-opacity:1; fill:none" points="873.64,1031.61 590.149,1031.61 590.149,1112.49 873.64,1112.49 873.64,1031.61 731.895,1031.61 "></polyline>
<polyline clip-path="url(#clip712)" style="stroke:#0000ff; stroke-linecap:round; stroke-linejoin:round; stroke-width:0; stroke-opacity:1; fill:none" points="731.895,1014.68 661.022,1014.68 802.768,1014.68 731.895,1014.68 731.895,1031.61 "></polyline>
<polyline clip-path="url(#clip712)" style="stroke:#0000ff; stroke-linecap:round; stroke-linejoin:round; stroke-width:0; stroke-opacity:1; fill:none" points="1086.26,1325.75 1015.39,1325.75 1157.13,1325.75 1086.26,1325.75 1086.26,1198.11 "></polyline>
<polyline clip-path="url(#clip712)" style="stroke:#0000ff; stroke-linecap:round; stroke-linejoin:round; stroke-width:0; stroke-opacity:1; fill:none" points="1228,1198.11 1228,1118.7 944.513,1118.7 944.513,1198.11 1228,1198.11 1228,1118.7 "></polyline>
<polyline clip-path="url(#clip712)" style="stroke:#0000ff; stroke-linecap:round; stroke-linejoin:round; stroke-width:0; stroke-opacity:1; fill:none" points="1228,1030.48 944.513,1030.48 944.513,1118.7 1228,1118.7 1228,1030.48 1086.26,1030.48 "></polyline>
<polyline clip-path="url(#clip712)" style="stroke:#0000ff; stroke-linecap:round; stroke-linejoin:round; stroke-width:0; stroke-opacity:1; fill:none" points="1086.26,871.084 1015.39,871.084 1157.13,871.084 1086.26,871.084 1086.26,1030.48 "></polyline>
<polyline clip-path="url(#clip712)" style="stroke:#0000ff; stroke-linecap:round; stroke-linejoin:round; stroke-width:0; stroke-opacity:1; fill:none" points="1440.62,1325.01 1369.75,1325.01 1511.5,1325.01 1440.62,1325.01 1440.62,1145.18 "></polyline>
<polyline clip-path="url(#clip712)" style="stroke:#0000ff; stroke-linecap:round; stroke-linejoin:round; stroke-width:0; stroke-opacity:1; fill:none" points="1582.37,1145.18 1582.37,1036.86 1298.88,1036.86 1298.88,1145.18 1582.37,1145.18 1582.37,1036.86 "></polyline>
<polyline clip-path="url(#clip712)" style="stroke:#0000ff; stroke-linecap:round; stroke-linejoin:round; stroke-width:0; stroke-opacity:1; fill:none" points="1582.37,901.009 1298.88,901.009 1298.88,1036.86 1582.37,1036.86 1582.37,901.009 1440.62,901.009 "></polyline>
<polyline clip-path="url(#clip712)" style="stroke:#0000ff; stroke-linecap:round; stroke-linejoin:round; stroke-width:0; stroke-opacity:1; fill:none" points="1440.62,544.176 1369.75,544.176 1511.5,544.176 1440.62,544.176 1440.62,901.009 "></polyline>
<polyline clip-path="url(#clip712)" style="stroke:#0000ff; stroke-linecap:round; stroke-linejoin:round; stroke-width:0; stroke-opacity:1; fill:none" points="1794.99,1035.24 1724.11,1035.24 1865.86,1035.24 1794.99,1035.24 1794.99,910.494 "></polyline>
<polyline clip-path="url(#clip712)" style="stroke:#0000ff; stroke-linecap:round; stroke-linejoin:round; stroke-width:0; stroke-opacity:1; fill:none" points="1936.73,910.494 1936.73,843.685 1653.24,843.685 1653.24,910.494 1936.73,910.494 1936.73,843.685 "></polyline>
<polyline clip-path="url(#clip712)" style="stroke:#0000ff; stroke-linecap:round; stroke-linejoin:round; stroke-width:0; stroke-opacity:1; fill:none" points="1936.73,781.204 1653.24,781.204 1653.24,843.685 1936.73,843.685 1936.73,781.204 1794.99,781.204 "></polyline>
<polyline clip-path="url(#clip712)" style="stroke:#0000ff; stroke-linecap:round; stroke-linejoin:round; stroke-width:0; stroke-opacity:1; fill:none" points="1794.99,632.335 1724.11,632.335 1865.86,632.335 1794.99,632.335 1794.99,781.204 "></polyline>
<polyline clip-path="url(#clip712)" style="stroke:#0000ff; stroke-linecap:round; stroke-linejoin:round; stroke-width:0; stroke-opacity:1; fill:none" points="2149.35,1009.52 2078.48,1009.52 2220.22,1009.52 2149.35,1009.52 2149.35,910.665 "></polyline>
<polyline clip-path="url(#clip712)" style="stroke:#0000ff; stroke-linecap:round; stroke-linejoin:round; stroke-width:0; stroke-opacity:1; fill:none" points="2291.1,910.665 2291.1,811.814 2007.61,811.814 2007.61,910.665 2291.1,910.665 2291.1,811.814 "></polyline>
<polyline clip-path="url(#clip712)" style="stroke:#0000ff; stroke-linecap:round; stroke-linejoin:round; stroke-width:0; stroke-opacity:1; fill:none" points="2291.1,712.963 2007.61,712.963 2007.61,811.814 2291.1,811.814 2291.1,712.963 2149.35,712.963 "></polyline>
<polyline clip-path="url(#clip712)" style="stroke:#0000ff; stroke-linecap:round; stroke-linejoin:round; stroke-width:0; stroke-opacity:1; fill:none" points="2149.35,614.112 2078.48,614.112 2220.22,614.112 2149.35,614.112 2149.35,712.963 "></polyline>
<path clip-path="url(#clip710)" d="M1664.2 196.789 L2280.13 196.789 L2280.13 93.1086 L1664.2 93.1086  Z" fill="#ffffff" fill-rule="evenodd" fill-opacity="1"></path>
<polyline clip-path="url(#clip710)" style="stroke:#000000; stroke-linecap:round; stroke-linejoin:round; stroke-width:4; stroke-opacity:1; fill:none" points="1664.2,196.789 2280.13,196.789 2280.13,93.1086 1664.2,93.1086 1664.2,196.789 "></polyline>
<path clip-path="url(#clip710)" d="M1688.4 165.685 L1833.64 165.685 L1833.64 124.213 L1688.4 124.213 L1688.4 165.685  Z" fill="#0000ff" fill-rule="evenodd" fill-opacity="1"></path>
<polyline clip-path="url(#clip710)" style="stroke:#000000; stroke-linecap:round; stroke-linejoin:round; stroke-width:4; stroke-opacity:1; fill:none" points="1688.4,165.685 1833.64,165.685 1833.64,124.213 1688.4,124.213 1688.4,165.685 "></polyline>
<path clip-path="url(#clip710)" d="M1857.85 127.669 L1864.15 127.669 L1879.47 156.581 L1879.47 127.669 L1884.01 127.669 L1884.01 162.229 L1877.71 162.229 L1862.39 133.317 L1862.39 162.229 L1857.85 162.229 L1857.85 127.669 Z" fill="#000000" fill-rule="nonzero" fill-opacity="1"></path><path clip-path="url(#clip710)" d="M1893.31 127.669 L1899.61 127.669 L1914.93 156.581 L1914.93 127.669 L1919.47 127.669 L1919.47 162.229 L1913.18 162.229 L1897.85 133.317 L1897.85 162.229 L1893.31 162.229 L1893.31 127.669 Z" fill="#000000" fill-rule="nonzero" fill-opacity="1"></path><path clip-path="url(#clip710)" d="M1928.78 127.669 L1933.45 127.669 L1933.45 158.293 L1950.28 158.293 L1950.28 162.229 L1928.78 162.229 L1928.78 127.669 Z" fill="#000000" fill-rule="nonzero" fill-opacity="1"></path><path clip-path="url(#clip710)" d="M1975.91 128.803 L1975.91 133.363 Q1973.24 132.09 1970.88 131.465 Q1968.52 130.84 1966.32 130.84 Q1962.5 130.84 1960.42 132.321 Q1958.36 133.803 1958.36 136.534 Q1958.36 138.826 1959.73 140.007 Q1961.11 141.164 1964.96 141.882 L1967.78 142.46 Q1973.01 143.456 1975.49 145.979 Q1977.99 148.479 1977.99 152.692 Q1977.99 157.715 1974.61 160.307 Q1971.25 162.9 1964.75 162.9 Q1962.3 162.9 1959.52 162.344 Q1956.76 161.789 1953.8 160.701 L1953.8 155.886 Q1956.65 157.483 1959.38 158.293 Q1962.11 159.104 1964.75 159.104 Q1968.75 159.104 1970.93 157.53 Q1973.11 155.956 1973.11 153.039 Q1973.11 150.493 1971.53 149.057 Q1969.98 147.622 1966.42 146.905 L1963.57 146.349 Q1958.34 145.307 1956 143.085 Q1953.66 140.863 1953.66 136.905 Q1953.66 132.321 1956.88 129.682 Q1960.12 127.044 1965.79 127.044 Q1968.22 127.044 1970.74 127.483 Q1973.27 127.923 1975.91 128.803 Z" fill="#000000" fill-rule="nonzero" fill-opacity="1"></path><path clip-path="url(#clip710)" d="M2004.29 158.34 L2004.29 172.09 L2000 172.09 L2000 136.303 L2004.29 136.303 L2004.29 140.238 Q2005.63 137.923 2007.67 136.812 Q2009.73 135.678 2012.57 135.678 Q2017.29 135.678 2020.23 139.428 Q2023.2 143.178 2023.2 149.289 Q2023.2 155.4 2020.23 159.15 Q2017.29 162.9 2012.57 162.9 Q2009.73 162.9 2007.67 161.789 Q2005.63 160.655 2004.29 158.34 M2018.78 149.289 Q2018.78 144.59 2016.83 141.928 Q2014.91 139.243 2011.53 139.243 Q2008.15 139.243 2006.21 141.928 Q2004.29 144.59 2004.29 149.289 Q2004.29 153.988 2006.21 156.673 Q2008.15 159.335 2011.53 159.335 Q2014.91 159.335 2016.83 156.673 Q2018.78 153.988 2018.78 149.289 Z" fill="#000000" fill-rule="nonzero" fill-opacity="1"></path><path clip-path="url(#clip710)" d="M2045.28 140.284 Q2044.56 139.868 2043.71 139.682 Q2042.87 139.474 2041.85 139.474 Q2038.24 139.474 2036.3 141.835 Q2034.38 144.173 2034.38 148.571 L2034.38 162.229 L2030.1 162.229 L2030.1 136.303 L2034.38 136.303 L2034.38 140.331 Q2035.72 137.969 2037.87 136.835 Q2040.03 135.678 2043.1 135.678 Q2043.54 135.678 2044.08 135.747 Q2044.61 135.794 2045.26 135.909 L2045.28 140.284 Z" fill="#000000" fill-rule="nonzero" fill-opacity="1"></path><path clip-path="url(#clip710)" d="M2070.88 148.201 L2070.88 150.284 L2051.3 150.284 Q2051.58 154.682 2053.94 156.997 Q2056.32 159.289 2060.56 159.289 Q2063.01 159.289 2065.3 158.687 Q2067.62 158.085 2069.89 156.881 L2069.89 160.909 Q2067.6 161.881 2065.19 162.391 Q2062.78 162.9 2060.3 162.9 Q2054.1 162.9 2050.47 159.289 Q2046.85 155.678 2046.85 149.52 Q2046.85 143.155 2050.28 139.428 Q2053.73 135.678 2059.56 135.678 Q2064.79 135.678 2067.83 139.057 Q2070.88 142.414 2070.88 148.201 M2066.62 146.951 Q2066.58 143.456 2064.66 141.372 Q2062.76 139.289 2059.61 139.289 Q2056.04 139.289 2053.89 141.303 Q2051.76 143.317 2051.44 146.974 L2066.62 146.951 Z" fill="#000000" fill-rule="nonzero" fill-opacity="1"></path><path clip-path="url(#clip710)" d="M2094.93 140.238 L2094.93 126.21 L2099.19 126.21 L2099.19 162.229 L2094.93 162.229 L2094.93 158.34 Q2093.59 160.655 2091.53 161.789 Q2089.49 162.9 2086.62 162.9 Q2081.92 162.9 2078.96 159.15 Q2076.02 155.4 2076.02 149.289 Q2076.02 143.178 2078.96 139.428 Q2081.92 135.678 2086.62 135.678 Q2089.49 135.678 2091.53 136.812 Q2093.59 137.923 2094.93 140.238 M2080.42 149.289 Q2080.42 153.988 2082.34 156.673 Q2084.29 159.335 2087.66 159.335 Q2091.04 159.335 2092.99 156.673 Q2094.93 153.988 2094.93 149.289 Q2094.93 144.59 2092.99 141.928 Q2091.04 139.243 2087.66 139.243 Q2084.29 139.243 2082.34 141.928 Q2080.42 144.59 2080.42 149.289 Z" fill="#000000" fill-rule="nonzero" fill-opacity="1"></path><path clip-path="url(#clip710)" d="M2107.97 136.303 L2112.22 136.303 L2112.22 162.229 L2107.97 162.229 L2107.97 136.303 M2107.97 126.21 L2112.22 126.21 L2112.22 131.604 L2107.97 131.604 L2107.97 126.21 Z" fill="#000000" fill-rule="nonzero" fill-opacity="1"></path><path clip-path="url(#clip710)" d="M2139.79 137.298 L2139.79 141.28 Q2137.99 140.284 2136.16 139.798 Q2134.35 139.289 2132.5 139.289 Q2128.36 139.289 2126.07 141.928 Q2123.78 144.544 2123.78 149.289 Q2123.78 154.034 2126.07 156.673 Q2128.36 159.289 2132.5 159.289 Q2134.35 159.289 2136.16 158.803 Q2137.99 158.293 2139.79 157.298 L2139.79 161.233 Q2138.01 162.067 2136.09 162.483 Q2134.19 162.9 2132.04 162.9 Q2126.18 162.9 2122.73 159.219 Q2119.29 155.539 2119.29 149.289 Q2119.29 142.946 2122.76 139.312 Q2126.25 135.678 2132.32 135.678 Q2134.29 135.678 2136.16 136.095 Q2138.04 136.488 2139.79 137.298 Z" fill="#000000" fill-rule="nonzero" fill-opacity="1"></path><path clip-path="url(#clip710)" d="M2151.41 128.942 L2151.41 136.303 L2160.19 136.303 L2160.19 139.613 L2151.41 139.613 L2151.41 153.687 Q2151.41 156.858 2152.27 157.761 Q2153.15 158.664 2155.81 158.664 L2160.19 158.664 L2160.19 162.229 L2155.81 162.229 Q2150.88 162.229 2149.01 160.4 Q2147.13 158.548 2147.13 153.687 L2147.13 139.613 L2144.01 139.613 L2144.01 136.303 L2147.13 136.303 L2147.13 128.942 L2151.41 128.942 Z" fill="#000000" fill-rule="nonzero" fill-opacity="1"></path><path clip-path="url(#clip710)" d="M2165.79 136.303 L2170.05 136.303 L2170.05 162.229 L2165.79 162.229 L2165.79 136.303 M2165.79 126.21 L2170.05 126.21 L2170.05 131.604 L2165.79 131.604 L2165.79 126.21 Z" fill="#000000" fill-rule="nonzero" fill-opacity="1"></path><path clip-path="url(#clip710)" d="M2189.01 139.289 Q2185.58 139.289 2183.59 141.974 Q2181.6 144.636 2181.6 149.289 Q2181.6 153.942 2183.57 156.627 Q2185.56 159.289 2189.01 159.289 Q2192.41 159.289 2194.4 156.604 Q2196.39 153.918 2196.39 149.289 Q2196.39 144.682 2194.4 141.997 Q2192.41 139.289 2189.01 139.289 M2189.01 135.678 Q2194.56 135.678 2197.73 139.289 Q2200.91 142.9 2200.91 149.289 Q2200.91 155.655 2197.73 159.289 Q2194.56 162.9 2189.01 162.9 Q2183.43 162.9 2180.26 159.289 Q2177.11 155.655 2177.11 149.289 Q2177.11 142.9 2180.26 139.289 Q2183.43 135.678 2189.01 135.678 Z" fill="#000000" fill-rule="nonzero" fill-opacity="1"></path><path clip-path="url(#clip710)" d="M2229.52 146.581 L2229.52 162.229 L2225.26 162.229 L2225.26 146.719 Q2225.26 143.039 2223.82 141.21 Q2222.39 139.382 2219.52 139.382 Q2216.07 139.382 2214.08 141.581 Q2212.09 143.78 2212.09 147.576 L2212.09 162.229 L2207.8 162.229 L2207.8 136.303 L2212.09 136.303 L2212.09 140.331 Q2213.61 137.993 2215.67 136.835 Q2217.76 135.678 2220.47 135.678 Q2224.93 135.678 2227.22 138.456 Q2229.52 141.21 2229.52 146.581 Z" fill="#000000" fill-rule="nonzero" fill-opacity="1"></path><path clip-path="url(#clip710)" d="M2254.54 137.067 L2254.54 141.094 Q2252.73 140.169 2250.79 139.706 Q2248.84 139.243 2246.76 139.243 Q2243.59 139.243 2241.99 140.215 Q2240.42 141.187 2240.42 143.131 Q2240.42 144.613 2241.55 145.469 Q2242.69 146.303 2246.11 147.067 L2247.57 147.391 Q2252.11 148.363 2254.01 150.145 Q2255.93 151.905 2255.93 155.076 Q2255.93 158.687 2253.06 160.793 Q2250.21 162.9 2245.21 162.9 Q2243.13 162.9 2240.86 162.483 Q2238.61 162.09 2236.11 161.28 L2236.11 156.881 Q2238.47 158.108 2240.77 158.733 Q2243.06 159.335 2245.3 159.335 Q2248.31 159.335 2249.93 158.317 Q2251.55 157.275 2251.55 155.4 Q2251.55 153.664 2250.37 152.738 Q2249.21 151.812 2245.26 150.956 L2243.78 150.608 Q2239.82 149.775 2238.06 148.062 Q2236.3 146.326 2236.3 143.317 Q2236.3 139.659 2238.89 137.669 Q2241.48 135.678 2246.25 135.678 Q2248.61 135.678 2250.7 136.025 Q2252.78 136.372 2254.54 137.067 Z" fill="#000000" fill-rule="nonzero" fill-opacity="1"></path></svg>