<svg xmlns="http://www.w3.org/2000/svg" xmlns:xlink="http://www.w3.org/1999/xlink" width="600" height="400" viewBox="0 0 2400 1600">
<defs>
  <clipPath id="clip430">
    <rect x="0" y="0" width="2400" height="1600"></rect>
  </clipPath>
</defs>
<path clip-path="url(#clip430)" d="M0 1600 L2400 1600 L2400 8.88178e-14 L0 8.88178e-14  Z" fill="#ffffff" fill-rule="evenodd" fill-opacity="1"></path>
<defs>
  <clipPath id="clip431">
    <rect x="480" y="0" width="1681" height="1600"></rect>
  </clipPath>
</defs>
<path clip-path="url(#clip430)" d="M242.135 1423.18 L2352.76 1423.18 L2352.76 123.472 L242.135 123.472  Z" fill="#ffffff" fill-rule="evenodd" fill-opacity="1"></path>
<defs>
  <clipPath id="clip432">
    <rect x="242" y="123" width="2112" height="1301"></rect>
  </clipPath>
</defs>
<polyline clip-path="url(#clip432)" style="stroke:#000000; stroke-linecap:round; stroke-linejoin:round; stroke-width:2; stroke-opacity:0.1; fill:none" points="301.869,1423.18 301.869,123.472 "></polyline>
<polyline clip-path="url(#clip432)" style="stroke:#000000; stroke-linecap:round; stroke-linejoin:round; stroke-width:2; stroke-opacity:0.1; fill:none" points="633.728,1423.18 633.728,123.472 "></polyline>
<polyline clip-path="url(#clip432)" style="stroke:#000000; stroke-linecap:round; stroke-linejoin:round; stroke-width:2; stroke-opacity:0.1; fill:none" points="965.587,1423.18 965.587,123.472 "></polyline>
<polyline clip-path="url(#clip432)" style="stroke:#000000; stroke-linecap:round; stroke-linejoin:round; stroke-width:2; stroke-opacity:0.1; fill:none" points="1297.45,1423.18 1297.45,123.472 "></polyline>
<polyline clip-path="url(#clip432)" style="stroke:#000000; stroke-linecap:round; stroke-linejoin:round; stroke-width:2; stroke-opacity:0.1; fill:none" points="1629.3,1423.18 1629.3,123.472 "></polyline>
<polyline clip-path="url(#clip432)" style="stroke:#000000; stroke-linecap:round; stroke-linejoin:round; stroke-width:2; stroke-opacity:0.1; fill:none" points="1961.16,1423.18 1961.16,123.472 "></polyline>
<polyline clip-path="url(#clip432)" style="stroke:#000000; stroke-linecap:round; stroke-linejoin:round; stroke-width:2; stroke-opacity:0.1; fill:none" points="2293.02,1423.18 2293.02,123.472 "></polyline>
<polyline clip-path="url(#clip430)" style="stroke:#000000; stroke-linecap:round; stroke-linejoin:round; stroke-width:4; stroke-opacity:1; fill:none" points="242.135,1423.18 2352.76,1423.18 "></polyline>
<polyline clip-path="url(#clip430)" style="stroke:#000000; stroke-linecap:round; stroke-linejoin:round; stroke-width:4; stroke-opacity:1; fill:none" points="301.869,1423.18 301.869,1404.28 "></polyline>
<polyline clip-path="url(#clip430)" style="stroke:#000000; stroke-linecap:round; stroke-linejoin:round; stroke-width:4; stroke-opacity:1; fill:none" points="633.728,1423.18 633.728,1404.28 "></polyline>
<polyline clip-path="url(#clip430)" style="stroke:#000000; stroke-linecap:round; stroke-linejoin:round; stroke-width:4; stroke-opacity:1; fill:none" points="965.587,1423.18 965.587,1404.28 "></polyline>
<polyline clip-path="url(#clip430)" style="stroke:#000000; stroke-linecap:round; stroke-linejoin:round; stroke-width:4; stroke-opacity:1; fill:none" points="1297.45,1423.18 1297.45,1404.28 "></polyline>
<polyline clip-path="url(#clip430)" style="stroke:#000000; stroke-linecap:round; stroke-linejoin:round; stroke-width:4; stroke-opacity:1; fill:none" points="1629.3,1423.18 1629.3,1404.28 "></polyline>
<polyline clip-path="url(#clip430)" style="stroke:#000000; stroke-linecap:round; stroke-linejoin:round; stroke-width:4; stroke-opacity:1; fill:none" points="1961.16,1423.18 1961.16,1404.28 "></polyline>
<polyline clip-path="url(#clip430)" style="stroke:#000000; stroke-linecap:round; stroke-linejoin:round; stroke-width:4; stroke-opacity:1; fill:none" points="2293.02,1423.18 2293.02,1404.28 "></polyline>
<path clip-path="url(#clip430)" d="M271.337 1468.75 L301.013 1468.75 L301.013 1472.69 L271.337 1472.69 L271.337 1468.75 Z" fill="#000000" fill-rule="nonzero" fill-opacity="1"></path><path clip-path="url(#clip430)" d="M325.272 1466.95 Q328.628 1467.66 330.503 1469.93 Q332.401 1472.2 332.401 1475.53 Q332.401 1480.65 328.883 1483.45 Q325.364 1486.25 318.883 1486.25 Q316.707 1486.25 314.392 1485.81 Q312.101 1485.39 309.647 1484.54 L309.647 1480.02 Q311.591 1481.16 313.906 1481.74 Q316.221 1482.32 318.744 1482.32 Q323.142 1482.32 325.434 1480.58 Q327.749 1478.84 327.749 1475.53 Q327.749 1472.48 325.596 1470.77 Q323.466 1469.03 319.647 1469.03 L315.619 1469.03 L315.619 1465.19 L319.832 1465.19 Q323.281 1465.19 325.11 1463.82 Q326.939 1462.43 326.939 1459.84 Q326.939 1457.18 325.04 1455.77 Q323.165 1454.33 319.647 1454.33 Q317.726 1454.33 315.527 1454.75 Q313.328 1455.16 310.689 1456.04 L310.689 1451.88 Q313.351 1451.14 315.665 1450.77 Q318.003 1450.39 320.064 1450.39 Q325.388 1450.39 328.489 1452.83 Q331.591 1455.23 331.591 1459.35 Q331.591 1462.22 329.948 1464.21 Q328.304 1466.18 325.272 1466.95 Z" fill="#000000" fill-rule="nonzero" fill-opacity="1"></path><path clip-path="url(#clip430)" d="M603.67 1468.75 L633.346 1468.75 L633.346 1472.69 L603.67 1472.69 L603.67 1468.75 Z" fill="#000000" fill-rule="nonzero" fill-opacity="1"></path><path clip-path="url(#clip430)" d="M647.466 1481.64 L663.786 1481.64 L663.786 1485.58 L641.841 1485.58 L641.841 1481.64 Q644.503 1478.89 649.087 1474.26 Q653.693 1469.61 654.874 1468.27 Q657.119 1465.74 657.999 1464.01 Q658.901 1462.25 658.901 1460.56 Q658.901 1457.8 656.957 1456.07 Q655.036 1454.33 651.934 1454.33 Q649.735 1454.33 647.281 1455.09 Q644.851 1455.86 642.073 1457.41 L642.073 1452.69 Q644.897 1451.55 647.351 1450.97 Q649.804 1450.39 651.841 1450.39 Q657.212 1450.39 660.406 1453.08 Q663.6 1455.77 663.6 1460.26 Q663.6 1462.39 662.79 1464.31 Q662.003 1466.2 659.897 1468.8 Q659.318 1469.47 656.216 1472.69 Q653.114 1475.88 647.466 1481.64 Z" fill="#000000" fill-rule="nonzero" fill-opacity="1"></path><path clip-path="url(#clip430)" d="M935.344 1468.75 L965.019 1468.75 L965.019 1472.69 L935.344 1472.69 L935.344 1468.75 Z" fill="#000000" fill-rule="nonzero" fill-opacity="1"></path><path clip-path="url(#clip430)" d="M975.922 1481.64 L983.561 1481.64 L983.561 1455.28 L975.251 1456.95 L975.251 1452.69 L983.515 1451.02 L988.191 1451.02 L988.191 1481.64 L995.829 1481.64 L995.829 1485.58 L975.922 1485.58 L975.922 1481.64 Z" fill="#000000" fill-rule="nonzero" fill-opacity="1"></path><path clip-path="url(#clip430)" d="M1297.45 1454.1 Q1293.83 1454.1 1292.01 1457.66 Q1290.2 1461.2 1290.2 1468.33 Q1290.2 1475.44 1292.01 1479.01 Q1293.83 1482.55 1297.45 1482.55 Q1301.08 1482.55 1302.89 1479.01 Q1304.71 1475.44 1304.71 1468.33 Q1304.71 1461.2 1302.89 1457.66 Q1301.08 1454.1 1297.45 1454.1 M1297.45 1450.39 Q1303.26 1450.39 1306.31 1455 Q1309.39 1459.58 1309.39 1468.33 Q1309.39 1477.06 1306.31 1481.67 Q1303.26 1486.25 1297.45 1486.25 Q1291.64 1486.25 1288.56 1481.67 Q1285.5 1477.06 1285.5 1468.33 Q1285.5 1459.58 1288.56 1455 Q1291.64 1450.39 1297.45 1450.39 Z" fill="#000000" fill-rule="nonzero" fill-opacity="1"></path><path clip-path="url(#clip430)" d="M1619.69 1481.64 L1627.32 1481.64 L1627.32 1455.28 L1619.01 1456.95 L1619.01 1452.69 L1627.28 1451.02 L1631.95 1451.02 L1631.95 1481.64 L1639.59 1481.64 L1639.59 1485.58 L1619.69 1485.58 L1619.69 1481.64 Z" fill="#000000" fill-rule="nonzero" fill-opacity="1"></path><path clip-path="url(#clip430)" d="M1955.82 1481.64 L1972.13 1481.64 L1972.13 1485.58 L1950.19 1485.58 L1950.19 1481.64 Q1952.85 1478.89 1957.44 1474.26 Q1962.04 1469.61 1963.22 1468.27 Q1965.47 1465.74 1966.35 1464.01 Q1967.25 1462.25 1967.25 1460.56 Q1967.25 1457.8 1965.31 1456.07 Q1963.38 1454.33 1960.28 1454.33 Q1958.08 1454.33 1955.63 1455.09 Q1953.2 1455.86 1950.42 1457.41 L1950.42 1452.69 Q1953.25 1451.55 1955.7 1450.97 Q1958.15 1450.39 1960.19 1450.39 Q1965.56 1450.39 1968.76 1453.08 Q1971.95 1455.77 1971.95 1460.26 Q1971.95 1462.39 1971.14 1464.31 Q1970.35 1466.2 1968.25 1468.8 Q1967.67 1469.47 1964.57 1472.69 Q1961.46 1475.88 1955.82 1481.64 Z" fill="#000000" fill-rule="nonzero" fill-opacity="1"></path><path clip-path="url(#clip430)" d="M2297.27 1466.95 Q2300.63 1467.66 2302.5 1469.93 Q2304.4 1472.2 2304.4 1475.53 Q2304.4 1480.65 2300.88 1483.45 Q2297.36 1486.25 2290.88 1486.25 Q2288.7 1486.25 2286.39 1485.81 Q2284.1 1485.39 2281.64 1484.54 L2281.64 1480.02 Q2283.59 1481.16 2285.9 1481.74 Q2288.22 1482.32 2290.74 1482.32 Q2295.14 1482.32 2297.43 1480.58 Q2299.75 1478.84 2299.75 1475.53 Q2299.75 1472.48 2297.59 1470.77 Q2295.46 1469.03 2291.64 1469.03 L2287.62 1469.03 L2287.62 1465.19 L2291.83 1465.19 Q2295.28 1465.19 2297.11 1463.82 Q2298.94 1462.43 2298.94 1459.84 Q2298.94 1457.18 2297.04 1455.77 Q2295.16 1454.33 2291.64 1454.33 Q2289.72 1454.33 2287.52 1454.75 Q2285.32 1455.16 2282.69 1456.04 L2282.69 1451.88 Q2285.35 1451.14 2287.66 1450.77 Q2290 1450.39 2292.06 1450.39 Q2297.38 1450.39 2300.49 1452.83 Q2303.59 1455.23 2303.59 1459.35 Q2303.59 1462.22 2301.94 1464.21 Q2300.3 1466.18 2297.27 1466.95 Z" fill="#000000" fill-rule="nonzero" fill-opacity="1"></path><path clip-path="url(#clip430)" d="M1314.06 1532.4 L1301.17 1549.74 L1314.73 1568.04 L1307.82 1568.04 L1297.45 1554.04 L1287.07 1568.04 L1280.16 1568.04 L1294.01 1549.39 L1281.34 1532.4 L1288.25 1532.4 L1297.7 1545.1 L1307.15 1532.4 L1314.06 1532.4 Z" fill="#000000" fill-rule="nonzero" fill-opacity="1"></path><polyline clip-path="url(#clip432)" style="stroke:#000000; stroke-linecap:round; stroke-linejoin:round; stroke-width:2; stroke-opacity:0.1; fill:none" points="242.135,1358.37 2352.76,1358.37 "></polyline>
<polyline clip-path="url(#clip432)" style="stroke:#000000; stroke-linecap:round; stroke-linejoin:round; stroke-width:2; stroke-opacity:0.1; fill:none" points="242.135,1059.44 2352.76,1059.44 "></polyline>
<polyline clip-path="url(#clip432)" style="stroke:#000000; stroke-linecap:round; stroke-linejoin:round; stroke-width:2; stroke-opacity:0.1; fill:none" points="242.135,760.511 2352.76,760.511 "></polyline>
<polyline clip-path="url(#clip432)" style="stroke:#000000; stroke-linecap:round; stroke-linejoin:round; stroke-width:2; stroke-opacity:0.1; fill:none" points="242.135,461.581 2352.76,461.581 "></polyline>
<polyline clip-path="url(#clip432)" style="stroke:#000000; stroke-linecap:round; stroke-linejoin:round; stroke-width:2; stroke-opacity:0.1; fill:none" points="242.135,162.651 2352.76,162.651 "></polyline>
<polyline clip-path="url(#clip430)" style="stroke:#000000; stroke-linecap:round; stroke-linejoin:round; stroke-width:4; stroke-opacity:1; fill:none" points="242.135,1423.18 242.135,123.472 "></polyline>
<polyline clip-path="url(#clip430)" style="stroke:#000000; stroke-linecap:round; stroke-linejoin:round; stroke-width:4; stroke-opacity:1; fill:none" points="242.135,1358.37 261.032,1358.37 "></polyline>
<polyline clip-path="url(#clip430)" style="stroke:#000000; stroke-linecap:round; stroke-linejoin:round; stroke-width:4; stroke-opacity:1; fill:none" points="242.135,1059.44 261.032,1059.44 "></polyline>
<polyline clip-path="url(#clip430)" style="stroke:#000000; stroke-linecap:round; stroke-linejoin:round; stroke-width:4; stroke-opacity:1; fill:none" points="242.135,760.511 261.032,760.511 "></polyline>
<polyline clip-path="url(#clip430)" style="stroke:#000000; stroke-linecap:round; stroke-linejoin:round; stroke-width:4; stroke-opacity:1; fill:none" points="242.135,461.581 261.032,461.581 "></polyline>
<polyline clip-path="url(#clip430)" style="stroke:#000000; stroke-linecap:round; stroke-linejoin:round; stroke-width:4; stroke-opacity:1; fill:none" points="242.135,162.651 261.032,162.651 "></polyline>
<path clip-path="url(#clip430)" d="M114.26 1358.82 L143.936 1358.82 L143.936 1362.76 L114.26 1362.76 L114.26 1358.82 Z" fill="#000000" fill-rule="nonzero" fill-opacity="1"></path><path clip-path="url(#clip430)" d="M166.876 1345.17 L155.07 1363.61 L166.876 1363.61 L166.876 1345.17 M165.649 1341.09 L171.528 1341.09 L171.528 1363.61 L176.459 1363.61 L176.459 1367.5 L171.528 1367.5 L171.528 1375.65 L166.876 1375.65 L166.876 1367.5 L151.274 1367.5 L151.274 1362.99 L165.649 1341.09 Z" fill="#000000" fill-rule="nonzero" fill-opacity="1"></path><path clip-path="url(#clip430)" d="M194.19 1344.17 Q190.579 1344.17 188.75 1347.73 Q186.945 1351.28 186.945 1358.41 Q186.945 1365.51 188.75 1369.08 Q190.579 1372.62 194.19 1372.62 Q197.825 1372.62 199.63 1369.08 Q201.459 1365.51 201.459 1358.41 Q201.459 1351.28 199.63 1347.73 Q197.825 1344.17 194.19 1344.17 M194.19 1340.47 Q200 1340.47 203.056 1345.07 Q206.135 1349.66 206.135 1358.41 Q206.135 1367.13 203.056 1371.74 Q200 1376.32 194.19 1376.32 Q188.38 1376.32 185.301 1371.74 Q182.246 1367.13 182.246 1358.41 Q182.246 1349.66 185.301 1345.07 Q188.38 1340.47 194.19 1340.47 Z" fill="#000000" fill-rule="nonzero" fill-opacity="1"></path><path clip-path="url(#clip430)" d="M114.26 1059.89 L143.936 1059.89 L143.936 1063.83 L114.26 1063.83 L114.26 1059.89 Z" fill="#000000" fill-rule="nonzero" fill-opacity="1"></path><path clip-path="url(#clip430)" d="M168.195 1058.09 Q171.552 1058.8 173.427 1061.07 Q175.325 1063.34 175.325 1066.67 Q175.325 1071.79 171.806 1074.59 Q168.288 1077.39 161.806 1077.39 Q159.63 1077.39 157.315 1076.95 Q155.024 1076.54 152.57 1075.68 L152.57 1071.17 Q154.515 1072.3 156.829 1072.88 Q159.144 1073.46 161.667 1073.46 Q166.065 1073.46 168.357 1071.72 Q170.672 1069.98 170.672 1066.67 Q170.672 1063.62 168.519 1061.91 Q166.39 1060.17 162.57 1060.17 L158.542 1060.17 L158.542 1056.33 L162.755 1056.33 Q166.204 1056.33 168.033 1054.96 Q169.862 1053.57 169.862 1050.98 Q169.862 1048.32 167.964 1046.91 Q166.089 1045.47 162.57 1045.47 Q160.649 1045.47 158.45 1045.89 Q156.251 1046.3 153.612 1047.18 L153.612 1043.02 Q156.274 1042.28 158.589 1041.91 Q160.927 1041.54 162.987 1041.54 Q168.311 1041.54 171.413 1043.97 Q174.514 1046.37 174.514 1050.49 Q174.514 1053.36 172.871 1055.36 Q171.227 1057.32 168.195 1058.09 Z" fill="#000000" fill-rule="nonzero" fill-opacity="1"></path><path clip-path="url(#clip430)" d="M194.19 1045.24 Q190.579 1045.24 188.75 1048.8 Q186.945 1052.35 186.945 1059.48 Q186.945 1066.58 188.75 1070.15 Q190.579 1073.69 194.19 1073.69 Q197.825 1073.69 199.63 1070.15 Q201.459 1066.58 201.459 1059.48 Q201.459 1052.35 199.63 1048.8 Q197.825 1045.24 194.19 1045.24 M194.19 1041.54 Q200 1041.54 203.056 1046.14 Q206.135 1050.73 206.135 1059.48 Q206.135 1068.2 203.056 1072.81 Q200 1077.39 194.19 1077.39 Q188.38 1077.39 185.301 1072.81 Q182.246 1068.2 182.246 1059.48 Q182.246 1050.73 185.301 1046.14 Q188.38 1041.54 194.19 1041.54 Z" fill="#000000" fill-rule="nonzero" fill-opacity="1"></path><path clip-path="url(#clip430)" d="M114.26 760.962 L143.936 760.962 L143.936 764.897 L114.26 764.897 L114.26 760.962 Z" fill="#000000" fill-rule="nonzero" fill-opacity="1"></path><path clip-path="url(#clip430)" d="M158.056 773.856 L174.376 773.856 L174.376 777.791 L152.431 777.791 L152.431 773.856 Q155.093 771.101 159.677 766.471 Q164.283 761.819 165.464 760.476 Q167.709 757.953 168.589 756.217 Q169.491 754.458 169.491 752.768 Q169.491 750.013 167.547 748.277 Q165.626 746.541 162.524 746.541 Q160.325 746.541 157.871 747.305 Q155.44 748.069 152.663 749.62 L152.663 744.898 Q155.487 743.763 157.94 743.185 Q160.394 742.606 162.431 742.606 Q167.802 742.606 170.996 745.291 Q174.19 747.976 174.19 752.467 Q174.19 754.597 173.38 756.518 Q172.593 758.416 170.487 761.009 Q169.908 761.68 166.806 764.897 Q163.704 768.092 158.056 773.856 Z" fill="#000000" fill-rule="nonzero" fill-opacity="1"></path><path clip-path="url(#clip430)" d="M194.19 746.31 Q190.579 746.31 188.75 749.874 Q186.945 753.416 186.945 760.546 Q186.945 767.652 188.75 771.217 Q190.579 774.758 194.19 774.758 Q197.825 774.758 199.63 771.217 Q201.459 767.652 201.459 760.546 Q201.459 753.416 199.63 749.874 Q197.825 746.31 194.19 746.31 M194.19 742.606 Q200 742.606 203.056 747.212 Q206.135 751.796 206.135 760.546 Q206.135 769.272 203.056 773.879 Q200 778.462 194.19 778.462 Q188.38 778.462 185.301 773.879 Q182.246 769.272 182.246 760.546 Q182.246 751.796 185.301 747.212 Q188.38 742.606 194.19 742.606 Z" fill="#000000" fill-rule="nonzero" fill-opacity="1"></path><path clip-path="url(#clip430)" d="M114.26 462.032 L143.936 462.032 L143.936 465.967 L114.26 465.967 L114.26 462.032 Z" fill="#000000" fill-rule="nonzero" fill-opacity="1"></path><path clip-path="url(#clip430)" d="M154.839 474.926 L162.477 474.926 L162.477 448.56 L154.167 450.227 L154.167 445.967 L162.431 444.301 L167.107 444.301 L167.107 474.926 L174.746 474.926 L174.746 478.861 L154.839 478.861 L154.839 474.926 Z" fill="#000000" fill-rule="nonzero" fill-opacity="1"></path><path clip-path="url(#clip430)" d="M194.19 447.379 Q190.579 447.379 188.75 450.944 Q186.945 454.486 186.945 461.616 Q186.945 468.722 188.75 472.287 Q190.579 475.828 194.19 475.828 Q197.825 475.828 199.63 472.287 Q201.459 468.722 201.459 461.616 Q201.459 454.486 199.63 450.944 Q197.825 447.379 194.19 447.379 M194.19 443.676 Q200 443.676 203.056 448.282 Q206.135 452.866 206.135 461.616 Q206.135 470.342 203.056 474.949 Q200 479.532 194.19 479.532 Q188.38 479.532 185.301 474.949 Q182.246 470.342 182.246 461.616 Q182.246 452.866 185.301 448.282 Q188.38 443.676 194.19 443.676 Z" fill="#000000" fill-rule="nonzero" fill-opacity="1"></path><path clip-path="url(#clip430)" d="M194.19 148.449 Q190.579 148.449 188.75 152.014 Q186.945 155.556 186.945 162.685 Q186.945 169.792 188.75 173.357 Q190.579 176.898 194.19 176.898 Q197.825 176.898 199.63 173.357 Q201.459 169.792 201.459 162.685 Q201.459 155.556 199.63 152.014 Q197.825 148.449 194.19 148.449 M194.19 144.746 Q200 144.746 203.056 149.352 Q206.135 153.936 206.135 162.685 Q206.135 171.412 203.056 176.019 Q200 180.602 194.19 180.602 Q188.38 180.602 185.301 176.019 Q182.246 171.412 182.246 162.685 Q182.246 153.936 185.301 149.352 Q188.38 144.746 194.19 144.746 Z" fill="#000000" fill-rule="nonzero" fill-opacity="1"></path><path clip-path="url(#clip430)" d="M14.479 803.277 L19.3487 803.277 L19.3487 808.878 Q19.3487 812.029 20.6219 813.271 Q21.895 814.48 25.2052 814.48 L28.3562 814.48 L28.3562 804.836 L32.9077 804.836 L32.9077 814.48 L64.0042 814.48 L64.0042 820.369 L32.9077 820.369 L32.9077 825.97 L28.3562 825.97 L28.3562 820.369 L25.8736 820.369 Q19.9216 820.369 17.2162 817.599 Q14.479 814.83 14.479 808.815 L14.479 803.277 Z" fill="#000000" fill-rule="nonzero" fill-opacity="1"></path><path clip-path="url(#clip430)" d="M14.5426 784.307 Q21.8632 788.572 29.0246 790.641 Q36.186 792.71 43.5384 792.71 Q50.8908 792.71 58.1159 790.641 Q65.3091 788.54 72.5979 784.307 L72.5979 789.399 Q65.1182 794.174 57.8931 796.561 Q50.668 798.916 43.5384 798.916 Q36.4406 798.916 29.2474 796.561 Q22.0542 794.206 14.5426 789.399 L14.5426 784.307 Z" fill="#000000" fill-rule="nonzero" fill-opacity="1"></path><path clip-path="url(#clip430)" d="M28.3562 743.312 L45.7028 756.202 L64.0042 742.643 L64.0042 749.55 L49.9996 759.926 L64.0042 770.302 L64.0042 777.209 L45.3526 763.364 L28.3562 776.031 L28.3562 769.125 L41.0558 759.672 L28.3562 750.218 L28.3562 743.312 Z" fill="#000000" fill-rule="nonzero" fill-opacity="1"></path><path clip-path="url(#clip430)" d="M14.5426 735.291 L14.5426 730.198 Q22.0542 725.424 29.2474 723.069 Q36.4406 720.682 43.5384 720.682 Q50.668 720.682 57.8931 723.069 Q65.1182 725.424 72.5979 730.198 L72.5979 735.291 Q65.3091 731.058 58.1159 728.989 Q50.8908 726.888 43.5384 726.888 Q36.186 726.888 29.0246 728.989 Q21.8632 731.058 14.5426 735.291 Z" fill="#000000" fill-rule="nonzero" fill-opacity="1"></path><path clip-path="url(#clip430)" d="M644.561 18.8205 L644.561 41.5461 L654.85 41.5461 Q660.562 41.5461 663.681 38.5889 Q666.801 35.6318 666.801 30.163 Q666.801 24.7348 663.681 21.7777 Q660.562 18.8205 654.85 18.8205 L644.561 18.8205 M636.378 12.096 L654.85 12.096 Q665.018 12.096 670.203 16.714 Q675.429 21.2916 675.429 30.163 Q675.429 39.1155 670.203 43.6931 Q665.018 48.2706 654.85 48.2706 L644.561 48.2706 L644.561 72.576 L636.378 72.576 L636.378 12.096 Z" fill="#000000" fill-rule="nonzero" fill-opacity="1"></path><path clip-path="url(#clip430)" d="M686.083 9.54393 L693.536 9.54393 L693.536 72.576 L686.083 72.576 L686.083 9.54393 Z" fill="#000000" fill-rule="nonzero" fill-opacity="1"></path><path clip-path="url(#clip430)" d="M726.713 32.4315 Q720.718 32.4315 717.234 37.1306 Q713.75 41.7891 713.75 49.9314 Q713.75 58.0738 717.194 62.7728 Q720.678 67.4314 726.713 67.4314 Q732.668 67.4314 736.152 62.7323 Q739.636 58.0333 739.636 49.9314 Q739.636 41.8701 736.152 37.1711 Q732.668 32.4315 726.713 32.4315 M726.713 26.1121 Q736.436 26.1121 741.985 32.4315 Q747.535 38.7509 747.535 49.9314 Q747.535 61.0714 741.985 67.4314 Q736.436 73.7508 726.713 73.7508 Q716.951 73.7508 711.401 67.4314 Q705.892 61.0714 705.892 49.9314 Q705.892 38.7509 711.401 32.4315 Q716.951 26.1121 726.713 26.1121 Z" fill="#000000" fill-rule="nonzero" fill-opacity="1"></path><path clip-path="url(#clip430)" d="M767.263 14.324 L767.263 27.2059 L782.616 27.2059 L782.616 32.9987 L767.263 32.9987 L767.263 57.6282 Q767.263 63.1779 768.762 64.7578 Q770.301 66.3376 774.96 66.3376 L782.616 66.3376 L782.616 72.576 L774.96 72.576 Q766.331 72.576 763.05 69.3758 Q759.769 66.1351 759.769 57.6282 L759.769 32.9987 L754.3 32.9987 L754.3 27.2059 L759.769 27.2059 L759.769 14.324 L767.263 14.324 Z" fill="#000000" fill-rule="nonzero" fill-opacity="1"></path><path clip-path="url(#clip430)" d="M836.371 32.4315 Q830.376 32.4315 826.892 37.1306 Q823.408 41.7891 823.408 49.9314 Q823.408 58.0738 826.852 62.7728 Q830.336 67.4314 836.371 67.4314 Q842.326 67.4314 845.81 62.7323 Q849.294 58.0333 849.294 49.9314 Q849.294 41.8701 845.81 37.1711 Q842.326 32.4315 836.371 32.4315 M836.371 26.1121 Q846.094 26.1121 851.643 32.4315 Q857.193 38.7509 857.193 49.9314 Q857.193 61.0714 851.643 67.4314 Q846.094 73.7508 836.371 73.7508 Q826.609 73.7508 821.059 67.4314 Q815.55 61.0714 815.55 49.9314 Q815.55 38.7509 821.059 32.4315 Q826.609 26.1121 836.371 26.1121 Z" fill="#000000" fill-rule="nonzero" fill-opacity="1"></path><path clip-path="url(#clip430)" d="M892.517 9.54393 L892.517 15.7418 L885.387 15.7418 Q881.377 15.7418 879.797 17.3622 Q878.258 18.9825 878.258 23.1955 L878.258 27.2059 L890.532 27.2059 L890.532 32.9987 L878.258 32.9987 L878.258 72.576 L870.764 72.576 L870.764 32.9987 L863.634 32.9987 L863.634 27.2059 L870.764 27.2059 L870.764 24.0462 Q870.764 16.471 874.288 13.0277 Q877.812 9.54393 885.468 9.54393 L892.517 9.54393 Z" fill="#000000" fill-rule="nonzero" fill-opacity="1"></path><path clip-path="url(#clip430)" d="M954.982 49.3643 Q954.982 41.2625 951.62 36.8065 Q948.298 32.3505 942.262 32.3505 Q936.267 32.3505 932.904 36.8065 Q929.583 41.2625 929.583 49.3643 Q929.583 57.4256 932.904 61.8816 Q936.267 66.3376 942.262 66.3376 Q948.298 66.3376 951.62 61.8816 Q954.982 57.4256 954.982 49.3643 M962.436 66.9452 Q962.436 78.5308 957.291 84.1616 Q952.146 89.8329 941.533 89.8329 Q937.603 89.8329 934.12 89.2252 Q930.636 88.6581 927.355 87.4428 L927.355 80.1917 Q930.636 81.9741 933.836 82.8248 Q937.036 83.6755 940.358 83.6755 Q947.69 83.6755 951.336 79.8271 Q954.982 76.0193 954.982 68.282 L954.982 64.5957 Q952.673 68.6061 949.068 70.5911 Q945.462 72.576 940.439 72.576 Q932.094 72.576 926.99 66.2161 Q921.886 59.8562 921.886 49.3643 Q921.886 38.832 926.99 32.472 Q932.094 26.1121 940.439 26.1121 Q945.462 26.1121 949.068 28.0971 Q952.673 30.082 954.982 34.0924 L954.982 27.2059 L962.436 27.2059 L962.436 66.9452 Z" fill="#000000" fill-rule="nonzero" fill-opacity="1"></path><path clip-path="url(#clip430)" d="M995.693 9.62495 Q990.265 18.942 987.632 28.0566 Q984.999 37.1711 984.999 46.5287 Q984.999 55.8863 987.632 65.0818 Q990.306 74.2369 995.693 83.5134 L989.212 83.5134 Q983.136 73.9938 980.097 64.7983 Q977.1 55.6027 977.1 46.5287 Q977.1 37.4952 980.097 28.3401 Q983.095 19.1851 989.212 9.62495 L995.693 9.62495 Z" fill="#000000" fill-rule="nonzero" fill-opacity="1"></path><path clip-path="url(#clip430)" d="M1047.87 27.2059 L1031.46 49.2833 L1048.72 72.576 L1039.93 72.576 L1026.72 54.752 L1013.52 72.576 L1004.73 72.576 L1022.35 48.8377 L1006.23 27.2059 L1015.02 27.2059 L1027.05 43.369 L1039.08 27.2059 L1047.87 27.2059 Z" fill="#000000" fill-rule="nonzero" fill-opacity="1"></path><path clip-path="url(#clip430)" d="M1058.08 9.62495 L1064.56 9.62495 Q1070.64 19.1851 1073.63 28.3401 Q1076.67 37.4952 1076.67 46.5287 Q1076.67 55.6027 1073.63 64.7983 Q1070.64 73.9938 1064.56 83.5134 L1058.08 83.5134 Q1063.47 74.2369 1066.1 65.0818 Q1068.77 55.8863 1068.77 46.5287 Q1068.77 37.1711 1066.1 28.0566 Q1063.47 18.942 1058.08 9.62495 Z" fill="#000000" fill-rule="nonzero" fill-opacity="1"></path><path clip-path="url(#clip430)" d="M1118.96 34.9026 L1170.9 34.9026 L1170.9 41.7081 L1118.96 41.7081 L1118.96 34.9026 M1118.96 51.4303 L1170.9 51.4303 L1170.9 58.3168 L1118.96 58.3168 L1118.96 51.4303 Z" fill="#000000" fill-rule="nonzero" fill-opacity="1"></path><path clip-path="url(#clip430)" d="M1251.59 27.2059 L1235.18 49.2833 L1252.44 72.576 L1243.65 72.576 L1230.44 54.752 L1217.24 72.576 L1208.45 72.576 L1226.07 48.8377 L1209.95 27.2059 L1218.74 27.2059 L1230.77 43.369 L1242.8 27.2059 L1251.59 27.2059 Z" fill="#000000" fill-rule="nonzero" fill-opacity="1"></path><path clip-path="url(#clip430)" d="M1293.88 12.096 L1315.88 34.6595 L1307.73 34.6595 L1289.91 18.6585 L1272.09 34.6595 L1263.94 34.6595 L1285.94 12.096 L1293.88 12.096 Z" fill="#000000" fill-rule="nonzero" fill-opacity="1"></path><path clip-path="url(#clip430)" d="M1356.02 19.2256 L1335.36 51.5113 L1356.02 51.5113 L1356.02 19.2256 M1353.87 12.096 L1364.16 12.096 L1364.16 51.5113 L1372.79 51.5113 L1372.79 58.3168 L1364.16 58.3168 L1364.16 72.576 L1356.02 72.576 L1356.02 58.3168 L1328.72 58.3168 L1328.72 50.4176 L1353.87 12.096 Z" fill="#000000" fill-rule="nonzero" fill-opacity="1"></path><path clip-path="url(#clip430)" d="M1407.87 46.5287 L1429.71 46.5287 L1429.71 53.1722 L1407.87 53.1722 L1407.87 46.5287 Z" fill="#000000" fill-rule="nonzero" fill-opacity="1"></path><path clip-path="url(#clip430)" d="M1470.42 65.6895 L1483.79 65.6895 L1483.79 19.5497 L1469.24 22.4663 L1469.24 15.0127 L1483.71 12.096 L1491.89 12.096 L1491.89 65.6895 L1505.26 65.6895 L1505.26 72.576 L1470.42 72.576 L1470.42 65.6895 Z" fill="#000000" fill-rule="nonzero" fill-opacity="1"></path><path clip-path="url(#clip430)" d="M1528.83 65.6895 L1557.39 65.6895 L1557.39 72.576 L1518.99 72.576 L1518.99 65.6895 Q1523.65 60.8689 1531.67 52.7671 Q1539.73 44.6248 1541.8 42.2752 Q1545.73 37.8598 1547.26 34.8216 Q1548.84 31.7429 1548.84 28.7857 Q1548.84 23.9651 1545.44 20.927 Q1542.08 17.8888 1536.65 17.8888 Q1532.8 17.8888 1528.51 19.2256 Q1524.26 20.5624 1519.39 23.2765 L1519.39 15.0127 Q1524.34 13.0277 1528.63 12.015 Q1532.92 11.0023 1536.49 11.0023 Q1545.89 11.0023 1551.48 15.7013 Q1557.07 20.4004 1557.07 28.2591 Q1557.07 31.9859 1555.65 35.3482 Q1554.27 38.6699 1550.59 43.2069 Q1549.57 44.3817 1544.15 50.0125 Q1538.72 55.6027 1528.83 65.6895 Z" fill="#000000" fill-rule="nonzero" fill-opacity="1"></path><path clip-path="url(#clip430)" d="M1611.23 27.2059 L1594.82 49.2833 L1612.08 72.576 L1603.29 72.576 L1590.08 54.752 L1576.88 72.576 L1568.09 72.576 L1585.71 48.8377 L1569.59 27.2059 L1578.38 27.2059 L1590.41 43.369 L1602.44 27.2059 L1611.23 27.2059 Z" fill="#000000" fill-rule="nonzero" fill-opacity="1"></path><path clip-path="url(#clip430)" d="M1653.52 12.096 L1675.52 34.6595 L1667.37 34.6595 L1649.55 18.6585 L1631.73 34.6595 L1623.58 34.6595 L1645.58 12.096 L1653.52 12.096 Z" fill="#000000" fill-rule="nonzero" fill-opacity="1"></path><path clip-path="url(#clip430)" d="M1700.23 65.6895 L1728.79 65.6895 L1728.79 72.576 L1690.38 72.576 L1690.38 65.6895 Q1695.04 60.8689 1703.06 52.7671 Q1711.12 44.6248 1713.19 42.2752 Q1717.12 37.8598 1718.66 34.8216 Q1720.24 31.7429 1720.24 28.7857 Q1720.24 23.9651 1716.84 20.927 Q1713.47 17.8888 1708.04 17.8888 Q1704.2 17.8888 1699.9 19.2256 Q1695.65 20.5624 1690.79 23.2765 L1690.79 15.0127 Q1695.73 13.0277 1700.02 12.015 Q1704.32 11.0023 1707.88 11.0023 Q1717.28 11.0023 1722.87 15.7013 Q1728.46 20.4004 1728.46 28.2591 Q1728.46 31.9859 1727.04 35.3482 Q1725.67 38.6699 1721.98 43.2069 Q1720.97 44.3817 1715.54 50.0125 Q1710.11 55.6027 1700.23 65.6895 Z" fill="#000000" fill-rule="nonzero" fill-opacity="1"></path><path clip-path="url(#clip430)" d="M1801.62 20.5624 L1801.62 43.1259 L1824.18 43.1259 L1824.18 50.0125 L1801.62 50.0125 L1801.62 72.576 L1794.82 72.576 L1794.82 50.0125 L1772.25 50.0125 L1772.25 43.1259 L1794.82 43.1259 L1794.82 20.5624 L1801.62 20.5624 Z" fill="#000000" fill-rule="nonzero" fill-opacity="1"></path><path clip-path="url(#clip430)" d="M1875.27 65.6895 L1903.83 65.6895 L1903.83 72.576 L1865.42 72.576 L1865.42 65.6895 Q1870.08 60.8689 1878.1 52.7671 Q1886.16 44.6248 1888.23 42.2752 Q1892.16 37.8598 1893.7 34.8216 Q1895.28 31.7429 1895.28 28.7857 Q1895.28 23.9651 1891.87 20.927 Q1888.51 17.8888 1883.08 17.8888 Q1879.24 17.8888 1874.94 19.2256 Q1870.69 20.5624 1865.83 23.2765 L1865.83 15.0127 Q1870.77 13.0277 1875.06 12.015 Q1879.36 11.0023 1882.92 11.0023 Q1892.32 11.0023 1897.91 15.7013 Q1903.5 20.4004 1903.5 28.2591 Q1903.5 31.9859 1902.08 35.3482 Q1900.71 38.6699 1897.02 43.2069 Q1896.01 44.3817 1890.58 50.0125 Q1885.15 55.6027 1875.27 65.6895 Z" fill="#000000" fill-rule="nonzero" fill-opacity="1"></path><path clip-path="url(#clip430)" d="M1957.66 27.2059 L1941.26 49.2833 L1958.51 72.576 L1949.72 72.576 L1936.52 54.752 L1923.31 72.576 L1914.52 72.576 L1932.14 48.8377 L1916.02 27.2059 L1924.81 27.2059 L1936.84 43.369 L1948.87 27.2059 L1957.66 27.2059 Z" fill="#000000" fill-rule="nonzero" fill-opacity="1"></path><polyline clip-path="url(#clip432)" style="stroke:#009af9; stroke-linecap:round; stroke-linejoin:round; stroke-width:4; stroke-opacity:1; fill:none" points="301.869,1149.12 335.055,1238.56 368.241,1304.99 401.427,1350.48 434.613,1376.98 467.799,1386.4 500.984,1380.56 534.17,1361.24 567.356,1330.1 600.542,1288.78 633.728,1238.8 666.914,1181.64 700.1,1118.7 733.286,1051.31 766.471,980.715 799.657,908.108 832.843,834.598 866.029,761.225 899.215,688.959 932.401,618.695 965.587,551.26 998.772,487.405 1031.96,427.814 1065.14,373.095 1098.33,323.786 1131.52,280.354 1164.7,243.194 1197.89,212.629 1231.07,188.909 1264.26,172.214 1297.45,162.651 1330.63,160.256 1363.82,164.994 1397,176.757 1430.19,195.366 1463.37,220.568 1496.56,252.043 1529.75,289.394 1562.93,332.156 1596.12,379.791 1629.3,431.688 1662.49,487.166 1695.68,545.473 1728.86,605.782 1762.05,667.197 1795.23,728.75 1828.42,789.399 1861.61,848.035 1894.79,903.471 1927.98,954.454 1961.16,999.655 1994.35,1037.68 2027.53,1067.05 2060.72,1086.22 2093.91,1093.59 2127.09,1087.47 2160.28,1066.09 2193.46,1027.63 2226.65,970.192 2259.84,891.798 2293.02,790.404 "></polyline>
<path clip-path="url(#clip430)" d="M1583.54 270.476 L2282.4 270.476 L2282.4 166.796 L1583.54 166.796  Z" fill="#ffffff" fill-rule="evenodd" fill-opacity="1"></path>
<polyline clip-path="url(#clip430)" style="stroke:#000000; stroke-linecap:round; stroke-linejoin:round; stroke-width:4; stroke-opacity:1; fill:none" points="1583.54,270.476 2282.4,270.476 2282.4,166.796 1583.54,166.796 1583.54,270.476 "></polyline>
<polyline clip-path="url(#clip430)" style="stroke:#009af9; stroke-linecap:round; stroke-linejoin:round; stroke-width:4; stroke-opacity:1; fill:none" points="1606.99,218.636 1747.7,218.636 "></polyline>
<path clip-path="url(#clip430)" d="M1790.06 222.652 Q1790.06 218.022 1788.14 215.476 Q1786.24 212.93 1782.8 212.93 Q1779.37 212.93 1777.45 215.476 Q1775.55 218.022 1775.55 222.652 Q1775.55 227.258 1777.45 229.805 Q1779.37 232.351 1782.8 232.351 Q1786.24 232.351 1788.14 229.805 Q1790.06 227.258 1790.06 222.652 M1794.32 232.698 Q1794.32 239.318 1791.38 242.536 Q1788.44 245.777 1782.38 245.777 Q1780.13 245.777 1778.14 245.43 Q1776.15 245.105 1774.28 244.411 L1774.28 240.268 Q1776.15 241.286 1777.98 241.772 Q1779.81 242.258 1781.71 242.258 Q1785.9 242.258 1787.98 240.059 Q1790.06 237.883 1790.06 233.462 L1790.06 231.356 Q1788.74 233.647 1786.68 234.781 Q1784.62 235.916 1781.75 235.916 Q1776.99 235.916 1774.07 232.281 Q1771.15 228.647 1771.15 222.652 Q1771.15 216.633 1774.07 212.999 Q1776.99 209.365 1781.75 209.365 Q1784.62 209.365 1786.68 210.499 Q1788.74 211.633 1790.06 213.925 L1790.06 209.99 L1794.32 209.99 L1794.32 232.698 Z" fill="#000000" fill-rule="nonzero" fill-opacity="1"></path><path clip-path="url(#clip430)" d="M1813.33 199.944 Q1810.23 205.268 1808.72 210.476 Q1807.22 215.684 1807.22 221.032 Q1807.22 226.379 1808.72 231.633 Q1810.25 236.865 1813.33 242.166 L1809.62 242.166 Q1806.15 236.726 1804.42 231.471 Q1802.7 226.217 1802.7 221.032 Q1802.7 215.87 1804.42 210.638 Q1806.13 205.407 1809.62 199.944 L1813.33 199.944 Z" fill="#000000" fill-rule="nonzero" fill-opacity="1"></path><path clip-path="url(#clip430)" d="M1843.14 209.99 L1833.77 222.606 L1843.63 235.916 L1838.61 235.916 L1831.06 225.731 L1823.51 235.916 L1818.49 235.916 L1828.56 222.351 L1819.35 209.99 L1824.37 209.99 L1831.24 219.226 L1838.12 209.99 L1843.14 209.99 Z" fill="#000000" fill-rule="nonzero" fill-opacity="1"></path><path clip-path="url(#clip430)" d="M1848.98 199.944 L1852.68 199.944 Q1856.15 205.407 1857.86 210.638 Q1859.6 215.87 1859.6 221.032 Q1859.6 226.217 1857.86 231.471 Q1856.15 236.726 1852.68 242.166 L1848.98 242.166 Q1852.05 236.865 1853.56 231.633 Q1855.09 226.379 1855.09 221.032 Q1855.09 215.684 1853.56 210.476 Q1852.05 205.268 1848.98 199.944 Z" fill="#000000" fill-rule="nonzero" fill-opacity="1"></path><path clip-path="url(#clip430)" d="M1883.77 214.388 L1913.44 214.388 L1913.44 218.277 L1883.77 218.277 L1883.77 214.388 M1883.77 223.832 L1913.44 223.832 L1913.44 227.768 L1883.77 227.768 L1883.77 223.832 Z" fill="#000000" fill-rule="nonzero" fill-opacity="1"></path><path clip-path="url(#clip430)" d="M1959.55 209.99 L1950.18 222.606 L1960.04 235.916 L1955.02 235.916 L1947.47 225.731 L1939.92 235.916 L1934.9 235.916 L1944.97 222.351 L1935.76 209.99 L1940.78 209.99 L1947.66 219.226 L1954.53 209.99 L1959.55 209.99 Z" fill="#000000" fill-rule="nonzero" fill-opacity="1"></path><path clip-path="url(#clip430)" d="M1983.72 201.356 L1996.29 214.249 L1991.64 214.249 L1981.45 205.106 L1971.27 214.249 L1966.61 214.249 L1979.18 201.356 L1983.72 201.356 Z" fill="#000000" fill-rule="nonzero" fill-opacity="1"></path><path clip-path="url(#clip430)" d="M2019.23 205.43 L2007.42 223.879 L2019.23 223.879 L2019.23 205.43 M2018 201.356 L2023.88 201.356 L2023.88 223.879 L2028.81 223.879 L2028.81 227.768 L2023.88 227.768 L2023.88 235.916 L2019.23 235.916 L2019.23 227.768 L2003.63 227.768 L2003.63 223.254 L2018 201.356 Z" fill="#000000" fill-rule="nonzero" fill-opacity="1"></path><path clip-path="url(#clip430)" d="M2048.86 221.032 L2061.34 221.032 L2061.34 224.828 L2048.86 224.828 L2048.86 221.032 Z" fill="#000000" fill-rule="nonzero" fill-opacity="1"></path><path clip-path="url(#clip430)" d="M2089.67 209.99 L2080.29 222.606 L2090.16 235.916 L2085.13 235.916 L2077.59 225.731 L2070.04 235.916 L2065.02 235.916 L2075.09 222.351 L2065.87 209.99 L2070.9 209.99 L2077.77 219.226 L2084.65 209.99 L2089.67 209.99 Z" fill="#000000" fill-rule="nonzero" fill-opacity="1"></path><path clip-path="url(#clip430)" d="M2113.84 201.356 L2126.4 214.249 L2121.75 214.249 L2111.57 205.106 L2101.38 214.249 L2096.73 214.249 L2109.3 201.356 L2113.84 201.356 Z" fill="#000000" fill-rule="nonzero" fill-opacity="1"></path><path clip-path="url(#clip430)" d="M2140.53 231.981 L2156.84 231.981 L2156.84 235.916 L2134.9 235.916 L2134.9 231.981 Q2137.56 229.226 2142.15 224.596 Q2146.75 219.944 2147.93 218.601 Q2150.18 216.078 2151.06 214.342 Q2151.96 212.583 2151.96 210.893 Q2151.96 208.138 2150.02 206.402 Q2148.09 204.666 2144.99 204.666 Q2142.79 204.666 2140.34 205.43 Q2137.91 206.194 2135.13 207.745 L2135.13 203.022 Q2137.96 201.888 2140.41 201.309 Q2142.86 200.731 2144.9 200.731 Q2150.27 200.731 2153.46 203.416 Q2156.66 206.101 2156.66 210.592 Q2156.66 212.721 2155.85 214.643 Q2155.06 216.541 2152.96 219.133 Q2152.38 219.805 2149.28 223.022 Q2146.17 226.217 2140.53 231.981 Z" fill="#000000" fill-rule="nonzero" fill-opacity="1"></path><path clip-path="url(#clip430)" d="M2198.46 206.194 L2198.46 219.087 L2211.36 219.087 L2211.36 223.022 L2198.46 223.022 L2198.46 235.916 L2194.58 235.916 L2194.58 223.022 L2181.68 223.022 L2181.68 219.087 L2194.58 219.087 L2194.58 206.194 L2198.46 206.194 Z" fill="#000000" fill-rule="nonzero" fill-opacity="1"></path><path clip-path="url(#clip430)" d="M2249.37 205.43 L2237.56 223.879 L2249.37 223.879 L2249.37 205.43 M2248.14 201.356 L2254.02 201.356 L2254.02 223.879 L2258.95 223.879 L2258.95 227.768 L2254.02 227.768 L2254.02 235.916 L2249.37 235.916 L2249.37 227.768 L2233.77 227.768 L2233.77 223.254 L2248.14 201.356 Z" fill="#000000" fill-rule="nonzero" fill-opacity="1"></path></svg>