<svg xmlns="http://www.w3.org/2000/svg" xmlns:xlink="http://www.w3.org/1999/xlink" width="600" height="400" viewBox="0 0 2400 1600">
<defs>
  <clipPath id="clip590">
    <rect x="0" y="0" width="2400" height="1600"></rect>
  </clipPath>
</defs>
<path clip-path="url(#clip590)" d="M0 1600 L2400 1600 L2400 8.88178e-14 L0 8.88178e-14  Z" fill="#ffffff" fill-rule="evenodd" fill-opacity="1"></path>
<defs>
  <clipPath id="clip591">
    <rect x="480" y="0" width="1681" height="1600"></rect>
  </clipPath>
</defs>
<path clip-path="url(#clip590)" d="M212.459 1423.18 L2352.76 1423.18 L2352.76 123.472 L212.459 123.472  Z" fill="#ffffff" fill-rule="evenodd" fill-opacity="1"></path>
<defs>
  <clipPath id="clip592">
    <rect x="212" y="123" width="2141" height="1301"></rect>
  </clipPath>
</defs>
<polyline clip-path="url(#clip592)" style="stroke:#000000; stroke-linecap:round; stroke-linejoin:round; stroke-width:2; stroke-opacity:0.1; fill:none" points="273.033,1423.18 273.033,123.472 "></polyline>
<polyline clip-path="url(#clip592)" style="stroke:#000000; stroke-linecap:round; stroke-linejoin:round; stroke-width:2; stroke-opacity:0.1; fill:none" points="609.558,1423.18 609.558,123.472 "></polyline>
<polyline clip-path="url(#clip592)" style="stroke:#000000; stroke-linecap:round; stroke-linejoin:round; stroke-width:2; stroke-opacity:0.1; fill:none" points="946.083,1423.18 946.083,123.472 "></polyline>
<polyline clip-path="url(#clip592)" style="stroke:#000000; stroke-linecap:round; stroke-linejoin:round; stroke-width:2; stroke-opacity:0.1; fill:none" points="1282.61,1423.18 1282.61,123.472 "></polyline>
<polyline clip-path="url(#clip592)" style="stroke:#000000; stroke-linecap:round; stroke-linejoin:round; stroke-width:2; stroke-opacity:0.1; fill:none" points="1619.13,1423.18 1619.13,123.472 "></polyline>
<polyline clip-path="url(#clip592)" style="stroke:#000000; stroke-linecap:round; stroke-linejoin:round; stroke-width:2; stroke-opacity:0.1; fill:none" points="1955.66,1423.18 1955.66,123.472 "></polyline>
<polyline clip-path="url(#clip592)" style="stroke:#000000; stroke-linecap:round; stroke-linejoin:round; stroke-width:2; stroke-opacity:0.1; fill:none" points="2292.18,1423.18 2292.18,123.472 "></polyline>
<polyline clip-path="url(#clip590)" style="stroke:#000000; stroke-linecap:round; stroke-linejoin:round; stroke-width:4; stroke-opacity:1; fill:none" points="212.459,1423.18 2352.76,1423.18 "></polyline>
<polyline clip-path="url(#clip590)" style="stroke:#000000; stroke-linecap:round; stroke-linejoin:round; stroke-width:4; stroke-opacity:1; fill:none" points="273.033,1423.18 273.033,1404.28 "></polyline>
<polyline clip-path="url(#clip590)" style="stroke:#000000; stroke-linecap:round; stroke-linejoin:round; stroke-width:4; stroke-opacity:1; fill:none" points="609.558,1423.18 609.558,1404.28 "></polyline>
<polyline clip-path="url(#clip590)" style="stroke:#000000; stroke-linecap:round; stroke-linejoin:round; stroke-width:4; stroke-opacity:1; fill:none" points="946.083,1423.18 946.083,1404.28 "></polyline>
<polyline clip-path="url(#clip590)" style="stroke:#000000; stroke-linecap:round; stroke-linejoin:round; stroke-width:4; stroke-opacity:1; fill:none" points="1282.61,1423.18 1282.61,1404.28 "></polyline>
<polyline clip-path="url(#clip590)" style="stroke:#000000; stroke-linecap:round; stroke-linejoin:round; stroke-width:4; stroke-opacity:1; fill:none" points="1619.13,1423.18 1619.13,1404.28 "></polyline>
<polyline clip-path="url(#clip590)" style="stroke:#000000; stroke-linecap:round; stroke-linejoin:round; stroke-width:4; stroke-opacity:1; fill:none" points="1955.66,1423.18 1955.66,1404.28 "></polyline>
<polyline clip-path="url(#clip590)" style="stroke:#000000; stroke-linecap:round; stroke-linejoin:round; stroke-width:4; stroke-opacity:1; fill:none" points="2292.18,1423.18 2292.18,1404.28 "></polyline>
<path clip-path="url(#clip590)" d="M242.501 1468.75 L272.177 1468.75 L272.177 1472.69 L242.501 1472.69 L242.501 1468.75 Z" fill="#000000" fill-rule="nonzero" fill-opacity="1"></path><path clip-path="url(#clip590)" d="M296.436 1466.95 Q299.792 1467.66 301.667 1469.93 Q303.566 1472.2 303.566 1475.53 Q303.566 1480.65 300.047 1483.45 Q296.529 1486.25 290.047 1486.25 Q287.871 1486.25 285.556 1485.81 Q283.265 1485.39 280.811 1484.54 L280.811 1480.02 Q282.756 1481.16 285.07 1481.74 Q287.385 1482.32 289.908 1482.32 Q294.306 1482.32 296.598 1480.58 Q298.913 1478.84 298.913 1475.53 Q298.913 1472.48 296.76 1470.77 Q294.63 1469.03 290.811 1469.03 L286.783 1469.03 L286.783 1465.19 L290.996 1465.19 Q294.445 1465.19 296.274 1463.82 Q298.103 1462.43 298.103 1459.84 Q298.103 1457.18 296.205 1455.77 Q294.33 1454.33 290.811 1454.33 Q288.89 1454.33 286.691 1454.75 Q284.492 1455.16 281.853 1456.04 L281.853 1451.88 Q284.515 1451.14 286.83 1450.77 Q289.168 1450.39 291.228 1450.39 Q296.552 1450.39 299.654 1452.83 Q302.755 1455.23 302.755 1459.35 Q302.755 1462.22 301.112 1464.21 Q299.468 1466.18 296.436 1466.95 Z" fill="#000000" fill-rule="nonzero" fill-opacity="1"></path><path clip-path="url(#clip590)" d="M579.5 1468.75 L609.176 1468.75 L609.176 1472.69 L579.5 1472.69 L579.5 1468.75 Z" fill="#000000" fill-rule="nonzero" fill-opacity="1"></path><path clip-path="url(#clip590)" d="M623.296 1481.64 L639.616 1481.64 L639.616 1485.58 L617.671 1485.58 L617.671 1481.64 Q620.333 1478.89 624.917 1474.26 Q629.523 1469.61 630.704 1468.27 Q632.949 1465.74 633.829 1464.01 Q634.732 1462.25 634.732 1460.56 Q634.732 1457.8 632.787 1456.07 Q630.866 1454.33 627.764 1454.33 Q625.565 1454.33 623.111 1455.09 Q620.681 1455.86 617.903 1457.41 L617.903 1452.69 Q620.727 1451.55 623.181 1450.97 Q625.634 1450.39 627.671 1450.39 Q633.042 1450.39 636.236 1453.08 Q639.431 1455.77 639.431 1460.26 Q639.431 1462.39 638.62 1464.31 Q637.833 1466.2 635.727 1468.8 Q635.148 1469.47 632.046 1472.69 Q628.944 1475.88 623.296 1481.64 Z" fill="#000000" fill-rule="nonzero" fill-opacity="1"></path><path clip-path="url(#clip590)" d="M915.84 1468.75 L945.516 1468.75 L945.516 1472.69 L915.84 1472.69 L915.84 1468.75 Z" fill="#000000" fill-rule="nonzero" fill-opacity="1"></path><path clip-path="url(#clip590)" d="M956.418 1481.64 L964.057 1481.64 L964.057 1455.28 L955.747 1456.95 L955.747 1452.69 L964.011 1451.02 L968.687 1451.02 L968.687 1481.64 L976.326 1481.64 L976.326 1485.58 L956.418 1485.58 L956.418 1481.64 Z" fill="#000000" fill-rule="nonzero" fill-opacity="1"></path><path clip-path="url(#clip590)" d="M1282.61 1454.1 Q1279 1454.1 1277.17 1457.66 Q1275.36 1461.2 1275.36 1468.33 Q1275.36 1475.44 1277.17 1479.01 Q1279 1482.55 1282.61 1482.55 Q1286.24 1482.55 1288.05 1479.01 Q1289.88 1475.44 1289.88 1468.33 Q1289.88 1461.2 1288.05 1457.66 Q1286.24 1454.1 1282.61 1454.1 M1282.61 1450.39 Q1288.42 1450.39 1291.47 1455 Q1294.55 1459.58 1294.55 1468.33 Q1294.55 1477.06 1291.47 1481.67 Q1288.42 1486.25 1282.61 1486.25 Q1276.8 1486.25 1273.72 1481.67 Q1270.66 1477.06 1270.66 1468.33 Q1270.66 1459.58 1273.72 1455 Q1276.8 1450.39 1282.61 1450.39 Z" fill="#000000" fill-rule="nonzero" fill-opacity="1"></path><path clip-path="url(#clip590)" d="M1609.51 1481.64 L1617.15 1481.64 L1617.15 1455.28 L1608.84 1456.95 L1608.84 1452.69 L1617.11 1451.02 L1621.78 1451.02 L1621.78 1481.64 L1629.42 1481.64 L1629.42 1485.58 L1609.51 1485.58 L1609.51 1481.64 Z" fill="#000000" fill-rule="nonzero" fill-opacity="1"></path><path clip-path="url(#clip590)" d="M1950.31 1481.64 L1966.63 1481.64 L1966.63 1485.58 L1944.68 1485.58 L1944.68 1481.64 Q1947.35 1478.89 1951.93 1474.26 Q1956.54 1469.61 1957.72 1468.27 Q1959.96 1465.74 1960.84 1464.01 Q1961.74 1462.25 1961.74 1460.56 Q1961.74 1457.8 1959.8 1456.07 Q1957.88 1454.33 1954.78 1454.33 Q1952.58 1454.33 1950.12 1455.09 Q1947.69 1455.86 1944.92 1457.41 L1944.92 1452.69 Q1947.74 1451.55 1950.19 1450.97 Q1952.65 1450.39 1954.68 1450.39 Q1960.05 1450.39 1963.25 1453.08 Q1966.44 1455.77 1966.44 1460.26 Q1966.44 1462.39 1965.63 1464.31 Q1964.85 1466.2 1962.74 1468.8 Q1962.16 1469.47 1959.06 1472.69 Q1955.96 1475.88 1950.31 1481.64 Z" fill="#000000" fill-rule="nonzero" fill-opacity="1"></path><path clip-path="url(#clip590)" d="M2296.43 1466.95 Q2299.79 1467.66 2301.66 1469.93 Q2303.56 1472.2 2303.56 1475.53 Q2303.56 1480.65 2300.04 1483.45 Q2296.52 1486.25 2290.04 1486.25 Q2287.86 1486.25 2285.55 1485.81 Q2283.26 1485.39 2280.8 1484.54 L2280.8 1480.02 Q2282.75 1481.16 2285.06 1481.74 Q2287.38 1482.32 2289.9 1482.32 Q2294.3 1482.32 2296.59 1480.58 Q2298.91 1478.84 2298.91 1475.53 Q2298.91 1472.48 2296.75 1470.77 Q2294.62 1469.03 2290.8 1469.03 L2286.78 1469.03 L2286.78 1465.19 L2290.99 1465.19 Q2294.44 1465.19 2296.27 1463.82 Q2298.1 1462.43 2298.1 1459.84 Q2298.1 1457.18 2296.2 1455.77 Q2294.32 1454.33 2290.8 1454.33 Q2288.88 1454.33 2286.68 1454.75 Q2284.48 1455.16 2281.85 1456.04 L2281.85 1451.88 Q2284.51 1451.14 2286.82 1450.77 Q2289.16 1450.39 2291.22 1450.39 Q2296.54 1450.39 2299.65 1452.83 Q2302.75 1455.23 2302.75 1459.35 Q2302.75 1462.22 2301.11 1464.21 Q2299.46 1466.18 2296.43 1466.95 Z" fill="#000000" fill-rule="nonzero" fill-opacity="1"></path><path clip-path="url(#clip590)" d="M1299.22 1532.4 L1286.33 1549.74 L1299.89 1568.04 L1292.98 1568.04 L1282.61 1554.04 L1272.23 1568.04 L1265.32 1568.04 L1279.17 1549.39 L1266.5 1532.4 L1273.41 1532.4 L1282.86 1545.1 L1292.32 1532.4 L1299.22 1532.4 Z" fill="#000000" fill-rule="nonzero" fill-opacity="1"></path><polyline clip-path="url(#clip592)" style="stroke:#000000; stroke-linecap:round; stroke-linejoin:round; stroke-width:2; stroke-opacity:0.1; fill:none" points="212.459,1250.16 2352.76,1250.16 "></polyline>
<polyline clip-path="url(#clip592)" style="stroke:#000000; stroke-linecap:round; stroke-linejoin:round; stroke-width:2; stroke-opacity:0.1; fill:none" points="212.459,977.683 2352.76,977.683 "></polyline>
<polyline clip-path="url(#clip592)" style="stroke:#000000; stroke-linecap:round; stroke-linejoin:round; stroke-width:2; stroke-opacity:0.1; fill:none" points="212.459,705.207 2352.76,705.207 "></polyline>
<polyline clip-path="url(#clip592)" style="stroke:#000000; stroke-linecap:round; stroke-linejoin:round; stroke-width:2; stroke-opacity:0.1; fill:none" points="212.459,432.732 2352.76,432.732 "></polyline>
<polyline clip-path="url(#clip592)" style="stroke:#000000; stroke-linecap:round; stroke-linejoin:round; stroke-width:2; stroke-opacity:0.1; fill:none" points="212.459,160.256 2352.76,160.256 "></polyline>
<polyline clip-path="url(#clip590)" style="stroke:#000000; stroke-linecap:round; stroke-linejoin:round; stroke-width:4; stroke-opacity:1; fill:none" points="212.459,1423.18 212.459,123.472 "></polyline>
<polyline clip-path="url(#clip590)" style="stroke:#000000; stroke-linecap:round; stroke-linejoin:round; stroke-width:4; stroke-opacity:1; fill:none" points="212.459,1250.16 231.357,1250.16 "></polyline>
<polyline clip-path="url(#clip590)" style="stroke:#000000; stroke-linecap:round; stroke-linejoin:round; stroke-width:4; stroke-opacity:1; fill:none" points="212.459,977.683 231.357,977.683 "></polyline>
<polyline clip-path="url(#clip590)" style="stroke:#000000; stroke-linecap:round; stroke-linejoin:round; stroke-width:4; stroke-opacity:1; fill:none" points="212.459,705.207 231.357,705.207 "></polyline>
<polyline clip-path="url(#clip590)" style="stroke:#000000; stroke-linecap:round; stroke-linejoin:round; stroke-width:4; stroke-opacity:1; fill:none" points="212.459,432.732 231.357,432.732 "></polyline>
<polyline clip-path="url(#clip590)" style="stroke:#000000; stroke-linecap:round; stroke-linejoin:round; stroke-width:4; stroke-opacity:1; fill:none" points="212.459,160.256 231.357,160.256 "></polyline>
<path clip-path="url(#clip590)" d="M114.26 1250.61 L143.936 1250.61 L143.936 1254.54 L114.26 1254.54 L114.26 1250.61 Z" fill="#000000" fill-rule="nonzero" fill-opacity="1"></path><path clip-path="url(#clip590)" d="M166.876 1236.95 L155.07 1255.4 L166.876 1255.4 L166.876 1236.95 M165.649 1232.88 L171.528 1232.88 L171.528 1255.4 L176.459 1255.4 L176.459 1259.29 L171.528 1259.29 L171.528 1267.44 L166.876 1267.44 L166.876 1259.29 L151.274 1259.29 L151.274 1254.78 L165.649 1232.88 Z" fill="#000000" fill-rule="nonzero" fill-opacity="1"></path><path clip-path="url(#clip590)" d="M116.343 978.134 L146.019 978.134 L146.019 982.069 L116.343 982.069 L116.343 978.134 Z" fill="#000000" fill-rule="nonzero" fill-opacity="1"></path><path clip-path="url(#clip590)" d="M160.14 991.027 L176.459 991.027 L176.459 994.963 L154.515 994.963 L154.515 991.027 Q157.177 988.273 161.76 983.643 Q166.366 978.99 167.547 977.648 Q169.792 975.125 170.672 973.389 Q171.575 971.629 171.575 969.94 Q171.575 967.185 169.63 965.449 Q167.709 963.713 164.607 963.713 Q162.408 963.713 159.954 964.477 Q157.524 965.24 154.746 966.791 L154.746 962.069 Q157.57 960.935 160.024 960.356 Q162.477 959.778 164.515 959.778 Q169.885 959.778 173.079 962.463 Q176.274 965.148 176.274 969.639 Q176.274 971.768 175.464 973.69 Q174.677 975.588 172.57 978.18 Q171.991 978.852 168.889 982.069 Q165.788 985.264 160.14 991.027 Z" fill="#000000" fill-rule="nonzero" fill-opacity="1"></path><path clip-path="url(#clip590)" d="M164.515 691.006 Q160.903 691.006 159.075 694.571 Q157.269 698.112 157.269 705.242 Q157.269 712.348 159.075 715.913 Q160.903 719.455 164.515 719.455 Q168.149 719.455 169.954 715.913 Q171.783 712.348 171.783 705.242 Q171.783 698.112 169.954 694.571 Q168.149 691.006 164.515 691.006 M164.515 687.302 Q170.325 687.302 173.38 691.909 Q176.459 696.492 176.459 705.242 Q176.459 713.969 173.38 718.575 Q170.325 723.158 164.515 723.158 Q158.704 723.158 155.626 718.575 Q152.57 713.969 152.57 705.242 Q152.57 696.492 155.626 691.909 Q158.704 687.302 164.515 687.302 Z" fill="#000000" fill-rule="nonzero" fill-opacity="1"></path><path clip-path="url(#clip590)" d="M160.14 446.077 L176.459 446.077 L176.459 450.012 L154.515 450.012 L154.515 446.077 Q157.177 443.322 161.76 438.692 Q166.366 434.04 167.547 432.697 Q169.792 430.174 170.672 428.438 Q171.575 426.679 171.575 424.989 Q171.575 422.234 169.63 420.498 Q167.709 418.762 164.607 418.762 Q162.408 418.762 159.954 419.526 Q157.524 420.29 154.746 421.841 L154.746 417.118 Q157.57 415.984 160.024 415.405 Q162.477 414.827 164.515 414.827 Q169.885 414.827 173.079 417.512 Q176.274 420.197 176.274 424.688 Q176.274 426.817 175.464 428.739 Q174.677 430.637 172.57 433.229 Q171.991 433.901 168.889 437.118 Q165.788 440.313 160.14 446.077 Z" fill="#000000" fill-rule="nonzero" fill-opacity="1"></path><path clip-path="url(#clip590)" d="M166.876 147.05 L155.07 165.499 L166.876 165.499 L166.876 147.05 M165.649 142.976 L171.528 142.976 L171.528 165.499 L176.459 165.499 L176.459 169.388 L171.528 169.388 L171.528 177.536 L166.876 177.536 L166.876 169.388 L151.274 169.388 L151.274 164.874 L165.649 142.976 Z" fill="#000000" fill-rule="nonzero" fill-opacity="1"></path><path clip-path="url(#clip590)" d="M14.479 803.277 L19.3487 803.277 L19.3487 808.878 Q19.3487 812.029 20.6219 813.271 Q21.895 814.48 25.2052 814.48 L28.3562 814.48 L28.3562 804.836 L32.9077 804.836 L32.9077 814.48 L64.0042 814.48 L64.0042 820.369 L32.9077 820.369 L32.9077 825.97 L28.3562 825.97 L28.3562 820.369 L25.8736 820.369 Q19.9216 820.369 17.2162 817.599 Q14.479 814.83 14.479 808.815 L14.479 803.277 Z" fill="#000000" fill-rule="nonzero" fill-opacity="1"></path><path clip-path="url(#clip590)" d="M14.5426 784.307 Q21.8632 788.572 29.0246 790.641 Q36.186 792.71 43.5384 792.71 Q50.8908 792.71 58.1159 790.641 Q65.3091 788.54 72.5979 784.307 L72.5979 789.399 Q65.1182 794.174 57.8931 796.561 Q50.668 798.916 43.5384 798.916 Q36.4406 798.916 29.2474 796.561 Q22.0542 794.206 14.5426 789.399 L14.5426 784.307 Z" fill="#000000" fill-rule="nonzero" fill-opacity="1"></path><path clip-path="url(#clip590)" d="M28.3562 743.312 L45.7028 756.202 L64.0042 742.643 L64.0042 749.55 L49.9996 759.926 L64.0042 770.302 L64.0042 777.209 L45.3526 763.364 L28.3562 776.031 L28.3562 769.125 L41.0558 759.672 L28.3562 750.218 L28.3562 743.312 Z" fill="#000000" fill-rule="nonzero" fill-opacity="1"></path><path clip-path="url(#clip590)" d="M14.5426 735.291 L14.5426 730.198 Q22.0542 725.424 29.2474 723.069 Q36.4406 720.682 43.5384 720.682 Q50.668 720.682 57.8931 723.069 Q65.1182 725.424 72.5979 730.198 L72.5979 735.291 Q65.3091 731.058 58.1159 728.989 Q50.8908 726.888 43.5384 726.888 Q36.186 726.888 29.0246 728.989 Q21.8632 731.058 14.5426 735.291 Z" fill="#000000" fill-rule="nonzero" fill-opacity="1"></path><path clip-path="url(#clip590)" d="M585.73 63.9476 L585.73 47.7034 L572.362 47.7034 L572.362 40.9789 L593.832 40.9789 L593.832 66.9452 Q589.093 70.3075 583.381 72.0494 Q577.669 73.7508 571.188 73.7508 Q557.009 73.7508 548.989 65.4869 Q541.008 57.1826 541.008 42.3968 Q541.008 27.5705 548.989 19.3066 Q557.009 11.0023 571.188 11.0023 Q577.102 11.0023 582.409 12.4606 Q587.756 13.9189 592.252 16.7545 L592.252 25.464 Q587.715 21.6156 582.611 19.6712 Q577.507 17.7268 571.876 17.7268 Q560.777 17.7268 555.187 23.9246 Q549.637 30.1225 549.637 42.3968 Q549.637 54.6305 555.187 60.8284 Q560.777 67.0263 571.876 67.0263 Q576.211 67.0263 579.613 66.2971 Q583.016 65.5274 585.73 63.9476 Z" fill="#000000" fill-rule="nonzero" fill-opacity="1"></path><path clip-path="url(#clip590)" d="M608.456 9.54393 L615.91 9.54393 L615.91 72.576 L608.456 72.576 L608.456 9.54393 Z" fill="#000000" fill-rule="nonzero" fill-opacity="1"></path><path clip-path="url(#clip590)" d="M649.086 32.4315 Q643.091 32.4315 639.607 37.1306 Q636.124 41.7891 636.124 49.9314 Q636.124 58.0738 639.567 62.7728 Q643.051 67.4314 649.086 67.4314 Q655.041 67.4314 658.525 62.7323 Q662.009 58.0333 662.009 49.9314 Q662.009 41.8701 658.525 37.1711 Q655.041 32.4315 649.086 32.4315 M649.086 26.1121 Q658.809 26.1121 664.358 32.4315 Q669.908 38.7509 669.908 49.9314 Q669.908 61.0714 664.358 67.4314 Q658.809 73.7508 649.086 73.7508 Q639.324 73.7508 633.774 67.4314 Q628.265 61.0714 628.265 49.9314 Q628.265 38.7509 633.774 32.4315 Q639.324 26.1121 649.086 26.1121 Z" fill="#000000" fill-rule="nonzero" fill-opacity="1"></path><path clip-path="url(#clip590)" d="M714.833 49.9314 Q714.833 41.7081 711.43 37.0496 Q708.068 32.3505 702.153 32.3505 Q696.239 32.3505 692.836 37.0496 Q689.474 41.7081 689.474 49.9314 Q689.474 58.1548 692.836 62.8538 Q696.239 67.5124 702.153 67.5124 Q708.068 67.5124 711.43 62.8538 Q714.833 58.1548 714.833 49.9314 M689.474 34.0924 Q691.824 30.0415 695.388 28.0971 Q698.994 26.1121 703.976 26.1121 Q712.24 26.1121 717.385 32.6746 Q722.57 39.2371 722.57 49.9314 Q722.57 60.6258 717.385 67.1883 Q712.24 73.7508 703.976 73.7508 Q698.994 73.7508 695.388 71.8063 Q691.824 69.8214 689.474 65.7705 L689.474 72.576 L681.98 72.576 L681.98 9.54393 L689.474 9.54393 L689.474 34.0924 Z" fill="#000000" fill-rule="nonzero" fill-opacity="1"></path><path clip-path="url(#clip590)" d="M755.544 49.7694 Q746.511 49.7694 743.027 51.8354 Q739.543 53.9013 739.543 58.8839 Q739.543 62.8538 742.136 65.2034 Q744.769 67.5124 749.265 67.5124 Q755.463 67.5124 759.19 63.1374 Q762.957 58.7219 762.957 51.4303 L762.957 49.7694 L755.544 49.7694 M770.411 46.6907 L770.411 72.576 L762.957 72.576 L762.957 65.6895 Q760.405 69.8214 756.597 71.8063 Q752.79 73.7508 747.28 73.7508 Q740.313 73.7508 736.181 69.8619 Q732.09 65.9325 732.09 59.3701 Q732.09 51.7138 737.194 47.825 Q742.338 43.9361 752.506 43.9361 L762.957 43.9361 L762.957 43.2069 Q762.957 38.0623 759.555 35.2672 Q756.192 32.4315 750.076 32.4315 Q746.187 32.4315 742.5 33.3632 Q738.814 34.295 735.411 36.1584 L735.411 29.2718 Q739.503 27.692 743.351 26.9223 Q747.199 26.1121 750.845 26.1121 Q760.689 26.1121 765.55 31.2163 Q770.411 36.3204 770.411 46.6907 Z" fill="#000000" fill-rule="nonzero" fill-opacity="1"></path><path clip-path="url(#clip590)" d="M785.764 9.54393 L793.218 9.54393 L793.218 72.576 L785.764 72.576 L785.764 9.54393 Z" fill="#000000" fill-rule="nonzero" fill-opacity="1"></path><path clip-path="url(#clip590)" d="M835.509 12.096 L847.702 12.096 L863.136 53.2532 L878.651 12.096 L890.844 12.096 L890.844 72.576 L882.864 72.576 L882.864 19.4686 L867.268 60.9499 L859.045 60.9499 L843.449 19.4686 L843.449 72.576 L835.509 72.576 L835.509 12.096 Z" fill="#000000" fill-rule="nonzero" fill-opacity="1"></path><path clip-path="url(#clip590)" d="M927.384 49.7694 Q918.35 49.7694 914.866 51.8354 Q911.383 53.9013 911.383 58.8839 Q911.383 62.8538 913.975 65.2034 Q916.608 67.5124 921.105 67.5124 Q927.303 67.5124 931.029 63.1374 Q934.797 58.7219 934.797 51.4303 L934.797 49.7694 L927.384 49.7694 M942.25 46.6907 L942.25 72.576 L934.797 72.576 L934.797 65.6895 Q932.245 69.8214 928.437 71.8063 Q924.629 73.7508 919.12 73.7508 Q912.152 73.7508 908.02 69.8619 Q903.929 65.9325 903.929 59.3701 Q903.929 51.7138 909.033 47.825 Q914.178 43.9361 924.345 43.9361 L934.797 43.9361 L934.797 43.2069 Q934.797 38.0623 931.394 35.2672 Q928.032 32.4315 921.915 32.4315 Q918.026 32.4315 914.34 33.3632 Q910.653 34.295 907.251 36.1584 L907.251 29.2718 Q911.342 27.692 915.19 26.9223 Q919.039 26.1121 922.685 26.1121 Q932.528 26.1121 937.389 31.2163 Q942.25 36.3204 942.25 46.6907 Z" fill="#000000" fill-rule="nonzero" fill-opacity="1"></path><path clip-path="url(#clip590)" d="M995.317 27.2059 L978.911 49.2833 L996.168 72.576 L987.378 72.576 L974.172 54.752 L960.966 72.576 L952.175 72.576 L969.797 48.8377 L953.674 27.2059 L962.464 27.2059 L974.496 43.369 L986.527 27.2059 L995.317 27.2059 Z" fill="#000000" fill-rule="nonzero" fill-opacity="1"></path><path clip-path="url(#clip590)" d="M1006.7 27.2059 L1014.15 27.2059 L1014.15 72.576 L1006.7 72.576 L1006.7 27.2059 M1006.7 9.54393 L1014.15 9.54393 L1014.15 18.9825 L1006.7 18.9825 L1006.7 9.54393 Z" fill="#000000" fill-rule="nonzero" fill-opacity="1"></path><path clip-path="url(#clip590)" d="M1065.07 35.9153 Q1067.87 30.8922 1071.76 28.5022 Q1075.65 26.1121 1080.91 26.1121 Q1088 26.1121 1091.85 31.0947 Q1095.7 36.0368 1095.7 45.1919 L1095.7 72.576 L1088.2 72.576 L1088.2 45.4349 Q1088.2 38.913 1085.9 35.7533 Q1083.59 32.5936 1078.85 32.5936 Q1073.05 32.5936 1069.69 36.4419 Q1066.33 40.2903 1066.33 46.9338 L1066.33 72.576 L1058.84 72.576 L1058.84 45.4349 Q1058.84 38.8725 1056.53 35.7533 Q1054.22 32.5936 1049.4 32.5936 Q1043.69 32.5936 1040.32 36.4824 Q1036.96 40.3308 1036.96 46.9338 L1036.96 72.576 L1029.47 72.576 L1029.47 27.2059 L1036.96 27.2059 L1036.96 34.2544 Q1039.51 30.082 1043.08 28.0971 Q1046.64 26.1121 1051.54 26.1121 Q1056.49 26.1121 1059.93 28.6237 Q1063.41 31.1352 1065.07 35.9153 Z" fill="#000000" fill-rule="nonzero" fill-opacity="1"></path><path clip-path="url(#clip590)" d="M1110.57 27.2059 L1118.02 27.2059 L1118.02 72.576 L1110.57 72.576 L1110.57 27.2059 M1110.57 9.54393 L1118.02 9.54393 L1118.02 18.9825 L1110.57 18.9825 L1110.57 9.54393 Z" fill="#000000" fill-rule="nonzero" fill-opacity="1"></path><path clip-path="url(#clip590)" d="M1130.37 27.2059 L1165.78 27.2059 L1165.78 34.0114 L1137.75 66.6212 L1165.78 66.6212 L1165.78 72.576 L1129.36 72.576 L1129.36 65.7705 L1157.39 33.1607 L1130.37 33.1607 L1130.37 27.2059 Z" fill="#000000" fill-rule="nonzero" fill-opacity="1"></path><path clip-path="url(#clip590)" d="M1215.97 48.0275 L1215.97 51.6733 L1181.7 51.6733 Q1182.19 59.3701 1186.32 63.421 Q1190.49 67.4314 1197.9 67.4314 Q1202.2 67.4314 1206.21 66.3781 Q1210.26 65.3249 1214.23 63.2184 L1214.23 70.267 Q1210.22 71.9684 1206 72.8596 Q1201.79 73.7508 1197.46 73.7508 Q1186.6 73.7508 1180.24 67.4314 Q1173.92 61.1119 1173.92 50.3365 Q1173.92 39.1965 1179.92 32.6746 Q1185.95 26.1121 1196.16 26.1121 Q1205.32 26.1121 1210.62 32.0264 Q1215.97 37.9003 1215.97 48.0275 M1208.52 45.84 Q1208.44 39.7232 1205.07 36.0774 Q1201.75 32.4315 1196.24 32.4315 Q1190 32.4315 1186.24 35.9558 Q1182.51 39.4801 1181.94 45.8805 L1208.52 45.84 Z" fill="#000000" fill-rule="nonzero" fill-opacity="1"></path><path clip-path="url(#clip590)" d="M1254.49 34.1734 Q1253.24 33.4443 1251.74 33.1202 Q1250.28 32.7556 1248.5 32.7556 Q1242.18 32.7556 1238.78 36.8875 Q1235.41 40.9789 1235.41 48.6757 L1235.41 72.576 L1227.92 72.576 L1227.92 27.2059 L1235.41 27.2059 L1235.41 34.2544 Q1237.76 30.1225 1241.53 28.1376 Q1245.3 26.1121 1250.69 26.1121 Q1251.46 26.1121 1252.39 26.2337 Q1253.32 26.3147 1254.45 26.5172 L1254.49 34.1734 Z" fill="#000000" fill-rule="nonzero" fill-opacity="1"></path><path clip-path="url(#clip590)" d="M1306.26 32.4315 Q1300.27 32.4315 1296.79 37.1306 Q1293.3 41.7891 1293.3 49.9314 Q1293.3 58.0738 1296.75 62.7728 Q1300.23 67.4314 1306.26 67.4314 Q1312.22 67.4314 1315.7 62.7323 Q1319.19 58.0333 1319.19 49.9314 Q1319.19 41.8701 1315.7 37.1711 Q1312.22 32.4315 1306.26 32.4315 M1306.26 26.1121 Q1315.99 26.1121 1321.54 32.4315 Q1327.09 38.7509 1327.09 49.9314 Q1327.09 61.0714 1321.54 67.4314 Q1315.99 73.7508 1306.26 73.7508 Q1296.5 73.7508 1290.95 67.4314 Q1285.44 61.0714 1285.44 49.9314 Q1285.44 38.7509 1290.95 32.4315 Q1296.5 26.1121 1306.26 26.1121 Z" fill="#000000" fill-rule="nonzero" fill-opacity="1"></path><path clip-path="url(#clip590)" d="M1362.41 9.54393 L1362.41 15.7418 L1355.28 15.7418 Q1351.27 15.7418 1349.69 17.3622 Q1348.15 18.9825 1348.15 23.1955 L1348.15 27.2059 L1360.43 27.2059 L1360.43 32.9987 L1348.15 32.9987 L1348.15 72.576 L1340.66 72.576 L1340.66 32.9987 L1333.53 32.9987 L1333.53 27.2059 L1340.66 27.2059 L1340.66 24.0462 Q1340.66 16.471 1344.18 13.0277 Q1347.71 9.54393 1355.36 9.54393 L1362.41 9.54393 Z" fill="#000000" fill-rule="nonzero" fill-opacity="1"></path><path clip-path="url(#clip590)" d="M1417.99 9.54393 L1417.99 15.7418 L1410.86 15.7418 Q1406.85 15.7418 1405.27 17.3622 Q1403.73 18.9825 1403.73 23.1955 L1403.73 27.2059 L1416 27.2059 L1416 32.9987 L1403.73 32.9987 L1403.73 72.576 L1396.24 72.576 L1396.24 32.9987 L1389.11 32.9987 L1389.11 27.2059 L1396.24 27.2059 L1396.24 24.0462 Q1396.24 16.471 1399.76 13.0277 Q1403.28 9.54393 1410.94 9.54393 L1417.99 9.54393 Z" fill="#000000" fill-rule="nonzero" fill-opacity="1"></path><path clip-path="url(#clip590)" d="M1442.13 9.62495 Q1436.7 18.942 1434.07 28.0566 Q1431.44 37.1711 1431.44 46.5287 Q1431.44 55.8863 1434.07 65.0818 Q1436.74 74.2369 1442.13 83.5134 L1435.65 83.5134 Q1429.57 73.9938 1426.54 64.7983 Q1423.54 55.6027 1423.54 46.5287 Q1423.54 37.4952 1426.54 28.3401 Q1429.53 19.1851 1435.65 9.62495 L1442.13 9.62495 Z" fill="#000000" fill-rule="nonzero" fill-opacity="1"></path><path clip-path="url(#clip590)" d="M1494.31 27.2059 L1477.9 49.2833 L1495.16 72.576 L1486.37 72.576 L1473.16 54.752 L1459.96 72.576 L1451.17 72.576 L1468.79 48.8377 L1452.66 27.2059 L1461.45 27.2059 L1473.49 43.369 L1485.52 27.2059 L1494.31 27.2059 Z" fill="#000000" fill-rule="nonzero" fill-opacity="1"></path><path clip-path="url(#clip590)" d="M1504.52 9.62495 L1511 9.62495 Q1517.07 19.1851 1520.07 28.3401 Q1523.11 37.4952 1523.11 46.5287 Q1523.11 55.6027 1520.07 64.7983 Q1517.07 73.9938 1511 83.5134 L1504.52 83.5134 Q1509.9 74.2369 1512.54 65.0818 Q1515.21 55.8863 1515.21 46.5287 Q1515.21 37.1711 1512.54 28.0566 Q1509.9 18.942 1504.52 9.62495 Z" fill="#000000" fill-rule="nonzero" fill-opacity="1"></path><path clip-path="url(#clip590)" d="M1565.4 34.9026 L1617.33 34.9026 L1617.33 41.7081 L1565.4 41.7081 L1565.4 34.9026 M1565.4 51.4303 L1617.33 51.4303 L1617.33 58.3168 L1565.4 58.3168 L1565.4 51.4303 Z" fill="#000000" fill-rule="nonzero" fill-opacity="1"></path><path clip-path="url(#clip590)" d="M1656.55 46.5287 L1678.38 46.5287 L1678.38 53.1722 L1656.55 53.1722 L1656.55 46.5287 Z" fill="#000000" fill-rule="nonzero" fill-opacity="1"></path><path clip-path="url(#clip590)" d="M1727.96 27.2059 L1711.56 49.2833 L1728.81 72.576 L1720.02 72.576 L1706.82 54.752 L1693.61 72.576 L1684.82 72.576 L1702.44 48.8377 L1686.32 27.2059 L1695.11 27.2059 L1707.14 43.369 L1719.17 27.2059 L1727.96 27.2059 Z" fill="#000000" fill-rule="nonzero" fill-opacity="1"></path><path clip-path="url(#clip590)" d="M1770.26 12.096 L1792.25 34.6595 L1784.11 34.6595 L1766.29 18.6585 L1748.46 34.6595 L1740.32 34.6595 L1762.32 12.096 L1770.26 12.096 Z" fill="#000000" fill-rule="nonzero" fill-opacity="1"></path><path clip-path="url(#clip590)" d="M1816.96 65.6895 L1845.52 65.6895 L1845.52 72.576 L1807.12 72.576 L1807.12 65.6895 Q1811.78 60.8689 1819.8 52.7671 Q1827.86 44.6248 1829.93 42.2752 Q1833.85 37.8598 1835.39 34.8216 Q1836.97 31.7429 1836.97 28.7857 Q1836.97 23.9651 1833.57 20.927 Q1830.21 17.8888 1824.78 17.8888 Q1820.93 17.8888 1816.64 19.2256 Q1812.38 20.5624 1807.52 23.2765 L1807.52 15.0127 Q1812.47 13.0277 1816.76 12.015 Q1821.05 11.0023 1824.62 11.0023 Q1834.02 11.0023 1839.61 15.7013 Q1845.2 20.4004 1845.2 28.2591 Q1845.2 31.9859 1843.78 35.3482 Q1842.4 38.6699 1838.72 43.2069 Q1837.7 44.3817 1832.27 50.0125 Q1826.85 55.6027 1816.96 65.6895 Z" fill="#000000" fill-rule="nonzero" fill-opacity="1"></path><path clip-path="url(#clip590)" d="M1918.36 20.5624 L1918.36 43.1259 L1940.92 43.1259 L1940.92 50.0125 L1918.36 50.0125 L1918.36 72.576 L1911.55 72.576 L1911.55 50.0125 L1888.99 50.0125 L1888.99 43.1259 L1911.55 43.1259 L1911.55 20.5624 L1918.36 20.5624 Z" fill="#000000" fill-rule="nonzero" fill-opacity="1"></path><path clip-path="url(#clip590)" d="M2007.44 19.2256 L1986.78 51.5113 L2007.44 51.5113 L2007.44 19.2256 M2005.29 12.096 L2015.58 12.096 L2015.58 51.5113 L2024.21 51.5113 L2024.21 58.3168 L2015.58 58.3168 L2015.58 72.576 L2007.44 72.576 L2007.44 58.3168 L1980.13 58.3168 L1980.13 50.4176 L2005.29 12.096 Z" fill="#000000" fill-rule="nonzero" fill-opacity="1"></path><polyline clip-path="url(#clip592)" style="stroke:#009af9; stroke-linecap:round; stroke-linejoin:round; stroke-width:4; stroke-opacity:1; fill:none" points="273.033,1386.4 306.686,1306.02 340.338,1228.36 373.991,1153.43 407.643,1081.22 441.296,1011.74 474.948,944.985 508.601,880.954 542.253,819.647 575.906,761.065 609.558,705.207 643.21,652.074 676.863,601.666 710.515,553.983 744.168,509.025 777.82,466.791 811.473,427.282 845.125,390.498 878.778,356.439 912.43,325.104 946.083,296.494 979.735,270.609 1013.39,247.448 1047.04,227.013 1080.69,209.302 1114.35,194.316 1148,182.054 1181.65,172.518 1215.3,165.706 1248.95,161.619 1282.61,160.256 1316.26,161.619 1349.91,165.706 1383.56,172.518 1417.22,182.054 1450.87,194.316 1484.52,209.302 1518.17,227.013 1551.83,247.448 1585.48,270.609 1619.13,296.494 1652.78,325.104 1686.44,356.439 1720.09,390.498 1753.74,427.282 1787.39,466.791 1821.05,509.025 1854.7,553.983 1888.35,601.666 1922,652.074 1955.66,705.207 1989.31,761.065 2022.96,819.647 2056.61,880.954 2090.27,944.985 2123.92,1011.74 2157.57,1081.22 2191.22,1153.43 2224.88,1228.36 2258.53,1306.02 2292.18,1386.4 "></polyline>
<circle clip-path="url(#clip592)" cx="1282.61" cy="160.256" r="14.4" fill="#ff0000" fill-rule="evenodd" fill-opacity="1" stroke="#000000" stroke-opacity="1" stroke-width="3.2"></circle>
<path clip-path="url(#clip590)" d="M1659.68 322.316 L2281.41 322.316 L2281.41 166.796 L1659.68 166.796  Z" fill="#ffffff" fill-rule="evenodd" fill-opacity="1"></path>
<polyline clip-path="url(#clip590)" style="stroke:#000000; stroke-linecap:round; stroke-linejoin:round; stroke-width:4; stroke-opacity:1; fill:none" points="1659.68,322.316 2281.41,322.316 2281.41,166.796 1659.68,166.796 1659.68,322.316 "></polyline>
<polyline clip-path="url(#clip590)" style="stroke:#009af9; stroke-linecap:round; stroke-linejoin:round; stroke-width:4; stroke-opacity:1; fill:none" points="1683.46,218.636 1826.14,218.636 "></polyline>
<path clip-path="url(#clip590)" d="M1866.43 199.897 L1866.43 203.439 L1862.36 203.439 Q1860.06 203.439 1859.16 204.365 Q1858.28 205.291 1858.28 207.698 L1858.28 209.99 L1865.3 209.99 L1865.3 213.3 L1858.28 213.3 L1858.28 235.916 L1854 235.916 L1854 213.3 L1849.93 213.3 L1849.93 209.99 L1854 209.99 L1854 208.184 Q1854 203.856 1856.01 201.888 Q1858.03 199.897 1862.4 199.897 L1866.43 199.897 Z" fill="#000000" fill-rule="nonzero" fill-opacity="1"></path><path clip-path="url(#clip590)" d="M1880.23 199.944 Q1877.12 205.268 1875.62 210.476 Q1874.12 215.684 1874.12 221.032 Q1874.12 226.379 1875.62 231.633 Q1877.15 236.865 1880.23 242.166 L1876.52 242.166 Q1873.05 236.726 1871.31 231.471 Q1869.6 226.217 1869.6 221.032 Q1869.6 215.87 1871.31 210.638 Q1873.03 205.407 1876.52 199.944 L1880.23 199.944 Z" fill="#000000" fill-rule="nonzero" fill-opacity="1"></path><path clip-path="url(#clip590)" d="M1910.04 209.99 L1900.67 222.606 L1910.53 235.916 L1905.5 235.916 L1897.96 225.731 L1890.41 235.916 L1885.39 235.916 L1895.46 222.351 L1886.24 209.99 L1891.27 209.99 L1898.14 219.226 L1905.02 209.99 L1910.04 209.99 Z" fill="#000000" fill-rule="nonzero" fill-opacity="1"></path><path clip-path="url(#clip590)" d="M1915.87 199.944 L1919.58 199.944 Q1923.05 205.407 1924.76 210.638 Q1926.5 215.87 1926.5 221.032 Q1926.5 226.217 1924.76 231.471 Q1923.05 236.726 1919.58 242.166 L1915.87 242.166 Q1918.95 236.865 1920.46 231.633 Q1921.99 226.379 1921.99 221.032 Q1921.99 215.684 1920.46 210.476 Q1918.95 205.268 1915.87 199.944 Z" fill="#000000" fill-rule="nonzero" fill-opacity="1"></path><path clip-path="url(#clip590)" d="M1950.67 214.388 L1980.34 214.388 L1980.34 218.277 L1950.67 218.277 L1950.67 214.388 M1950.67 223.832 L1980.34 223.832 L1980.34 227.768 L1950.67 227.768 L1950.67 223.832 Z" fill="#000000" fill-rule="nonzero" fill-opacity="1"></path><path clip-path="url(#clip590)" d="M2002.75 221.032 L2015.23 221.032 L2015.23 224.828 L2002.75 224.828 L2002.75 221.032 Z" fill="#000000" fill-rule="nonzero" fill-opacity="1"></path><path clip-path="url(#clip590)" d="M2043.56 209.99 L2034.18 222.606 L2044.04 235.916 L2039.02 235.916 L2031.48 225.731 L2023.93 235.916 L2018.91 235.916 L2028.98 222.351 L2019.76 209.99 L2024.79 209.99 L2031.66 219.226 L2038.54 209.99 L2043.56 209.99 Z" fill="#000000" fill-rule="nonzero" fill-opacity="1"></path><path clip-path="url(#clip590)" d="M2067.73 201.356 L2080.29 214.249 L2075.64 214.249 L2065.46 205.106 L2055.27 214.249 L2050.62 214.249 L2063.19 201.356 L2067.73 201.356 Z" fill="#000000" fill-rule="nonzero" fill-opacity="1"></path><path clip-path="url(#clip590)" d="M2094.41 231.981 L2110.73 231.981 L2110.73 235.916 L2088.79 235.916 L2088.79 231.981 Q2091.45 229.226 2096.04 224.596 Q2100.64 219.944 2101.82 218.601 Q2104.07 216.078 2104.95 214.342 Q2105.85 212.583 2105.85 210.893 Q2105.85 208.138 2103.91 206.402 Q2101.98 204.666 2098.88 204.666 Q2096.68 204.666 2094.23 205.43 Q2091.8 206.194 2089.02 207.745 L2089.02 203.022 Q2091.85 201.888 2094.3 201.309 Q2096.75 200.731 2098.79 200.731 Q2104.16 200.731 2107.35 203.416 Q2110.55 206.101 2110.55 210.592 Q2110.55 212.721 2109.74 214.643 Q2108.95 216.541 2106.85 219.133 Q2106.27 219.805 2103.16 223.022 Q2100.06 226.217 2094.41 231.981 Z" fill="#000000" fill-rule="nonzero" fill-opacity="1"></path><path clip-path="url(#clip590)" d="M2152.35 206.194 L2152.35 219.087 L2165.25 219.087 L2165.25 223.022 L2152.35 223.022 L2152.35 235.916 L2148.47 235.916 L2148.47 223.022 L2135.57 223.022 L2135.57 219.087 L2148.47 219.087 L2148.47 206.194 L2152.35 206.194 Z" fill="#000000" fill-rule="nonzero" fill-opacity="1"></path><path clip-path="url(#clip590)" d="M2203.26 205.43 L2191.45 223.879 L2203.26 223.879 L2203.26 205.43 M2202.03 201.356 L2207.91 201.356 L2207.91 223.879 L2212.84 223.879 L2212.84 227.768 L2207.91 227.768 L2207.91 235.916 L2203.26 235.916 L2203.26 227.768 L2187.66 227.768 L2187.66 223.254 L2202.03 201.356 Z" fill="#000000" fill-rule="nonzero" fill-opacity="1"></path><circle clip-path="url(#clip590)" cx="1754.8" cy="270.476" r="20.48" fill="#ff0000" fill-rule="evenodd" fill-opacity="1" stroke="#000000" stroke-opacity="1" stroke-width="4.55111"></circle>
<path clip-path="url(#clip590)" d="M1875.48 282.825 L1875.48 273.543 L1867.84 273.543 L1867.84 269.7 L1880.11 269.7 L1880.11 284.538 Q1877.4 286.459 1874.14 287.455 Q1870.87 288.427 1867.17 288.427 Q1859.07 288.427 1854.49 283.705 Q1849.93 278.959 1849.93 270.51 Q1849.93 262.038 1854.49 257.316 Q1859.07 252.571 1867.17 252.571 Q1870.55 252.571 1873.58 253.404 Q1876.64 254.237 1879.21 255.858 L1879.21 260.835 Q1876.62 258.636 1873.7 257.524 Q1870.78 256.413 1867.56 256.413 Q1861.22 256.413 1858.03 259.955 Q1854.86 263.497 1854.86 270.51 Q1854.86 277.501 1858.03 281.043 Q1861.22 284.584 1867.56 284.584 Q1870.04 284.584 1871.99 284.168 Q1873.93 283.728 1875.48 282.825 Z" fill="#000000" fill-rule="nonzero" fill-opacity="1"></path><path clip-path="url(#clip590)" d="M1888.47 251.737 L1892.73 251.737 L1892.73 287.756 L1888.47 287.756 L1888.47 251.737 Z" fill="#000000" fill-rule="nonzero" fill-opacity="1"></path><path clip-path="url(#clip590)" d="M1911.68 264.816 Q1908.26 264.816 1906.27 267.501 Q1904.28 270.163 1904.28 274.816 Q1904.28 279.469 1906.24 282.154 Q1908.24 284.816 1911.68 284.816 Q1915.09 284.816 1917.08 282.131 Q1919.07 279.446 1919.07 274.816 Q1919.07 270.21 1917.08 267.524 Q1915.09 264.816 1911.68 264.816 M1911.68 261.205 Q1917.24 261.205 1920.41 264.816 Q1923.58 268.427 1923.58 274.816 Q1923.58 281.182 1920.41 284.816 Q1917.24 288.427 1911.68 288.427 Q1906.11 288.427 1902.93 284.816 Q1899.79 281.182 1899.79 274.816 Q1899.79 268.427 1902.93 264.816 Q1906.11 261.205 1911.68 261.205 Z" fill="#000000" fill-rule="nonzero" fill-opacity="1"></path><path clip-path="url(#clip590)" d="M1949.25 274.816 Q1949.25 270.117 1947.31 267.455 Q1945.39 264.77 1942.01 264.77 Q1938.63 264.77 1936.68 267.455 Q1934.76 270.117 1934.76 274.816 Q1934.76 279.515 1936.68 282.2 Q1938.63 284.862 1942.01 284.862 Q1945.39 284.862 1947.31 282.2 Q1949.25 279.515 1949.25 274.816 M1934.76 265.765 Q1936.11 263.45 1938.14 262.339 Q1940.2 261.205 1943.05 261.205 Q1947.77 261.205 1950.71 264.955 Q1953.67 268.705 1953.67 274.816 Q1953.67 280.927 1950.71 284.677 Q1947.77 288.427 1943.05 288.427 Q1940.2 288.427 1938.14 287.316 Q1936.11 286.182 1934.76 283.867 L1934.76 287.756 L1930.48 287.756 L1930.48 251.737 L1934.76 251.737 L1934.76 265.765 Z" fill="#000000" fill-rule="nonzero" fill-opacity="1"></path><path clip-path="url(#clip590)" d="M1972.52 274.723 Q1967.36 274.723 1965.36 275.904 Q1963.37 277.084 1963.37 279.932 Q1963.37 282.2 1964.86 283.543 Q1966.36 284.862 1968.93 284.862 Q1972.47 284.862 1974.6 282.362 Q1976.75 279.839 1976.75 275.672 L1976.75 274.723 L1972.52 274.723 M1981.01 272.964 L1981.01 287.756 L1976.75 287.756 L1976.75 283.821 Q1975.3 286.182 1973.12 287.316 Q1970.94 288.427 1967.8 288.427 Q1963.81 288.427 1961.45 286.205 Q1959.11 283.959 1959.11 280.209 Q1959.11 275.834 1962.03 273.612 Q1964.97 271.39 1970.78 271.39 L1976.75 271.39 L1976.75 270.973 Q1976.75 268.034 1974.81 266.436 Q1972.89 264.816 1969.39 264.816 Q1967.17 264.816 1965.06 265.348 Q1962.96 265.881 1961.01 266.946 L1961.01 263.01 Q1963.35 262.108 1965.55 261.668 Q1967.75 261.205 1969.83 261.205 Q1975.46 261.205 1978.23 264.122 Q1981.01 267.038 1981.01 272.964 Z" fill="#000000" fill-rule="nonzero" fill-opacity="1"></path><path clip-path="url(#clip590)" d="M1989.79 251.737 L1994.05 251.737 L1994.05 287.756 L1989.79 287.756 L1989.79 251.737 Z" fill="#000000" fill-rule="nonzero" fill-opacity="1"></path><path clip-path="url(#clip590)" d="M2018.21 253.196 L2025.18 253.196 L2034 276.714 L2042.86 253.196 L2049.83 253.196 L2049.83 287.756 L2045.27 287.756 L2045.27 257.409 L2036.36 281.112 L2031.66 281.112 L2022.75 257.409 L2022.75 287.756 L2018.21 287.756 L2018.21 253.196 Z" fill="#000000" fill-rule="nonzero" fill-opacity="1"></path><path clip-path="url(#clip590)" d="M2070.71 274.723 Q2065.55 274.723 2063.56 275.904 Q2061.57 277.084 2061.57 279.932 Q2061.57 282.2 2063.05 283.543 Q2064.55 284.862 2067.12 284.862 Q2070.67 284.862 2072.79 282.362 Q2074.95 279.839 2074.95 275.672 L2074.95 274.723 L2070.71 274.723 M2079.21 272.964 L2079.21 287.756 L2074.95 287.756 L2074.95 283.821 Q2073.49 286.182 2071.31 287.316 Q2069.14 288.427 2065.99 288.427 Q2062.01 288.427 2059.65 286.205 Q2057.31 283.959 2057.31 280.209 Q2057.31 275.834 2060.23 273.612 Q2063.17 271.39 2068.98 271.39 L2074.95 271.39 L2074.95 270.973 Q2074.95 268.034 2073 266.436 Q2071.08 264.816 2067.59 264.816 Q2065.36 264.816 2063.26 265.348 Q2061.15 265.881 2059.21 266.946 L2059.21 263.01 Q2061.54 262.108 2063.74 261.668 Q2065.94 261.205 2068.03 261.205 Q2073.65 261.205 2076.43 264.122 Q2079.21 267.038 2079.21 272.964 Z" fill="#000000" fill-rule="nonzero" fill-opacity="1"></path><path clip-path="url(#clip590)" d="M2109.53 261.83 L2100.16 274.446 L2110.02 287.756 L2104.99 287.756 L2097.45 277.571 L2089.9 287.756 L2084.88 287.756 L2094.95 274.191 L2085.73 261.83 L2090.76 261.83 L2097.63 271.066 L2104.51 261.83 L2109.53 261.83 Z" fill="#000000" fill-rule="nonzero" fill-opacity="1"></path><path clip-path="url(#clip590)" d="M2116.04 261.83 L2120.29 261.83 L2120.29 287.756 L2116.04 287.756 L2116.04 261.83 M2116.04 251.737 L2120.29 251.737 L2120.29 257.131 L2116.04 257.131 L2116.04 251.737 Z" fill="#000000" fill-rule="nonzero" fill-opacity="1"></path><path clip-path="url(#clip590)" d="M2149.39 266.807 Q2150.99 263.936 2153.21 262.571 Q2155.43 261.205 2158.44 261.205 Q2162.49 261.205 2164.69 264.052 Q2166.89 266.876 2166.89 272.108 L2166.89 287.756 L2162.61 287.756 L2162.61 272.247 Q2162.61 268.52 2161.29 266.714 Q2159.97 264.909 2157.26 264.909 Q2153.95 264.909 2152.03 267.108 Q2150.11 269.307 2150.11 273.103 L2150.11 287.756 L2145.83 287.756 L2145.83 272.247 Q2145.83 268.497 2144.51 266.714 Q2143.19 264.909 2140.43 264.909 Q2137.17 264.909 2135.25 267.131 Q2133.33 269.33 2133.33 273.103 L2133.33 287.756 L2129.04 287.756 L2129.04 261.83 L2133.33 261.83 L2133.33 265.858 Q2134.79 263.473 2136.82 262.339 Q2138.86 261.205 2141.66 261.205 Q2144.48 261.205 2146.45 262.64 Q2148.44 264.075 2149.39 266.807 Z" fill="#000000" fill-rule="nonzero" fill-opacity="1"></path><path clip-path="url(#clip590)" d="M2175.39 261.83 L2179.65 261.83 L2179.65 287.756 L2175.39 287.756 L2175.39 261.83 M2175.39 251.737 L2179.65 251.737 L2179.65 257.131 L2175.39 257.131 L2175.39 251.737 Z" fill="#000000" fill-rule="nonzero" fill-opacity="1"></path><path clip-path="url(#clip590)" d="M2186.71 261.83 L2206.94 261.83 L2206.94 265.719 L2190.92 284.353 L2206.94 284.353 L2206.94 287.756 L2186.13 287.756 L2186.13 283.867 L2202.15 265.233 L2186.71 265.233 L2186.71 261.83 Z" fill="#000000" fill-rule="nonzero" fill-opacity="1"></path><path clip-path="url(#clip590)" d="M2235.62 273.728 L2235.62 275.811 L2216.03 275.811 Q2216.31 280.209 2218.67 282.524 Q2221.06 284.816 2225.29 284.816 Q2227.75 284.816 2230.04 284.214 Q2232.35 283.612 2234.62 282.409 L2234.62 286.436 Q2232.33 287.408 2229.92 287.918 Q2227.52 288.427 2225.04 288.427 Q2218.84 288.427 2215.2 284.816 Q2211.59 281.205 2211.59 275.047 Q2211.59 268.682 2215.02 264.955 Q2218.47 261.205 2224.3 261.205 Q2229.53 261.205 2232.56 264.585 Q2235.62 267.941 2235.62 273.728 M2231.36 272.478 Q2231.31 268.983 2229.39 266.899 Q2227.49 264.816 2224.34 264.816 Q2220.78 264.816 2218.63 266.83 Q2216.5 268.844 2216.17 272.501 L2231.36 272.478 Z" fill="#000000" fill-rule="nonzero" fill-opacity="1"></path><path clip-path="url(#clip590)" d="M2257.63 265.811 Q2256.91 265.395 2256.06 265.21 Q2255.22 265.001 2254.21 265.001 Q2250.59 265.001 2248.65 267.362 Q2246.73 269.7 2246.73 274.098 L2246.73 287.756 L2242.45 287.756 L2242.45 261.83 L2246.73 261.83 L2246.73 265.858 Q2248.07 263.497 2250.22 262.362 Q2252.38 261.205 2255.46 261.205 Q2255.9 261.205 2256.43 261.274 Q2256.96 261.321 2257.61 261.436 L2257.63 265.811 Z" fill="#000000" fill-rule="nonzero" fill-opacity="1"></path></svg>