<svg xmlns="http://www.w3.org/2000/svg" xmlns:xlink="http://www.w3.org/1999/xlink" width="600" height="400" viewBox="0 0 2400 1600">
<defs>
  <clipPath id="clip710">
    <rect x="0" y="0" width="2400" height="1600"></rect>
  </clipPath>
</defs>
<path clip-path="url(#clip710)" d="M0 1600 L2400 1600 L2400 8.88178e-14 L0 8.88178e-14  Z" fill="#ffffff" fill-rule="evenodd" fill-opacity="1"></path>
<defs>
  <clipPath id="clip711">
    <rect x="480" y="0" width="1681" height="1600"></rect>
  </clipPath>
</defs>
<path clip-path="url(#clip710)" d="M212.459 1423.18 L2352.76 1423.18 L2352.76 123.472 L212.459 123.472  Z" fill="#ffffff" fill-rule="evenodd" fill-opacity="1"></path>
<defs>
  <clipPath id="clip712">
    <rect x="212" y="123" width="2141" height="1301"></rect>
  </clipPath>
</defs>
<polyline clip-path="url(#clip712)" style="stroke:#000000; stroke-linecap:round; stroke-linejoin:round; stroke-width:2; stroke-opacity:0.1; fill:none" points="497.383,1423.18 497.383,123.472 "></polyline>
<polyline clip-path="url(#clip712)" style="stroke:#000000; stroke-linecap:round; stroke-linejoin:round; stroke-width:2; stroke-opacity:0.1; fill:none" points="946.083,1423.18 946.083,123.472 "></polyline>
<polyline clip-path="url(#clip712)" style="stroke:#000000; stroke-linecap:round; stroke-linejoin:round; stroke-width:2; stroke-opacity:0.1; fill:none" points="1394.78,1423.18 1394.78,123.472 "></polyline>
<polyline clip-path="url(#clip712)" style="stroke:#000000; stroke-linecap:round; stroke-linejoin:round; stroke-width:2; stroke-opacity:0.1; fill:none" points="1843.48,1423.18 1843.48,123.472 "></polyline>
<polyline clip-path="url(#clip712)" style="stroke:#000000; stroke-linecap:round; stroke-linejoin:round; stroke-width:2; stroke-opacity:0.1; fill:none" points="2292.18,1423.18 2292.18,123.472 "></polyline>
<polyline clip-path="url(#clip710)" style="stroke:#000000; stroke-linecap:round; stroke-linejoin:round; stroke-width:4; stroke-opacity:1; fill:none" points="212.459,1423.18 2352.76,1423.18 "></polyline>
<polyline clip-path="url(#clip710)" style="stroke:#000000; stroke-linecap:round; stroke-linejoin:round; stroke-width:4; stroke-opacity:1; fill:none" points="497.383,1423.18 497.383,1404.28 "></polyline>
<polyline clip-path="url(#clip710)" style="stroke:#000000; stroke-linecap:round; stroke-linejoin:round; stroke-width:4; stroke-opacity:1; fill:none" points="946.083,1423.18 946.083,1404.28 "></polyline>
<polyline clip-path="url(#clip710)" style="stroke:#000000; stroke-linecap:round; stroke-linejoin:round; stroke-width:4; stroke-opacity:1; fill:none" points="1394.78,1423.18 1394.78,1404.28 "></polyline>
<polyline clip-path="url(#clip710)" style="stroke:#000000; stroke-linecap:round; stroke-linejoin:round; stroke-width:4; stroke-opacity:1; fill:none" points="1843.48,1423.18 1843.48,1404.28 "></polyline>
<polyline clip-path="url(#clip710)" style="stroke:#000000; stroke-linecap:round; stroke-linejoin:round; stroke-width:4; stroke-opacity:1; fill:none" points="2292.18,1423.18 2292.18,1404.28 "></polyline>
<path clip-path="url(#clip710)" d="M492.036 1481.64 L508.355 1481.64 L508.355 1485.58 L486.411 1485.58 L486.411 1481.64 Q489.073 1478.89 493.656 1474.26 Q498.263 1469.61 499.443 1468.27 Q501.689 1465.74 502.568 1464.01 Q503.471 1462.25 503.471 1460.56 Q503.471 1457.8 501.527 1456.07 Q499.605 1454.33 496.504 1454.33 Q494.304 1454.33 491.851 1455.09 Q489.42 1455.86 486.642 1457.41 L486.642 1452.69 Q489.467 1451.55 491.92 1450.97 Q494.374 1450.39 496.411 1450.39 Q501.781 1450.39 504.976 1453.08 Q508.17 1455.77 508.17 1460.26 Q508.17 1462.39 507.36 1464.31 Q506.573 1466.2 504.466 1468.8 Q503.888 1469.47 500.786 1472.69 Q497.684 1475.88 492.036 1481.64 Z" fill="#000000" fill-rule="nonzero" fill-opacity="1"></path><path clip-path="url(#clip710)" d="M949.092 1455.09 L937.286 1473.54 L949.092 1473.54 L949.092 1455.09 M947.865 1451.02 L953.745 1451.02 L953.745 1473.54 L958.675 1473.54 L958.675 1477.43 L953.745 1477.43 L953.745 1485.58 L949.092 1485.58 L949.092 1477.43 L933.49 1477.43 L933.49 1472.92 L947.865 1451.02 Z" fill="#000000" fill-rule="nonzero" fill-opacity="1"></path><path clip-path="url(#clip710)" d="M1395.19 1466.44 Q1392.04 1466.44 1390.19 1468.59 Q1388.36 1470.74 1388.36 1474.49 Q1388.36 1478.22 1390.19 1480.39 Q1392.04 1482.55 1395.19 1482.55 Q1398.34 1482.55 1400.16 1480.39 Q1402.02 1478.22 1402.02 1474.49 Q1402.02 1470.74 1400.16 1468.59 Q1398.34 1466.44 1395.19 1466.44 M1404.47 1451.78 L1404.47 1456.04 Q1402.71 1455.21 1400.9 1454.77 Q1399.12 1454.33 1397.36 1454.33 Q1392.73 1454.33 1390.28 1457.45 Q1387.85 1460.58 1387.5 1466.9 Q1388.87 1464.89 1390.93 1463.82 Q1392.99 1462.73 1395.47 1462.73 Q1400.67 1462.73 1403.68 1465.9 Q1406.72 1469.05 1406.72 1474.49 Q1406.72 1479.82 1403.57 1483.03 Q1400.42 1486.25 1395.19 1486.25 Q1389.19 1486.25 1386.02 1481.67 Q1382.85 1477.06 1382.85 1468.33 Q1382.85 1460.14 1386.74 1455.28 Q1390.63 1450.39 1397.18 1450.39 Q1398.94 1450.39 1400.72 1450.74 Q1402.53 1451.09 1404.47 1451.78 Z" fill="#000000" fill-rule="nonzero" fill-opacity="1"></path><path clip-path="url(#clip710)" d="M1843.48 1469.17 Q1840.15 1469.17 1838.23 1470.95 Q1836.33 1472.73 1836.33 1475.86 Q1836.33 1478.98 1838.23 1480.77 Q1840.15 1482.55 1843.48 1482.55 Q1846.82 1482.55 1848.74 1480.77 Q1850.66 1478.96 1850.66 1475.86 Q1850.66 1472.73 1848.74 1470.95 Q1846.84 1469.17 1843.48 1469.17 M1838.81 1467.18 Q1835.8 1466.44 1834.11 1464.38 Q1832.44 1462.32 1832.44 1459.35 Q1832.44 1455.21 1835.38 1452.8 Q1838.34 1450.39 1843.48 1450.39 Q1848.64 1450.39 1851.58 1452.8 Q1854.52 1455.21 1854.52 1459.35 Q1854.52 1462.32 1852.83 1464.38 Q1851.17 1466.44 1848.18 1467.18 Q1851.56 1467.96 1853.44 1470.26 Q1855.33 1472.55 1855.33 1475.86 Q1855.33 1480.88 1852.25 1483.57 Q1849.2 1486.25 1843.48 1486.25 Q1837.76 1486.25 1834.69 1483.57 Q1831.63 1480.88 1831.63 1475.86 Q1831.63 1472.55 1833.53 1470.26 Q1835.43 1467.96 1838.81 1467.18 M1837.09 1459.79 Q1837.09 1462.48 1838.76 1463.98 Q1840.45 1465.49 1843.48 1465.49 Q1846.49 1465.49 1848.18 1463.98 Q1849.89 1462.48 1849.89 1459.79 Q1849.89 1457.11 1848.18 1455.6 Q1846.49 1454.1 1843.48 1454.1 Q1840.45 1454.1 1838.76 1455.6 Q1837.09 1457.11 1837.09 1459.79 Z" fill="#000000" fill-rule="nonzero" fill-opacity="1"></path><path clip-path="url(#clip710)" d="M2266.87 1481.64 L2274.51 1481.64 L2274.51 1455.28 L2266.2 1456.95 L2266.2 1452.69 L2274.46 1451.02 L2279.14 1451.02 L2279.14 1481.64 L2286.78 1481.64 L2286.78 1485.58 L2266.87 1485.58 L2266.87 1481.64 Z" fill="#000000" fill-rule="nonzero" fill-opacity="1"></path><path clip-path="url(#clip710)" d="M2306.22 1454.1 Q2302.61 1454.1 2300.78 1457.66 Q2298.98 1461.2 2298.98 1468.33 Q2298.98 1475.44 2300.78 1479.01 Q2302.61 1482.55 2306.22 1482.55 Q2309.85 1482.55 2311.66 1479.01 Q2313.49 1475.44 2313.49 1468.33 Q2313.49 1461.2 2311.66 1457.66 Q2309.85 1454.1 2306.22 1454.1 M2306.22 1450.39 Q2312.03 1450.39 2315.09 1455 Q2318.17 1459.58 2318.17 1468.33 Q2318.17 1477.06 2315.09 1481.67 Q2312.03 1486.25 2306.22 1486.25 Q2300.41 1486.25 2297.33 1481.67 Q2294.28 1477.06 2294.28 1468.33 Q2294.28 1459.58 2297.33 1455 Q2300.41 1450.39 2306.22 1450.39 Z" fill="#000000" fill-rule="nonzero" fill-opacity="1"></path><path clip-path="url(#clip710)" d="M1242.92 1522.08 L1242.92 1528.35 Q1239.26 1526.6 1236.01 1525.74 Q1232.76 1524.88 1229.74 1524.88 Q1224.49 1524.88 1221.62 1526.92 Q1218.79 1528.96 1218.79 1532.71 Q1218.79 1535.87 1220.67 1537.49 Q1222.58 1539.08 1227.86 1540.07 L1231.75 1540.86 Q1238.94 1542.23 1242.34 1545.7 Q1245.78 1549.14 1245.78 1554.93 Q1245.78 1561.84 1241.13 1565.4 Q1236.52 1568.97 1227.58 1568.97 Q1224.2 1568.97 1220.38 1568.2 Q1216.6 1567.44 1212.52 1565.94 L1212.52 1559.32 Q1216.44 1561.52 1220.19 1562.63 Q1223.95 1563.75 1227.58 1563.75 Q1233.08 1563.75 1236.07 1561.58 Q1239.07 1559.42 1239.07 1555.41 Q1239.07 1551.91 1236.9 1549.93 Q1234.77 1547.96 1229.87 1546.97 L1225.95 1546.21 Q1218.76 1544.78 1215.54 1541.72 Q1212.33 1538.67 1212.33 1533.22 Q1212.33 1526.92 1216.75 1523.29 Q1221.21 1519.66 1229.01 1519.66 Q1232.35 1519.66 1235.82 1520.27 Q1239.29 1520.87 1242.92 1522.08 Z" fill="#000000" fill-rule="nonzero" fill-opacity="1"></path><path clip-path="url(#clip710)" d="M1261.35 1522.27 L1261.35 1532.4 L1273.41 1532.4 L1273.41 1536.95 L1261.35 1536.95 L1261.35 1556.3 Q1261.35 1560.66 1262.52 1561.9 Q1263.73 1563.14 1267.39 1563.14 L1273.41 1563.14 L1273.41 1568.04 L1267.39 1568.04 Q1260.61 1568.04 1258.04 1565.53 Q1255.46 1562.98 1255.46 1556.3 L1255.46 1536.95 L1251.16 1536.95 L1251.16 1532.4 L1255.46 1532.4 L1255.46 1522.27 L1261.35 1522.27 Z" fill="#000000" fill-rule="nonzero" fill-opacity="1"></path><path clip-path="url(#clip710)" d="M1311.6 1548.76 L1311.6 1551.62 L1284.68 1551.62 Q1285.06 1557.67 1288.3 1560.85 Q1291.58 1564 1297.41 1564 Q1300.78 1564 1303.93 1563.17 Q1307.12 1562.35 1310.23 1560.69 L1310.23 1566.23 Q1307.08 1567.57 1303.77 1568.27 Q1300.46 1568.97 1297.06 1568.97 Q1288.53 1568.97 1283.53 1564 Q1278.57 1559.04 1278.57 1550.57 Q1278.57 1541.82 1283.28 1536.69 Q1288.02 1531.54 1296.04 1531.54 Q1303.23 1531.54 1307.4 1536.18 Q1311.6 1540.8 1311.6 1548.76 M1305.75 1547.04 Q1305.68 1542.23 1303.04 1539.37 Q1300.43 1536.5 1296.1 1536.5 Q1291.2 1536.5 1288.24 1539.27 Q1285.31 1542.04 1284.87 1547.07 L1305.75 1547.04 Z" fill="#000000" fill-rule="nonzero" fill-opacity="1"></path><path clip-path="url(#clip710)" d="M1326.88 1562.7 L1326.88 1581.6 L1320.99 1581.6 L1320.99 1532.4 L1326.88 1532.4 L1326.88 1537.81 Q1328.73 1534.62 1331.53 1533.1 Q1334.36 1531.54 1338.28 1531.54 Q1344.77 1531.54 1348.81 1536.69 Q1352.88 1541.85 1352.88 1550.25 Q1352.88 1558.65 1348.81 1563.81 Q1344.77 1568.97 1338.28 1568.97 Q1334.36 1568.97 1331.53 1567.44 Q1328.73 1565.88 1326.88 1562.7 M1346.81 1550.25 Q1346.81 1543.79 1344.13 1540.13 Q1341.49 1536.44 1336.84 1536.44 Q1332.2 1536.44 1329.52 1540.13 Q1326.88 1543.79 1326.88 1550.25 Q1326.88 1556.71 1329.52 1560.4 Q1332.2 1564.07 1336.84 1564.07 Q1341.49 1564.07 1344.13 1560.4 Q1346.81 1556.71 1346.81 1550.25 Z" fill="#000000" fill-rule="nonzero" fill-opacity="1"></path><polyline clip-path="url(#clip712)" style="stroke:#000000; stroke-linecap:round; stroke-linejoin:round; stroke-width:2; stroke-opacity:0.1; fill:none" points="212.459,1386.4 2352.76,1386.4 "></polyline>
<polyline clip-path="url(#clip712)" style="stroke:#000000; stroke-linecap:round; stroke-linejoin:round; stroke-width:2; stroke-opacity:0.1; fill:none" points="212.459,977.683 2352.76,977.683 "></polyline>
<polyline clip-path="url(#clip712)" style="stroke:#000000; stroke-linecap:round; stroke-linejoin:round; stroke-width:2; stroke-opacity:0.1; fill:none" points="212.459,568.969 2352.76,568.969 "></polyline>
<polyline clip-path="url(#clip712)" style="stroke:#000000; stroke-linecap:round; stroke-linejoin:round; stroke-width:2; stroke-opacity:0.1; fill:none" points="212.459,160.256 2352.76,160.256 "></polyline>
<polyline clip-path="url(#clip710)" style="stroke:#000000; stroke-linecap:round; stroke-linejoin:round; stroke-width:4; stroke-opacity:1; fill:none" points="212.459,1423.18 212.459,123.472 "></polyline>
<polyline clip-path="url(#clip710)" style="stroke:#000000; stroke-linecap:round; stroke-linejoin:round; stroke-width:4; stroke-opacity:1; fill:none" points="212.459,1386.4 231.357,1386.4 "></polyline>
<polyline clip-path="url(#clip710)" style="stroke:#000000; stroke-linecap:round; stroke-linejoin:round; stroke-width:4; stroke-opacity:1; fill:none" points="212.459,977.683 231.357,977.683 "></polyline>
<polyline clip-path="url(#clip710)" style="stroke:#000000; stroke-linecap:round; stroke-linejoin:round; stroke-width:4; stroke-opacity:1; fill:none" points="212.459,568.969 231.357,568.969 "></polyline>
<polyline clip-path="url(#clip710)" style="stroke:#000000; stroke-linecap:round; stroke-linejoin:round; stroke-width:4; stroke-opacity:1; fill:none" points="212.459,160.256 231.357,160.256 "></polyline>
<path clip-path="url(#clip710)" d="M114.26 1386.85 L143.936 1386.85 L143.936 1390.78 L114.26 1390.78 L114.26 1386.85 Z" fill="#000000" fill-rule="nonzero" fill-opacity="1"></path><path clip-path="url(#clip710)" d="M166.876 1373.19 L155.07 1391.64 L166.876 1391.64 L166.876 1373.19 M165.649 1369.12 L171.528 1369.12 L171.528 1391.64 L176.459 1391.64 L176.459 1395.53 L171.528 1395.53 L171.528 1403.68 L166.876 1403.68 L166.876 1395.53 L151.274 1395.53 L151.274 1391.01 L165.649 1369.12 Z" fill="#000000" fill-rule="nonzero" fill-opacity="1"></path><path clip-path="url(#clip710)" d="M115.394 978.134 L145.07 978.134 L145.07 982.069 L115.394 982.069 L115.394 978.134 Z" fill="#000000" fill-rule="nonzero" fill-opacity="1"></path><path clip-path="url(#clip710)" d="M169.329 976.328 Q172.686 977.046 174.561 979.314 Q176.459 981.583 176.459 984.916 Q176.459 990.032 172.94 992.833 Q169.422 995.634 162.94 995.634 Q160.765 995.634 158.45 995.194 Q156.158 994.777 153.704 993.921 L153.704 989.407 Q155.649 990.541 157.964 991.12 Q160.278 991.699 162.802 991.699 Q167.2 991.699 169.491 989.963 Q171.806 988.226 171.806 984.916 Q171.806 981.861 169.653 980.148 Q167.524 978.412 163.704 978.412 L159.677 978.412 L159.677 974.569 L163.89 974.569 Q167.339 974.569 169.167 973.203 Q170.996 971.815 170.996 969.222 Q170.996 966.56 169.098 965.148 Q167.223 963.713 163.704 963.713 Q161.783 963.713 159.584 964.129 Q157.385 964.546 154.746 965.426 L154.746 961.259 Q157.408 960.518 159.723 960.148 Q162.061 959.778 164.121 959.778 Q169.445 959.778 172.547 962.208 Q175.649 964.615 175.649 968.736 Q175.649 971.606 174.005 973.597 Q172.362 975.564 169.329 976.328 Z" fill="#000000" fill-rule="nonzero" fill-opacity="1"></path><path clip-path="url(#clip710)" d="M116.343 569.421 L146.019 569.421 L146.019 573.356 L116.343 573.356 L116.343 569.421 Z" fill="#000000" fill-rule="nonzero" fill-opacity="1"></path><path clip-path="url(#clip710)" d="M160.14 582.314 L176.459 582.314 L176.459 586.249 L154.515 586.249 L154.515 582.314 Q157.177 579.56 161.76 574.93 Q166.366 570.277 167.547 568.935 Q169.792 566.412 170.672 564.675 Q171.575 562.916 171.575 561.226 Q171.575 558.472 169.63 556.736 Q167.709 555 164.607 555 Q162.408 555 159.954 555.763 Q157.524 556.527 154.746 558.078 L154.746 553.356 Q157.57 552.222 160.024 551.643 Q162.477 551.064 164.515 551.064 Q169.885 551.064 173.079 553.75 Q176.274 556.435 176.274 560.925 Q176.274 563.055 175.464 564.976 Q174.677 566.875 172.57 569.467 Q171.991 570.138 168.889 573.356 Q165.788 576.55 160.14 582.314 Z" fill="#000000" fill-rule="nonzero" fill-opacity="1"></path><path clip-path="url(#clip710)" d="M115.973 160.708 L145.649 160.708 L145.649 164.643 L115.973 164.643 L115.973 160.708 Z" fill="#000000" fill-rule="nonzero" fill-opacity="1"></path><path clip-path="url(#clip710)" d="M156.552 173.601 L164.19 173.601 L164.19 147.236 L155.88 148.902 L155.88 144.643 L164.144 142.976 L168.82 142.976 L168.82 173.601 L176.459 173.601 L176.459 177.536 L156.552 177.536 L156.552 173.601 Z" fill="#000000" fill-rule="nonzero" fill-opacity="1"></path><path clip-path="url(#clip710)" d="M21.7677 887.829 L39.6235 887.829 L39.6235 879.745 Q39.6235 875.257 37.3 872.806 Q34.9765 870.355 30.6797 870.355 Q26.4147 870.355 24.0912 872.806 Q21.7677 875.257 21.7677 879.745 L21.7677 887.829 M16.4842 894.258 L16.4842 879.745 Q16.4842 871.756 20.1126 867.682 Q23.7092 863.576 30.6797 863.576 Q37.7138 863.576 41.3104 867.682 Q44.907 871.756 44.907 879.745 L44.907 887.829 L64.0042 887.829 L64.0042 894.258 L16.4842 894.258 Z" fill="#000000" fill-rule="nonzero" fill-opacity="1"></path><path clip-path="url(#clip710)" d="M32.4621 843.715 Q32.4621 848.425 36.1542 851.163 Q39.8145 853.9 46.212 853.9 Q52.6095 853.9 56.3017 851.194 Q59.9619 848.457 59.9619 843.715 Q59.9619 839.036 56.2698 836.299 Q52.5777 833.561 46.212 833.561 Q39.8781 833.561 36.186 836.299 Q32.4621 839.036 32.4621 843.715 M27.4968 843.715 Q27.4968 836.076 32.4621 831.715 Q37.4273 827.355 46.212 827.355 Q54.9649 827.355 59.9619 831.715 Q64.9272 836.076 64.9272 843.715 Q64.9272 851.385 59.9619 855.746 Q54.9649 860.075 46.212 860.075 Q37.4273 860.075 32.4621 855.746 Q27.4968 851.385 27.4968 843.715 Z" fill="#000000" fill-rule="nonzero" fill-opacity="1"></path><path clip-path="url(#clip710)" d="M29.4065 794.922 L34.9447 794.922 Q33.6716 797.404 33.035 800.078 Q32.3984 802.751 32.3984 805.616 Q32.3984 809.977 33.7352 812.173 Q35.072 814.337 37.7456 814.337 Q39.7826 814.337 40.9603 812.777 Q42.1061 811.218 43.1565 806.507 L43.6021 804.502 Q44.9389 798.264 47.3897 795.654 Q49.8086 793.012 54.1691 793.012 Q59.1344 793.012 62.0308 796.959 Q64.9272 800.874 64.9272 807.749 Q64.9272 810.613 64.3543 813.732 Q63.8132 816.82 62.6992 820.257 L56.6518 820.257 Q58.3387 817.011 59.198 813.86 Q60.0256 810.709 60.0256 807.621 Q60.0256 803.484 58.6251 801.256 Q57.1929 799.028 54.6147 799.028 Q52.2276 799.028 50.9545 800.651 Q49.6813 802.242 48.5037 807.685 L48.0262 809.722 Q46.8804 815.165 44.5251 817.584 Q42.138 820.003 38.0002 820.003 Q32.9713 820.003 30.2341 816.438 Q27.4968 812.873 27.4968 806.316 Q27.4968 803.07 27.9743 800.205 Q28.4517 797.341 29.4065 794.922 Z" fill="#000000" fill-rule="nonzero" fill-opacity="1"></path><path clip-path="url(#clip710)" d="M28.3562 783.686 L28.3562 777.83 L64.0042 777.83 L64.0042 783.686 L28.3562 783.686 M14.479 783.686 L14.479 777.83 L21.895 777.83 L21.895 783.686 L14.479 783.686 Z" fill="#000000" fill-rule="nonzero" fill-opacity="1"></path><path clip-path="url(#clip710)" d="M18.2347 759.783 L28.3562 759.783 L28.3562 747.72 L32.9077 747.72 L32.9077 759.783 L52.2594 759.783 Q56.6199 759.783 57.8613 758.605 Q59.1026 757.396 59.1026 753.736 L59.1026 747.72 L64.0042 747.72 L64.0042 753.736 Q64.0042 760.515 61.4897 763.093 Q58.9434 765.671 52.2594 765.671 L32.9077 765.671 L32.9077 769.968 L28.3562 769.968 L28.3562 765.671 L18.2347 765.671 L18.2347 759.783 Z" fill="#000000" fill-rule="nonzero" fill-opacity="1"></path><path clip-path="url(#clip710)" d="M28.3562 740.017 L28.3562 734.161 L64.0042 734.161 L64.0042 740.017 L28.3562 740.017 M14.479 740.017 L14.479 734.161 L21.895 734.161 L21.895 740.017 L14.479 740.017 Z" fill="#000000" fill-rule="nonzero" fill-opacity="1"></path><path clip-path="url(#clip710)" d="M32.4621 708.093 Q32.4621 712.804 36.1542 715.541 Q39.8145 718.279 46.212 718.279 Q52.6095 718.279 56.3017 715.573 Q59.9619 712.836 59.9619 708.093 Q59.9619 703.415 56.2698 700.677 Q52.5777 697.94 46.212 697.94 Q39.8781 697.94 36.186 700.677 Q32.4621 703.415 32.4621 708.093 M27.4968 708.093 Q27.4968 700.455 32.4621 696.094 Q37.4273 691.734 46.212 691.734 Q54.9649 691.734 59.9619 696.094 Q64.9272 700.455 64.9272 708.093 Q64.9272 715.764 59.9619 720.125 Q54.9649 724.453 46.212 724.453 Q37.4273 724.453 32.4621 720.125 Q27.4968 715.764 27.4968 708.093 Z" fill="#000000" fill-rule="nonzero" fill-opacity="1"></path><path clip-path="url(#clip710)" d="M42.4881 652.393 L64.0042 652.393 L64.0042 658.25 L42.679 658.25 Q37.6183 658.25 35.1038 660.223 Q32.5894 662.197 32.5894 666.143 Q32.5894 670.886 35.6131 673.623 Q38.6368 676.36 43.8567 676.36 L64.0042 676.36 L64.0042 682.249 L28.3562 682.249 L28.3562 676.36 L33.8944 676.36 Q30.6797 674.26 29.0883 671.427 Q27.4968 668.562 27.4968 664.838 Q27.4968 658.696 31.3163 655.544 Q35.1038 652.393 42.4881 652.393 Z" fill="#000000" fill-rule="nonzero" fill-opacity="1"></path><path clip-path="url(#clip710)" d="M777.865 65.6895 L791.233 65.6895 L791.233 19.5497 L776.69 22.4663 L776.69 15.0127 L791.152 12.096 L799.335 12.096 L799.335 65.6895 L812.703 65.6895 L812.703 72.576 L777.865 72.576 L777.865 65.6895 Z" fill="#000000" fill-rule="nonzero" fill-opacity="1"></path><path clip-path="url(#clip710)" d="M836.684 18.8205 L836.684 65.8515 L846.568 65.8515 Q859.085 65.8515 864.878 60.1802 Q870.711 54.509 870.711 42.2752 Q870.711 30.1225 864.878 24.4918 Q859.085 18.8205 846.568 18.8205 L836.684 18.8205 M828.501 12.096 L845.312 12.096 Q862.893 12.096 871.117 19.4281 Q879.34 26.7198 879.34 42.2752 Q879.34 57.9117 871.076 65.2439 Q862.812 72.576 845.312 72.576 L828.501 72.576 L828.501 12.096 Z" fill="#000000" fill-rule="nonzero" fill-opacity="1"></path><path clip-path="url(#clip710)" d="M955.011 14.0809 L955.011 22.0612 Q950.352 19.8332 946.22 18.7395 Q942.088 17.6457 938.24 17.6457 Q931.556 17.6457 927.91 20.2383 Q924.305 22.8309 924.305 27.611 Q924.305 31.6214 926.695 33.6873 Q929.125 35.7128 935.85 36.9686 L940.792 37.9813 Q949.947 39.7232 954.282 44.1387 Q958.657 48.5136 958.657 55.8863 Q958.657 64.6767 952.742 69.2137 Q946.868 73.7508 935.485 73.7508 Q931.191 73.7508 926.33 72.7785 Q921.51 71.8063 916.325 69.9024 L916.325 61.4765 Q921.307 64.2716 926.087 65.6895 Q930.867 67.1073 935.485 67.1073 Q942.493 67.1073 946.301 64.3527 Q950.109 61.598 950.109 56.4939 Q950.109 52.0379 947.355 49.5264 Q944.64 47.0148 938.402 45.759 L933.419 44.7868 Q924.264 42.9639 920.173 39.075 Q916.082 35.1862 916.082 28.2591 Q916.082 20.2383 921.712 15.6203 Q927.384 11.0023 937.308 11.0023 Q941.562 11.0023 945.977 11.7719 Q950.393 12.5416 955.011 14.0809 Z" fill="#000000" fill-rule="nonzero" fill-opacity="1"></path><path clip-path="url(#clip710)" d="M971.093 27.2059 L978.547 27.2059 L978.547 72.576 L971.093 72.576 L971.093 27.2059 M971.093 9.54393 L978.547 9.54393 L978.547 18.9825 L971.093 18.9825 L971.093 9.54393 Z" fill="#000000" fill-rule="nonzero" fill-opacity="1"></path><path clip-path="url(#clip710)" d="M1029.47 35.9153 Q1032.26 30.8922 1036.15 28.5022 Q1040.04 26.1121 1045.31 26.1121 Q1052.39 26.1121 1056.24 31.0947 Q1060.09 36.0368 1060.09 45.1919 L1060.09 72.576 L1052.6 72.576 L1052.6 45.4349 Q1052.6 38.913 1050.29 35.7533 Q1047.98 32.5936 1043.24 32.5936 Q1037.45 32.5936 1034.08 36.4419 Q1030.72 40.2903 1030.72 46.9338 L1030.72 72.576 L1023.23 72.576 L1023.23 45.4349 Q1023.23 38.8725 1020.92 35.7533 Q1018.61 32.5936 1013.79 32.5936 Q1008.08 32.5936 1004.72 36.4824 Q1001.35 40.3308 1001.35 46.9338 L1001.35 72.576 L993.859 72.576 L993.859 27.2059 L1001.35 27.2059 L1001.35 34.2544 Q1003.91 30.082 1007.47 28.0971 Q1011.03 26.1121 1015.94 26.1121 Q1020.88 26.1121 1024.32 28.6237 Q1027.81 31.1352 1029.47 35.9153 Z" fill="#000000" fill-rule="nonzero" fill-opacity="1"></path><path clip-path="url(#clip710)" d="M1082.17 65.7705 L1082.17 89.8329 L1074.67 89.8329 L1074.67 27.2059 L1082.17 27.2059 L1082.17 34.0924 Q1084.52 30.0415 1088.08 28.0971 Q1091.69 26.1121 1096.67 26.1121 Q1104.93 26.1121 1110.08 32.6746 Q1115.26 39.2371 1115.26 49.9314 Q1115.26 60.6258 1110.08 67.1883 Q1104.93 73.7508 1096.67 73.7508 Q1091.69 73.7508 1088.08 71.8063 Q1084.52 69.8214 1082.17 65.7705 M1107.53 49.9314 Q1107.53 41.7081 1104.12 37.0496 Q1100.76 32.3505 1094.85 32.3505 Q1088.93 32.3505 1085.53 37.0496 Q1082.17 41.7081 1082.17 49.9314 Q1082.17 58.1548 1085.53 62.8538 Q1088.93 67.5124 1094.85 67.5124 Q1100.76 67.5124 1104.12 62.8538 Q1107.53 58.1548 1107.53 49.9314 Z" fill="#000000" fill-rule="nonzero" fill-opacity="1"></path><path clip-path="url(#clip710)" d="M1127.62 9.54393 L1135.07 9.54393 L1135.07 72.576 L1127.62 72.576 L1127.62 9.54393 Z" fill="#000000" fill-rule="nonzero" fill-opacity="1"></path><path clip-path="url(#clip710)" d="M1189.48 48.0275 L1189.48 51.6733 L1155.21 51.6733 Q1155.69 59.3701 1159.82 63.421 Q1164 67.4314 1171.41 67.4314 Q1175.7 67.4314 1179.71 66.3781 Q1183.77 65.3249 1187.74 63.2184 L1187.74 70.267 Q1183.72 71.9684 1179.51 72.8596 Q1175.3 73.7508 1170.96 73.7508 Q1160.11 73.7508 1153.75 67.4314 Q1147.43 61.1119 1147.43 50.3365 Q1147.43 39.1965 1153.42 32.6746 Q1159.46 26.1121 1169.67 26.1121 Q1178.82 26.1121 1184.13 32.0264 Q1189.48 37.9003 1189.48 48.0275 M1182.02 45.84 Q1181.94 39.7232 1178.58 36.0774 Q1175.26 32.4315 1169.75 32.4315 Q1163.51 32.4315 1159.74 35.9558 Q1156.02 39.4801 1155.45 45.8805 L1182.02 45.84 Z" fill="#000000" fill-rule="nonzero" fill-opacity="1"></path><path clip-path="url(#clip710)" d="M1257.09 44.2197 Q1259.72 45.1109 1262.19 48.0275 Q1264.7 50.9442 1267.21 56.0483 L1275.52 72.576 L1266.73 72.576 L1258.99 57.061 Q1255.99 50.9847 1253.16 48.9997 Q1250.36 47.0148 1245.5 47.0148 L1236.59 47.0148 L1236.59 72.576 L1228.41 72.576 L1228.41 12.096 L1246.88 12.096 Q1257.25 12.096 1262.35 16.4305 Q1267.46 20.7649 1267.46 29.5149 Q1267.46 35.2267 1264.78 38.994 Q1262.15 42.7613 1257.09 44.2197 M1236.59 18.8205 L1236.59 40.2903 L1246.88 40.2903 Q1252.79 40.2903 1255.79 37.5762 Q1258.83 34.8216 1258.83 29.5149 Q1258.83 24.2082 1255.79 21.5346 Q1252.79 18.8205 1246.88 18.8205 L1236.59 18.8205 Z" fill="#000000" fill-rule="nonzero" fill-opacity="1"></path><path clip-path="url(#clip710)" d="M1304.52 49.7694 Q1295.49 49.7694 1292.01 51.8354 Q1288.52 53.9013 1288.52 58.8839 Q1288.52 62.8538 1291.11 65.2034 Q1293.75 67.5124 1298.24 67.5124 Q1304.44 67.5124 1308.17 63.1374 Q1311.94 58.7219 1311.94 51.4303 L1311.94 49.7694 L1304.52 49.7694 M1319.39 46.6907 L1319.39 72.576 L1311.94 72.576 L1311.94 65.6895 Q1309.38 69.8214 1305.58 71.8063 Q1301.77 73.7508 1296.26 73.7508 Q1289.29 73.7508 1285.16 69.8619 Q1281.07 65.9325 1281.07 59.3701 Q1281.07 51.7138 1286.17 47.825 Q1291.32 43.9361 1301.48 43.9361 L1311.94 43.9361 L1311.94 43.2069 Q1311.94 38.0623 1308.53 35.2672 Q1305.17 32.4315 1299.05 32.4315 Q1295.17 32.4315 1291.48 33.3632 Q1287.79 34.295 1284.39 36.1584 L1284.39 29.2718 Q1288.48 27.692 1292.33 26.9223 Q1296.18 26.1121 1299.82 26.1121 Q1309.67 26.1121 1314.53 31.2163 Q1319.39 36.3204 1319.39 46.6907 Z" fill="#000000" fill-rule="nonzero" fill-opacity="1"></path><path clip-path="url(#clip710)" d="M1372.46 45.1919 L1372.46 72.576 L1365 72.576 L1365 45.4349 Q1365 38.994 1362.49 35.7938 Q1359.98 32.5936 1354.96 32.5936 Q1348.92 32.5936 1345.44 36.4419 Q1341.95 40.2903 1341.95 46.9338 L1341.95 72.576 L1334.46 72.576 L1334.46 27.2059 L1341.95 27.2059 L1341.95 34.2544 Q1344.63 30.163 1348.23 28.1376 Q1351.88 26.1121 1356.62 26.1121 Q1364.44 26.1121 1368.45 30.9732 Q1372.46 35.7938 1372.46 45.1919 Z" fill="#000000" fill-rule="nonzero" fill-opacity="1"></path><path clip-path="url(#clip710)" d="M1417.18 34.0924 L1417.18 9.54393 L1424.63 9.54393 L1424.63 72.576 L1417.18 72.576 L1417.18 65.7705 Q1414.83 69.8214 1411.22 71.8063 Q1407.66 73.7508 1402.64 73.7508 Q1394.41 73.7508 1389.23 67.1883 Q1384.08 60.6258 1384.08 49.9314 Q1384.08 39.2371 1389.23 32.6746 Q1394.41 26.1121 1402.64 26.1121 Q1407.66 26.1121 1411.22 28.0971 Q1414.83 30.0415 1417.18 34.0924 M1391.78 49.9314 Q1391.78 58.1548 1395.14 62.8538 Q1398.54 67.5124 1404.46 67.5124 Q1410.37 67.5124 1413.78 62.8538 Q1417.18 58.1548 1417.18 49.9314 Q1417.18 41.7081 1413.78 37.0496 Q1410.37 32.3505 1404.46 32.3505 Q1398.54 32.3505 1395.14 37.0496 Q1391.78 41.7081 1391.78 49.9314 Z" fill="#000000" fill-rule="nonzero" fill-opacity="1"></path><path clip-path="url(#clip710)" d="M1457.57 32.4315 Q1451.57 32.4315 1448.09 37.1306 Q1444.6 41.7891 1444.6 49.9314 Q1444.6 58.0738 1448.05 62.7728 Q1451.53 67.4314 1457.57 67.4314 Q1463.52 67.4314 1467 62.7323 Q1470.49 58.0333 1470.49 49.9314 Q1470.49 41.8701 1467 37.1711 Q1463.52 32.4315 1457.57 32.4315 M1457.57 26.1121 Q1467.29 26.1121 1472.84 32.4315 Q1478.39 38.7509 1478.39 49.9314 Q1478.39 61.0714 1472.84 67.4314 Q1467.29 73.7508 1457.57 73.7508 Q1447.8 73.7508 1442.25 67.4314 Q1436.74 61.0714 1436.74 49.9314 Q1436.74 38.7509 1442.25 32.4315 Q1447.8 26.1121 1457.57 26.1121 Z" fill="#000000" fill-rule="nonzero" fill-opacity="1"></path><path clip-path="url(#clip710)" d="M1526.07 35.9153 Q1528.86 30.8922 1532.75 28.5022 Q1536.64 26.1121 1541.91 26.1121 Q1548.99 26.1121 1552.84 31.0947 Q1556.69 36.0368 1556.69 45.1919 L1556.69 72.576 L1549.2 72.576 L1549.2 45.4349 Q1549.2 38.913 1546.89 35.7533 Q1544.58 32.5936 1539.84 32.5936 Q1534.05 32.5936 1530.68 36.4419 Q1527.32 40.2903 1527.32 46.9338 L1527.32 72.576 L1519.83 72.576 L1519.83 45.4349 Q1519.83 38.8725 1517.52 35.7533 Q1515.21 32.5936 1510.39 32.5936 Q1504.68 32.5936 1501.32 36.4824 Q1497.95 40.3308 1497.95 46.9338 L1497.95 72.576 L1490.46 72.576 L1490.46 27.2059 L1497.95 27.2059 L1497.95 34.2544 Q1500.51 30.082 1504.07 28.0971 Q1507.64 26.1121 1512.54 26.1121 Q1517.48 26.1121 1520.92 28.6237 Q1524.41 31.1352 1526.07 35.9153 Z" fill="#000000" fill-rule="nonzero" fill-opacity="1"></path><path clip-path="url(#clip710)" d="M1592.87 12.096 L1601.13 12.096 L1613.85 63.2184 L1626.53 12.096 L1635.72 12.096 L1648.44 63.2184 L1661.12 12.096 L1669.43 12.096 L1654.24 72.576 L1643.95 72.576 L1631.19 20.0763 L1618.31 72.576 L1608.02 72.576 L1592.87 12.096 Z" fill="#000000" fill-rule="nonzero" fill-opacity="1"></path><path clip-path="url(#clip710)" d="M1695.27 49.7694 Q1686.24 49.7694 1682.76 51.8354 Q1679.27 53.9013 1679.27 58.8839 Q1679.27 62.8538 1681.86 65.2034 Q1684.5 67.5124 1688.99 67.5124 Q1695.19 67.5124 1698.92 63.1374 Q1702.69 58.7219 1702.69 51.4303 L1702.69 49.7694 L1695.27 49.7694 M1710.14 46.6907 L1710.14 72.576 L1702.69 72.576 L1702.69 65.6895 Q1700.13 69.8214 1696.33 71.8063 Q1692.52 73.7508 1687.01 73.7508 Q1680.04 73.7508 1675.91 69.8619 Q1671.82 65.9325 1671.82 59.3701 Q1671.82 51.7138 1676.92 47.825 Q1682.07 43.9361 1692.23 43.9361 L1702.69 43.9361 L1702.69 43.2069 Q1702.69 38.0623 1699.28 35.2672 Q1695.92 32.4315 1689.8 32.4315 Q1685.92 32.4315 1682.23 33.3632 Q1678.54 34.295 1675.14 36.1584 L1675.14 29.2718 Q1679.23 27.692 1683.08 26.9223 Q1686.93 26.1121 1690.57 26.1121 Q1700.42 26.1121 1705.28 31.2163 Q1710.14 36.3204 1710.14 46.6907 Z" fill="#000000" fill-rule="nonzero" fill-opacity="1"></path><path clip-path="url(#clip710)" d="M1725.49 9.54393 L1732.95 9.54393 L1732.95 72.576 L1725.49 72.576 L1725.49 9.54393 Z" fill="#000000" fill-rule="nonzero" fill-opacity="1"></path><path clip-path="url(#clip710)" d="M1748.26 9.54393 L1755.75 9.54393 L1755.75 46.7717 L1777.99 27.2059 L1787.51 27.2059 L1763.45 48.4326 L1788.52 72.576 L1778.8 72.576 L1755.75 50.4176 L1755.75 72.576 L1748.26 72.576 L1748.26 9.54393 Z" fill="#000000" fill-rule="nonzero" fill-opacity="1"></path><polyline clip-path="url(#clip712)" style="stroke:#009af9; stroke-linecap:round; stroke-linejoin:round; stroke-width:4; stroke-opacity:1; fill:none" points="273.033,160.256 497.383,568.969 721.733,977.683 946.083,568.969 1170.43,977.683 1394.78,1386.4 1619.13,977.683 1843.48,1386.4 2067.83,977.683 2292.18,1386.4 "></polyline>
<path clip-path="url(#clip710)" d="M1747.32 270.476 L2281.41 270.476 L2281.41 166.796 L1747.32 166.796  Z" fill="#ffffff" fill-rule="evenodd" fill-opacity="1"></path>
<polyline clip-path="url(#clip710)" style="stroke:#000000; stroke-linecap:round; stroke-linejoin:round; stroke-width:4; stroke-opacity:1; fill:none" points="1747.32,270.476 2281.41,270.476 2281.41,166.796 1747.32,166.796 1747.32,270.476 "></polyline>
<polyline clip-path="url(#clip710)" style="stroke:#009af9; stroke-linecap:round; stroke-linejoin:round; stroke-width:4; stroke-opacity:1; fill:none" points="1771.1,218.636 1913.78,218.636 "></polyline>
<path clip-path="url(#clip710)" d="M1953.95 219.712 Q1955.46 220.221 1956.87 221.888 Q1958.3 223.555 1959.74 226.471 L1964.49 235.916 L1959.46 235.916 L1955.04 227.05 Q1953.33 223.578 1951.71 222.444 Q1950.11 221.309 1947.33 221.309 L1942.24 221.309 L1942.24 235.916 L1937.56 235.916 L1937.56 201.356 L1948.12 201.356 Q1954.05 201.356 1956.96 203.833 Q1959.88 206.309 1959.88 211.309 Q1959.88 214.573 1958.35 216.726 Q1956.85 218.879 1953.95 219.712 M1942.24 205.198 L1942.24 217.467 L1948.12 217.467 Q1951.5 217.467 1953.21 215.916 Q1954.95 214.342 1954.95 211.309 Q1954.95 208.277 1953.21 206.749 Q1951.5 205.198 1948.12 205.198 L1942.24 205.198 Z" fill="#000000" fill-rule="nonzero" fill-opacity="1"></path><path clip-path="url(#clip710)" d="M1981.06 222.883 Q1975.9 222.883 1973.91 224.064 Q1971.92 225.244 1971.92 228.092 Q1971.92 230.36 1973.4 231.703 Q1974.9 233.022 1977.47 233.022 Q1981.01 233.022 1983.14 230.522 Q1985.3 227.999 1985.3 223.832 L1985.3 222.883 L1981.06 222.883 M1989.55 221.124 L1989.55 235.916 L1985.3 235.916 L1985.3 231.981 Q1983.84 234.342 1981.66 235.476 Q1979.48 236.587 1976.34 236.587 Q1972.36 236.587 1969.99 234.365 Q1967.66 232.119 1967.66 228.369 Q1967.66 223.994 1970.57 221.772 Q1973.51 219.55 1979.32 219.55 L1985.3 219.55 L1985.3 219.133 Q1985.3 216.194 1983.35 214.596 Q1981.43 212.976 1977.93 212.976 Q1975.71 212.976 1973.61 213.508 Q1971.5 214.041 1969.55 215.106 L1969.55 211.17 Q1971.89 210.268 1974.09 209.828 Q1976.29 209.365 1978.37 209.365 Q1984 209.365 1986.78 212.282 Q1989.55 215.198 1989.55 221.124 Z" fill="#000000" fill-rule="nonzero" fill-opacity="1"></path><path clip-path="url(#clip710)" d="M2019.88 220.268 L2019.88 235.916 L2015.62 235.916 L2015.62 220.407 Q2015.62 216.726 2014.18 214.897 Q2012.75 213.069 2009.88 213.069 Q2006.43 213.069 2004.44 215.268 Q2002.45 217.467 2002.45 221.263 L2002.45 235.916 L1998.17 235.916 L1998.17 209.99 L2002.45 209.99 L2002.45 214.018 Q2003.98 211.68 2006.04 210.522 Q2008.12 209.365 2010.83 209.365 Q2015.29 209.365 2017.59 212.143 Q2019.88 214.897 2019.88 220.268 Z" fill="#000000" fill-rule="nonzero" fill-opacity="1"></path><path clip-path="url(#clip710)" d="M2045.43 213.925 L2045.43 199.897 L2049.69 199.897 L2049.69 235.916 L2045.43 235.916 L2045.43 232.027 Q2044.09 234.342 2042.03 235.476 Q2039.99 236.587 2037.12 236.587 Q2032.42 236.587 2029.46 232.837 Q2026.52 229.087 2026.52 222.976 Q2026.52 216.865 2029.46 213.115 Q2032.42 209.365 2037.12 209.365 Q2039.99 209.365 2042.03 210.499 Q2044.09 211.61 2045.43 213.925 M2030.92 222.976 Q2030.92 227.675 2032.84 230.36 Q2034.79 233.022 2038.17 233.022 Q2041.54 233.022 2043.49 230.36 Q2045.43 227.675 2045.43 222.976 Q2045.43 218.277 2043.49 215.615 Q2041.54 212.93 2038.17 212.93 Q2034.79 212.93 2032.84 215.615 Q2030.92 218.277 2030.92 222.976 Z" fill="#000000" fill-rule="nonzero" fill-opacity="1"></path><path clip-path="url(#clip710)" d="M2068.51 212.976 Q2065.09 212.976 2063.1 215.661 Q2061.1 218.323 2061.1 222.976 Q2061.1 227.629 2063.07 230.314 Q2065.06 232.976 2068.51 232.976 Q2071.91 232.976 2073.91 230.291 Q2075.9 227.606 2075.9 222.976 Q2075.9 218.37 2073.91 215.684 Q2071.91 212.976 2068.51 212.976 M2068.51 209.365 Q2074.07 209.365 2077.24 212.976 Q2080.41 216.587 2080.41 222.976 Q2080.41 229.342 2077.24 232.976 Q2074.07 236.587 2068.51 236.587 Q2062.93 236.587 2059.76 232.976 Q2056.61 229.342 2056.61 222.976 Q2056.61 216.587 2059.76 212.976 Q2062.93 209.365 2068.51 209.365 Z" fill="#000000" fill-rule="nonzero" fill-opacity="1"></path><path clip-path="url(#clip710)" d="M2107.66 214.967 Q2109.25 212.096 2111.47 210.731 Q2113.7 209.365 2116.71 209.365 Q2120.76 209.365 2122.96 212.212 Q2125.16 215.036 2125.16 220.268 L2125.16 235.916 L2120.87 235.916 L2120.87 220.407 Q2120.87 216.68 2119.55 214.874 Q2118.23 213.069 2115.53 213.069 Q2112.22 213.069 2110.29 215.268 Q2108.37 217.467 2108.37 221.263 L2108.37 235.916 L2104.09 235.916 L2104.09 220.407 Q2104.09 216.657 2102.77 214.874 Q2101.45 213.069 2098.7 213.069 Q2095.43 213.069 2093.51 215.291 Q2091.59 217.49 2091.59 221.263 L2091.59 235.916 L2087.31 235.916 L2087.31 209.99 L2091.59 209.99 L2091.59 214.018 Q2093.05 211.633 2095.09 210.499 Q2097.12 209.365 2099.92 209.365 Q2102.75 209.365 2104.72 210.8 Q2106.71 212.235 2107.66 214.967 Z" fill="#000000" fill-rule="nonzero" fill-opacity="1"></path><path clip-path="url(#clip710)" d="M2145.83 201.356 L2150.55 201.356 L2157.82 230.569 L2165.06 201.356 L2170.32 201.356 L2177.59 230.569 L2184.83 201.356 L2189.58 201.356 L2180.9 235.916 L2175.02 235.916 L2167.72 205.916 L2160.36 235.916 L2154.48 235.916 L2145.83 201.356 Z" fill="#000000" fill-rule="nonzero" fill-opacity="1"></path><path clip-path="url(#clip710)" d="M2204.34 222.883 Q2199.18 222.883 2197.19 224.064 Q2195.2 225.244 2195.2 228.092 Q2195.2 230.36 2196.68 231.703 Q2198.19 233.022 2200.76 233.022 Q2204.3 233.022 2206.43 230.522 Q2208.58 227.999 2208.58 223.832 L2208.58 222.883 L2204.34 222.883 M2212.84 221.124 L2212.84 235.916 L2208.58 235.916 L2208.58 231.981 Q2207.12 234.342 2204.95 235.476 Q2202.77 236.587 2199.62 236.587 Q2195.64 236.587 2193.28 234.365 Q2190.94 232.119 2190.94 228.369 Q2190.94 223.994 2193.86 221.772 Q2196.8 219.55 2202.61 219.55 L2208.58 219.55 L2208.58 219.133 Q2208.58 216.194 2206.64 214.596 Q2204.72 212.976 2201.22 212.976 Q2199 212.976 2196.89 213.508 Q2194.78 214.041 2192.84 215.106 L2192.84 211.17 Q2195.18 210.268 2197.38 209.828 Q2199.58 209.365 2201.66 209.365 Q2207.28 209.365 2210.06 212.282 Q2212.84 215.198 2212.84 221.124 Z" fill="#000000" fill-rule="nonzero" fill-opacity="1"></path><path clip-path="url(#clip710)" d="M2221.61 199.897 L2225.87 199.897 L2225.87 235.916 L2221.61 235.916 L2221.61 199.897 Z" fill="#000000" fill-rule="nonzero" fill-opacity="1"></path><path clip-path="url(#clip710)" d="M2234.62 199.897 L2238.9 199.897 L2238.9 221.17 L2251.61 209.99 L2257.05 209.99 L2243.3 222.119 L2257.63 235.916 L2252.08 235.916 L2238.9 223.254 L2238.9 235.916 L2234.62 235.916 L2234.62 199.897 Z" fill="#000000" fill-rule="nonzero" fill-opacity="1"></path></svg>